G75*
%MOIN*%
%OFA0B0*%
%FSLAX25Y25*%
%IPPOS*%
%LPD*%
%AMOC8*
5,1,8,0,0,1.08239X$1,22.5*
%
%ADD10C,0.00600*%
D10*
X0129508Y0102234D02*
X0135908Y0102234D01*
X0135908Y0104012D01*
X0135909Y0104012D02*
X0135907Y0104076D01*
X0135901Y0104141D01*
X0135892Y0104204D01*
X0135878Y0104267D01*
X0135861Y0104329D01*
X0135840Y0104390D01*
X0135815Y0104450D01*
X0135787Y0104508D01*
X0135755Y0104564D01*
X0135720Y0104618D01*
X0135682Y0104670D01*
X0135641Y0104720D01*
X0135596Y0104766D01*
X0135550Y0104811D01*
X0135500Y0104852D01*
X0135448Y0104890D01*
X0135394Y0104925D01*
X0135338Y0104957D01*
X0135280Y0104985D01*
X0135220Y0105010D01*
X0135159Y0105031D01*
X0135097Y0105048D01*
X0135034Y0105062D01*
X0134971Y0105071D01*
X0134906Y0105077D01*
X0134842Y0105079D01*
X0134842Y0105078D02*
X0132708Y0105078D01*
X0132708Y0105079D02*
X0132644Y0105077D01*
X0132579Y0105071D01*
X0132516Y0105062D01*
X0132453Y0105048D01*
X0132391Y0105031D01*
X0132330Y0105010D01*
X0132270Y0104985D01*
X0132212Y0104957D01*
X0132156Y0104925D01*
X0132102Y0104890D01*
X0132050Y0104852D01*
X0132000Y0104811D01*
X0131954Y0104766D01*
X0131909Y0104720D01*
X0131868Y0104670D01*
X0131830Y0104618D01*
X0131795Y0104564D01*
X0131763Y0104508D01*
X0131735Y0104450D01*
X0131710Y0104390D01*
X0131689Y0104329D01*
X0131672Y0104267D01*
X0131658Y0104204D01*
X0131649Y0104141D01*
X0131643Y0104076D01*
X0131641Y0104012D01*
X0131642Y0104012D02*
X0131642Y0102234D01*
X0133064Y0107539D02*
X0134486Y0107539D01*
X0134560Y0107541D01*
X0134635Y0107547D01*
X0134708Y0107557D01*
X0134782Y0107570D01*
X0134854Y0107587D01*
X0134925Y0107609D01*
X0134996Y0107633D01*
X0135064Y0107662D01*
X0135132Y0107694D01*
X0135197Y0107730D01*
X0135260Y0107768D01*
X0135322Y0107811D01*
X0135381Y0107856D01*
X0135438Y0107904D01*
X0135492Y0107955D01*
X0135543Y0108009D01*
X0135591Y0108066D01*
X0135636Y0108125D01*
X0135679Y0108187D01*
X0135717Y0108250D01*
X0135753Y0108315D01*
X0135785Y0108383D01*
X0135814Y0108451D01*
X0135838Y0108522D01*
X0135860Y0108593D01*
X0135877Y0108665D01*
X0135890Y0108739D01*
X0135900Y0108812D01*
X0135906Y0108887D01*
X0135908Y0108961D01*
X0135906Y0109035D01*
X0135900Y0109110D01*
X0135890Y0109183D01*
X0135877Y0109257D01*
X0135860Y0109329D01*
X0135838Y0109400D01*
X0135814Y0109471D01*
X0135785Y0109539D01*
X0135753Y0109607D01*
X0135717Y0109672D01*
X0135679Y0109735D01*
X0135636Y0109797D01*
X0135591Y0109856D01*
X0135543Y0109913D01*
X0135492Y0109967D01*
X0135438Y0110018D01*
X0135381Y0110066D01*
X0135322Y0110111D01*
X0135260Y0110154D01*
X0135197Y0110192D01*
X0135132Y0110228D01*
X0135064Y0110260D01*
X0134996Y0110289D01*
X0134925Y0110313D01*
X0134854Y0110335D01*
X0134782Y0110352D01*
X0134708Y0110365D01*
X0134635Y0110375D01*
X0134560Y0110381D01*
X0134486Y0110383D01*
X0133064Y0110383D01*
X0132990Y0110381D01*
X0132915Y0110375D01*
X0132842Y0110365D01*
X0132768Y0110352D01*
X0132696Y0110335D01*
X0132625Y0110313D01*
X0132554Y0110289D01*
X0132486Y0110260D01*
X0132418Y0110228D01*
X0132353Y0110192D01*
X0132290Y0110154D01*
X0132228Y0110111D01*
X0132169Y0110066D01*
X0132112Y0110018D01*
X0132058Y0109967D01*
X0132007Y0109913D01*
X0131959Y0109856D01*
X0131914Y0109797D01*
X0131871Y0109735D01*
X0131833Y0109672D01*
X0131797Y0109607D01*
X0131765Y0109539D01*
X0131736Y0109471D01*
X0131712Y0109400D01*
X0131690Y0109329D01*
X0131673Y0109257D01*
X0131660Y0109183D01*
X0131650Y0109110D01*
X0131644Y0109035D01*
X0131642Y0108961D01*
X0131644Y0108887D01*
X0131650Y0108812D01*
X0131660Y0108739D01*
X0131673Y0108665D01*
X0131690Y0108593D01*
X0131712Y0108522D01*
X0131736Y0108451D01*
X0131765Y0108383D01*
X0131797Y0108315D01*
X0131833Y0108250D01*
X0131871Y0108187D01*
X0131914Y0108125D01*
X0131959Y0108066D01*
X0132007Y0108009D01*
X0132058Y0107955D01*
X0132112Y0107904D01*
X0132169Y0107856D01*
X0132228Y0107811D01*
X0132290Y0107768D01*
X0132353Y0107730D01*
X0132418Y0107694D01*
X0132486Y0107662D01*
X0132554Y0107633D01*
X0132625Y0107609D01*
X0132696Y0107587D01*
X0132768Y0107570D01*
X0132842Y0107557D01*
X0132915Y0107547D01*
X0132990Y0107541D01*
X0133064Y0107539D01*
X0135908Y0112776D02*
X0131642Y0113843D01*
X0134486Y0114910D01*
X0131642Y0115976D01*
X0135908Y0117043D01*
X0134486Y0119436D02*
X0132708Y0119436D01*
X0132644Y0119438D01*
X0132579Y0119444D01*
X0132516Y0119453D01*
X0132453Y0119467D01*
X0132391Y0119484D01*
X0132330Y0119505D01*
X0132270Y0119530D01*
X0132212Y0119558D01*
X0132156Y0119590D01*
X0132102Y0119625D01*
X0132050Y0119663D01*
X0132000Y0119704D01*
X0131954Y0119749D01*
X0131909Y0119795D01*
X0131868Y0119845D01*
X0131830Y0119897D01*
X0131795Y0119951D01*
X0131763Y0120007D01*
X0131735Y0120065D01*
X0131710Y0120125D01*
X0131689Y0120186D01*
X0131672Y0120248D01*
X0131658Y0120311D01*
X0131649Y0120374D01*
X0131643Y0120439D01*
X0131641Y0120503D01*
X0131642Y0120503D02*
X0131642Y0122281D01*
X0133775Y0122281D02*
X0133775Y0119436D01*
X0134486Y0119437D02*
X0134560Y0119439D01*
X0134635Y0119445D01*
X0134708Y0119455D01*
X0134782Y0119468D01*
X0134854Y0119485D01*
X0134925Y0119507D01*
X0134996Y0119531D01*
X0135064Y0119560D01*
X0135132Y0119592D01*
X0135197Y0119628D01*
X0135260Y0119666D01*
X0135322Y0119709D01*
X0135381Y0119754D01*
X0135438Y0119802D01*
X0135492Y0119853D01*
X0135543Y0119907D01*
X0135591Y0119964D01*
X0135636Y0120023D01*
X0135679Y0120085D01*
X0135717Y0120148D01*
X0135753Y0120213D01*
X0135785Y0120281D01*
X0135814Y0120349D01*
X0135838Y0120420D01*
X0135860Y0120491D01*
X0135877Y0120563D01*
X0135890Y0120637D01*
X0135900Y0120710D01*
X0135906Y0120785D01*
X0135908Y0120859D01*
X0135906Y0120933D01*
X0135900Y0121008D01*
X0135890Y0121081D01*
X0135877Y0121155D01*
X0135860Y0121227D01*
X0135838Y0121298D01*
X0135814Y0121369D01*
X0135785Y0121437D01*
X0135753Y0121505D01*
X0135717Y0121570D01*
X0135679Y0121633D01*
X0135636Y0121695D01*
X0135591Y0121754D01*
X0135543Y0121811D01*
X0135492Y0121865D01*
X0135438Y0121916D01*
X0135381Y0121964D01*
X0135322Y0122009D01*
X0135260Y0122052D01*
X0135197Y0122090D01*
X0135132Y0122126D01*
X0135064Y0122158D01*
X0134996Y0122187D01*
X0134925Y0122211D01*
X0134854Y0122233D01*
X0134782Y0122250D01*
X0134708Y0122263D01*
X0134635Y0122273D01*
X0134560Y0122279D01*
X0134486Y0122281D01*
X0133775Y0122281D01*
X0131642Y0125008D02*
X0135908Y0125008D01*
X0135908Y0127142D01*
X0135197Y0127142D01*
X0134131Y0132893D02*
X0133420Y0134671D01*
X0133396Y0134726D01*
X0133369Y0134779D01*
X0133338Y0134830D01*
X0133304Y0134879D01*
X0133267Y0134925D01*
X0133227Y0134969D01*
X0133185Y0135011D01*
X0133139Y0135049D01*
X0133092Y0135085D01*
X0133042Y0135117D01*
X0132990Y0135147D01*
X0132936Y0135172D01*
X0132881Y0135195D01*
X0132825Y0135213D01*
X0132767Y0135228D01*
X0132709Y0135240D01*
X0132650Y0135247D01*
X0132590Y0135251D01*
X0132531Y0135250D01*
X0132471Y0135246D01*
X0132412Y0135238D01*
X0132354Y0135227D01*
X0132297Y0135211D01*
X0132240Y0135192D01*
X0132185Y0135170D01*
X0132132Y0135143D01*
X0132080Y0135114D01*
X0132031Y0135081D01*
X0131983Y0135045D01*
X0131938Y0135006D01*
X0131896Y0134964D01*
X0131856Y0134920D01*
X0131820Y0134873D01*
X0131786Y0134824D01*
X0131756Y0134773D01*
X0131729Y0134720D01*
X0131705Y0134665D01*
X0131686Y0134609D01*
X0131669Y0134552D01*
X0131657Y0134493D01*
X0131648Y0134435D01*
X0131643Y0134375D01*
X0131642Y0134316D01*
X0135553Y0134849D02*
X0135600Y0134741D01*
X0135643Y0134631D01*
X0135684Y0134520D01*
X0135721Y0134408D01*
X0135755Y0134296D01*
X0135786Y0134182D01*
X0135813Y0134067D01*
X0135837Y0133951D01*
X0135857Y0133835D01*
X0135874Y0133719D01*
X0135888Y0133602D01*
X0135898Y0133484D01*
X0135905Y0133367D01*
X0135909Y0133249D01*
X0135908Y0133190D01*
X0135903Y0133130D01*
X0135894Y0133072D01*
X0135882Y0133013D01*
X0135865Y0132956D01*
X0135846Y0132900D01*
X0135822Y0132845D01*
X0135795Y0132792D01*
X0135765Y0132741D01*
X0135731Y0132692D01*
X0135695Y0132645D01*
X0135655Y0132601D01*
X0135613Y0132559D01*
X0135568Y0132520D01*
X0135520Y0132484D01*
X0135471Y0132451D01*
X0135419Y0132422D01*
X0135366Y0132395D01*
X0135311Y0132373D01*
X0135254Y0132354D01*
X0135197Y0132338D01*
X0135139Y0132327D01*
X0135080Y0132319D01*
X0135020Y0132315D01*
X0134961Y0132314D01*
X0134901Y0132318D01*
X0134842Y0132325D01*
X0134784Y0132337D01*
X0134726Y0132352D01*
X0134670Y0132370D01*
X0134615Y0132393D01*
X0134561Y0132418D01*
X0134509Y0132448D01*
X0134459Y0132480D01*
X0134412Y0132516D01*
X0134366Y0132554D01*
X0134324Y0132596D01*
X0134284Y0132640D01*
X0134247Y0132686D01*
X0134213Y0132735D01*
X0134182Y0132786D01*
X0134155Y0132839D01*
X0134131Y0132894D01*
X0131997Y0132360D02*
X0131947Y0132505D01*
X0131901Y0132652D01*
X0131858Y0132799D01*
X0131819Y0132948D01*
X0131784Y0133098D01*
X0131752Y0133248D01*
X0131725Y0133399D01*
X0131701Y0133551D01*
X0131682Y0133703D01*
X0131666Y0133856D01*
X0131654Y0134009D01*
X0131646Y0134162D01*
X0131642Y0134316D01*
X0132708Y0137898D02*
X0135908Y0137898D01*
X0135908Y0140743D02*
X0131642Y0140743D01*
X0131642Y0138965D01*
X0131641Y0138965D02*
X0131643Y0138901D01*
X0131649Y0138836D01*
X0131658Y0138773D01*
X0131672Y0138710D01*
X0131689Y0138648D01*
X0131710Y0138587D01*
X0131735Y0138527D01*
X0131763Y0138469D01*
X0131795Y0138413D01*
X0131830Y0138359D01*
X0131868Y0138307D01*
X0131909Y0138257D01*
X0131954Y0138211D01*
X0132000Y0138166D01*
X0132050Y0138125D01*
X0132102Y0138087D01*
X0132156Y0138052D01*
X0132212Y0138020D01*
X0132270Y0137992D01*
X0132330Y0137967D01*
X0132391Y0137946D01*
X0132453Y0137929D01*
X0132516Y0137915D01*
X0132579Y0137906D01*
X0132644Y0137900D01*
X0132708Y0137898D01*
X0131642Y0143671D02*
X0131642Y0145449D01*
X0131641Y0145449D02*
X0131643Y0145513D01*
X0131649Y0145578D01*
X0131658Y0145641D01*
X0131672Y0145704D01*
X0131689Y0145766D01*
X0131710Y0145827D01*
X0131735Y0145887D01*
X0131763Y0145945D01*
X0131795Y0146001D01*
X0131830Y0146055D01*
X0131868Y0146107D01*
X0131909Y0146157D01*
X0131954Y0146203D01*
X0132000Y0146248D01*
X0132050Y0146289D01*
X0132102Y0146327D01*
X0132156Y0146362D01*
X0132212Y0146394D01*
X0132270Y0146422D01*
X0132330Y0146447D01*
X0132391Y0146468D01*
X0132453Y0146485D01*
X0132516Y0146499D01*
X0132579Y0146508D01*
X0132644Y0146514D01*
X0132708Y0146516D01*
X0134842Y0146516D01*
X0134906Y0146514D01*
X0134971Y0146508D01*
X0135034Y0146499D01*
X0135097Y0146485D01*
X0135159Y0146468D01*
X0135220Y0146447D01*
X0135280Y0146422D01*
X0135338Y0146394D01*
X0135394Y0146362D01*
X0135448Y0146327D01*
X0135500Y0146289D01*
X0135550Y0146248D01*
X0135596Y0146203D01*
X0135641Y0146157D01*
X0135682Y0146107D01*
X0135720Y0146055D01*
X0135755Y0146001D01*
X0135787Y0145945D01*
X0135815Y0145887D01*
X0135840Y0145827D01*
X0135861Y0145766D01*
X0135878Y0145704D01*
X0135892Y0145641D01*
X0135901Y0145578D01*
X0135907Y0145513D01*
X0135909Y0145449D01*
X0135908Y0145449D02*
X0135908Y0143671D01*
X0129508Y0143671D01*
X0129508Y0149210D02*
X0135908Y0149210D01*
X0135908Y0150987D01*
X0135909Y0150987D02*
X0135907Y0151051D01*
X0135901Y0151116D01*
X0135892Y0151179D01*
X0135878Y0151242D01*
X0135861Y0151304D01*
X0135840Y0151365D01*
X0135815Y0151425D01*
X0135787Y0151483D01*
X0135755Y0151539D01*
X0135720Y0151593D01*
X0135682Y0151645D01*
X0135641Y0151695D01*
X0135596Y0151741D01*
X0135550Y0151786D01*
X0135500Y0151827D01*
X0135448Y0151865D01*
X0135394Y0151900D01*
X0135338Y0151932D01*
X0135280Y0151960D01*
X0135220Y0151985D01*
X0135159Y0152006D01*
X0135097Y0152023D01*
X0135034Y0152037D01*
X0134971Y0152046D01*
X0134906Y0152052D01*
X0134842Y0152054D01*
X0132708Y0152054D01*
X0132644Y0152052D01*
X0132579Y0152046D01*
X0132516Y0152037D01*
X0132453Y0152023D01*
X0132391Y0152006D01*
X0132330Y0151985D01*
X0132270Y0151960D01*
X0132212Y0151932D01*
X0132156Y0151900D01*
X0132102Y0151865D01*
X0132050Y0151827D01*
X0132000Y0151786D01*
X0131954Y0151741D01*
X0131909Y0151695D01*
X0131868Y0151645D01*
X0131830Y0151593D01*
X0131795Y0151539D01*
X0131763Y0151483D01*
X0131735Y0151425D01*
X0131710Y0151365D01*
X0131689Y0151304D01*
X0131672Y0151242D01*
X0131658Y0151179D01*
X0131649Y0151116D01*
X0131643Y0151051D01*
X0131641Y0150987D01*
X0131642Y0150987D02*
X0131642Y0149210D01*
X0132708Y0154608D02*
X0138042Y0154608D01*
X0135908Y0157591D02*
X0131642Y0159014D01*
X0129508Y0158302D02*
X0135908Y0160436D01*
X0131641Y0155674D02*
X0131643Y0155610D01*
X0131649Y0155545D01*
X0131658Y0155482D01*
X0131672Y0155419D01*
X0131689Y0155357D01*
X0131710Y0155296D01*
X0131735Y0155236D01*
X0131763Y0155178D01*
X0131795Y0155122D01*
X0131830Y0155068D01*
X0131868Y0155016D01*
X0131909Y0154966D01*
X0131954Y0154920D01*
X0132000Y0154875D01*
X0132050Y0154834D01*
X0132102Y0154796D01*
X0132156Y0154761D01*
X0132212Y0154729D01*
X0132270Y0154701D01*
X0132330Y0154676D01*
X0132391Y0154655D01*
X0132453Y0154638D01*
X0132516Y0154624D01*
X0132579Y0154615D01*
X0132644Y0154609D01*
X0132708Y0154607D01*
X0129508Y0157591D02*
X0129508Y0158302D01*
X0142142Y0143205D02*
X0145342Y0143205D01*
X0145406Y0143203D01*
X0145471Y0143197D01*
X0145534Y0143188D01*
X0145597Y0143174D01*
X0145659Y0143157D01*
X0145720Y0143136D01*
X0145780Y0143111D01*
X0145838Y0143083D01*
X0145894Y0143051D01*
X0145948Y0143016D01*
X0146000Y0142978D01*
X0146050Y0142937D01*
X0146096Y0142892D01*
X0146141Y0142846D01*
X0146182Y0142796D01*
X0146220Y0142744D01*
X0146255Y0142690D01*
X0146287Y0142634D01*
X0146315Y0142576D01*
X0146340Y0142516D01*
X0146361Y0142455D01*
X0146378Y0142393D01*
X0146392Y0142330D01*
X0146401Y0142267D01*
X0146407Y0142202D01*
X0146409Y0142138D01*
X0146408Y0142138D02*
X0146408Y0140360D01*
X0142142Y0140360D01*
X0143564Y0137666D02*
X0144986Y0137666D01*
X0145060Y0137664D01*
X0145135Y0137658D01*
X0145208Y0137648D01*
X0145282Y0137635D01*
X0145354Y0137618D01*
X0145425Y0137596D01*
X0145496Y0137572D01*
X0145564Y0137543D01*
X0145632Y0137511D01*
X0145697Y0137475D01*
X0145760Y0137437D01*
X0145822Y0137394D01*
X0145881Y0137349D01*
X0145938Y0137301D01*
X0145992Y0137250D01*
X0146043Y0137196D01*
X0146091Y0137139D01*
X0146136Y0137080D01*
X0146179Y0137018D01*
X0146217Y0136955D01*
X0146253Y0136890D01*
X0146285Y0136822D01*
X0146314Y0136754D01*
X0146338Y0136683D01*
X0146360Y0136612D01*
X0146377Y0136540D01*
X0146390Y0136466D01*
X0146400Y0136393D01*
X0146406Y0136318D01*
X0146408Y0136244D01*
X0146406Y0136170D01*
X0146400Y0136095D01*
X0146390Y0136022D01*
X0146377Y0135948D01*
X0146360Y0135876D01*
X0146338Y0135805D01*
X0146314Y0135734D01*
X0146285Y0135666D01*
X0146253Y0135598D01*
X0146217Y0135533D01*
X0146179Y0135470D01*
X0146136Y0135408D01*
X0146091Y0135349D01*
X0146043Y0135292D01*
X0145992Y0135238D01*
X0145938Y0135187D01*
X0145881Y0135139D01*
X0145822Y0135094D01*
X0145760Y0135051D01*
X0145697Y0135013D01*
X0145632Y0134977D01*
X0145564Y0134945D01*
X0145496Y0134916D01*
X0145425Y0134892D01*
X0145354Y0134870D01*
X0145282Y0134853D01*
X0145208Y0134840D01*
X0145135Y0134830D01*
X0145060Y0134824D01*
X0144986Y0134822D01*
X0144986Y0134821D02*
X0143564Y0134821D01*
X0143564Y0134822D02*
X0143490Y0134824D01*
X0143415Y0134830D01*
X0143342Y0134840D01*
X0143268Y0134853D01*
X0143196Y0134870D01*
X0143125Y0134892D01*
X0143054Y0134916D01*
X0142986Y0134945D01*
X0142918Y0134977D01*
X0142853Y0135013D01*
X0142790Y0135051D01*
X0142728Y0135094D01*
X0142669Y0135139D01*
X0142612Y0135187D01*
X0142558Y0135238D01*
X0142507Y0135292D01*
X0142459Y0135349D01*
X0142414Y0135408D01*
X0142371Y0135470D01*
X0142333Y0135533D01*
X0142297Y0135598D01*
X0142265Y0135666D01*
X0142236Y0135734D01*
X0142212Y0135805D01*
X0142190Y0135876D01*
X0142173Y0135948D01*
X0142160Y0136022D01*
X0142150Y0136095D01*
X0142144Y0136170D01*
X0142142Y0136244D01*
X0142144Y0136318D01*
X0142150Y0136393D01*
X0142160Y0136466D01*
X0142173Y0136540D01*
X0142190Y0136612D01*
X0142212Y0136683D01*
X0142236Y0136754D01*
X0142265Y0136822D01*
X0142297Y0136890D01*
X0142333Y0136955D01*
X0142371Y0137018D01*
X0142414Y0137080D01*
X0142459Y0137139D01*
X0142507Y0137196D01*
X0142558Y0137250D01*
X0142612Y0137301D01*
X0142669Y0137349D01*
X0142728Y0137394D01*
X0142790Y0137437D01*
X0142853Y0137475D01*
X0142918Y0137511D01*
X0142986Y0137543D01*
X0143054Y0137572D01*
X0143125Y0137596D01*
X0143196Y0137618D01*
X0143268Y0137635D01*
X0143342Y0137648D01*
X0143415Y0137658D01*
X0143490Y0137664D01*
X0143564Y0137666D01*
X0142142Y0132346D02*
X0146408Y0132346D01*
X0148186Y0132524D02*
X0148186Y0132168D01*
X0148542Y0132168D01*
X0148542Y0132524D01*
X0148186Y0132524D01*
X0142142Y0128982D02*
X0142146Y0128828D01*
X0142154Y0128675D01*
X0142166Y0128522D01*
X0142182Y0128369D01*
X0142201Y0128217D01*
X0142225Y0128065D01*
X0142252Y0127914D01*
X0142284Y0127764D01*
X0142319Y0127614D01*
X0142358Y0127465D01*
X0142401Y0127318D01*
X0142447Y0127171D01*
X0142497Y0127026D01*
X0146409Y0127916D02*
X0146405Y0128034D01*
X0146398Y0128151D01*
X0146388Y0128269D01*
X0146374Y0128386D01*
X0146357Y0128502D01*
X0146337Y0128618D01*
X0146313Y0128734D01*
X0146286Y0128849D01*
X0146255Y0128963D01*
X0146221Y0129075D01*
X0146184Y0129187D01*
X0146143Y0129298D01*
X0146100Y0129408D01*
X0146053Y0129516D01*
X0146409Y0127915D02*
X0146408Y0127856D01*
X0146403Y0127796D01*
X0146394Y0127738D01*
X0146382Y0127679D01*
X0146365Y0127622D01*
X0146346Y0127566D01*
X0146322Y0127511D01*
X0146295Y0127458D01*
X0146265Y0127407D01*
X0146231Y0127358D01*
X0146195Y0127311D01*
X0146155Y0127267D01*
X0146113Y0127225D01*
X0146068Y0127186D01*
X0146020Y0127150D01*
X0145971Y0127117D01*
X0145919Y0127088D01*
X0145866Y0127061D01*
X0145811Y0127039D01*
X0145754Y0127020D01*
X0145697Y0127004D01*
X0145639Y0126993D01*
X0145580Y0126985D01*
X0145520Y0126981D01*
X0145461Y0126980D01*
X0145401Y0126984D01*
X0145342Y0126991D01*
X0145284Y0127003D01*
X0145226Y0127018D01*
X0145170Y0127036D01*
X0145115Y0127059D01*
X0145061Y0127084D01*
X0145009Y0127114D01*
X0144959Y0127146D01*
X0144912Y0127182D01*
X0144866Y0127220D01*
X0144824Y0127262D01*
X0144784Y0127306D01*
X0144747Y0127352D01*
X0144713Y0127401D01*
X0144682Y0127452D01*
X0144655Y0127505D01*
X0144631Y0127560D01*
X0143920Y0129337D01*
X0143896Y0129392D01*
X0143869Y0129445D01*
X0143838Y0129496D01*
X0143804Y0129545D01*
X0143767Y0129591D01*
X0143727Y0129635D01*
X0143685Y0129677D01*
X0143639Y0129715D01*
X0143592Y0129751D01*
X0143542Y0129783D01*
X0143490Y0129813D01*
X0143436Y0129838D01*
X0143381Y0129861D01*
X0143325Y0129879D01*
X0143267Y0129894D01*
X0143209Y0129906D01*
X0143150Y0129913D01*
X0143090Y0129917D01*
X0143031Y0129916D01*
X0142971Y0129912D01*
X0142912Y0129904D01*
X0142854Y0129893D01*
X0142797Y0129877D01*
X0142740Y0129858D01*
X0142685Y0129836D01*
X0142632Y0129809D01*
X0142580Y0129780D01*
X0142531Y0129747D01*
X0142483Y0129711D01*
X0142438Y0129672D01*
X0142396Y0129630D01*
X0142356Y0129586D01*
X0142320Y0129539D01*
X0142286Y0129490D01*
X0142256Y0129439D01*
X0142229Y0129386D01*
X0142205Y0129331D01*
X0142186Y0129275D01*
X0142169Y0129218D01*
X0142157Y0129159D01*
X0142148Y0129101D01*
X0142143Y0129041D01*
X0142142Y0128982D01*
X0143920Y0124004D02*
X0144631Y0122226D01*
X0144631Y0122227D02*
X0144655Y0122172D01*
X0144682Y0122119D01*
X0144713Y0122068D01*
X0144747Y0122019D01*
X0144784Y0121973D01*
X0144824Y0121929D01*
X0144866Y0121887D01*
X0144912Y0121849D01*
X0144959Y0121813D01*
X0145009Y0121781D01*
X0145061Y0121751D01*
X0145115Y0121726D01*
X0145170Y0121703D01*
X0145226Y0121685D01*
X0145284Y0121670D01*
X0145342Y0121658D01*
X0145401Y0121651D01*
X0145461Y0121647D01*
X0145520Y0121648D01*
X0145580Y0121652D01*
X0145639Y0121660D01*
X0145697Y0121671D01*
X0145754Y0121687D01*
X0145811Y0121706D01*
X0145866Y0121728D01*
X0145919Y0121755D01*
X0145971Y0121784D01*
X0146020Y0121817D01*
X0146068Y0121853D01*
X0146113Y0121892D01*
X0146155Y0121934D01*
X0146195Y0121978D01*
X0146231Y0122025D01*
X0146265Y0122074D01*
X0146295Y0122125D01*
X0146322Y0122178D01*
X0146346Y0122233D01*
X0146365Y0122289D01*
X0146382Y0122346D01*
X0146394Y0122405D01*
X0146403Y0122463D01*
X0146408Y0122523D01*
X0146409Y0122582D01*
X0142497Y0121693D02*
X0142447Y0121838D01*
X0142401Y0121985D01*
X0142358Y0122132D01*
X0142319Y0122281D01*
X0142284Y0122431D01*
X0142252Y0122581D01*
X0142225Y0122732D01*
X0142201Y0122884D01*
X0142182Y0123036D01*
X0142166Y0123189D01*
X0142154Y0123342D01*
X0142146Y0123495D01*
X0142142Y0123649D01*
X0142143Y0123708D01*
X0142148Y0123768D01*
X0142157Y0123826D01*
X0142169Y0123885D01*
X0142186Y0123942D01*
X0142205Y0123998D01*
X0142229Y0124053D01*
X0142256Y0124106D01*
X0142286Y0124157D01*
X0142320Y0124206D01*
X0142356Y0124253D01*
X0142396Y0124297D01*
X0142438Y0124339D01*
X0142483Y0124378D01*
X0142531Y0124414D01*
X0142580Y0124447D01*
X0142632Y0124476D01*
X0142685Y0124503D01*
X0142740Y0124525D01*
X0142797Y0124544D01*
X0142854Y0124560D01*
X0142912Y0124571D01*
X0142971Y0124579D01*
X0143031Y0124583D01*
X0143090Y0124584D01*
X0143150Y0124580D01*
X0143209Y0124573D01*
X0143267Y0124561D01*
X0143325Y0124546D01*
X0143381Y0124528D01*
X0143436Y0124505D01*
X0143490Y0124480D01*
X0143542Y0124450D01*
X0143592Y0124418D01*
X0143639Y0124382D01*
X0143685Y0124344D01*
X0143727Y0124302D01*
X0143767Y0124258D01*
X0143804Y0124212D01*
X0143838Y0124163D01*
X0143869Y0124112D01*
X0143896Y0124059D01*
X0143920Y0124004D01*
X0146053Y0124182D02*
X0146100Y0124074D01*
X0146143Y0123964D01*
X0146184Y0123853D01*
X0146221Y0123741D01*
X0146255Y0123629D01*
X0146286Y0123515D01*
X0146313Y0123400D01*
X0146337Y0123284D01*
X0146357Y0123168D01*
X0146374Y0123052D01*
X0146388Y0122935D01*
X0146398Y0122817D01*
X0146405Y0122700D01*
X0146409Y0122582D01*
X0146408Y0119218D02*
X0142142Y0119218D01*
X0142142Y0116428D02*
X0145342Y0116428D01*
X0145406Y0116426D01*
X0145471Y0116420D01*
X0145534Y0116411D01*
X0145597Y0116397D01*
X0145659Y0116380D01*
X0145720Y0116359D01*
X0145780Y0116334D01*
X0145838Y0116306D01*
X0145894Y0116274D01*
X0145948Y0116239D01*
X0146000Y0116201D01*
X0146050Y0116160D01*
X0146096Y0116115D01*
X0146141Y0116069D01*
X0146182Y0116019D01*
X0146220Y0115967D01*
X0146255Y0115913D01*
X0146287Y0115857D01*
X0146315Y0115799D01*
X0146340Y0115739D01*
X0146361Y0115678D01*
X0146378Y0115616D01*
X0146392Y0115553D01*
X0146401Y0115490D01*
X0146407Y0115425D01*
X0146409Y0115361D01*
X0146408Y0115361D02*
X0146408Y0112161D01*
X0142142Y0112161D01*
X0142142Y0114294D02*
X0146408Y0114294D01*
X0148186Y0119040D02*
X0148186Y0119395D01*
X0148542Y0119395D01*
X0148542Y0119040D01*
X0148186Y0119040D01*
X0146408Y0106280D02*
X0140008Y0104147D01*
X0140008Y0103436D01*
X0142142Y0104858D02*
X0146408Y0103436D01*
X0146408Y0101705D02*
X0145697Y0101705D01*
X0146408Y0101705D02*
X0146408Y0099572D01*
X0142142Y0099572D01*
X0142142Y0096610D02*
X0145342Y0096610D01*
X0144631Y0096610D02*
X0144631Y0095010D01*
X0145342Y0096611D02*
X0145406Y0096609D01*
X0145471Y0096603D01*
X0145534Y0096594D01*
X0145597Y0096580D01*
X0145659Y0096563D01*
X0145720Y0096542D01*
X0145780Y0096517D01*
X0145838Y0096489D01*
X0145894Y0096457D01*
X0145948Y0096422D01*
X0146000Y0096384D01*
X0146050Y0096343D01*
X0146096Y0096298D01*
X0146141Y0096252D01*
X0146182Y0096202D01*
X0146220Y0096150D01*
X0146255Y0096096D01*
X0146287Y0096040D01*
X0146315Y0095982D01*
X0146340Y0095922D01*
X0146361Y0095861D01*
X0146378Y0095799D01*
X0146392Y0095736D01*
X0146401Y0095673D01*
X0146407Y0095608D01*
X0146409Y0095544D01*
X0146408Y0095544D02*
X0146408Y0094121D01*
X0146408Y0091072D02*
X0146408Y0089294D01*
X0146409Y0089294D02*
X0146407Y0089230D01*
X0146401Y0089165D01*
X0146392Y0089102D01*
X0146378Y0089039D01*
X0146361Y0088977D01*
X0146340Y0088916D01*
X0146315Y0088856D01*
X0146287Y0088798D01*
X0146255Y0088742D01*
X0146220Y0088688D01*
X0146182Y0088636D01*
X0146141Y0088586D01*
X0146096Y0088540D01*
X0146050Y0088495D01*
X0146000Y0088454D01*
X0145948Y0088416D01*
X0145894Y0088381D01*
X0145838Y0088349D01*
X0145780Y0088321D01*
X0145720Y0088296D01*
X0145659Y0088275D01*
X0145597Y0088258D01*
X0145534Y0088244D01*
X0145471Y0088235D01*
X0145406Y0088229D01*
X0145342Y0088227D01*
X0143208Y0088227D01*
X0143144Y0088229D01*
X0143079Y0088235D01*
X0143016Y0088244D01*
X0142953Y0088258D01*
X0142891Y0088275D01*
X0142830Y0088296D01*
X0142770Y0088321D01*
X0142712Y0088349D01*
X0142656Y0088381D01*
X0142602Y0088416D01*
X0142550Y0088454D01*
X0142500Y0088495D01*
X0142454Y0088540D01*
X0142409Y0088586D01*
X0142368Y0088636D01*
X0142330Y0088688D01*
X0142295Y0088742D01*
X0142263Y0088798D01*
X0142235Y0088856D01*
X0142210Y0088916D01*
X0142189Y0088977D01*
X0142172Y0089039D01*
X0142158Y0089102D01*
X0142149Y0089165D01*
X0142143Y0089230D01*
X0142141Y0089294D01*
X0142142Y0089294D02*
X0142142Y0091072D01*
X0148542Y0091072D01*
X0145342Y0085562D02*
X0142142Y0085562D01*
X0142142Y0082717D02*
X0146408Y0082717D01*
X0146408Y0084495D01*
X0146409Y0084495D02*
X0146407Y0084559D01*
X0146401Y0084624D01*
X0146392Y0084687D01*
X0146378Y0084750D01*
X0146361Y0084812D01*
X0146340Y0084873D01*
X0146315Y0084933D01*
X0146287Y0084991D01*
X0146255Y0085047D01*
X0146220Y0085101D01*
X0146182Y0085153D01*
X0146141Y0085203D01*
X0146096Y0085249D01*
X0146050Y0085294D01*
X0146000Y0085335D01*
X0145948Y0085373D01*
X0145894Y0085408D01*
X0145838Y0085440D01*
X0145780Y0085468D01*
X0145720Y0085493D01*
X0145659Y0085514D01*
X0145597Y0085531D01*
X0145534Y0085545D01*
X0145471Y0085554D01*
X0145406Y0085560D01*
X0145342Y0085562D01*
X0144986Y0080023D02*
X0143564Y0080023D01*
X0143490Y0080021D01*
X0143415Y0080015D01*
X0143342Y0080005D01*
X0143268Y0079992D01*
X0143196Y0079975D01*
X0143125Y0079953D01*
X0143054Y0079929D01*
X0142986Y0079900D01*
X0142918Y0079868D01*
X0142853Y0079832D01*
X0142790Y0079794D01*
X0142728Y0079751D01*
X0142669Y0079706D01*
X0142612Y0079658D01*
X0142558Y0079607D01*
X0142507Y0079553D01*
X0142459Y0079496D01*
X0142414Y0079437D01*
X0142371Y0079375D01*
X0142333Y0079312D01*
X0142297Y0079247D01*
X0142265Y0079179D01*
X0142236Y0079111D01*
X0142212Y0079040D01*
X0142190Y0078969D01*
X0142173Y0078897D01*
X0142160Y0078823D01*
X0142150Y0078750D01*
X0142144Y0078675D01*
X0142142Y0078601D01*
X0142144Y0078527D01*
X0142150Y0078452D01*
X0142160Y0078379D01*
X0142173Y0078305D01*
X0142190Y0078233D01*
X0142212Y0078162D01*
X0142236Y0078091D01*
X0142265Y0078023D01*
X0142297Y0077955D01*
X0142333Y0077890D01*
X0142371Y0077827D01*
X0142414Y0077765D01*
X0142459Y0077706D01*
X0142507Y0077649D01*
X0142558Y0077595D01*
X0142612Y0077544D01*
X0142669Y0077496D01*
X0142728Y0077451D01*
X0142790Y0077408D01*
X0142853Y0077370D01*
X0142918Y0077334D01*
X0142986Y0077302D01*
X0143054Y0077273D01*
X0143125Y0077249D01*
X0143196Y0077227D01*
X0143268Y0077210D01*
X0143342Y0077197D01*
X0143415Y0077187D01*
X0143490Y0077181D01*
X0143564Y0077179D01*
X0144986Y0077179D01*
X0145060Y0077181D01*
X0145135Y0077187D01*
X0145208Y0077197D01*
X0145282Y0077210D01*
X0145354Y0077227D01*
X0145425Y0077249D01*
X0145496Y0077273D01*
X0145564Y0077302D01*
X0145632Y0077334D01*
X0145697Y0077370D01*
X0145760Y0077408D01*
X0145822Y0077451D01*
X0145881Y0077496D01*
X0145938Y0077544D01*
X0145992Y0077595D01*
X0146043Y0077649D01*
X0146091Y0077706D01*
X0146136Y0077765D01*
X0146179Y0077827D01*
X0146217Y0077890D01*
X0146253Y0077955D01*
X0146285Y0078023D01*
X0146314Y0078091D01*
X0146338Y0078162D01*
X0146360Y0078233D01*
X0146377Y0078305D01*
X0146390Y0078379D01*
X0146400Y0078452D01*
X0146406Y0078527D01*
X0146408Y0078601D01*
X0146406Y0078675D01*
X0146400Y0078750D01*
X0146390Y0078823D01*
X0146377Y0078897D01*
X0146360Y0078969D01*
X0146338Y0079040D01*
X0146314Y0079111D01*
X0146285Y0079179D01*
X0146253Y0079247D01*
X0146217Y0079312D01*
X0146179Y0079375D01*
X0146136Y0079437D01*
X0146091Y0079496D01*
X0146043Y0079553D01*
X0145992Y0079607D01*
X0145938Y0079658D01*
X0145881Y0079706D01*
X0145822Y0079751D01*
X0145760Y0079794D01*
X0145697Y0079832D01*
X0145632Y0079868D01*
X0145564Y0079900D01*
X0145496Y0079929D01*
X0145425Y0079953D01*
X0145354Y0079975D01*
X0145282Y0079992D01*
X0145208Y0080005D01*
X0145135Y0080015D01*
X0145060Y0080021D01*
X0144986Y0080023D01*
X0146408Y0074957D02*
X0146408Y0073534D01*
X0146409Y0073534D02*
X0146407Y0073470D01*
X0146401Y0073405D01*
X0146392Y0073342D01*
X0146378Y0073279D01*
X0146361Y0073217D01*
X0146340Y0073156D01*
X0146315Y0073096D01*
X0146287Y0073038D01*
X0146255Y0072982D01*
X0146220Y0072928D01*
X0146182Y0072876D01*
X0146141Y0072826D01*
X0146096Y0072780D01*
X0146050Y0072735D01*
X0146000Y0072694D01*
X0145948Y0072656D01*
X0145894Y0072621D01*
X0145838Y0072589D01*
X0145780Y0072561D01*
X0145720Y0072536D01*
X0145659Y0072515D01*
X0145597Y0072498D01*
X0145534Y0072484D01*
X0145471Y0072475D01*
X0145406Y0072469D01*
X0145342Y0072467D01*
X0145342Y0072468D02*
X0143208Y0072468D01*
X0143208Y0072467D02*
X0143144Y0072469D01*
X0143079Y0072475D01*
X0143016Y0072484D01*
X0142953Y0072498D01*
X0142891Y0072515D01*
X0142830Y0072536D01*
X0142770Y0072561D01*
X0142712Y0072589D01*
X0142656Y0072621D01*
X0142602Y0072656D01*
X0142550Y0072694D01*
X0142500Y0072735D01*
X0142454Y0072780D01*
X0142409Y0072826D01*
X0142368Y0072876D01*
X0142330Y0072928D01*
X0142295Y0072982D01*
X0142263Y0073038D01*
X0142235Y0073096D01*
X0142210Y0073156D01*
X0142189Y0073217D01*
X0142172Y0073279D01*
X0142158Y0073342D01*
X0142149Y0073405D01*
X0142143Y0073470D01*
X0142141Y0073534D01*
X0142142Y0073534D02*
X0142142Y0074957D01*
X0142142Y0069972D02*
X0142142Y0068194D01*
X0142141Y0068194D02*
X0142143Y0068130D01*
X0142149Y0068065D01*
X0142158Y0068002D01*
X0142172Y0067939D01*
X0142189Y0067877D01*
X0142210Y0067816D01*
X0142235Y0067756D01*
X0142263Y0067698D01*
X0142295Y0067642D01*
X0142330Y0067588D01*
X0142368Y0067536D01*
X0142409Y0067486D01*
X0142454Y0067440D01*
X0142500Y0067395D01*
X0142550Y0067354D01*
X0142602Y0067316D01*
X0142656Y0067281D01*
X0142712Y0067249D01*
X0142770Y0067221D01*
X0142830Y0067196D01*
X0142891Y0067175D01*
X0142953Y0067158D01*
X0143016Y0067144D01*
X0143079Y0067135D01*
X0143144Y0067129D01*
X0143208Y0067127D01*
X0144986Y0067127D01*
X0144275Y0067127D02*
X0144275Y0069972D01*
X0144986Y0069972D01*
X0144986Y0069971D02*
X0145060Y0069969D01*
X0145135Y0069963D01*
X0145208Y0069953D01*
X0145282Y0069940D01*
X0145354Y0069923D01*
X0145425Y0069901D01*
X0145496Y0069877D01*
X0145564Y0069848D01*
X0145632Y0069816D01*
X0145697Y0069780D01*
X0145760Y0069742D01*
X0145822Y0069699D01*
X0145881Y0069654D01*
X0145938Y0069606D01*
X0145992Y0069555D01*
X0146043Y0069501D01*
X0146091Y0069444D01*
X0146136Y0069385D01*
X0146179Y0069323D01*
X0146217Y0069260D01*
X0146253Y0069195D01*
X0146285Y0069127D01*
X0146314Y0069059D01*
X0146338Y0068988D01*
X0146360Y0068917D01*
X0146377Y0068845D01*
X0146390Y0068771D01*
X0146400Y0068698D01*
X0146406Y0068623D01*
X0146408Y0068549D01*
X0146406Y0068475D01*
X0146400Y0068400D01*
X0146390Y0068327D01*
X0146377Y0068253D01*
X0146360Y0068181D01*
X0146338Y0068110D01*
X0146314Y0068039D01*
X0146285Y0067971D01*
X0146253Y0067903D01*
X0146217Y0067838D01*
X0146179Y0067775D01*
X0146136Y0067713D01*
X0146091Y0067654D01*
X0146043Y0067597D01*
X0145992Y0067543D01*
X0145938Y0067492D01*
X0145881Y0067444D01*
X0145822Y0067399D01*
X0145760Y0067356D01*
X0145697Y0067318D01*
X0145632Y0067282D01*
X0145564Y0067250D01*
X0145496Y0067221D01*
X0145425Y0067197D01*
X0145354Y0067175D01*
X0145282Y0067158D01*
X0145208Y0067145D01*
X0145135Y0067135D01*
X0145060Y0067129D01*
X0144986Y0067127D01*
X0144808Y0064078D02*
X0145875Y0062122D01*
X0148542Y0062833D02*
X0148540Y0062934D01*
X0148534Y0063035D01*
X0148525Y0063135D01*
X0148511Y0063235D01*
X0148494Y0063335D01*
X0148474Y0063434D01*
X0148449Y0063531D01*
X0148421Y0063628D01*
X0148389Y0063724D01*
X0148353Y0063819D01*
X0148314Y0063912D01*
X0148272Y0064003D01*
X0148226Y0064093D01*
X0148176Y0064181D01*
X0148124Y0064267D01*
X0148068Y0064351D01*
X0148009Y0064433D01*
X0145876Y0062122D02*
X0145916Y0062058D01*
X0145959Y0061997D01*
X0146005Y0061938D01*
X0146054Y0061881D01*
X0146106Y0061827D01*
X0146160Y0061776D01*
X0146218Y0061728D01*
X0146277Y0061682D01*
X0146339Y0061640D01*
X0146404Y0061601D01*
X0146470Y0061566D01*
X0146537Y0061534D01*
X0146607Y0061505D01*
X0146677Y0061480D01*
X0146749Y0061459D01*
X0146822Y0061442D01*
X0146896Y0061428D01*
X0146970Y0061419D01*
X0147045Y0061413D01*
X0147120Y0061411D01*
X0147194Y0061413D01*
X0147269Y0061419D01*
X0147342Y0061429D01*
X0147416Y0061442D01*
X0147488Y0061459D01*
X0147559Y0061481D01*
X0147630Y0061505D01*
X0147698Y0061534D01*
X0147766Y0061566D01*
X0147831Y0061602D01*
X0147894Y0061640D01*
X0147956Y0061683D01*
X0148015Y0061728D01*
X0148072Y0061776D01*
X0148126Y0061827D01*
X0148177Y0061882D01*
X0148225Y0061938D01*
X0148270Y0061997D01*
X0148313Y0062059D01*
X0148351Y0062122D01*
X0148387Y0062187D01*
X0148419Y0062255D01*
X0148448Y0062323D01*
X0148472Y0062394D01*
X0148494Y0062465D01*
X0148511Y0062537D01*
X0148524Y0062611D01*
X0148534Y0062684D01*
X0148540Y0062759D01*
X0148542Y0062833D01*
X0143031Y0061233D02*
X0142956Y0061310D01*
X0142883Y0061390D01*
X0142814Y0061473D01*
X0142747Y0061558D01*
X0142684Y0061645D01*
X0142624Y0061734D01*
X0142567Y0061826D01*
X0142513Y0061919D01*
X0142463Y0062015D01*
X0142416Y0062112D01*
X0142373Y0062211D01*
X0142333Y0062311D01*
X0142297Y0062412D01*
X0142265Y0062515D01*
X0142236Y0062619D01*
X0142211Y0062724D01*
X0142190Y0062830D01*
X0142173Y0062936D01*
X0142159Y0063043D01*
X0142150Y0063151D01*
X0142144Y0063258D01*
X0142142Y0063366D01*
X0142144Y0063440D01*
X0142150Y0063515D01*
X0142160Y0063588D01*
X0142173Y0063662D01*
X0142190Y0063734D01*
X0142212Y0063805D01*
X0142236Y0063876D01*
X0142265Y0063944D01*
X0142297Y0064012D01*
X0142333Y0064077D01*
X0142371Y0064140D01*
X0142414Y0064202D01*
X0142459Y0064261D01*
X0142507Y0064318D01*
X0142558Y0064372D01*
X0142612Y0064423D01*
X0142669Y0064471D01*
X0142728Y0064516D01*
X0142790Y0064559D01*
X0142853Y0064597D01*
X0142918Y0064633D01*
X0142986Y0064665D01*
X0143054Y0064694D01*
X0143125Y0064718D01*
X0143196Y0064740D01*
X0143268Y0064757D01*
X0143342Y0064770D01*
X0143415Y0064780D01*
X0143490Y0064786D01*
X0143564Y0064788D01*
X0143639Y0064786D01*
X0143714Y0064780D01*
X0143788Y0064771D01*
X0143862Y0064757D01*
X0143935Y0064740D01*
X0144007Y0064719D01*
X0144077Y0064694D01*
X0144147Y0064665D01*
X0144214Y0064633D01*
X0144280Y0064598D01*
X0144345Y0064559D01*
X0144407Y0064517D01*
X0144466Y0064471D01*
X0144524Y0064423D01*
X0144578Y0064372D01*
X0144630Y0064318D01*
X0144679Y0064261D01*
X0144725Y0064202D01*
X0144768Y0064141D01*
X0144808Y0064077D01*
X0138042Y0064789D02*
X0138042Y0062655D01*
X0138040Y0062581D01*
X0138034Y0062506D01*
X0138024Y0062433D01*
X0138011Y0062359D01*
X0137994Y0062287D01*
X0137972Y0062216D01*
X0137948Y0062145D01*
X0137919Y0062077D01*
X0137887Y0062009D01*
X0137851Y0061944D01*
X0137813Y0061881D01*
X0137770Y0061819D01*
X0137725Y0061760D01*
X0137677Y0061703D01*
X0137626Y0061649D01*
X0137571Y0061598D01*
X0137515Y0061550D01*
X0137456Y0061505D01*
X0137394Y0061462D01*
X0137331Y0061424D01*
X0137266Y0061388D01*
X0137198Y0061356D01*
X0137130Y0061327D01*
X0137059Y0061303D01*
X0136988Y0061281D01*
X0136916Y0061264D01*
X0136842Y0061251D01*
X0136769Y0061241D01*
X0136694Y0061235D01*
X0136620Y0061233D01*
X0133064Y0061233D01*
X0132990Y0061235D01*
X0132915Y0061241D01*
X0132842Y0061251D01*
X0132768Y0061264D01*
X0132696Y0061281D01*
X0132625Y0061303D01*
X0132554Y0061327D01*
X0132486Y0061356D01*
X0132418Y0061388D01*
X0132353Y0061424D01*
X0132290Y0061462D01*
X0132228Y0061505D01*
X0132169Y0061550D01*
X0132112Y0061598D01*
X0132058Y0061649D01*
X0132007Y0061703D01*
X0131959Y0061760D01*
X0131914Y0061819D01*
X0131871Y0061881D01*
X0131833Y0061944D01*
X0131797Y0062009D01*
X0131765Y0062077D01*
X0131736Y0062145D01*
X0131712Y0062216D01*
X0131690Y0062287D01*
X0131673Y0062359D01*
X0131660Y0062433D01*
X0131650Y0062506D01*
X0131644Y0062581D01*
X0131642Y0062655D01*
X0131642Y0064789D01*
X0135197Y0064789D01*
X0135197Y0063722D01*
X0138042Y0067852D02*
X0131642Y0067852D01*
X0134486Y0069985D02*
X0138042Y0072119D01*
X0131642Y0072119D01*
X0134486Y0069985D02*
X0138042Y0067852D01*
X0135908Y0077694D02*
X0135908Y0079827D01*
X0135908Y0082307D02*
X0132708Y0082307D01*
X0132644Y0082309D01*
X0132579Y0082315D01*
X0132516Y0082324D01*
X0132453Y0082338D01*
X0132391Y0082355D01*
X0132330Y0082376D01*
X0132270Y0082401D01*
X0132212Y0082429D01*
X0132156Y0082461D01*
X0132102Y0082496D01*
X0132050Y0082534D01*
X0132000Y0082575D01*
X0131954Y0082620D01*
X0131909Y0082666D01*
X0131868Y0082716D01*
X0131830Y0082768D01*
X0131795Y0082822D01*
X0131763Y0082878D01*
X0131735Y0082936D01*
X0131710Y0082996D01*
X0131689Y0083057D01*
X0131672Y0083119D01*
X0131658Y0083182D01*
X0131649Y0083245D01*
X0131643Y0083310D01*
X0131641Y0083374D01*
X0131642Y0083374D02*
X0131642Y0085152D01*
X0135908Y0085152D01*
X0135908Y0088080D02*
X0135908Y0089858D01*
X0135909Y0089858D02*
X0135907Y0089922D01*
X0135901Y0089987D01*
X0135892Y0090050D01*
X0135878Y0090113D01*
X0135861Y0090175D01*
X0135840Y0090236D01*
X0135815Y0090296D01*
X0135787Y0090354D01*
X0135755Y0090410D01*
X0135720Y0090464D01*
X0135682Y0090516D01*
X0135641Y0090566D01*
X0135596Y0090612D01*
X0135550Y0090657D01*
X0135500Y0090698D01*
X0135448Y0090736D01*
X0135394Y0090771D01*
X0135338Y0090803D01*
X0135280Y0090831D01*
X0135220Y0090856D01*
X0135159Y0090877D01*
X0135097Y0090894D01*
X0135034Y0090908D01*
X0134971Y0090917D01*
X0134906Y0090923D01*
X0134842Y0090925D01*
X0134842Y0090924D02*
X0132708Y0090924D01*
X0132708Y0090925D02*
X0132644Y0090923D01*
X0132579Y0090917D01*
X0132516Y0090908D01*
X0132453Y0090894D01*
X0132391Y0090877D01*
X0132330Y0090856D01*
X0132270Y0090831D01*
X0132212Y0090803D01*
X0132156Y0090771D01*
X0132102Y0090736D01*
X0132050Y0090698D01*
X0132000Y0090657D01*
X0131954Y0090612D01*
X0131909Y0090566D01*
X0131868Y0090516D01*
X0131830Y0090464D01*
X0131795Y0090410D01*
X0131763Y0090354D01*
X0131735Y0090296D01*
X0131710Y0090236D01*
X0131689Y0090175D01*
X0131672Y0090113D01*
X0131658Y0090050D01*
X0131649Y0089987D01*
X0131643Y0089922D01*
X0131641Y0089858D01*
X0131642Y0089858D02*
X0131642Y0088080D01*
X0138042Y0088080D01*
X0134486Y0093384D02*
X0132708Y0093384D01*
X0132644Y0093386D01*
X0132579Y0093392D01*
X0132516Y0093401D01*
X0132453Y0093415D01*
X0132391Y0093432D01*
X0132330Y0093453D01*
X0132270Y0093478D01*
X0132212Y0093506D01*
X0132156Y0093538D01*
X0132102Y0093573D01*
X0132050Y0093611D01*
X0132000Y0093652D01*
X0131954Y0093697D01*
X0131909Y0093743D01*
X0131868Y0093793D01*
X0131830Y0093845D01*
X0131795Y0093899D01*
X0131763Y0093955D01*
X0131735Y0094013D01*
X0131710Y0094073D01*
X0131689Y0094134D01*
X0131672Y0094196D01*
X0131658Y0094259D01*
X0131649Y0094322D01*
X0131643Y0094387D01*
X0131641Y0094451D01*
X0131642Y0094451D02*
X0131642Y0096229D01*
X0133775Y0096229D02*
X0133775Y0093384D01*
X0134486Y0093385D02*
X0134560Y0093387D01*
X0134635Y0093393D01*
X0134708Y0093403D01*
X0134782Y0093416D01*
X0134854Y0093433D01*
X0134925Y0093455D01*
X0134996Y0093479D01*
X0135064Y0093508D01*
X0135132Y0093540D01*
X0135197Y0093576D01*
X0135260Y0093614D01*
X0135322Y0093657D01*
X0135381Y0093702D01*
X0135438Y0093750D01*
X0135492Y0093801D01*
X0135543Y0093855D01*
X0135591Y0093912D01*
X0135636Y0093971D01*
X0135679Y0094033D01*
X0135717Y0094096D01*
X0135753Y0094161D01*
X0135785Y0094229D01*
X0135814Y0094297D01*
X0135838Y0094368D01*
X0135860Y0094439D01*
X0135877Y0094511D01*
X0135890Y0094585D01*
X0135900Y0094658D01*
X0135906Y0094733D01*
X0135908Y0094807D01*
X0135906Y0094881D01*
X0135900Y0094956D01*
X0135890Y0095029D01*
X0135877Y0095103D01*
X0135860Y0095175D01*
X0135838Y0095246D01*
X0135814Y0095317D01*
X0135785Y0095385D01*
X0135753Y0095453D01*
X0135717Y0095518D01*
X0135679Y0095581D01*
X0135636Y0095643D01*
X0135591Y0095702D01*
X0135543Y0095759D01*
X0135492Y0095813D01*
X0135438Y0095864D01*
X0135381Y0095912D01*
X0135322Y0095957D01*
X0135260Y0096000D01*
X0135197Y0096038D01*
X0135132Y0096074D01*
X0135064Y0096106D01*
X0134996Y0096135D01*
X0134925Y0096159D01*
X0134854Y0096181D01*
X0134782Y0096198D01*
X0134708Y0096211D01*
X0134635Y0096221D01*
X0134560Y0096227D01*
X0134486Y0096229D01*
X0133775Y0096229D01*
X0142142Y0096610D02*
X0142142Y0095010D01*
X0142144Y0094940D01*
X0142150Y0094871D01*
X0142160Y0094802D01*
X0142173Y0094733D01*
X0142191Y0094666D01*
X0142212Y0094599D01*
X0142237Y0094534D01*
X0142265Y0094470D01*
X0142297Y0094408D01*
X0142333Y0094348D01*
X0142371Y0094290D01*
X0142413Y0094234D01*
X0142458Y0094181D01*
X0142506Y0094130D01*
X0142557Y0094082D01*
X0142610Y0094037D01*
X0142666Y0093995D01*
X0142724Y0093957D01*
X0142784Y0093921D01*
X0142846Y0093889D01*
X0142910Y0093861D01*
X0142975Y0093836D01*
X0143042Y0093815D01*
X0143109Y0093797D01*
X0143178Y0093784D01*
X0143247Y0093774D01*
X0143316Y0093768D01*
X0143386Y0093766D01*
X0143456Y0093768D01*
X0143525Y0093774D01*
X0143594Y0093784D01*
X0143663Y0093797D01*
X0143730Y0093815D01*
X0143797Y0093836D01*
X0143862Y0093861D01*
X0143926Y0093889D01*
X0143988Y0093921D01*
X0144048Y0093957D01*
X0144106Y0093995D01*
X0144162Y0094037D01*
X0144215Y0094082D01*
X0144266Y0094130D01*
X0144314Y0094181D01*
X0144359Y0094234D01*
X0144401Y0094290D01*
X0144439Y0094348D01*
X0144475Y0094408D01*
X0144507Y0094470D01*
X0144535Y0094534D01*
X0144560Y0094599D01*
X0144581Y0094666D01*
X0144599Y0094733D01*
X0144612Y0094802D01*
X0144622Y0094871D01*
X0144628Y0094940D01*
X0144630Y0095010D01*
X0138042Y0078405D02*
X0132708Y0078405D01*
X0132644Y0078407D01*
X0132579Y0078413D01*
X0132516Y0078422D01*
X0132453Y0078436D01*
X0132391Y0078453D01*
X0132330Y0078474D01*
X0132270Y0078499D01*
X0132212Y0078527D01*
X0132156Y0078559D01*
X0132102Y0078594D01*
X0132050Y0078632D01*
X0132000Y0078673D01*
X0131954Y0078718D01*
X0131909Y0078764D01*
X0131868Y0078814D01*
X0131830Y0078866D01*
X0131795Y0078920D01*
X0131763Y0078976D01*
X0131735Y0079034D01*
X0131710Y0079094D01*
X0131689Y0079155D01*
X0131672Y0079217D01*
X0131658Y0079280D01*
X0131649Y0079343D01*
X0131643Y0079408D01*
X0131641Y0079472D01*
X0131642Y0079472D02*
X0131642Y0079827D01*
X0163142Y0077097D02*
X0163142Y0073541D01*
X0163142Y0075319D02*
X0169542Y0075319D01*
X0168120Y0073541D01*
X0166342Y0067387D02*
X0166201Y0067389D01*
X0166061Y0067395D01*
X0165920Y0067404D01*
X0165780Y0067417D01*
X0165640Y0067434D01*
X0165501Y0067454D01*
X0165363Y0067479D01*
X0165225Y0067507D01*
X0165088Y0067538D01*
X0164951Y0067574D01*
X0164816Y0067613D01*
X0164682Y0067655D01*
X0164549Y0067701D01*
X0164417Y0067751D01*
X0164287Y0067804D01*
X0164158Y0067860D01*
X0164031Y0067920D01*
X0164564Y0067743D02*
X0168120Y0070587D01*
X0168653Y0070410D02*
X0168719Y0070385D01*
X0168784Y0070357D01*
X0168848Y0070325D01*
X0168909Y0070290D01*
X0168969Y0070251D01*
X0169027Y0070210D01*
X0169082Y0070165D01*
X0169134Y0070117D01*
X0169184Y0070067D01*
X0169232Y0070014D01*
X0169276Y0069959D01*
X0169317Y0069901D01*
X0169355Y0069841D01*
X0169390Y0069779D01*
X0169421Y0069715D01*
X0169449Y0069650D01*
X0169474Y0069583D01*
X0169494Y0069516D01*
X0169511Y0069447D01*
X0169525Y0069377D01*
X0169534Y0069307D01*
X0169540Y0069236D01*
X0169542Y0069165D01*
X0169540Y0069094D01*
X0169534Y0069023D01*
X0169525Y0068953D01*
X0169511Y0068883D01*
X0169494Y0068814D01*
X0169474Y0068747D01*
X0169449Y0068680D01*
X0169421Y0068615D01*
X0169390Y0068551D01*
X0169355Y0068489D01*
X0169317Y0068429D01*
X0169276Y0068371D01*
X0169232Y0068316D01*
X0169184Y0068263D01*
X0169134Y0068213D01*
X0169082Y0068165D01*
X0169027Y0068120D01*
X0168969Y0068079D01*
X0168909Y0068040D01*
X0168848Y0068005D01*
X0168784Y0067973D01*
X0168719Y0067945D01*
X0168653Y0067920D01*
X0168653Y0070410D02*
X0168526Y0070470D01*
X0168397Y0070526D01*
X0168267Y0070579D01*
X0168135Y0070629D01*
X0168002Y0070675D01*
X0167868Y0070717D01*
X0167733Y0070756D01*
X0167596Y0070792D01*
X0167459Y0070823D01*
X0167321Y0070851D01*
X0167183Y0070876D01*
X0167044Y0070896D01*
X0166904Y0070913D01*
X0166764Y0070926D01*
X0166623Y0070935D01*
X0166483Y0070941D01*
X0166342Y0070943D01*
X0166342Y0067387D02*
X0166483Y0067389D01*
X0166623Y0067395D01*
X0166764Y0067404D01*
X0166904Y0067417D01*
X0167044Y0067434D01*
X0167183Y0067454D01*
X0167321Y0067479D01*
X0167459Y0067507D01*
X0167596Y0067538D01*
X0167733Y0067574D01*
X0167868Y0067613D01*
X0168002Y0067655D01*
X0168135Y0067701D01*
X0168267Y0067751D01*
X0168397Y0067804D01*
X0168526Y0067860D01*
X0168653Y0067920D01*
X0166342Y0070942D02*
X0166201Y0070940D01*
X0166061Y0070934D01*
X0165920Y0070925D01*
X0165780Y0070912D01*
X0165640Y0070895D01*
X0165501Y0070875D01*
X0165363Y0070850D01*
X0165225Y0070822D01*
X0165088Y0070791D01*
X0164951Y0070755D01*
X0164816Y0070716D01*
X0164682Y0070674D01*
X0164549Y0070628D01*
X0164417Y0070578D01*
X0164287Y0070525D01*
X0164158Y0070469D01*
X0164031Y0070409D01*
X0163141Y0069165D02*
X0163143Y0069094D01*
X0163149Y0069023D01*
X0163158Y0068953D01*
X0163172Y0068883D01*
X0163189Y0068814D01*
X0163209Y0068747D01*
X0163234Y0068680D01*
X0163262Y0068615D01*
X0163293Y0068551D01*
X0163328Y0068489D01*
X0163366Y0068429D01*
X0163407Y0068371D01*
X0163451Y0068316D01*
X0163499Y0068263D01*
X0163549Y0068213D01*
X0163601Y0068165D01*
X0163656Y0068120D01*
X0163714Y0068079D01*
X0163774Y0068040D01*
X0163835Y0068005D01*
X0163899Y0067973D01*
X0163964Y0067945D01*
X0164030Y0067920D01*
X0163141Y0069165D02*
X0163143Y0069236D01*
X0163149Y0069307D01*
X0163158Y0069377D01*
X0163172Y0069447D01*
X0163189Y0069516D01*
X0163209Y0069583D01*
X0163234Y0069650D01*
X0163262Y0069715D01*
X0163293Y0069779D01*
X0163328Y0069841D01*
X0163366Y0069901D01*
X0163407Y0069958D01*
X0163451Y0070014D01*
X0163499Y0070067D01*
X0163549Y0070117D01*
X0163601Y0070165D01*
X0163656Y0070210D01*
X0163714Y0070251D01*
X0163774Y0070290D01*
X0163835Y0070325D01*
X0163899Y0070357D01*
X0163964Y0070385D01*
X0164030Y0070410D01*
X0163142Y0064789D02*
X0163142Y0061233D01*
X0166697Y0064255D01*
X0169542Y0063189D02*
X0169540Y0063100D01*
X0169534Y0063011D01*
X0169525Y0062922D01*
X0169511Y0062834D01*
X0169494Y0062747D01*
X0169473Y0062660D01*
X0169448Y0062574D01*
X0169420Y0062490D01*
X0169387Y0062407D01*
X0169352Y0062325D01*
X0169312Y0062245D01*
X0169270Y0062167D01*
X0169224Y0062090D01*
X0169175Y0062016D01*
X0169122Y0061944D01*
X0169067Y0061874D01*
X0169008Y0061807D01*
X0168947Y0061742D01*
X0168883Y0061680D01*
X0168816Y0061621D01*
X0168747Y0061565D01*
X0168675Y0061512D01*
X0168601Y0061462D01*
X0168525Y0061415D01*
X0168448Y0061372D01*
X0168368Y0061332D01*
X0168287Y0061295D01*
X0168204Y0061262D01*
X0168119Y0061233D01*
X0166697Y0064256D02*
X0166755Y0064313D01*
X0166816Y0064369D01*
X0166879Y0064421D01*
X0166944Y0064470D01*
X0167012Y0064516D01*
X0167082Y0064558D01*
X0167154Y0064598D01*
X0167227Y0064633D01*
X0167303Y0064666D01*
X0167379Y0064694D01*
X0167457Y0064719D01*
X0167536Y0064740D01*
X0167616Y0064758D01*
X0167697Y0064771D01*
X0167778Y0064781D01*
X0167860Y0064787D01*
X0167942Y0064789D01*
X0168021Y0064787D01*
X0168099Y0064781D01*
X0168177Y0064772D01*
X0168254Y0064758D01*
X0168331Y0064741D01*
X0168406Y0064720D01*
X0168481Y0064695D01*
X0168554Y0064667D01*
X0168626Y0064635D01*
X0168696Y0064600D01*
X0168765Y0064561D01*
X0168831Y0064519D01*
X0168895Y0064474D01*
X0168957Y0064426D01*
X0169016Y0064375D01*
X0169073Y0064320D01*
X0169128Y0064263D01*
X0169179Y0064204D01*
X0169227Y0064142D01*
X0169272Y0064078D01*
X0169314Y0064012D01*
X0169353Y0063943D01*
X0169388Y0063873D01*
X0169420Y0063801D01*
X0169448Y0063728D01*
X0169473Y0063653D01*
X0169494Y0063578D01*
X0169511Y0063501D01*
X0169525Y0063424D01*
X0169534Y0063346D01*
X0169540Y0063268D01*
X0169542Y0063189D01*
X0173642Y0062655D02*
X0173642Y0064789D01*
X0177197Y0064789D01*
X0177197Y0063722D01*
X0178620Y0061233D02*
X0178694Y0061235D01*
X0178769Y0061241D01*
X0178842Y0061251D01*
X0178916Y0061264D01*
X0178988Y0061281D01*
X0179059Y0061303D01*
X0179130Y0061327D01*
X0179198Y0061356D01*
X0179266Y0061388D01*
X0179331Y0061424D01*
X0179394Y0061462D01*
X0179456Y0061505D01*
X0179515Y0061550D01*
X0179571Y0061598D01*
X0179626Y0061649D01*
X0179677Y0061703D01*
X0179725Y0061760D01*
X0179770Y0061819D01*
X0179813Y0061881D01*
X0179851Y0061944D01*
X0179887Y0062009D01*
X0179919Y0062077D01*
X0179948Y0062145D01*
X0179972Y0062216D01*
X0179994Y0062287D01*
X0180011Y0062359D01*
X0180024Y0062433D01*
X0180034Y0062506D01*
X0180040Y0062581D01*
X0180042Y0062655D01*
X0180042Y0064789D01*
X0180042Y0067346D02*
X0173642Y0068768D01*
X0177908Y0070191D01*
X0173642Y0071613D01*
X0180042Y0073035D01*
X0178620Y0075372D02*
X0175064Y0075372D01*
X0174990Y0075374D01*
X0174915Y0075380D01*
X0174842Y0075390D01*
X0174768Y0075403D01*
X0174696Y0075420D01*
X0174625Y0075442D01*
X0174554Y0075466D01*
X0174486Y0075495D01*
X0174418Y0075527D01*
X0174353Y0075563D01*
X0174290Y0075601D01*
X0174228Y0075644D01*
X0174169Y0075689D01*
X0174112Y0075737D01*
X0174058Y0075788D01*
X0174007Y0075842D01*
X0173959Y0075899D01*
X0173914Y0075958D01*
X0173871Y0076020D01*
X0173833Y0076083D01*
X0173797Y0076148D01*
X0173765Y0076216D01*
X0173736Y0076284D01*
X0173712Y0076355D01*
X0173690Y0076426D01*
X0173673Y0076498D01*
X0173660Y0076572D01*
X0173650Y0076645D01*
X0173644Y0076720D01*
X0173642Y0076794D01*
X0173642Y0078216D01*
X0175064Y0083782D02*
X0178620Y0083782D01*
X0178620Y0083783D02*
X0178694Y0083785D01*
X0178769Y0083791D01*
X0178842Y0083801D01*
X0178916Y0083814D01*
X0178988Y0083831D01*
X0179059Y0083853D01*
X0179130Y0083877D01*
X0179198Y0083906D01*
X0179266Y0083938D01*
X0179331Y0083974D01*
X0179394Y0084012D01*
X0179456Y0084055D01*
X0179515Y0084100D01*
X0179571Y0084148D01*
X0179626Y0084199D01*
X0179677Y0084253D01*
X0179725Y0084310D01*
X0179770Y0084369D01*
X0179813Y0084431D01*
X0179851Y0084494D01*
X0179887Y0084559D01*
X0179919Y0084627D01*
X0179948Y0084695D01*
X0179972Y0084766D01*
X0179994Y0084837D01*
X0180011Y0084909D01*
X0180024Y0084983D01*
X0180034Y0085056D01*
X0180040Y0085131D01*
X0180042Y0085205D01*
X0180042Y0085204D02*
X0180042Y0086627D01*
X0180042Y0090704D02*
X0173642Y0092837D01*
X0175242Y0092304D02*
X0175242Y0089104D01*
X0173642Y0088571D02*
X0180042Y0090704D01*
X0180042Y0095285D02*
X0173642Y0098841D01*
X0180042Y0098841D01*
X0180042Y0095285D02*
X0173642Y0095285D01*
X0177375Y0102328D02*
X0176308Y0104284D01*
X0173642Y0103573D02*
X0173644Y0103465D01*
X0173650Y0103358D01*
X0173659Y0103250D01*
X0173673Y0103143D01*
X0173690Y0103037D01*
X0173711Y0102931D01*
X0173736Y0102826D01*
X0173765Y0102722D01*
X0173797Y0102619D01*
X0173833Y0102518D01*
X0173873Y0102418D01*
X0173916Y0102319D01*
X0173963Y0102222D01*
X0174013Y0102126D01*
X0174067Y0102033D01*
X0174124Y0101941D01*
X0174184Y0101852D01*
X0174247Y0101765D01*
X0174314Y0101680D01*
X0174383Y0101597D01*
X0174456Y0101517D01*
X0174531Y0101440D01*
X0176308Y0104283D02*
X0176268Y0104347D01*
X0176225Y0104408D01*
X0176179Y0104467D01*
X0176130Y0104524D01*
X0176078Y0104578D01*
X0176024Y0104629D01*
X0175966Y0104677D01*
X0175907Y0104723D01*
X0175845Y0104765D01*
X0175780Y0104804D01*
X0175714Y0104839D01*
X0175647Y0104871D01*
X0175577Y0104900D01*
X0175507Y0104925D01*
X0175435Y0104946D01*
X0175362Y0104963D01*
X0175288Y0104977D01*
X0175214Y0104986D01*
X0175139Y0104992D01*
X0175064Y0104994D01*
X0175064Y0104995D02*
X0174990Y0104993D01*
X0174915Y0104987D01*
X0174842Y0104977D01*
X0174768Y0104964D01*
X0174696Y0104947D01*
X0174625Y0104925D01*
X0174554Y0104901D01*
X0174486Y0104872D01*
X0174418Y0104840D01*
X0174353Y0104804D01*
X0174290Y0104766D01*
X0174228Y0104723D01*
X0174169Y0104678D01*
X0174112Y0104630D01*
X0174058Y0104579D01*
X0174007Y0104525D01*
X0173959Y0104468D01*
X0173914Y0104409D01*
X0173871Y0104347D01*
X0173833Y0104284D01*
X0173797Y0104219D01*
X0173765Y0104151D01*
X0173736Y0104083D01*
X0173712Y0104012D01*
X0173690Y0103941D01*
X0173673Y0103869D01*
X0173660Y0103795D01*
X0173650Y0103722D01*
X0173644Y0103647D01*
X0173642Y0103573D01*
X0173642Y0107033D02*
X0180042Y0109166D01*
X0173642Y0111299D01*
X0175242Y0110766D02*
X0175242Y0107566D01*
X0179509Y0104639D02*
X0179568Y0104557D01*
X0179624Y0104473D01*
X0179676Y0104387D01*
X0179726Y0104299D01*
X0179772Y0104209D01*
X0179814Y0104118D01*
X0179853Y0104025D01*
X0179889Y0103930D01*
X0179921Y0103834D01*
X0179949Y0103737D01*
X0179974Y0103640D01*
X0179994Y0103541D01*
X0180011Y0103441D01*
X0180025Y0103341D01*
X0180034Y0103241D01*
X0180040Y0103140D01*
X0180042Y0103039D01*
X0180040Y0102965D01*
X0180034Y0102890D01*
X0180024Y0102817D01*
X0180011Y0102743D01*
X0179994Y0102671D01*
X0179972Y0102600D01*
X0179948Y0102529D01*
X0179919Y0102461D01*
X0179887Y0102393D01*
X0179851Y0102328D01*
X0179813Y0102265D01*
X0179770Y0102203D01*
X0179725Y0102144D01*
X0179677Y0102088D01*
X0179626Y0102033D01*
X0179572Y0101982D01*
X0179515Y0101934D01*
X0179456Y0101889D01*
X0179394Y0101846D01*
X0179331Y0101808D01*
X0179266Y0101772D01*
X0179198Y0101740D01*
X0179130Y0101711D01*
X0179059Y0101687D01*
X0178988Y0101665D01*
X0178916Y0101648D01*
X0178842Y0101635D01*
X0178769Y0101625D01*
X0178694Y0101619D01*
X0178620Y0101617D01*
X0178620Y0101618D02*
X0178545Y0101620D01*
X0178470Y0101626D01*
X0178396Y0101635D01*
X0178322Y0101649D01*
X0178249Y0101666D01*
X0178177Y0101687D01*
X0178107Y0101712D01*
X0178037Y0101741D01*
X0177970Y0101773D01*
X0177904Y0101808D01*
X0177839Y0101847D01*
X0177777Y0101889D01*
X0177718Y0101935D01*
X0177660Y0101983D01*
X0177606Y0102034D01*
X0177554Y0102088D01*
X0177505Y0102145D01*
X0177459Y0102204D01*
X0177416Y0102265D01*
X0177376Y0102329D01*
X0180042Y0113132D02*
X0180042Y0116688D01*
X0180042Y0114910D02*
X0173642Y0114910D01*
X0173642Y0086627D02*
X0173642Y0085204D01*
X0173644Y0085130D01*
X0173650Y0085055D01*
X0173660Y0084982D01*
X0173673Y0084908D01*
X0173690Y0084836D01*
X0173712Y0084765D01*
X0173736Y0084694D01*
X0173765Y0084626D01*
X0173797Y0084558D01*
X0173833Y0084493D01*
X0173871Y0084430D01*
X0173914Y0084368D01*
X0173959Y0084309D01*
X0174007Y0084252D01*
X0174058Y0084198D01*
X0174112Y0084147D01*
X0174169Y0084099D01*
X0174228Y0084054D01*
X0174290Y0084011D01*
X0174353Y0083973D01*
X0174418Y0083937D01*
X0174486Y0083905D01*
X0174554Y0083876D01*
X0174625Y0083852D01*
X0174696Y0083830D01*
X0174768Y0083813D01*
X0174842Y0083800D01*
X0174915Y0083790D01*
X0174990Y0083784D01*
X0175064Y0083782D01*
X0180042Y0078216D02*
X0180042Y0076794D01*
X0180040Y0076720D01*
X0180034Y0076645D01*
X0180024Y0076572D01*
X0180011Y0076498D01*
X0179994Y0076426D01*
X0179972Y0076355D01*
X0179948Y0076284D01*
X0179919Y0076216D01*
X0179887Y0076148D01*
X0179851Y0076083D01*
X0179813Y0076020D01*
X0179770Y0075958D01*
X0179725Y0075899D01*
X0179677Y0075842D01*
X0179626Y0075788D01*
X0179571Y0075737D01*
X0179515Y0075689D01*
X0179456Y0075644D01*
X0179394Y0075601D01*
X0179331Y0075563D01*
X0179266Y0075527D01*
X0179198Y0075495D01*
X0179130Y0075466D01*
X0179059Y0075442D01*
X0178988Y0075420D01*
X0178916Y0075403D01*
X0178842Y0075390D01*
X0178769Y0075380D01*
X0178694Y0075374D01*
X0178620Y0075372D01*
X0173642Y0062655D02*
X0173644Y0062581D01*
X0173650Y0062506D01*
X0173660Y0062433D01*
X0173673Y0062359D01*
X0173690Y0062287D01*
X0173712Y0062216D01*
X0173736Y0062145D01*
X0173765Y0062077D01*
X0173797Y0062009D01*
X0173833Y0061944D01*
X0173871Y0061881D01*
X0173914Y0061819D01*
X0173959Y0061760D01*
X0174007Y0061703D01*
X0174058Y0061649D01*
X0174112Y0061598D01*
X0174169Y0061550D01*
X0174228Y0061505D01*
X0174290Y0061462D01*
X0174353Y0061424D01*
X0174418Y0061388D01*
X0174486Y0061356D01*
X0174554Y0061327D01*
X0174625Y0061303D01*
X0174696Y0061281D01*
X0174768Y0061264D01*
X0174842Y0061251D01*
X0174915Y0061241D01*
X0174990Y0061235D01*
X0175064Y0061233D01*
X0178620Y0061233D01*
X0168120Y0080051D02*
X0168046Y0080053D01*
X0167971Y0080059D01*
X0167898Y0080069D01*
X0167824Y0080082D01*
X0167752Y0080099D01*
X0167681Y0080121D01*
X0167610Y0080145D01*
X0167542Y0080174D01*
X0167474Y0080206D01*
X0167409Y0080242D01*
X0167346Y0080280D01*
X0167284Y0080323D01*
X0167225Y0080368D01*
X0167168Y0080416D01*
X0167114Y0080467D01*
X0167063Y0080521D01*
X0167015Y0080578D01*
X0166970Y0080637D01*
X0166927Y0080699D01*
X0166889Y0080762D01*
X0166853Y0080827D01*
X0166821Y0080895D01*
X0166792Y0080963D01*
X0166768Y0081034D01*
X0166746Y0081105D01*
X0166729Y0081177D01*
X0166716Y0081251D01*
X0166706Y0081324D01*
X0166700Y0081399D01*
X0166698Y0081473D01*
X0166700Y0081547D01*
X0166706Y0081622D01*
X0166716Y0081695D01*
X0166729Y0081769D01*
X0166746Y0081841D01*
X0166768Y0081912D01*
X0166792Y0081983D01*
X0166821Y0082051D01*
X0166853Y0082119D01*
X0166889Y0082184D01*
X0166927Y0082247D01*
X0166970Y0082309D01*
X0167015Y0082368D01*
X0167063Y0082425D01*
X0167114Y0082479D01*
X0167168Y0082530D01*
X0167225Y0082578D01*
X0167284Y0082623D01*
X0167346Y0082666D01*
X0167409Y0082704D01*
X0167474Y0082740D01*
X0167542Y0082772D01*
X0167610Y0082801D01*
X0167681Y0082825D01*
X0167752Y0082847D01*
X0167824Y0082864D01*
X0167898Y0082877D01*
X0167971Y0082887D01*
X0168046Y0082893D01*
X0168120Y0082895D01*
X0168194Y0082893D01*
X0168269Y0082887D01*
X0168342Y0082877D01*
X0168416Y0082864D01*
X0168488Y0082847D01*
X0168559Y0082825D01*
X0168630Y0082801D01*
X0168698Y0082772D01*
X0168766Y0082740D01*
X0168831Y0082704D01*
X0168894Y0082666D01*
X0168956Y0082623D01*
X0169015Y0082578D01*
X0169072Y0082530D01*
X0169126Y0082479D01*
X0169177Y0082425D01*
X0169225Y0082368D01*
X0169270Y0082309D01*
X0169313Y0082247D01*
X0169351Y0082184D01*
X0169387Y0082119D01*
X0169419Y0082051D01*
X0169448Y0081983D01*
X0169472Y0081912D01*
X0169494Y0081841D01*
X0169511Y0081769D01*
X0169524Y0081695D01*
X0169534Y0081622D01*
X0169540Y0081547D01*
X0169542Y0081473D01*
X0169540Y0081399D01*
X0169534Y0081324D01*
X0169524Y0081251D01*
X0169511Y0081177D01*
X0169494Y0081105D01*
X0169472Y0081034D01*
X0169448Y0080963D01*
X0169419Y0080895D01*
X0169387Y0080827D01*
X0169351Y0080762D01*
X0169313Y0080699D01*
X0169270Y0080637D01*
X0169225Y0080578D01*
X0169177Y0080521D01*
X0169126Y0080467D01*
X0169072Y0080416D01*
X0169015Y0080368D01*
X0168956Y0080323D01*
X0168894Y0080280D01*
X0168831Y0080242D01*
X0168766Y0080206D01*
X0168698Y0080174D01*
X0168630Y0080145D01*
X0168559Y0080121D01*
X0168488Y0080099D01*
X0168416Y0080082D01*
X0168342Y0080069D01*
X0168269Y0080059D01*
X0168194Y0080053D01*
X0168120Y0080051D01*
X0164920Y0079695D02*
X0164837Y0079697D01*
X0164754Y0079703D01*
X0164671Y0079713D01*
X0164588Y0079726D01*
X0164507Y0079744D01*
X0164426Y0079765D01*
X0164347Y0079790D01*
X0164269Y0079819D01*
X0164192Y0079851D01*
X0164117Y0079887D01*
X0164043Y0079926D01*
X0163972Y0079969D01*
X0163902Y0080015D01*
X0163835Y0080065D01*
X0163770Y0080117D01*
X0163708Y0080172D01*
X0163648Y0080231D01*
X0163591Y0080292D01*
X0163537Y0080355D01*
X0163486Y0080421D01*
X0163439Y0080490D01*
X0163394Y0080560D01*
X0163353Y0080633D01*
X0163316Y0080707D01*
X0163281Y0080783D01*
X0163251Y0080861D01*
X0163224Y0080939D01*
X0163201Y0081020D01*
X0163181Y0081101D01*
X0163166Y0081183D01*
X0163154Y0081265D01*
X0163146Y0081348D01*
X0163142Y0081431D01*
X0163142Y0081515D01*
X0163146Y0081598D01*
X0163154Y0081681D01*
X0163166Y0081763D01*
X0163181Y0081845D01*
X0163201Y0081926D01*
X0163224Y0082007D01*
X0163251Y0082085D01*
X0163281Y0082163D01*
X0163316Y0082239D01*
X0163353Y0082313D01*
X0163394Y0082386D01*
X0163439Y0082456D01*
X0163486Y0082525D01*
X0163537Y0082591D01*
X0163591Y0082654D01*
X0163648Y0082715D01*
X0163708Y0082774D01*
X0163770Y0082829D01*
X0163835Y0082881D01*
X0163902Y0082931D01*
X0163972Y0082977D01*
X0164043Y0083020D01*
X0164117Y0083059D01*
X0164192Y0083095D01*
X0164269Y0083127D01*
X0164347Y0083156D01*
X0164426Y0083181D01*
X0164507Y0083202D01*
X0164588Y0083220D01*
X0164671Y0083233D01*
X0164754Y0083243D01*
X0164837Y0083249D01*
X0164920Y0083251D01*
X0165003Y0083249D01*
X0165086Y0083243D01*
X0165169Y0083233D01*
X0165252Y0083220D01*
X0165333Y0083202D01*
X0165414Y0083181D01*
X0165493Y0083156D01*
X0165571Y0083127D01*
X0165648Y0083095D01*
X0165723Y0083059D01*
X0165797Y0083020D01*
X0165868Y0082977D01*
X0165938Y0082931D01*
X0166005Y0082881D01*
X0166070Y0082829D01*
X0166132Y0082774D01*
X0166192Y0082715D01*
X0166249Y0082654D01*
X0166303Y0082591D01*
X0166354Y0082525D01*
X0166401Y0082456D01*
X0166446Y0082386D01*
X0166487Y0082313D01*
X0166524Y0082239D01*
X0166559Y0082163D01*
X0166589Y0082085D01*
X0166616Y0082007D01*
X0166639Y0081926D01*
X0166659Y0081845D01*
X0166674Y0081763D01*
X0166686Y0081681D01*
X0166694Y0081598D01*
X0166698Y0081515D01*
X0166698Y0081431D01*
X0166694Y0081348D01*
X0166686Y0081265D01*
X0166674Y0081183D01*
X0166659Y0081101D01*
X0166639Y0081020D01*
X0166616Y0080939D01*
X0166589Y0080861D01*
X0166559Y0080783D01*
X0166524Y0080707D01*
X0166487Y0080633D01*
X0166446Y0080560D01*
X0166401Y0080490D01*
X0166354Y0080421D01*
X0166303Y0080355D01*
X0166249Y0080292D01*
X0166192Y0080231D01*
X0166132Y0080172D01*
X0166070Y0080117D01*
X0166005Y0080065D01*
X0165938Y0080015D01*
X0165868Y0079969D01*
X0165797Y0079926D01*
X0165723Y0079887D01*
X0165648Y0079851D01*
X0165571Y0079819D01*
X0165493Y0079790D01*
X0165414Y0079765D01*
X0165333Y0079744D01*
X0165252Y0079726D01*
X0165169Y0079713D01*
X0165086Y0079703D01*
X0165003Y0079697D01*
X0164920Y0079695D01*
M02*
