%
M48
M72
T01C0.01378
T02C0.03189
T03C0.03200
T04C0.03500
T05C0.03600
T06C0.03701
T07C0.03900
T08C0.04134
T09C0.04724
T10C0.05118
%
T01
X127342Y230933
X137342Y260933
X163342Y208933
X169342Y212933
X185342Y208933
X149342Y184933
X137342Y326933
X155342Y362933
X167342Y358933
T02
X161428Y384933
X154342Y384933
X147255Y384933
T03
X144342Y409933
X144342Y419933
X129342Y419933
X119342Y419933
X164342Y419933
X164342Y409933
X174342Y419933
X184342Y419933
X139342Y154933
X139342Y144933
T04
X189342Y364933
X189342Y404933
T05
X119342Y164933
X119342Y154933
T06
X139342Y182335
X139342Y188634
X139342Y194933
T07
X119342Y129933
X119342Y139933
X129342Y134933
T08
X129342Y264933
X133830Y334933
X134342Y349933
X119342Y334933
X119342Y390445
X184854Y264933
X189342Y334933
X189854Y349933
T09
X179342Y99933
X179342Y69933
X129342Y69933
X129342Y99933
T10
X163909Y138122
X163909Y149933
X163909Y161744
X184775Y161744
X184775Y149933
X184775Y138122
M30
