G75*
%MOIN*%
%OFA0B0*%
%FSLAX25Y25*%
%IPPOS*%
%LPD*%
%AMOC8*
5,1,8,0,0,1.08239X$1,22.5*
%
%ADD10R,0.07001X0.07001*%
%ADD11C,0.07001*%
%ADD12C,0.06300*%
%ADD13R,0.06300X0.06300*%
%ADD14C,0.06400*%
%ADD15R,0.06501X0.06501*%
%ADD16C,0.06501*%
%ADD17R,0.06700X0.06700*%
%ADD18C,0.06700*%
%ADD19C,0.06745*%
%ADD20OC8,0.06000*%
%ADD21C,0.08477*%
%ADD22R,0.07887X0.07887*%
%ADD23C,0.07887*%
%ADD24C,0.03778*%
D10*
X0129342Y0264933D03*
X0119342Y0334933D03*
X0134342Y0349933D03*
X0189342Y0334933D03*
D11*
X0189854Y0349933D03*
X0184854Y0264933D03*
X0133830Y0334933D03*
X0119342Y0390445D03*
D12*
X0189342Y0364933D03*
D13*
X0189342Y0404933D03*
D14*
X0122142Y0154933D02*
X0116542Y0154933D01*
X0116542Y0164933D02*
X0122142Y0164933D01*
D15*
X0139342Y0194933D03*
D16*
X0139342Y0188634D03*
X0139342Y0182335D03*
D17*
X0119342Y0139933D03*
D18*
X0119342Y0129933D03*
X0129342Y0134933D03*
D19*
X0147255Y0384933D03*
X0154342Y0384933D03*
X0161428Y0384933D03*
D20*
X0164342Y0409933D03*
X0164342Y0419933D03*
X0174342Y0419933D03*
X0184342Y0419933D03*
X0144342Y0419933D03*
X0144342Y0409933D03*
X0129342Y0419933D03*
X0119342Y0419933D03*
X0139342Y0154933D03*
X0139342Y0144933D03*
D21*
X0163909Y0149933D03*
X0163909Y0138122D03*
X0163909Y0161744D03*
X0184775Y0161744D03*
X0184775Y0149933D03*
X0184775Y0138122D03*
D22*
X0129342Y0099933D03*
D23*
X0129342Y0069933D03*
X0179342Y0069933D03*
X0179342Y0099933D03*
D24*
X0149342Y0184933D03*
X0163342Y0208933D03*
X0169342Y0212933D03*
X0185342Y0208933D03*
X0137342Y0260933D03*
X0127342Y0230933D03*
X0137342Y0326933D03*
X0155342Y0362933D03*
X0167342Y0358933D03*
M02*
