G75*
%MOIN*%
%OFA0B0*%
%FSLAX25Y25*%
%IPPOS*%
%LPD*%
%AMOC8*
5,1,8,0,0,1.08239X$1,22.5*
%
%ADD10C,0.00000*%
%ADD11R,0.09843X0.11417*%
%ADD12R,0.32874X0.11220*%
%ADD13R,0.06201X0.06201*%
%ADD14C,0.06201*%
%ADD15C,0.05500*%
%ADD16R,0.05500X0.05500*%
%ADD17C,0.05600*%
%ADD18R,0.05701X0.05701*%
%ADD19C,0.05701*%
%ADD20R,0.05900X0.05900*%
%ADD21C,0.05900*%
%ADD22C,0.05945*%
%ADD23OC8,0.05200*%
%ADD24C,0.07677*%
%ADD25R,0.07087X0.07087*%
%ADD26C,0.07087*%
%ADD27C,0.03200*%
%ADD28C,0.02978*%
D10*
X0109342Y0044933D02*
X0109342Y0438634D01*
X0203263Y0438634D01*
X0203263Y0044933D01*
X0109342Y0044933D01*
D11*
X0164342Y0197138D03*
X0164342Y0222728D03*
X0184342Y0222728D03*
X0184342Y0197138D03*
D12*
X0174342Y0281823D03*
X0174342Y0318043D03*
X0134342Y0318043D03*
X0134342Y0281823D03*
X0134342Y0248043D03*
X0134342Y0211823D03*
D13*
X0129342Y0264933D03*
X0119342Y0334933D03*
X0134342Y0349933D03*
X0189342Y0334933D03*
D14*
X0189854Y0349933D03*
X0184854Y0264933D03*
X0133830Y0334933D03*
X0119342Y0390445D03*
D15*
X0189342Y0364933D03*
D16*
X0189342Y0404933D03*
D17*
X0122142Y0164933D02*
X0116542Y0164933D01*
X0116542Y0154933D02*
X0122142Y0154933D01*
D18*
X0139342Y0194933D03*
D19*
X0139342Y0188634D03*
X0139342Y0182335D03*
D20*
X0119342Y0139933D03*
D21*
X0119342Y0129933D03*
X0129342Y0134933D03*
D22*
X0147255Y0384933D03*
X0154342Y0384933D03*
X0161428Y0384933D03*
D23*
X0164342Y0409933D03*
X0164342Y0419933D03*
X0174342Y0419933D03*
X0184342Y0419933D03*
X0144342Y0419933D03*
X0144342Y0409933D03*
X0129342Y0419933D03*
X0119342Y0419933D03*
X0139342Y0154933D03*
X0139342Y0144933D03*
D24*
X0163909Y0149933D03*
X0163909Y0138122D03*
X0163909Y0161744D03*
X0184775Y0161744D03*
X0184775Y0149933D03*
X0184775Y0138122D03*
D25*
X0129342Y0099933D03*
D26*
X0129342Y0069933D03*
X0179342Y0069933D03*
X0179342Y0099933D03*
D27*
X0184342Y0104933D01*
X0184342Y0137689D01*
X0184775Y0138122D01*
X0193342Y0146689D01*
X0193342Y0213728D01*
X0184342Y0222728D01*
X0195342Y0233728D01*
X0195342Y0352933D01*
X0184342Y0361933D01*
X0184342Y0419933D01*
X0180542Y0416945D02*
X0180542Y0362494D01*
X0180485Y0362307D01*
X0180542Y0361744D01*
X0180542Y0361177D01*
X0180616Y0360997D01*
X0180636Y0360803D01*
X0180904Y0360304D01*
X0181120Y0359781D01*
X0181258Y0359643D01*
X0181350Y0359471D01*
X0181789Y0359112D01*
X0182189Y0358712D01*
X0182370Y0358637D01*
X0187292Y0354609D01*
X0186851Y0354427D01*
X0185360Y0352935D01*
X0184553Y0350987D01*
X0184553Y0348879D01*
X0185360Y0346931D01*
X0185542Y0346749D01*
X0185542Y0340233D01*
X0185330Y0340233D01*
X0184041Y0338945D01*
X0184041Y0335007D01*
X0174888Y0325854D01*
X0156994Y0325854D01*
X0155705Y0324565D01*
X0155705Y0311522D01*
X0156994Y0310233D01*
X0191542Y0310233D01*
X0191542Y0289633D01*
X0157142Y0289633D01*
X0157142Y0299799D01*
X0156563Y0301196D01*
X0155494Y0302265D01*
X0147526Y0310233D01*
X0151690Y0310233D01*
X0152979Y0311522D01*
X0152979Y0324565D01*
X0151690Y0325854D01*
X0141142Y0325854D01*
X0141142Y0327689D01*
X0140563Y0329086D01*
X0139494Y0330155D01*
X0138098Y0330733D01*
X0137126Y0330733D01*
X0137526Y0331133D01*
X0144098Y0331133D01*
X0145494Y0331712D01*
X0146563Y0332781D01*
X0170563Y0356781D01*
X0171142Y0358177D01*
X0171142Y0359689D01*
X0170563Y0361086D01*
X0169494Y0362155D01*
X0168098Y0362733D01*
X0166586Y0362733D01*
X0165189Y0362155D01*
X0141768Y0338733D01*
X0137526Y0338733D01*
X0136832Y0339427D01*
X0134884Y0340233D01*
X0134016Y0340233D01*
X0137563Y0343781D01*
X0137916Y0344633D01*
X0138353Y0344633D01*
X0139642Y0345921D01*
X0139642Y0353945D01*
X0138353Y0355233D01*
X0130330Y0355233D01*
X0129041Y0353945D01*
X0129041Y0346007D01*
X0125189Y0342155D01*
X0124120Y0341086D01*
X0123646Y0339941D01*
X0123353Y0340233D01*
X0123142Y0340233D01*
X0123142Y0353359D01*
X0128916Y0359133D01*
X0156098Y0359133D01*
X0157494Y0359712D01*
X0158563Y0360781D01*
X0159142Y0362177D01*
X0159142Y0363689D01*
X0158563Y0365086D01*
X0157494Y0366155D01*
X0156098Y0366733D01*
X0126586Y0366733D01*
X0125189Y0366155D01*
X0117189Y0358155D01*
X0116120Y0357086D01*
X0115542Y0355689D01*
X0115542Y0340233D01*
X0115330Y0340233D01*
X0114942Y0339845D01*
X0114942Y0387349D01*
X0116339Y0385951D01*
X0118287Y0385144D01*
X0120396Y0385144D01*
X0122344Y0385951D01*
X0123835Y0387442D01*
X0124642Y0389391D01*
X0124642Y0391499D01*
X0123835Y0393447D01*
X0123142Y0394141D01*
X0123142Y0416945D01*
X0124142Y0417945D01*
X0124142Y0421921D01*
X0121330Y0424733D01*
X0117354Y0424733D01*
X0114942Y0422321D01*
X0114942Y0433034D01*
X0197663Y0433034D01*
X0197663Y0355986D01*
X0197494Y0356155D01*
X0197314Y0356229D01*
X0191919Y0360643D01*
X0192146Y0360737D01*
X0193538Y0362129D01*
X0194292Y0363948D01*
X0194292Y0365918D01*
X0193538Y0367737D01*
X0192146Y0369129D01*
X0190326Y0369883D01*
X0188357Y0369883D01*
X0188142Y0369794D01*
X0188142Y0399983D01*
X0193003Y0399983D01*
X0194292Y0401272D01*
X0194292Y0408594D01*
X0193003Y0409883D01*
X0188142Y0409883D01*
X0188142Y0416945D01*
X0189142Y0417945D01*
X0189142Y0421921D01*
X0186330Y0424733D01*
X0182354Y0424733D01*
X0179542Y0421921D01*
X0179542Y0417945D01*
X0180542Y0416945D01*
X0180542Y0415960D02*
X0177157Y0415960D01*
X0176330Y0415133D02*
X0179142Y0417945D01*
X0179142Y0421921D01*
X0176330Y0424733D01*
X0172354Y0424733D01*
X0171354Y0423733D01*
X0167330Y0423733D01*
X0166330Y0424733D01*
X0162354Y0424733D01*
X0159542Y0421921D01*
X0159542Y0417945D01*
X0162354Y0415133D01*
X0166330Y0415133D01*
X0167330Y0416133D01*
X0171354Y0416133D01*
X0172354Y0415133D01*
X0176330Y0415133D01*
X0179142Y0419159D02*
X0179542Y0419159D01*
X0179978Y0422357D02*
X0178706Y0422357D01*
X0174342Y0419933D02*
X0164342Y0419933D01*
X0161526Y0415960D02*
X0147157Y0415960D01*
X0146330Y0415133D02*
X0149142Y0417945D01*
X0149142Y0421921D01*
X0146330Y0424733D01*
X0142354Y0424733D01*
X0141354Y0423733D01*
X0132330Y0423733D01*
X0131330Y0424733D01*
X0127354Y0424733D01*
X0124542Y0421921D01*
X0124542Y0417945D01*
X0127354Y0415133D01*
X0131330Y0415133D01*
X0132330Y0416133D01*
X0141354Y0416133D01*
X0142354Y0415133D01*
X0146330Y0415133D01*
X0146330Y0414733D02*
X0142354Y0414733D01*
X0139542Y0411921D01*
X0139542Y0407945D01*
X0142354Y0405133D01*
X0143455Y0405133D01*
X0143455Y0388448D01*
X0142870Y0387863D01*
X0142083Y0385962D01*
X0142083Y0383904D01*
X0142870Y0382003D01*
X0144325Y0380548D01*
X0146226Y0379761D01*
X0148284Y0379761D01*
X0150185Y0380548D01*
X0150798Y0381161D01*
X0151412Y0380548D01*
X0153313Y0379761D01*
X0155371Y0379761D01*
X0157272Y0380548D01*
X0157885Y0381161D01*
X0158498Y0380548D01*
X0160400Y0379761D01*
X0162457Y0379761D01*
X0164358Y0380548D01*
X0165813Y0382003D01*
X0166601Y0383904D01*
X0166601Y0384732D01*
X0167563Y0385694D01*
X0168142Y0387091D01*
X0168142Y0406945D01*
X0169142Y0407945D01*
X0169142Y0411921D01*
X0166330Y0414733D01*
X0162354Y0414733D01*
X0159542Y0411921D01*
X0159542Y0407945D01*
X0160542Y0406945D01*
X0160542Y0390105D01*
X0160400Y0390105D01*
X0158498Y0389318D01*
X0157885Y0388705D01*
X0157272Y0389318D01*
X0155371Y0390105D01*
X0153313Y0390105D01*
X0151412Y0389318D01*
X0151055Y0388961D01*
X0151055Y0407776D01*
X0150477Y0409172D01*
X0149142Y0410507D01*
X0149142Y0411921D01*
X0146330Y0414733D01*
X0148301Y0412762D02*
X0160382Y0412762D01*
X0159542Y0409563D02*
X0150086Y0409563D01*
X0151055Y0406365D02*
X0160542Y0406365D01*
X0160542Y0403166D02*
X0151055Y0403166D01*
X0151055Y0399968D02*
X0160542Y0399968D01*
X0160542Y0396769D02*
X0151055Y0396769D01*
X0151055Y0393571D02*
X0160542Y0393571D01*
X0160542Y0390372D02*
X0151055Y0390372D01*
X0147255Y0384933D02*
X0147255Y0407020D01*
X0144342Y0409933D01*
X0141122Y0406365D02*
X0123142Y0406365D01*
X0123142Y0409563D02*
X0139542Y0409563D01*
X0140382Y0412762D02*
X0123142Y0412762D01*
X0123142Y0415960D02*
X0126526Y0415960D01*
X0124542Y0419159D02*
X0124142Y0419159D01*
X0123706Y0422357D02*
X0124978Y0422357D01*
X0129342Y0419933D02*
X0144342Y0419933D01*
X0141526Y0415960D02*
X0132157Y0415960D01*
X0123142Y0403166D02*
X0143455Y0403166D01*
X0143455Y0399968D02*
X0123142Y0399968D01*
X0123142Y0396769D02*
X0143455Y0396769D01*
X0143455Y0393571D02*
X0123712Y0393571D01*
X0124642Y0390372D02*
X0143455Y0390372D01*
X0142585Y0387174D02*
X0123567Y0387174D01*
X0119342Y0390445D02*
X0119342Y0419933D01*
X0115542Y0416945D02*
X0115542Y0394141D01*
X0114942Y0393541D01*
X0114942Y0417545D01*
X0115542Y0416945D01*
X0115542Y0415960D02*
X0114942Y0415960D01*
X0114942Y0412762D02*
X0115542Y0412762D01*
X0115542Y0409563D02*
X0114942Y0409563D01*
X0114942Y0406365D02*
X0115542Y0406365D01*
X0115542Y0403166D02*
X0114942Y0403166D01*
X0114942Y0399968D02*
X0115542Y0399968D01*
X0115542Y0396769D02*
X0114942Y0396769D01*
X0114942Y0393571D02*
X0114972Y0393571D01*
X0114942Y0387174D02*
X0115117Y0387174D01*
X0114942Y0383975D02*
X0142083Y0383975D01*
X0144097Y0380777D02*
X0114942Y0380777D01*
X0114942Y0377578D02*
X0180542Y0377578D01*
X0180542Y0374380D02*
X0114942Y0374380D01*
X0114942Y0371181D02*
X0180542Y0371181D01*
X0180542Y0367983D02*
X0114942Y0367983D01*
X0114942Y0364784D02*
X0123819Y0364784D01*
X0120620Y0361586D02*
X0114942Y0361586D01*
X0114942Y0358387D02*
X0117422Y0358387D01*
X0115542Y0355189D02*
X0114942Y0355189D01*
X0114942Y0351990D02*
X0115542Y0351990D01*
X0115542Y0348792D02*
X0114942Y0348792D01*
X0114942Y0345593D02*
X0115542Y0345593D01*
X0115542Y0342395D02*
X0114942Y0342395D01*
X0119342Y0334933D02*
X0119342Y0354933D01*
X0127342Y0362933D01*
X0155342Y0362933D01*
X0158897Y0361586D02*
X0164620Y0361586D01*
X0161422Y0358387D02*
X0128170Y0358387D01*
X0130285Y0355189D02*
X0124971Y0355189D01*
X0123142Y0351990D02*
X0129041Y0351990D01*
X0129041Y0348792D02*
X0123142Y0348792D01*
X0123142Y0345593D02*
X0128628Y0345593D01*
X0125429Y0342395D02*
X0123142Y0342395D01*
X0127342Y0338933D02*
X0127342Y0330933D01*
X0125342Y0328933D01*
X0119342Y0328933D01*
X0115342Y0324933D01*
X0115342Y0300823D01*
X0134342Y0281823D01*
X0137342Y0278823D01*
X0137342Y0260933D01*
X0133933Y0259233D02*
X0133142Y0259233D01*
X0133142Y0259633D02*
X0133353Y0259633D01*
X0133646Y0259925D01*
X0134120Y0258781D01*
X0135189Y0257712D01*
X0136586Y0257133D01*
X0138098Y0257133D01*
X0139494Y0257712D01*
X0140563Y0258781D01*
X0141142Y0260177D01*
X0141142Y0274013D01*
X0149542Y0274013D01*
X0149542Y0255854D01*
X0133142Y0255854D01*
X0133142Y0259633D01*
X0133142Y0256035D02*
X0149542Y0256035D01*
X0149542Y0259233D02*
X0140751Y0259233D01*
X0141142Y0262432D02*
X0149542Y0262432D01*
X0149542Y0265630D02*
X0141142Y0265630D01*
X0141142Y0268829D02*
X0149542Y0268829D01*
X0149542Y0272027D02*
X0141142Y0272027D01*
X0133542Y0272027D02*
X0114942Y0272027D01*
X0116994Y0274013D02*
X0115705Y0275301D01*
X0115705Y0288344D01*
X0116994Y0289633D01*
X0121158Y0289633D01*
X0114942Y0295849D01*
X0114942Y0223907D01*
X0125189Y0234155D01*
X0126586Y0234733D01*
X0128098Y0234733D01*
X0129494Y0234155D01*
X0130563Y0233086D01*
X0131142Y0231689D01*
X0131142Y0230177D01*
X0130563Y0228781D01*
X0121416Y0219633D01*
X0136778Y0219633D01*
X0142026Y0224881D01*
X0143095Y0225950D01*
X0144491Y0226528D01*
X0149542Y0226528D01*
X0149542Y0240233D01*
X0116994Y0240233D01*
X0115705Y0241522D01*
X0115705Y0254565D01*
X0116994Y0255854D01*
X0125542Y0255854D01*
X0125542Y0259633D01*
X0125330Y0259633D01*
X0124041Y0260921D01*
X0124041Y0268945D01*
X0125330Y0270233D01*
X0133353Y0270233D01*
X0133542Y0270045D01*
X0133542Y0274013D01*
X0116994Y0274013D01*
X0115780Y0275226D02*
X0114942Y0275226D01*
X0114942Y0278424D02*
X0115705Y0278424D01*
X0115705Y0281623D02*
X0114942Y0281623D01*
X0114942Y0284821D02*
X0115705Y0284821D01*
X0115705Y0288020D02*
X0114942Y0288020D01*
X0114942Y0291218D02*
X0119572Y0291218D01*
X0116374Y0294417D02*
X0114942Y0294417D01*
X0119142Y0302397D02*
X0119142Y0310233D01*
X0136778Y0310233D01*
X0149542Y0297469D01*
X0149542Y0289633D01*
X0131906Y0289633D01*
X0119142Y0302397D01*
X0119142Y0304012D02*
X0142999Y0304012D01*
X0146197Y0300814D02*
X0120725Y0300814D01*
X0123923Y0297615D02*
X0149396Y0297615D01*
X0149542Y0294417D02*
X0127122Y0294417D01*
X0130320Y0291218D02*
X0149542Y0291218D01*
X0153342Y0299043D02*
X0153342Y0222728D01*
X0145247Y0222728D01*
X0134342Y0211823D01*
X0134342Y0201933D01*
X0131342Y0198933D01*
X0131342Y0151933D01*
X0119342Y0139933D01*
X0119118Y0145083D02*
X0115481Y0145083D01*
X0114942Y0144544D01*
X0114942Y0150184D01*
X0115547Y0149933D01*
X0123136Y0149933D01*
X0124556Y0150521D01*
X0119118Y0145083D01*
X0121320Y0147285D02*
X0114942Y0147285D01*
X0114942Y0135322D02*
X0114942Y0132768D01*
X0114976Y0132850D01*
X0116425Y0134299D01*
X0117593Y0134783D01*
X0115481Y0134783D01*
X0114942Y0135322D01*
X0114942Y0134491D02*
X0116889Y0134491D01*
X0119342Y0129933D02*
X0120342Y0129933D01*
X0125342Y0124933D01*
X0129342Y0124933D01*
X0149342Y0144933D01*
X0149342Y0184933D01*
X0153142Y0185668D02*
X0171542Y0185668D01*
X0171542Y0188866D02*
X0144392Y0188866D01*
X0144392Y0189638D02*
X0143943Y0190722D01*
X0144354Y0191133D01*
X0157221Y0191133D01*
X0157221Y0190518D01*
X0158509Y0189229D01*
X0170174Y0189229D01*
X0171463Y0190518D01*
X0171463Y0203758D01*
X0170174Y0205046D01*
X0167142Y0205046D01*
X0167142Y0209689D01*
X0167092Y0209809D01*
X0167189Y0209712D01*
X0168586Y0209133D01*
X0170098Y0209133D01*
X0171494Y0209712D01*
X0171542Y0209759D01*
X0171542Y0178177D01*
X0172120Y0176781D01*
X0173189Y0175712D01*
X0173542Y0175359D01*
X0173542Y0112507D01*
X0169768Y0108733D01*
X0133586Y0108733D01*
X0132189Y0108155D01*
X0131120Y0107086D01*
X0129711Y0105676D01*
X0124887Y0105676D01*
X0123598Y0104388D01*
X0123598Y0095478D01*
X0124887Y0094190D01*
X0133796Y0094190D01*
X0135085Y0095478D01*
X0135085Y0100302D01*
X0135916Y0101133D01*
X0172098Y0101133D01*
X0173494Y0101712D01*
X0174122Y0102339D01*
X0173598Y0101075D01*
X0173598Y0098791D01*
X0174473Y0096680D01*
X0176088Y0095064D01*
X0178199Y0094190D01*
X0180484Y0094190D01*
X0182595Y0095064D01*
X0184211Y0096680D01*
X0185085Y0098791D01*
X0185085Y0100302D01*
X0186494Y0101712D01*
X0187563Y0102781D01*
X0188142Y0104177D01*
X0188142Y0132981D01*
X0188195Y0133003D01*
X0189894Y0134701D01*
X0190813Y0136921D01*
X0190813Y0138787D01*
X0195494Y0143467D01*
X0196563Y0144536D01*
X0197142Y0145933D01*
X0197142Y0214484D01*
X0196563Y0215881D01*
X0195494Y0216950D01*
X0191463Y0220981D01*
X0191463Y0224476D01*
X0197663Y0230676D01*
X0197663Y0050533D01*
X0114942Y0050533D01*
X0114942Y0127098D01*
X0114976Y0127016D01*
X0115542Y0126450D01*
X0115542Y0079177D01*
X0116120Y0077781D01*
X0123598Y0070302D01*
X0123598Y0068791D01*
X0124473Y0066680D01*
X0126088Y0065064D01*
X0128199Y0064190D01*
X0130484Y0064190D01*
X0132595Y0065064D01*
X0133664Y0066133D01*
X0175020Y0066133D01*
X0176088Y0065064D01*
X0178199Y0064190D01*
X0180484Y0064190D01*
X0182595Y0065064D01*
X0184211Y0066680D01*
X0185085Y0068791D01*
X0185085Y0071075D01*
X0184211Y0073186D01*
X0182595Y0074802D01*
X0180484Y0075676D01*
X0178199Y0075676D01*
X0176088Y0074802D01*
X0175020Y0073733D01*
X0133664Y0073733D01*
X0132595Y0074802D01*
X0130484Y0075676D01*
X0128973Y0075676D01*
X0123142Y0081507D01*
X0123142Y0121759D01*
X0123189Y0121712D01*
X0124586Y0121133D01*
X0130098Y0121133D01*
X0131494Y0121712D01*
X0152563Y0142781D01*
X0153142Y0144177D01*
X0153142Y0185689D01*
X0152563Y0187086D01*
X0151494Y0188155D01*
X0150098Y0188733D01*
X0148586Y0188733D01*
X0147189Y0188155D01*
X0146120Y0187086D01*
X0145542Y0185689D01*
X0145542Y0146507D01*
X0144142Y0145107D01*
X0144142Y0146921D01*
X0141330Y0149733D01*
X0137354Y0149733D01*
X0134542Y0146921D01*
X0134542Y0145507D01*
X0129118Y0140083D01*
X0128317Y0140083D01*
X0126425Y0139299D01*
X0124976Y0137850D01*
X0124492Y0136682D01*
X0124492Y0139709D01*
X0134563Y0149781D01*
X0135142Y0151177D01*
X0135142Y0152345D01*
X0137354Y0150133D01*
X0141330Y0150133D01*
X0144142Y0152945D01*
X0144142Y0156921D01*
X0143142Y0157921D01*
X0143142Y0178992D01*
X0143623Y0179474D01*
X0144392Y0181330D01*
X0144392Y0183339D01*
X0143623Y0185195D01*
X0143335Y0185484D01*
X0143623Y0185773D01*
X0144392Y0187629D01*
X0144392Y0189638D01*
X0143518Y0185668D02*
X0145542Y0185668D01*
X0145542Y0182469D02*
X0144392Y0182469D01*
X0143420Y0179271D02*
X0145542Y0179271D01*
X0145542Y0176072D02*
X0143142Y0176072D01*
X0143142Y0172874D02*
X0145542Y0172874D01*
X0145542Y0169675D02*
X0143142Y0169675D01*
X0143142Y0166477D02*
X0145542Y0166477D01*
X0145542Y0163278D02*
X0143142Y0163278D01*
X0143142Y0160079D02*
X0145542Y0160079D01*
X0145542Y0156881D02*
X0144142Y0156881D01*
X0144142Y0153682D02*
X0145542Y0153682D01*
X0145542Y0150484D02*
X0141681Y0150484D01*
X0143778Y0147285D02*
X0145542Y0147285D01*
X0150671Y0140888D02*
X0158518Y0140888D01*
X0158789Y0141543D02*
X0157870Y0139323D01*
X0157870Y0136921D01*
X0158789Y0134701D01*
X0160488Y0133003D01*
X0162708Y0132083D01*
X0165110Y0132083D01*
X0167329Y0133003D01*
X0169028Y0134701D01*
X0169947Y0136921D01*
X0169947Y0139323D01*
X0169028Y0141543D01*
X0167329Y0143241D01*
X0165431Y0144028D01*
X0167329Y0144814D01*
X0169028Y0146512D01*
X0169947Y0148732D01*
X0169947Y0151134D01*
X0169028Y0153354D01*
X0167329Y0155052D01*
X0165431Y0155839D01*
X0167329Y0156625D01*
X0169028Y0158324D01*
X0169947Y0160543D01*
X0169947Y0162945D01*
X0169028Y0165165D01*
X0167329Y0166863D01*
X0165110Y0167783D01*
X0162708Y0167783D01*
X0160488Y0166863D01*
X0158789Y0165165D01*
X0157870Y0162945D01*
X0157870Y0160543D01*
X0158789Y0158324D01*
X0160488Y0156625D01*
X0162386Y0155839D01*
X0160488Y0155052D01*
X0158789Y0153354D01*
X0157870Y0151134D01*
X0157870Y0148732D01*
X0158789Y0146512D01*
X0160488Y0144814D01*
X0162386Y0144028D01*
X0160488Y0143241D01*
X0158789Y0141543D01*
X0157870Y0137690D02*
X0147473Y0137690D01*
X0144274Y0134491D02*
X0159000Y0134491D01*
X0162243Y0144087D02*
X0153104Y0144087D01*
X0153142Y0147285D02*
X0158469Y0147285D01*
X0157870Y0150484D02*
X0153142Y0150484D01*
X0153142Y0153682D02*
X0159118Y0153682D01*
X0160232Y0156881D02*
X0153142Y0156881D01*
X0153142Y0160079D02*
X0158062Y0160079D01*
X0158008Y0163278D02*
X0153142Y0163278D01*
X0153142Y0166477D02*
X0160101Y0166477D01*
X0153142Y0169675D02*
X0173542Y0169675D01*
X0173542Y0166477D02*
X0167716Y0166477D01*
X0169809Y0163278D02*
X0173542Y0163278D01*
X0173542Y0160079D02*
X0169755Y0160079D01*
X0167585Y0156881D02*
X0173542Y0156881D01*
X0173542Y0153682D02*
X0168699Y0153682D01*
X0169947Y0150484D02*
X0173542Y0150484D01*
X0173542Y0147285D02*
X0169348Y0147285D01*
X0165574Y0144087D02*
X0173542Y0144087D01*
X0173542Y0140888D02*
X0169299Y0140888D01*
X0169947Y0137690D02*
X0173542Y0137690D01*
X0173542Y0134491D02*
X0168818Y0134491D01*
X0173542Y0131293D02*
X0141076Y0131293D01*
X0137877Y0128094D02*
X0173542Y0128094D01*
X0173542Y0124896D02*
X0134679Y0124896D01*
X0131460Y0121697D02*
X0173542Y0121697D01*
X0173542Y0118499D02*
X0123142Y0118499D01*
X0123142Y0121697D02*
X0123224Y0121697D01*
X0123142Y0115300D02*
X0173542Y0115300D01*
X0173137Y0112102D02*
X0123142Y0112102D01*
X0123142Y0108903D02*
X0169938Y0108903D01*
X0171342Y0104933D02*
X0177342Y0110933D01*
X0177342Y0176933D01*
X0175342Y0178933D01*
X0175342Y0234933D01*
X0184854Y0244445D01*
X0184854Y0264933D01*
X0184854Y0271311D01*
X0174342Y0281823D01*
X0176778Y0274013D02*
X0181054Y0269737D01*
X0181054Y0268629D01*
X0180360Y0267935D01*
X0179553Y0265987D01*
X0179553Y0263879D01*
X0180360Y0261931D01*
X0181054Y0261237D01*
X0181054Y0246019D01*
X0172120Y0237086D01*
X0171542Y0235689D01*
X0171542Y0216107D01*
X0171463Y0216186D01*
X0171463Y0229348D01*
X0170174Y0230637D01*
X0158509Y0230637D01*
X0157221Y0229348D01*
X0157221Y0226528D01*
X0157142Y0226528D01*
X0157142Y0274013D01*
X0176778Y0274013D01*
X0178763Y0272027D02*
X0157142Y0272027D01*
X0157142Y0268829D02*
X0181054Y0268829D01*
X0179553Y0265630D02*
X0157142Y0265630D01*
X0157142Y0262432D02*
X0180153Y0262432D01*
X0181054Y0259233D02*
X0157142Y0259233D01*
X0157142Y0256035D02*
X0181054Y0256035D01*
X0181054Y0252836D02*
X0157142Y0252836D01*
X0157142Y0249638D02*
X0181054Y0249638D01*
X0181054Y0246439D02*
X0157142Y0246439D01*
X0157142Y0243241D02*
X0178276Y0243241D01*
X0175077Y0240042D02*
X0157142Y0240042D01*
X0157142Y0236844D02*
X0172020Y0236844D01*
X0171542Y0233645D02*
X0157142Y0233645D01*
X0157142Y0230447D02*
X0158319Y0230447D01*
X0157221Y0227248D02*
X0157142Y0227248D01*
X0153342Y0222728D02*
X0164342Y0222728D01*
X0164342Y0217933D01*
X0169342Y0212933D01*
X0171463Y0217653D02*
X0171542Y0217653D01*
X0171463Y0220851D02*
X0171542Y0220851D01*
X0171463Y0224050D02*
X0171542Y0224050D01*
X0171463Y0227248D02*
X0171542Y0227248D01*
X0171542Y0230447D02*
X0170365Y0230447D01*
X0179142Y0230637D02*
X0179142Y0233359D01*
X0187006Y0241223D01*
X0188075Y0242292D01*
X0188654Y0243689D01*
X0188654Y0261237D01*
X0189347Y0261931D01*
X0190154Y0263879D01*
X0190154Y0265987D01*
X0189347Y0267935D01*
X0188654Y0268629D01*
X0188654Y0272067D01*
X0188075Y0273464D01*
X0187526Y0274013D01*
X0191542Y0274013D01*
X0191542Y0235302D01*
X0186876Y0230637D01*
X0179142Y0230637D01*
X0179428Y0233645D02*
X0189885Y0233645D01*
X0191542Y0236844D02*
X0182626Y0236844D01*
X0185825Y0240042D02*
X0191542Y0240042D01*
X0191542Y0243241D02*
X0188468Y0243241D01*
X0188654Y0246439D02*
X0191542Y0246439D01*
X0191542Y0249638D02*
X0188654Y0249638D01*
X0188654Y0252836D02*
X0191542Y0252836D01*
X0191542Y0256035D02*
X0188654Y0256035D01*
X0188654Y0259233D02*
X0191542Y0259233D01*
X0191542Y0262432D02*
X0189555Y0262432D01*
X0190154Y0265630D02*
X0191542Y0265630D01*
X0191542Y0268829D02*
X0188654Y0268829D01*
X0188654Y0272027D02*
X0191542Y0272027D01*
X0191542Y0291218D02*
X0157142Y0291218D01*
X0157142Y0294417D02*
X0191542Y0294417D01*
X0191542Y0297615D02*
X0157142Y0297615D01*
X0156721Y0300814D02*
X0191542Y0300814D01*
X0191542Y0304012D02*
X0153747Y0304012D01*
X0153342Y0299043D02*
X0134342Y0318043D01*
X0137342Y0321043D01*
X0137342Y0326933D01*
X0140048Y0329601D02*
X0178635Y0329601D01*
X0181834Y0332799D02*
X0146582Y0332799D01*
X0143342Y0334933D02*
X0133830Y0334933D01*
X0131142Y0330309D02*
X0132776Y0329633D01*
X0134667Y0329633D01*
X0134120Y0329086D01*
X0133542Y0327689D01*
X0133542Y0325854D01*
X0127636Y0325854D01*
X0128563Y0326781D01*
X0130563Y0328781D01*
X0131142Y0330177D01*
X0131142Y0330309D01*
X0130903Y0329601D02*
X0134635Y0329601D01*
X0133542Y0326402D02*
X0128185Y0326402D01*
X0127342Y0338933D02*
X0134342Y0345933D01*
X0134342Y0349933D01*
X0139642Y0348792D02*
X0151826Y0348792D01*
X0155025Y0351990D02*
X0139642Y0351990D01*
X0138398Y0355189D02*
X0158223Y0355189D01*
X0162574Y0348792D02*
X0184589Y0348792D01*
X0184969Y0351990D02*
X0165773Y0351990D01*
X0168971Y0355189D02*
X0186584Y0355189D01*
X0182675Y0358387D02*
X0171142Y0358387D01*
X0170063Y0361586D02*
X0180542Y0361586D01*
X0180542Y0364784D02*
X0158688Y0364784D01*
X0167342Y0358933D02*
X0143342Y0334933D01*
X0142231Y0339196D02*
X0137063Y0339196D01*
X0136177Y0342395D02*
X0145429Y0342395D01*
X0148628Y0345593D02*
X0139314Y0345593D01*
X0149780Y0335998D02*
X0184041Y0335998D01*
X0184293Y0339196D02*
X0152979Y0339196D01*
X0156177Y0342395D02*
X0185542Y0342395D01*
X0185542Y0345593D02*
X0159376Y0345593D01*
X0155705Y0323204D02*
X0152979Y0323204D01*
X0152979Y0320005D02*
X0155705Y0320005D01*
X0155705Y0316807D02*
X0152979Y0316807D01*
X0152979Y0313608D02*
X0155705Y0313608D01*
X0156817Y0310410D02*
X0151867Y0310410D01*
X0150548Y0307211D02*
X0191542Y0307211D01*
X0191542Y0325854D02*
X0185636Y0325854D01*
X0189415Y0329633D01*
X0191542Y0329633D01*
X0191542Y0325854D01*
X0191542Y0326402D02*
X0186185Y0326402D01*
X0189383Y0329601D02*
X0191542Y0329601D01*
X0189342Y0334933D02*
X0189342Y0349421D01*
X0189854Y0349933D01*
X0194677Y0358387D02*
X0197663Y0358387D01*
X0197663Y0361586D02*
X0192995Y0361586D01*
X0194292Y0364784D02*
X0197663Y0364784D01*
X0197663Y0367983D02*
X0193292Y0367983D01*
X0197663Y0371181D02*
X0188142Y0371181D01*
X0188142Y0374380D02*
X0197663Y0374380D01*
X0197663Y0377578D02*
X0188142Y0377578D01*
X0188142Y0380777D02*
X0197663Y0380777D01*
X0197663Y0383975D02*
X0188142Y0383975D01*
X0188142Y0387174D02*
X0197663Y0387174D01*
X0197663Y0390372D02*
X0188142Y0390372D01*
X0188142Y0393571D02*
X0197663Y0393571D01*
X0197663Y0396769D02*
X0188142Y0396769D01*
X0188142Y0399968D02*
X0197663Y0399968D01*
X0197663Y0403166D02*
X0194292Y0403166D01*
X0194292Y0406365D02*
X0197663Y0406365D01*
X0197663Y0409563D02*
X0193323Y0409563D01*
X0197663Y0412762D02*
X0188142Y0412762D01*
X0188142Y0415960D02*
X0197663Y0415960D01*
X0197663Y0419159D02*
X0189142Y0419159D01*
X0188706Y0422357D02*
X0197663Y0422357D01*
X0197663Y0425556D02*
X0114942Y0425556D01*
X0114942Y0428754D02*
X0197663Y0428754D01*
X0197663Y0431953D02*
X0114942Y0431953D01*
X0114942Y0422357D02*
X0114978Y0422357D01*
X0148706Y0422357D02*
X0159978Y0422357D01*
X0159542Y0419159D02*
X0149142Y0419159D01*
X0164342Y0409933D02*
X0164342Y0387846D01*
X0161428Y0384933D01*
X0158270Y0380777D02*
X0157500Y0380777D01*
X0151183Y0380777D02*
X0150414Y0380777D01*
X0164587Y0380777D02*
X0180542Y0380777D01*
X0180542Y0383975D02*
X0166601Y0383975D01*
X0168142Y0387174D02*
X0180542Y0387174D01*
X0180542Y0390372D02*
X0168142Y0390372D01*
X0168142Y0393571D02*
X0180542Y0393571D01*
X0180542Y0396769D02*
X0168142Y0396769D01*
X0168142Y0399968D02*
X0180542Y0399968D01*
X0180542Y0403166D02*
X0168142Y0403166D01*
X0168142Y0406365D02*
X0180542Y0406365D01*
X0180542Y0409563D02*
X0169142Y0409563D01*
X0168301Y0412762D02*
X0180542Y0412762D01*
X0171526Y0415960D02*
X0167157Y0415960D01*
X0189342Y0334933D02*
X0174342Y0319933D01*
X0174342Y0318043D01*
X0175437Y0326402D02*
X0141142Y0326402D01*
X0139800Y0307211D02*
X0119142Y0307211D01*
X0114942Y0329907D02*
X0114942Y0330021D01*
X0114999Y0329964D01*
X0114942Y0329907D01*
X0114942Y0268829D02*
X0124041Y0268829D01*
X0124041Y0265630D02*
X0114942Y0265630D01*
X0114942Y0262432D02*
X0124041Y0262432D01*
X0125542Y0259233D02*
X0114942Y0259233D01*
X0114942Y0256035D02*
X0125542Y0256035D01*
X0129342Y0253043D02*
X0134342Y0248043D01*
X0129342Y0253043D02*
X0129342Y0264933D01*
X0115705Y0252836D02*
X0114942Y0252836D01*
X0114942Y0249638D02*
X0115705Y0249638D01*
X0115705Y0246439D02*
X0114942Y0246439D01*
X0114942Y0243241D02*
X0115705Y0243241D01*
X0114942Y0240042D02*
X0149542Y0240042D01*
X0149542Y0236844D02*
X0114942Y0236844D01*
X0114942Y0233645D02*
X0124680Y0233645D01*
X0127342Y0230933D02*
X0115342Y0218933D01*
X0115342Y0168933D01*
X0119342Y0164933D01*
X0119716Y0169933D02*
X0119142Y0170507D01*
X0119142Y0204013D01*
X0130542Y0204013D01*
X0130542Y0203507D01*
X0129189Y0202155D01*
X0128120Y0201086D01*
X0127542Y0199689D01*
X0127542Y0153507D01*
X0126554Y0152519D01*
X0127142Y0153938D01*
X0127142Y0155928D01*
X0126381Y0157765D01*
X0124974Y0159172D01*
X0123136Y0159933D01*
X0124974Y0160694D01*
X0126381Y0162101D01*
X0127142Y0163938D01*
X0127142Y0165928D01*
X0126381Y0167765D01*
X0124974Y0169172D01*
X0123136Y0169933D01*
X0119716Y0169933D01*
X0119142Y0172874D02*
X0127542Y0172874D01*
X0127542Y0176072D02*
X0119142Y0176072D01*
X0119142Y0179271D02*
X0127542Y0179271D01*
X0127542Y0182469D02*
X0119142Y0182469D01*
X0119142Y0185668D02*
X0127542Y0185668D01*
X0127542Y0188866D02*
X0119142Y0188866D01*
X0119142Y0192065D02*
X0127542Y0192065D01*
X0127542Y0195263D02*
X0119142Y0195263D01*
X0119142Y0198462D02*
X0127542Y0198462D01*
X0128695Y0201660D02*
X0119142Y0201660D01*
X0122634Y0220851D02*
X0137996Y0220851D01*
X0141195Y0224050D02*
X0125832Y0224050D01*
X0129031Y0227248D02*
X0149542Y0227248D01*
X0149542Y0230447D02*
X0131142Y0230447D01*
X0130004Y0233645D02*
X0149542Y0233645D01*
X0152395Y0218928D02*
X0157221Y0218928D01*
X0157221Y0216108D01*
X0158509Y0214820D01*
X0162081Y0214820D01*
X0162189Y0214712D01*
X0162189Y0214712D01*
X0164217Y0212683D01*
X0164098Y0212733D01*
X0162586Y0212733D01*
X0161189Y0212155D01*
X0160120Y0211086D01*
X0159542Y0209689D01*
X0159542Y0205046D01*
X0158509Y0205046D01*
X0157221Y0203758D01*
X0157221Y0198733D01*
X0144354Y0198733D01*
X0143103Y0199983D01*
X0137647Y0199983D01*
X0138142Y0201177D01*
X0138142Y0204013D01*
X0151690Y0204013D01*
X0152979Y0205301D01*
X0152979Y0218344D01*
X0152395Y0218928D01*
X0152979Y0217653D02*
X0157221Y0217653D01*
X0152979Y0214454D02*
X0162447Y0214454D01*
X0160290Y0211256D02*
X0152979Y0211256D01*
X0152979Y0208057D02*
X0159542Y0208057D01*
X0158321Y0204859D02*
X0152536Y0204859D01*
X0157221Y0201660D02*
X0138142Y0201660D01*
X0139342Y0194933D02*
X0160137Y0194933D01*
X0163342Y0198138D01*
X0164342Y0197138D01*
X0163342Y0198138D02*
X0163342Y0208933D01*
X0167142Y0208057D02*
X0171542Y0208057D01*
X0171542Y0204859D02*
X0170362Y0204859D01*
X0171463Y0201660D02*
X0171542Y0201660D01*
X0171463Y0198462D02*
X0171542Y0198462D01*
X0171463Y0195263D02*
X0171542Y0195263D01*
X0171463Y0192065D02*
X0171542Y0192065D01*
X0171542Y0182469D02*
X0153142Y0182469D01*
X0153142Y0179271D02*
X0171542Y0179271D01*
X0172829Y0176072D02*
X0153142Y0176072D01*
X0153142Y0172874D02*
X0173542Y0172874D01*
X0180563Y0179086D02*
X0179142Y0180507D01*
X0179142Y0189229D01*
X0189542Y0189229D01*
X0189542Y0165517D01*
X0188195Y0166863D01*
X0185976Y0167783D01*
X0183574Y0167783D01*
X0181354Y0166863D01*
X0181142Y0166651D01*
X0181142Y0177689D01*
X0180563Y0179086D01*
X0180378Y0179271D02*
X0189542Y0179271D01*
X0189542Y0182469D02*
X0179142Y0182469D01*
X0179142Y0185668D02*
X0189542Y0185668D01*
X0189542Y0188866D02*
X0179142Y0188866D01*
X0184342Y0197138D02*
X0185342Y0198138D01*
X0185342Y0208933D01*
X0188393Y0211256D02*
X0189542Y0211256D01*
X0189542Y0212154D02*
X0189542Y0205046D01*
X0189142Y0205046D01*
X0189142Y0209689D01*
X0188563Y0211086D01*
X0187494Y0212155D01*
X0186098Y0212733D01*
X0184586Y0212733D01*
X0183189Y0212155D01*
X0182120Y0211086D01*
X0181542Y0209689D01*
X0181542Y0205046D01*
X0179142Y0205046D01*
X0179142Y0214820D01*
X0186876Y0214820D01*
X0189542Y0212154D01*
X0187242Y0214454D02*
X0179142Y0214454D01*
X0179142Y0211256D02*
X0182290Y0211256D01*
X0181542Y0208057D02*
X0179142Y0208057D01*
X0189142Y0208057D02*
X0189542Y0208057D01*
X0194791Y0217653D02*
X0197663Y0217653D01*
X0197663Y0220851D02*
X0191593Y0220851D01*
X0191463Y0224050D02*
X0197663Y0224050D01*
X0197663Y0227248D02*
X0194236Y0227248D01*
X0197434Y0230447D02*
X0197663Y0230447D01*
X0197663Y0214454D02*
X0197142Y0214454D01*
X0197142Y0211256D02*
X0197663Y0211256D01*
X0197663Y0208057D02*
X0197142Y0208057D01*
X0197142Y0204859D02*
X0197663Y0204859D01*
X0197663Y0201660D02*
X0197142Y0201660D01*
X0197142Y0198462D02*
X0197663Y0198462D01*
X0197663Y0195263D02*
X0197142Y0195263D01*
X0197142Y0192065D02*
X0197663Y0192065D01*
X0197663Y0188866D02*
X0197142Y0188866D01*
X0197142Y0185668D02*
X0197663Y0185668D01*
X0197663Y0182469D02*
X0197142Y0182469D01*
X0197142Y0179271D02*
X0197663Y0179271D01*
X0197663Y0176072D02*
X0197142Y0176072D01*
X0197142Y0172874D02*
X0197663Y0172874D01*
X0197663Y0169675D02*
X0197142Y0169675D01*
X0197142Y0166477D02*
X0197663Y0166477D01*
X0197663Y0163278D02*
X0197142Y0163278D01*
X0197142Y0160079D02*
X0197663Y0160079D01*
X0197663Y0156881D02*
X0197142Y0156881D01*
X0197142Y0153682D02*
X0197663Y0153682D01*
X0197663Y0150484D02*
X0197142Y0150484D01*
X0197142Y0147285D02*
X0197663Y0147285D01*
X0197663Y0144087D02*
X0196114Y0144087D01*
X0197663Y0140888D02*
X0192915Y0140888D01*
X0190813Y0137690D02*
X0197663Y0137690D01*
X0197663Y0134491D02*
X0189684Y0134491D01*
X0188142Y0131293D02*
X0197663Y0131293D01*
X0197663Y0128094D02*
X0188142Y0128094D01*
X0188142Y0124896D02*
X0197663Y0124896D01*
X0197663Y0121697D02*
X0188142Y0121697D01*
X0188142Y0118499D02*
X0197663Y0118499D01*
X0197663Y0115300D02*
X0188142Y0115300D01*
X0188142Y0112102D02*
X0197663Y0112102D01*
X0197663Y0108903D02*
X0188142Y0108903D01*
X0188142Y0105705D02*
X0197663Y0105705D01*
X0197663Y0102506D02*
X0187289Y0102506D01*
X0185085Y0099308D02*
X0197663Y0099308D01*
X0197663Y0096109D02*
X0183640Y0096109D01*
X0179711Y0105676D02*
X0178199Y0105676D01*
X0176936Y0105153D01*
X0179494Y0107712D01*
X0180542Y0108759D01*
X0180542Y0106507D01*
X0179711Y0105676D01*
X0179740Y0105705D02*
X0177488Y0105705D01*
X0173598Y0099308D02*
X0135085Y0099308D01*
X0135085Y0096109D02*
X0175043Y0096109D01*
X0171342Y0104933D02*
X0134342Y0104933D01*
X0129342Y0099933D01*
X0129740Y0105705D02*
X0123142Y0105705D01*
X0123142Y0102506D02*
X0123598Y0102506D01*
X0123598Y0099308D02*
X0123142Y0099308D01*
X0123142Y0096109D02*
X0123598Y0096109D01*
X0123142Y0092911D02*
X0197663Y0092911D01*
X0197663Y0089712D02*
X0123142Y0089712D01*
X0123142Y0086514D02*
X0197663Y0086514D01*
X0197663Y0083315D02*
X0123142Y0083315D01*
X0124532Y0080117D02*
X0197663Y0080117D01*
X0197663Y0076918D02*
X0127731Y0076918D01*
X0129342Y0069933D02*
X0119342Y0079933D01*
X0119342Y0129933D01*
X0121090Y0134783D02*
X0123203Y0134783D01*
X0124192Y0135772D01*
X0124192Y0133909D01*
X0124976Y0132016D01*
X0126425Y0130567D01*
X0128317Y0129783D01*
X0128818Y0129783D01*
X0127768Y0128733D01*
X0126916Y0128733D01*
X0124351Y0131298D01*
X0123708Y0132850D01*
X0122259Y0134299D01*
X0121090Y0134783D01*
X0121795Y0134491D02*
X0124192Y0134491D01*
X0124356Y0131293D02*
X0125699Y0131293D01*
X0129342Y0134933D02*
X0139342Y0144933D01*
X0134906Y0147285D02*
X0132068Y0147285D01*
X0133122Y0144087D02*
X0128870Y0144087D01*
X0129923Y0140888D02*
X0125671Y0140888D01*
X0124909Y0137690D02*
X0124492Y0137690D01*
X0124466Y0150484D02*
X0124519Y0150484D01*
X0126747Y0156881D02*
X0127542Y0156881D01*
X0127542Y0160079D02*
X0123490Y0160079D01*
X0123136Y0159933D02*
X0115547Y0159933D01*
X0114942Y0160184D01*
X0114942Y0159682D01*
X0115547Y0159933D01*
X0123136Y0159933D01*
X0126868Y0163278D02*
X0127542Y0163278D01*
X0127542Y0166477D02*
X0126914Y0166477D01*
X0127542Y0169675D02*
X0123759Y0169675D01*
X0115194Y0160079D02*
X0114942Y0160079D01*
X0127036Y0153682D02*
X0127542Y0153682D01*
X0134855Y0150484D02*
X0137003Y0150484D01*
X0139342Y0154933D02*
X0139342Y0182335D01*
X0135542Y0178992D02*
X0135542Y0157921D01*
X0135142Y0157521D01*
X0135142Y0179392D01*
X0135542Y0178992D01*
X0135264Y0179271D02*
X0135142Y0179271D01*
X0135142Y0176072D02*
X0135542Y0176072D01*
X0135542Y0172874D02*
X0135142Y0172874D01*
X0135142Y0169675D02*
X0135542Y0169675D01*
X0135542Y0166477D02*
X0135142Y0166477D01*
X0135142Y0163278D02*
X0135542Y0163278D01*
X0135542Y0160079D02*
X0135142Y0160079D01*
X0135142Y0185277D02*
X0135142Y0185692D01*
X0135349Y0185484D01*
X0135142Y0185277D01*
X0135142Y0185668D02*
X0135166Y0185668D01*
X0115084Y0224050D02*
X0114942Y0224050D01*
X0114942Y0227248D02*
X0118283Y0227248D01*
X0121481Y0230447D02*
X0114942Y0230447D01*
X0114942Y0124896D02*
X0115542Y0124896D01*
X0115542Y0121697D02*
X0114942Y0121697D01*
X0114942Y0118499D02*
X0115542Y0118499D01*
X0115542Y0115300D02*
X0114942Y0115300D01*
X0114942Y0112102D02*
X0115542Y0112102D01*
X0115542Y0108903D02*
X0114942Y0108903D01*
X0114942Y0105705D02*
X0115542Y0105705D01*
X0115542Y0102506D02*
X0114942Y0102506D01*
X0114942Y0099308D02*
X0115542Y0099308D01*
X0115542Y0096109D02*
X0114942Y0096109D01*
X0114942Y0092911D02*
X0115542Y0092911D01*
X0115542Y0089712D02*
X0114942Y0089712D01*
X0114942Y0086514D02*
X0115542Y0086514D01*
X0115542Y0083315D02*
X0114942Y0083315D01*
X0114942Y0080117D02*
X0115542Y0080117D01*
X0114942Y0076918D02*
X0116983Y0076918D01*
X0114942Y0073720D02*
X0120181Y0073720D01*
X0123380Y0070521D02*
X0114942Y0070521D01*
X0114942Y0067323D02*
X0124207Y0067323D01*
X0129342Y0069933D02*
X0179342Y0069933D01*
X0183677Y0073720D02*
X0197663Y0073720D01*
X0197663Y0070521D02*
X0185085Y0070521D01*
X0184477Y0067323D02*
X0197663Y0067323D01*
X0197663Y0064124D02*
X0114942Y0064124D01*
X0114942Y0060926D02*
X0197663Y0060926D01*
X0197663Y0057727D02*
X0114942Y0057727D01*
X0114942Y0054529D02*
X0197663Y0054529D01*
X0197663Y0051330D02*
X0114942Y0051330D01*
X0131120Y0107086D02*
X0131120Y0107086D01*
X0181142Y0143029D02*
X0181142Y0145026D01*
X0181354Y0144814D01*
X0183252Y0144028D01*
X0181354Y0143241D01*
X0181142Y0143029D01*
X0181142Y0144087D02*
X0183109Y0144087D01*
X0181142Y0154840D02*
X0181142Y0156837D01*
X0181354Y0156625D01*
X0183252Y0155839D01*
X0181354Y0155052D01*
X0181142Y0154840D01*
X0186297Y0155839D02*
X0188195Y0156625D01*
X0189542Y0157971D01*
X0189542Y0153706D01*
X0188195Y0155052D01*
X0186297Y0155839D01*
X0188452Y0156881D02*
X0189542Y0156881D01*
X0189542Y0166477D02*
X0188582Y0166477D01*
X0189542Y0169675D02*
X0181142Y0169675D01*
X0181142Y0172874D02*
X0189542Y0172874D01*
X0189542Y0176072D02*
X0181142Y0176072D01*
D28*
X0185342Y0208933D03*
X0169342Y0212933D03*
X0163342Y0208933D03*
X0149342Y0184933D03*
X0127342Y0230933D03*
X0137342Y0260933D03*
X0137342Y0326933D03*
X0155342Y0362933D03*
X0167342Y0358933D03*
M02*
