%
M48
M72
T01C0.01378
T02C0.03150
T03C0.03543
T04C0.03600
T05C0.03937
T06C0.04000
T07C0.04400
T08C0.05118
T09C0.05984
T10C0.11811
%
T01
X50533Y142586
X87948Y101650
X119365Y77752
X54133Y214599
X47200Y243185
X51137Y244957
X50940Y258500
X47200Y260705
X62155Y282016
X50743Y300272
X47554Y305272
X56964Y307634
X54838Y325350
X54405Y334524
X59641Y345980
X68775Y360311
X72121Y363894
X86728Y366689
X88066Y374327
X87751Y379799
X93657Y370902
X97239Y360862
X97987Y351098
X96806Y345744
X90192Y353854
X86334Y336413
X81846Y329012
X75547Y335114
X65113Y328815
X73381Y307516
X91728Y320744
X99720Y332398
X100113Y325547
X111925Y321558
X118263Y329406
X125310Y326256
X130783Y320941
X136216Y324917
X139326Y326925
X136373Y330035
X135743Y335311
X141846Y338343
X142082Y332555
X145271Y326098
X150743Y326453
X153932Y331846
X155310Y335665
X162909Y343106
X167948Y350941
X168184Y361807
X169877Y366098
X177515Y356965
X182239Y350665
X186964Y355390
X191885Y348303
X195980Y344012
X191295Y337280
X196137Y332870
X200625Y318264
X199877Y304563
X207239Y305587
X210074Y302161
X216728Y302004
X227909Y288461
X231452Y291610
X234011Y297122
X231649Y284524
X229720Y275783
X221531Y282083
X222120Y264980
X238342Y261886
X243066Y257752
X233027Y240626
X239720Y232161
X244247Y232161
X244838Y236295
X212085Y239589
X190507Y269760
X185586Y279012
X176137Y287083
X164602Y300862
X162239Y303933
X167476Y312673
X172358Y317201
X178499Y313461
X183421Y322713
X186728Y320154
X176728Y329209
X169838Y334720
X175861Y347634
X187358Y367988
X181452Y374681
X183814Y388461
X182633Y394760
X178302Y402634
X169444Y391098
X163972Y384878
X164956Y379839
X160507Y378106
X156924Y371413
X152751Y366335
X155468Y363264
X158932Y360075
X153051Y352492
X149090Y352713
X145310Y352280
X142791Y360035
X137239Y353815
X126295Y353028
X125507Y344563
X125310Y338382
X114129Y343776
X112554Y370547
X117436Y375114
X119090Y383579
X119169Y390035
X113474Y389561
X109562Y382516
X100861Y379681
X96019Y391217
X93617Y396689
X91098Y400783
X88932Y418382
X112948Y397791
X116058Y403224
X128145Y408461
X128460Y415390
X121491Y423854
X133421Y398106
X135980Y393657
X132751Y390232
X129803Y384714
X129484Y378461
X141176Y379209
X144877Y379091
X145861Y372555
X148657Y370311
X158027Y392949
X155822Y406965
X145901Y413224
X136806Y402831
X138164Y432137
X146452Y438224
X178381Y431020
X188736Y438815
X206885Y438894
X218066Y402240
X225350Y396335
X231058Y396728
X230271Y403421
X231924Y411177
X237200Y395508
X234129Y381256
X222161Y377201
X217869Y372713
X215035Y364366
X214365Y357870
X205232Y360941
X201531Y375075
X193145Y383933
X195625Y393972
X171413Y379957
X158224Y318382
X152318Y304602
X147397Y316217
X144090Y313382
X143421Y303028
X137476Y301531
X132948Y300941
X129208Y301374
X129956Y312083
X133814Y290429
X141688Y290429
X133617Y267398
X122397Y267358
X121610Y274681
X111885Y294602
X117909Y304445
X115625Y307831
X99759Y269957
X101924Y243185
X97397Y239051
X92476Y238854
X75743Y271531
X46413Y319760
X64247Y393854
X113145Y240232
X126137Y240429
X157043Y235508
X157633Y245547
X167279Y240232
X157043Y279012
X156846Y286098
X201531Y278815
X206570Y278933
X233027Y308539
X215310Y328224
X242200Y357634
X234011Y105980
X247987Y90626
X255153Y87043
X204484Y102437
T02
X241216Y91846
X241216Y83972
T03
X189247Y87280
X179247Y87280
X169247Y87280
X150468Y380232
X124877Y380232
T04
X62869Y84209
X62869Y94209
X72869Y94209
X72869Y84209
X82869Y84209
X82869Y94209
X92869Y94209
X92869Y84209
X102869Y84209
X102869Y94209
X112869Y94209
X112869Y84209
X122869Y84209
X122869Y94209
X132869Y94209
X132869Y84209
X167712Y291295
X197712Y291295
T05
X151176Y259248
X141176Y259248
X131176Y259248
X121176Y259248
X218617Y451413
X228617Y451413
X238617Y451413
X248617Y451413
T06
X220822Y412083
X210980Y412083
X200743Y412083
X190901Y412083
X181058Y412004
T07
X207161Y332476
X207476Y314917
X247161Y332476
X247476Y314917
T08
X183027Y271728
X183027Y246138
X169208Y449484
X143617Y449484
T09
X78263Y435114
X68263Y435114
X58263Y435114
T10
X80113Y282201
M30
