G75*
%MOIN*%
%OFA0B0*%
%FSLAX25Y25*%
%IPPOS*%
%LPD*%
%AMOC8*
5,1,8,0,0,1.08239X$1,22.5*
%
%ADD10C,0.00600*%
%ADD11C,0.01200*%
%ADD12C,0.00500*%
%ADD13C,0.00800*%
%ADD14C,0.00197*%
D10*
X0047621Y0453309D02*
X0047623Y0453226D01*
X0047629Y0453143D01*
X0047639Y0453060D01*
X0047652Y0452977D01*
X0047670Y0452896D01*
X0047691Y0452815D01*
X0047716Y0452736D01*
X0047745Y0452658D01*
X0047777Y0452581D01*
X0047813Y0452506D01*
X0047852Y0452432D01*
X0047895Y0452361D01*
X0047941Y0452291D01*
X0047991Y0452224D01*
X0048043Y0452159D01*
X0048098Y0452097D01*
X0048157Y0452037D01*
X0048218Y0451980D01*
X0048281Y0451926D01*
X0048347Y0451875D01*
X0048416Y0451828D01*
X0048486Y0451783D01*
X0048559Y0451742D01*
X0048633Y0451705D01*
X0048709Y0451670D01*
X0048787Y0451640D01*
X0048865Y0451613D01*
X0048946Y0451590D01*
X0049027Y0451570D01*
X0049109Y0451555D01*
X0049191Y0451543D01*
X0049274Y0451535D01*
X0049357Y0451531D01*
X0049441Y0451531D01*
X0049524Y0451535D01*
X0049607Y0451543D01*
X0049689Y0451555D01*
X0049771Y0451570D01*
X0049852Y0451590D01*
X0049933Y0451613D01*
X0050011Y0451640D01*
X0050089Y0451670D01*
X0050165Y0451705D01*
X0050239Y0451742D01*
X0050312Y0451783D01*
X0050382Y0451828D01*
X0050451Y0451875D01*
X0050517Y0451926D01*
X0050580Y0451980D01*
X0050641Y0452037D01*
X0050700Y0452097D01*
X0050755Y0452159D01*
X0050807Y0452224D01*
X0050857Y0452291D01*
X0050903Y0452361D01*
X0050946Y0452432D01*
X0050985Y0452506D01*
X0051021Y0452581D01*
X0051053Y0452658D01*
X0051082Y0452736D01*
X0051107Y0452815D01*
X0051128Y0452896D01*
X0051146Y0452977D01*
X0051159Y0453060D01*
X0051169Y0453143D01*
X0051175Y0453226D01*
X0051177Y0453309D01*
X0051175Y0453392D01*
X0051169Y0453475D01*
X0051159Y0453558D01*
X0051146Y0453641D01*
X0051128Y0453722D01*
X0051107Y0453803D01*
X0051082Y0453882D01*
X0051053Y0453960D01*
X0051021Y0454037D01*
X0050985Y0454112D01*
X0050946Y0454186D01*
X0050903Y0454257D01*
X0050857Y0454327D01*
X0050807Y0454394D01*
X0050755Y0454459D01*
X0050700Y0454521D01*
X0050641Y0454581D01*
X0050580Y0454638D01*
X0050517Y0454692D01*
X0050451Y0454743D01*
X0050382Y0454790D01*
X0050312Y0454835D01*
X0050239Y0454876D01*
X0050165Y0454913D01*
X0050089Y0454948D01*
X0050011Y0454978D01*
X0049933Y0455005D01*
X0049852Y0455028D01*
X0049771Y0455048D01*
X0049689Y0455063D01*
X0049607Y0455075D01*
X0049524Y0455083D01*
X0049441Y0455087D01*
X0049357Y0455087D01*
X0049274Y0455083D01*
X0049191Y0455075D01*
X0049109Y0455063D01*
X0049027Y0455048D01*
X0048946Y0455028D01*
X0048865Y0455005D01*
X0048787Y0454978D01*
X0048709Y0454948D01*
X0048633Y0454913D01*
X0048559Y0454876D01*
X0048486Y0454835D01*
X0048416Y0454790D01*
X0048347Y0454743D01*
X0048281Y0454692D01*
X0048218Y0454638D01*
X0048157Y0454581D01*
X0048098Y0454521D01*
X0048043Y0454459D01*
X0047991Y0454394D01*
X0047941Y0454327D01*
X0047895Y0454257D01*
X0047852Y0454186D01*
X0047813Y0454112D01*
X0047777Y0454037D01*
X0047745Y0453960D01*
X0047716Y0453882D01*
X0047691Y0453803D01*
X0047670Y0453722D01*
X0047652Y0453641D01*
X0047639Y0453558D01*
X0047629Y0453475D01*
X0047623Y0453392D01*
X0047621Y0453309D01*
X0047977Y0456509D02*
X0047979Y0456435D01*
X0047985Y0456360D01*
X0047995Y0456287D01*
X0048008Y0456213D01*
X0048025Y0456141D01*
X0048047Y0456070D01*
X0048071Y0455999D01*
X0048100Y0455931D01*
X0048132Y0455863D01*
X0048168Y0455798D01*
X0048206Y0455735D01*
X0048249Y0455673D01*
X0048294Y0455614D01*
X0048342Y0455557D01*
X0048393Y0455503D01*
X0048447Y0455452D01*
X0048504Y0455404D01*
X0048563Y0455359D01*
X0048625Y0455316D01*
X0048688Y0455278D01*
X0048753Y0455242D01*
X0048821Y0455210D01*
X0048889Y0455181D01*
X0048960Y0455157D01*
X0049031Y0455135D01*
X0049103Y0455118D01*
X0049177Y0455105D01*
X0049250Y0455095D01*
X0049325Y0455089D01*
X0049399Y0455087D01*
X0049473Y0455089D01*
X0049548Y0455095D01*
X0049621Y0455105D01*
X0049695Y0455118D01*
X0049767Y0455135D01*
X0049838Y0455157D01*
X0049909Y0455181D01*
X0049977Y0455210D01*
X0050045Y0455242D01*
X0050110Y0455278D01*
X0050173Y0455316D01*
X0050235Y0455359D01*
X0050294Y0455404D01*
X0050351Y0455452D01*
X0050405Y0455503D01*
X0050456Y0455557D01*
X0050504Y0455614D01*
X0050549Y0455673D01*
X0050592Y0455735D01*
X0050630Y0455798D01*
X0050666Y0455863D01*
X0050698Y0455931D01*
X0050727Y0455999D01*
X0050751Y0456070D01*
X0050773Y0456141D01*
X0050790Y0456213D01*
X0050803Y0456287D01*
X0050813Y0456360D01*
X0050819Y0456435D01*
X0050821Y0456509D01*
X0050819Y0456583D01*
X0050813Y0456658D01*
X0050803Y0456731D01*
X0050790Y0456805D01*
X0050773Y0456877D01*
X0050751Y0456948D01*
X0050727Y0457019D01*
X0050698Y0457087D01*
X0050666Y0457155D01*
X0050630Y0457220D01*
X0050592Y0457283D01*
X0050549Y0457345D01*
X0050504Y0457404D01*
X0050456Y0457461D01*
X0050405Y0457515D01*
X0050351Y0457566D01*
X0050294Y0457614D01*
X0050235Y0457659D01*
X0050173Y0457702D01*
X0050110Y0457740D01*
X0050045Y0457776D01*
X0049977Y0457808D01*
X0049909Y0457837D01*
X0049838Y0457861D01*
X0049767Y0457883D01*
X0049695Y0457900D01*
X0049621Y0457913D01*
X0049548Y0457923D01*
X0049473Y0457929D01*
X0049399Y0457931D01*
X0049325Y0457929D01*
X0049250Y0457923D01*
X0049177Y0457913D01*
X0049103Y0457900D01*
X0049031Y0457883D01*
X0048960Y0457861D01*
X0048889Y0457837D01*
X0048821Y0457808D01*
X0048753Y0457776D01*
X0048688Y0457740D01*
X0048625Y0457702D01*
X0048563Y0457659D01*
X0048504Y0457614D01*
X0048447Y0457566D01*
X0048393Y0457515D01*
X0048342Y0457461D01*
X0048294Y0457404D01*
X0048249Y0457345D01*
X0048206Y0457283D01*
X0048168Y0457220D01*
X0048132Y0457155D01*
X0048100Y0457087D01*
X0048071Y0457019D01*
X0048047Y0456948D01*
X0048025Y0456877D01*
X0048008Y0456805D01*
X0047995Y0456731D01*
X0047985Y0456658D01*
X0047979Y0456583D01*
X0047977Y0456509D01*
X0053775Y0451531D02*
X0057331Y0451531D01*
X0055553Y0451531D02*
X0055553Y0457931D01*
X0057331Y0456509D01*
X0063485Y0454731D02*
X0063483Y0454590D01*
X0063477Y0454450D01*
X0063468Y0454309D01*
X0063455Y0454169D01*
X0063438Y0454029D01*
X0063418Y0453890D01*
X0063393Y0453752D01*
X0063365Y0453614D01*
X0063334Y0453477D01*
X0063298Y0453340D01*
X0063259Y0453205D01*
X0063217Y0453071D01*
X0063171Y0452938D01*
X0063121Y0452806D01*
X0063068Y0452676D01*
X0063012Y0452547D01*
X0062952Y0452420D01*
X0063129Y0452953D02*
X0060285Y0456509D01*
X0060462Y0457042D02*
X0060487Y0457108D01*
X0060515Y0457173D01*
X0060547Y0457237D01*
X0060582Y0457298D01*
X0060621Y0457358D01*
X0060662Y0457416D01*
X0060707Y0457471D01*
X0060755Y0457523D01*
X0060805Y0457573D01*
X0060858Y0457621D01*
X0060914Y0457665D01*
X0060971Y0457706D01*
X0061031Y0457744D01*
X0061093Y0457779D01*
X0061157Y0457810D01*
X0061222Y0457838D01*
X0061289Y0457863D01*
X0061356Y0457883D01*
X0061425Y0457900D01*
X0061495Y0457914D01*
X0061565Y0457923D01*
X0061636Y0457929D01*
X0061707Y0457931D01*
X0061778Y0457929D01*
X0061849Y0457923D01*
X0061919Y0457914D01*
X0061989Y0457900D01*
X0062058Y0457883D01*
X0062125Y0457863D01*
X0062192Y0457838D01*
X0062257Y0457810D01*
X0062321Y0457779D01*
X0062383Y0457744D01*
X0062443Y0457706D01*
X0062501Y0457665D01*
X0062556Y0457621D01*
X0062609Y0457573D01*
X0062659Y0457523D01*
X0062707Y0457471D01*
X0062752Y0457416D01*
X0062793Y0457358D01*
X0062832Y0457298D01*
X0062867Y0457237D01*
X0062899Y0457173D01*
X0062927Y0457108D01*
X0062952Y0457042D01*
X0060462Y0457042D02*
X0060402Y0456915D01*
X0060346Y0456786D01*
X0060293Y0456656D01*
X0060243Y0456524D01*
X0060197Y0456391D01*
X0060155Y0456257D01*
X0060116Y0456122D01*
X0060080Y0455985D01*
X0060049Y0455848D01*
X0060021Y0455710D01*
X0059996Y0455572D01*
X0059976Y0455433D01*
X0059959Y0455293D01*
X0059946Y0455153D01*
X0059937Y0455012D01*
X0059931Y0454872D01*
X0059929Y0454731D01*
X0063485Y0454731D02*
X0063483Y0454872D01*
X0063477Y0455012D01*
X0063468Y0455153D01*
X0063455Y0455293D01*
X0063438Y0455433D01*
X0063418Y0455572D01*
X0063393Y0455710D01*
X0063365Y0455848D01*
X0063334Y0455985D01*
X0063298Y0456122D01*
X0063259Y0456257D01*
X0063217Y0456391D01*
X0063171Y0456524D01*
X0063121Y0456656D01*
X0063068Y0456786D01*
X0063012Y0456915D01*
X0062952Y0457042D01*
X0059929Y0454731D02*
X0059931Y0454590D01*
X0059937Y0454450D01*
X0059946Y0454309D01*
X0059959Y0454169D01*
X0059976Y0454029D01*
X0059996Y0453890D01*
X0060021Y0453752D01*
X0060049Y0453614D01*
X0060080Y0453477D01*
X0060116Y0453340D01*
X0060155Y0453205D01*
X0060197Y0453071D01*
X0060243Y0452938D01*
X0060293Y0452806D01*
X0060346Y0452676D01*
X0060402Y0452547D01*
X0060462Y0452420D01*
X0060462Y0452419D02*
X0060487Y0452353D01*
X0060515Y0452288D01*
X0060547Y0452224D01*
X0060582Y0452163D01*
X0060621Y0452103D01*
X0060662Y0452045D01*
X0060707Y0451990D01*
X0060755Y0451938D01*
X0060805Y0451888D01*
X0060858Y0451840D01*
X0060914Y0451796D01*
X0060971Y0451755D01*
X0061031Y0451717D01*
X0061093Y0451682D01*
X0061157Y0451651D01*
X0061222Y0451623D01*
X0061289Y0451598D01*
X0061356Y0451578D01*
X0061425Y0451561D01*
X0061495Y0451547D01*
X0061565Y0451538D01*
X0061636Y0451532D01*
X0061707Y0451530D01*
X0061778Y0451532D01*
X0061849Y0451538D01*
X0061919Y0451547D01*
X0061989Y0451561D01*
X0062058Y0451578D01*
X0062125Y0451598D01*
X0062192Y0451623D01*
X0062257Y0451651D01*
X0062321Y0451682D01*
X0062383Y0451717D01*
X0062443Y0451755D01*
X0062501Y0451796D01*
X0062556Y0451840D01*
X0062609Y0451888D01*
X0062659Y0451938D01*
X0062707Y0451990D01*
X0062752Y0452045D01*
X0062793Y0452103D01*
X0062832Y0452163D01*
X0062867Y0452224D01*
X0062899Y0452288D01*
X0062927Y0452353D01*
X0062952Y0452419D01*
X0066083Y0451531D02*
X0069639Y0451531D01*
X0066617Y0455086D01*
X0067683Y0457931D02*
X0067772Y0457929D01*
X0067861Y0457923D01*
X0067950Y0457914D01*
X0068038Y0457900D01*
X0068125Y0457883D01*
X0068212Y0457862D01*
X0068298Y0457837D01*
X0068382Y0457809D01*
X0068465Y0457776D01*
X0068547Y0457741D01*
X0068627Y0457701D01*
X0068705Y0457659D01*
X0068782Y0457613D01*
X0068856Y0457564D01*
X0068928Y0457511D01*
X0068998Y0457456D01*
X0069065Y0457397D01*
X0069130Y0457336D01*
X0069192Y0457272D01*
X0069251Y0457205D01*
X0069307Y0457136D01*
X0069360Y0457064D01*
X0069410Y0456990D01*
X0069457Y0456914D01*
X0069500Y0456837D01*
X0069540Y0456757D01*
X0069577Y0456675D01*
X0069610Y0456593D01*
X0069639Y0456508D01*
X0066616Y0455086D02*
X0066559Y0455144D01*
X0066503Y0455205D01*
X0066451Y0455268D01*
X0066402Y0455333D01*
X0066356Y0455401D01*
X0066314Y0455471D01*
X0066274Y0455543D01*
X0066239Y0455616D01*
X0066206Y0455692D01*
X0066178Y0455768D01*
X0066153Y0455846D01*
X0066132Y0455925D01*
X0066114Y0456005D01*
X0066101Y0456086D01*
X0066091Y0456167D01*
X0066085Y0456249D01*
X0066083Y0456331D01*
X0066085Y0456410D01*
X0066091Y0456488D01*
X0066100Y0456566D01*
X0066114Y0456643D01*
X0066131Y0456720D01*
X0066152Y0456795D01*
X0066177Y0456870D01*
X0066205Y0456943D01*
X0066237Y0457015D01*
X0066272Y0457085D01*
X0066311Y0457154D01*
X0066353Y0457220D01*
X0066398Y0457284D01*
X0066446Y0457346D01*
X0066497Y0457405D01*
X0066552Y0457462D01*
X0066609Y0457517D01*
X0066668Y0457568D01*
X0066730Y0457616D01*
X0066794Y0457661D01*
X0066860Y0457703D01*
X0066929Y0457742D01*
X0066999Y0457777D01*
X0067071Y0457809D01*
X0067144Y0457837D01*
X0067219Y0457862D01*
X0067294Y0457883D01*
X0067371Y0457900D01*
X0067448Y0457914D01*
X0067526Y0457923D01*
X0067604Y0457929D01*
X0067683Y0457931D01*
X0075251Y0455798D02*
X0077384Y0455798D01*
X0076673Y0457931D02*
X0076673Y0452598D01*
X0076671Y0452534D01*
X0076665Y0452469D01*
X0076656Y0452406D01*
X0076642Y0452343D01*
X0076625Y0452281D01*
X0076604Y0452220D01*
X0076579Y0452160D01*
X0076551Y0452102D01*
X0076519Y0452046D01*
X0076484Y0451992D01*
X0076446Y0451940D01*
X0076405Y0451890D01*
X0076360Y0451844D01*
X0076314Y0451799D01*
X0076264Y0451758D01*
X0076212Y0451720D01*
X0076158Y0451685D01*
X0076102Y0451653D01*
X0076044Y0451625D01*
X0075984Y0451600D01*
X0075923Y0451579D01*
X0075861Y0451562D01*
X0075798Y0451548D01*
X0075735Y0451539D01*
X0075670Y0451533D01*
X0075606Y0451531D01*
X0075251Y0451531D01*
X0079596Y0451531D02*
X0079596Y0454731D01*
X0079596Y0454020D02*
X0081196Y0454020D01*
X0079596Y0454731D02*
X0079598Y0454795D01*
X0079604Y0454860D01*
X0079613Y0454923D01*
X0079627Y0454986D01*
X0079644Y0455048D01*
X0079665Y0455109D01*
X0079690Y0455169D01*
X0079718Y0455227D01*
X0079750Y0455283D01*
X0079785Y0455337D01*
X0079823Y0455389D01*
X0079864Y0455439D01*
X0079909Y0455485D01*
X0079955Y0455530D01*
X0080005Y0455571D01*
X0080057Y0455609D01*
X0080111Y0455644D01*
X0080167Y0455676D01*
X0080225Y0455704D01*
X0080285Y0455729D01*
X0080346Y0455750D01*
X0080408Y0455767D01*
X0080471Y0455781D01*
X0080534Y0455790D01*
X0080599Y0455796D01*
X0080663Y0455798D01*
X0082085Y0455798D01*
X0081196Y0454019D02*
X0081266Y0454017D01*
X0081335Y0454011D01*
X0081404Y0454001D01*
X0081473Y0453988D01*
X0081540Y0453970D01*
X0081607Y0453949D01*
X0081672Y0453924D01*
X0081736Y0453896D01*
X0081798Y0453864D01*
X0081858Y0453828D01*
X0081916Y0453790D01*
X0081972Y0453748D01*
X0082025Y0453703D01*
X0082076Y0453655D01*
X0082124Y0453604D01*
X0082169Y0453551D01*
X0082211Y0453495D01*
X0082249Y0453437D01*
X0082285Y0453377D01*
X0082317Y0453315D01*
X0082345Y0453251D01*
X0082370Y0453186D01*
X0082391Y0453119D01*
X0082409Y0453052D01*
X0082422Y0452983D01*
X0082432Y0452914D01*
X0082438Y0452845D01*
X0082440Y0452775D01*
X0082438Y0452705D01*
X0082432Y0452636D01*
X0082422Y0452567D01*
X0082409Y0452498D01*
X0082391Y0452431D01*
X0082370Y0452364D01*
X0082345Y0452299D01*
X0082317Y0452235D01*
X0082285Y0452173D01*
X0082249Y0452113D01*
X0082211Y0452055D01*
X0082169Y0451999D01*
X0082124Y0451946D01*
X0082076Y0451895D01*
X0082025Y0451847D01*
X0081972Y0451802D01*
X0081916Y0451760D01*
X0081858Y0451722D01*
X0081798Y0451686D01*
X0081736Y0451654D01*
X0081672Y0451626D01*
X0081607Y0451601D01*
X0081540Y0451580D01*
X0081473Y0451562D01*
X0081404Y0451549D01*
X0081335Y0451539D01*
X0081266Y0451533D01*
X0081196Y0451531D01*
X0079596Y0451531D01*
X0085434Y0453309D02*
X0087212Y0454020D01*
X0087267Y0454044D01*
X0087320Y0454071D01*
X0087371Y0454102D01*
X0087420Y0454136D01*
X0087466Y0454173D01*
X0087510Y0454213D01*
X0087552Y0454255D01*
X0087590Y0454301D01*
X0087626Y0454348D01*
X0087658Y0454398D01*
X0087688Y0454450D01*
X0087713Y0454504D01*
X0087736Y0454559D01*
X0087754Y0454615D01*
X0087769Y0454673D01*
X0087781Y0454731D01*
X0087788Y0454790D01*
X0087792Y0454850D01*
X0087791Y0454909D01*
X0087787Y0454969D01*
X0087779Y0455028D01*
X0087768Y0455086D01*
X0087752Y0455143D01*
X0087733Y0455200D01*
X0087711Y0455255D01*
X0087684Y0455308D01*
X0087655Y0455360D01*
X0087622Y0455409D01*
X0087586Y0455457D01*
X0087547Y0455502D01*
X0087505Y0455544D01*
X0087461Y0455584D01*
X0087414Y0455620D01*
X0087365Y0455654D01*
X0087314Y0455684D01*
X0087261Y0455711D01*
X0087206Y0455735D01*
X0087150Y0455754D01*
X0087093Y0455771D01*
X0087034Y0455783D01*
X0086976Y0455792D01*
X0086916Y0455797D01*
X0086857Y0455798D01*
X0087746Y0451886D02*
X0087601Y0451836D01*
X0087454Y0451790D01*
X0087307Y0451747D01*
X0087158Y0451708D01*
X0087008Y0451673D01*
X0086858Y0451641D01*
X0086707Y0451614D01*
X0086555Y0451590D01*
X0086403Y0451571D01*
X0086250Y0451555D01*
X0086097Y0451543D01*
X0085944Y0451535D01*
X0085790Y0451531D01*
X0085731Y0451532D01*
X0085671Y0451537D01*
X0085613Y0451546D01*
X0085554Y0451558D01*
X0085497Y0451575D01*
X0085441Y0451594D01*
X0085386Y0451618D01*
X0085333Y0451645D01*
X0085282Y0451675D01*
X0085233Y0451709D01*
X0085186Y0451745D01*
X0085142Y0451785D01*
X0085100Y0451827D01*
X0085061Y0451872D01*
X0085025Y0451920D01*
X0084992Y0451969D01*
X0084963Y0452021D01*
X0084936Y0452074D01*
X0084914Y0452129D01*
X0084895Y0452186D01*
X0084879Y0452243D01*
X0084868Y0452301D01*
X0084860Y0452360D01*
X0084856Y0452420D01*
X0084855Y0452479D01*
X0084859Y0452539D01*
X0084866Y0452598D01*
X0084878Y0452656D01*
X0084893Y0452714D01*
X0084911Y0452770D01*
X0084934Y0452825D01*
X0084959Y0452879D01*
X0084989Y0452931D01*
X0085021Y0452981D01*
X0085057Y0453028D01*
X0085095Y0453074D01*
X0085137Y0453116D01*
X0085181Y0453156D01*
X0085227Y0453193D01*
X0085276Y0453227D01*
X0085327Y0453258D01*
X0085380Y0453285D01*
X0085435Y0453309D01*
X0085256Y0455442D02*
X0085364Y0455489D01*
X0085474Y0455532D01*
X0085585Y0455573D01*
X0085697Y0455610D01*
X0085809Y0455644D01*
X0085923Y0455675D01*
X0086038Y0455702D01*
X0086154Y0455726D01*
X0086270Y0455746D01*
X0086386Y0455763D01*
X0086503Y0455777D01*
X0086621Y0455787D01*
X0086738Y0455794D01*
X0086856Y0455798D01*
X0090440Y0454731D02*
X0090440Y0451531D01*
X0093284Y0451531D02*
X0093284Y0455798D01*
X0091506Y0455798D01*
X0091442Y0455796D01*
X0091377Y0455790D01*
X0091314Y0455781D01*
X0091251Y0455767D01*
X0091189Y0455750D01*
X0091128Y0455729D01*
X0091068Y0455704D01*
X0091010Y0455676D01*
X0090954Y0455644D01*
X0090900Y0455609D01*
X0090848Y0455571D01*
X0090798Y0455530D01*
X0090752Y0455485D01*
X0090707Y0455439D01*
X0090666Y0455389D01*
X0090628Y0455337D01*
X0090593Y0455283D01*
X0090561Y0455227D01*
X0090533Y0455169D01*
X0090508Y0455109D01*
X0090487Y0455048D01*
X0090470Y0454986D01*
X0090456Y0454923D01*
X0090447Y0454860D01*
X0090441Y0454795D01*
X0090439Y0454731D01*
X0096212Y0454731D02*
X0096212Y0451531D01*
X0097812Y0451531D01*
X0097882Y0451533D01*
X0097951Y0451539D01*
X0098020Y0451549D01*
X0098089Y0451562D01*
X0098156Y0451580D01*
X0098223Y0451601D01*
X0098288Y0451626D01*
X0098352Y0451654D01*
X0098414Y0451686D01*
X0098474Y0451722D01*
X0098532Y0451760D01*
X0098588Y0451802D01*
X0098641Y0451847D01*
X0098692Y0451895D01*
X0098740Y0451946D01*
X0098785Y0451999D01*
X0098827Y0452055D01*
X0098865Y0452113D01*
X0098901Y0452173D01*
X0098933Y0452235D01*
X0098961Y0452299D01*
X0098986Y0452364D01*
X0099007Y0452431D01*
X0099025Y0452498D01*
X0099038Y0452567D01*
X0099048Y0452636D01*
X0099054Y0452705D01*
X0099056Y0452775D01*
X0099054Y0452845D01*
X0099048Y0452914D01*
X0099038Y0452983D01*
X0099025Y0453052D01*
X0099007Y0453119D01*
X0098986Y0453186D01*
X0098961Y0453251D01*
X0098933Y0453315D01*
X0098901Y0453377D01*
X0098865Y0453437D01*
X0098827Y0453495D01*
X0098785Y0453551D01*
X0098740Y0453604D01*
X0098692Y0453655D01*
X0098641Y0453703D01*
X0098588Y0453748D01*
X0098532Y0453790D01*
X0098474Y0453828D01*
X0098414Y0453864D01*
X0098352Y0453896D01*
X0098288Y0453924D01*
X0098223Y0453949D01*
X0098156Y0453970D01*
X0098089Y0453988D01*
X0098020Y0454001D01*
X0097951Y0454011D01*
X0097882Y0454017D01*
X0097812Y0454019D01*
X0097812Y0454020D02*
X0096212Y0454020D01*
X0096212Y0454731D02*
X0096214Y0454795D01*
X0096220Y0454860D01*
X0096229Y0454923D01*
X0096243Y0454986D01*
X0096260Y0455048D01*
X0096281Y0455109D01*
X0096306Y0455169D01*
X0096334Y0455227D01*
X0096366Y0455283D01*
X0096401Y0455337D01*
X0096439Y0455389D01*
X0096480Y0455439D01*
X0096525Y0455485D01*
X0096571Y0455530D01*
X0096621Y0455571D01*
X0096673Y0455609D01*
X0096727Y0455644D01*
X0096783Y0455676D01*
X0096841Y0455704D01*
X0096901Y0455729D01*
X0096962Y0455750D01*
X0097024Y0455767D01*
X0097087Y0455781D01*
X0097150Y0455790D01*
X0097215Y0455796D01*
X0097279Y0455798D01*
X0098701Y0455798D01*
X0101272Y0457931D02*
X0102695Y0457931D01*
X0102769Y0457929D01*
X0102844Y0457923D01*
X0102917Y0457913D01*
X0102991Y0457900D01*
X0103063Y0457883D01*
X0103134Y0457861D01*
X0103205Y0457837D01*
X0103273Y0457808D01*
X0103341Y0457776D01*
X0103406Y0457740D01*
X0103469Y0457702D01*
X0103531Y0457659D01*
X0103590Y0457614D01*
X0103647Y0457566D01*
X0103701Y0457515D01*
X0103752Y0457461D01*
X0103800Y0457404D01*
X0103845Y0457345D01*
X0103888Y0457283D01*
X0103926Y0457220D01*
X0103962Y0457155D01*
X0103994Y0457087D01*
X0104023Y0457019D01*
X0104047Y0456948D01*
X0104069Y0456877D01*
X0104086Y0456805D01*
X0104099Y0456731D01*
X0104109Y0456658D01*
X0104115Y0456583D01*
X0104117Y0456509D01*
X0104117Y0452953D01*
X0104115Y0452879D01*
X0104109Y0452804D01*
X0104099Y0452731D01*
X0104086Y0452657D01*
X0104069Y0452585D01*
X0104047Y0452514D01*
X0104023Y0452443D01*
X0103994Y0452375D01*
X0103962Y0452307D01*
X0103926Y0452242D01*
X0103888Y0452179D01*
X0103845Y0452117D01*
X0103800Y0452058D01*
X0103752Y0452001D01*
X0103701Y0451947D01*
X0103647Y0451896D01*
X0103590Y0451848D01*
X0103531Y0451803D01*
X0103469Y0451760D01*
X0103406Y0451722D01*
X0103341Y0451686D01*
X0103273Y0451654D01*
X0103205Y0451625D01*
X0103134Y0451601D01*
X0103063Y0451579D01*
X0102991Y0451562D01*
X0102917Y0451549D01*
X0102844Y0451539D01*
X0102769Y0451533D01*
X0102695Y0451531D01*
X0101272Y0451531D01*
X0109683Y0451531D02*
X0111105Y0451531D01*
X0111179Y0451533D01*
X0111254Y0451539D01*
X0111327Y0451549D01*
X0111401Y0451562D01*
X0111473Y0451579D01*
X0111544Y0451601D01*
X0111615Y0451625D01*
X0111683Y0451654D01*
X0111751Y0451686D01*
X0111816Y0451722D01*
X0111879Y0451760D01*
X0111941Y0451803D01*
X0112000Y0451848D01*
X0112057Y0451896D01*
X0112111Y0451947D01*
X0112162Y0452001D01*
X0112210Y0452058D01*
X0112255Y0452117D01*
X0112298Y0452179D01*
X0112336Y0452242D01*
X0112372Y0452307D01*
X0112404Y0452375D01*
X0112433Y0452443D01*
X0112457Y0452514D01*
X0112479Y0452585D01*
X0112496Y0452657D01*
X0112509Y0452731D01*
X0112519Y0452804D01*
X0112525Y0452879D01*
X0112527Y0452953D01*
X0112527Y0456509D01*
X0112525Y0456583D01*
X0112519Y0456658D01*
X0112509Y0456731D01*
X0112496Y0456805D01*
X0112479Y0456877D01*
X0112457Y0456948D01*
X0112433Y0457019D01*
X0112404Y0457087D01*
X0112372Y0457155D01*
X0112336Y0457220D01*
X0112298Y0457283D01*
X0112255Y0457345D01*
X0112210Y0457404D01*
X0112162Y0457461D01*
X0112111Y0457515D01*
X0112057Y0457566D01*
X0112000Y0457614D01*
X0111941Y0457659D01*
X0111879Y0457702D01*
X0111816Y0457740D01*
X0111751Y0457776D01*
X0111683Y0457808D01*
X0111615Y0457837D01*
X0111544Y0457861D01*
X0111473Y0457883D01*
X0111401Y0457900D01*
X0111327Y0457913D01*
X0111254Y0457923D01*
X0111179Y0457929D01*
X0111105Y0457931D01*
X0109683Y0457931D01*
X0114864Y0457931D02*
X0116286Y0451531D01*
X0117709Y0455798D01*
X0119131Y0451531D01*
X0120553Y0457931D01*
X0123111Y0457931D02*
X0125244Y0457931D01*
X0125318Y0457929D01*
X0125393Y0457923D01*
X0125466Y0457913D01*
X0125540Y0457900D01*
X0125612Y0457883D01*
X0125683Y0457861D01*
X0125754Y0457837D01*
X0125822Y0457808D01*
X0125890Y0457776D01*
X0125955Y0457740D01*
X0126018Y0457702D01*
X0126080Y0457659D01*
X0126139Y0457614D01*
X0126196Y0457566D01*
X0126250Y0457515D01*
X0126301Y0457461D01*
X0126349Y0457404D01*
X0126394Y0457345D01*
X0126437Y0457283D01*
X0126475Y0457220D01*
X0126511Y0457155D01*
X0126543Y0457087D01*
X0126572Y0457019D01*
X0126596Y0456948D01*
X0126618Y0456877D01*
X0126635Y0456805D01*
X0126648Y0456731D01*
X0126658Y0456658D01*
X0126664Y0456583D01*
X0126666Y0456509D01*
X0126666Y0452953D01*
X0126664Y0452879D01*
X0126658Y0452804D01*
X0126648Y0452731D01*
X0126635Y0452657D01*
X0126618Y0452585D01*
X0126596Y0452514D01*
X0126572Y0452443D01*
X0126543Y0452375D01*
X0126511Y0452307D01*
X0126475Y0452242D01*
X0126437Y0452179D01*
X0126394Y0452117D01*
X0126349Y0452058D01*
X0126301Y0452001D01*
X0126250Y0451947D01*
X0126196Y0451896D01*
X0126139Y0451848D01*
X0126080Y0451803D01*
X0126018Y0451760D01*
X0125955Y0451722D01*
X0125890Y0451686D01*
X0125822Y0451654D01*
X0125754Y0451625D01*
X0125683Y0451601D01*
X0125612Y0451579D01*
X0125540Y0451562D01*
X0125466Y0451549D01*
X0125393Y0451539D01*
X0125318Y0451533D01*
X0125244Y0451531D01*
X0123111Y0451531D01*
X0123111Y0455086D01*
X0124177Y0455086D01*
D11*
X0114318Y0361965D02*
X0110318Y0361965D01*
X0120161Y0361374D02*
X0124161Y0361374D01*
X0137043Y0350933D02*
X0137043Y0346933D01*
X0171767Y0309476D02*
X0171767Y0305476D01*
D12*
X0055980Y0266492D02*
X0055980Y0265705D01*
X0061098Y0265705D01*
X0061098Y0266492D01*
X0055980Y0266492D01*
X0055980Y0276728D01*
X0061098Y0276728D01*
X0066610Y0276728D02*
X0071728Y0276728D01*
X0071728Y0266492D01*
X0071728Y0265705D01*
X0066610Y0265705D01*
X0066610Y0266492D01*
X0071728Y0266492D01*
X0071728Y0266098D02*
X0066610Y0266098D01*
X0061098Y0266098D02*
X0055980Y0266098D01*
X0108401Y0347299D02*
X0109188Y0347299D01*
X0109188Y0349465D01*
X0111747Y0349465D01*
X0111747Y0347299D01*
X0112535Y0347299D01*
X0112535Y0349465D01*
X0111747Y0349465D01*
X0111747Y0347299D02*
X0109188Y0347299D01*
X0108401Y0347299D02*
X0108401Y0349465D01*
X0109188Y0349465D01*
X0094110Y0378244D02*
X0094110Y0379031D01*
X0091944Y0379031D01*
X0091944Y0378244D01*
X0094110Y0378244D01*
X0094110Y0379031D02*
X0094110Y0381591D01*
X0091944Y0381591D01*
X0091944Y0379031D01*
X0091944Y0381591D02*
X0091944Y0382378D01*
X0094110Y0382378D01*
X0094110Y0381591D01*
X0120921Y0393362D02*
X0120921Y0394150D01*
X0123086Y0394150D01*
X0123086Y0396709D01*
X0120921Y0396709D01*
X0120921Y0397496D01*
X0123086Y0397496D01*
X0123086Y0396709D01*
X0120921Y0396709D02*
X0120921Y0394150D01*
X0120921Y0393362D02*
X0123086Y0393362D01*
X0123086Y0394150D01*
X0128480Y0394150D02*
X0130645Y0394150D01*
X0130645Y0396709D01*
X0128480Y0396709D01*
X0128480Y0397496D01*
X0130645Y0397496D01*
X0130645Y0396709D01*
X0128480Y0396709D02*
X0128480Y0394150D01*
X0128480Y0393362D01*
X0130645Y0393362D01*
X0130645Y0394150D01*
D13*
X0131049Y0284139D02*
X0131049Y0278971D01*
X0134824Y0278971D01*
X0136702Y0284171D02*
X0138509Y0284171D01*
X0140443Y0278971D02*
X0144217Y0278971D01*
X0144217Y0284139D01*
X0208901Y0274315D02*
X0208901Y0248512D01*
X0222901Y0248512D01*
X0222901Y0274315D01*
X0208901Y0274315D01*
D14*
X0198145Y0346551D02*
X0251295Y0346551D01*
X0251295Y0393205D01*
X0198145Y0393205D01*
X0198145Y0346551D01*
M02*
