G75*
%MOIN*%
%OFA0B0*%
%FSLAX25Y25*%
%IPPOS*%
%LPD*%
%AMOC8*
5,1,8,0,0,1.08239X$1,22.5*
%
%ADD10C,0.10800*%
%ADD11C,0.06400*%
%ADD12C,0.06737*%
%ADD13OC8,0.06400*%
%ADD14R,0.05682X0.06706*%
%ADD15C,0.00632*%
%ADD16C,0.07400*%
%ADD17R,0.08674X0.06706*%
%ADD18R,0.08674X0.15761*%
%ADD19R,0.03556X0.08379*%
%ADD20R,0.06343X0.06343*%
%ADD21C,0.06343*%
%ADD22R,0.04737X0.05524*%
%ADD23R,0.09776X0.09776*%
%ADD24C,0.09776*%
%ADD25R,0.07099X0.05918*%
%ADD26R,0.06706X0.05682*%
%ADD27R,0.04146X0.09461*%
%ADD28R,0.04737X0.04934*%
%ADD29C,0.12611*%
%ADD30OC8,0.09300*%
%ADD31C,0.03778*%
D10*
X0183027Y0246138D03*
X0183027Y0271728D03*
X0169208Y0449484D03*
X0143617Y0449484D03*
D11*
X0241216Y0091846D03*
X0241216Y0083972D03*
D12*
X0151176Y0256280D02*
X0151176Y0262217D01*
X0141176Y0262217D02*
X0141176Y0256280D01*
X0131176Y0256280D02*
X0131176Y0262217D01*
X0121176Y0262217D02*
X0121176Y0256280D01*
X0218617Y0448445D02*
X0218617Y0454382D01*
X0228617Y0454382D02*
X0228617Y0448445D01*
X0238617Y0448445D02*
X0238617Y0454382D01*
X0248617Y0454382D02*
X0248617Y0448445D01*
D13*
X0062869Y0084209D03*
X0062869Y0094209D03*
X0072869Y0094209D03*
X0072869Y0084209D03*
X0082869Y0084209D03*
X0082869Y0094209D03*
X0092869Y0094209D03*
X0092869Y0084209D03*
X0102869Y0084209D03*
X0102869Y0094209D03*
X0112869Y0094209D03*
X0112869Y0084209D03*
X0122869Y0084209D03*
X0122869Y0094209D03*
X0132869Y0094209D03*
X0132869Y0084209D03*
X0167712Y0291295D03*
X0197712Y0291295D03*
D14*
X0175507Y0307476D03*
X0168027Y0307476D03*
X0140783Y0348933D03*
X0133302Y0348933D03*
D15*
X0113898Y0346527D02*
X0111368Y0346527D01*
X0111368Y0350237D01*
X0113898Y0350237D01*
X0113898Y0346527D01*
X0113898Y0347158D02*
X0111368Y0347158D01*
X0111368Y0347789D02*
X0113898Y0347789D01*
X0113898Y0348420D02*
X0111368Y0348420D01*
X0111368Y0349051D02*
X0113898Y0349051D01*
X0113898Y0349682D02*
X0111368Y0349682D01*
X0109567Y0346527D02*
X0107037Y0346527D01*
X0107037Y0350237D01*
X0109567Y0350237D01*
X0109567Y0346527D01*
X0109567Y0347158D02*
X0107037Y0347158D01*
X0107037Y0347789D02*
X0109567Y0347789D01*
X0109567Y0348420D02*
X0107037Y0348420D01*
X0107037Y0349051D02*
X0109567Y0349051D01*
X0109567Y0349682D02*
X0107037Y0349682D01*
X0091172Y0376881D02*
X0091172Y0379411D01*
X0094882Y0379411D01*
X0094882Y0376881D01*
X0091172Y0376881D01*
X0091172Y0377512D02*
X0094882Y0377512D01*
X0094882Y0378143D02*
X0091172Y0378143D01*
X0091172Y0378774D02*
X0094882Y0378774D01*
X0094882Y0379405D02*
X0091172Y0379405D01*
X0091172Y0381211D02*
X0091172Y0383741D01*
X0094882Y0383741D01*
X0094882Y0381211D01*
X0091172Y0381211D01*
X0091172Y0381842D02*
X0094882Y0381842D01*
X0094882Y0382473D02*
X0091172Y0382473D01*
X0091172Y0383104D02*
X0094882Y0383104D01*
X0094882Y0383735D02*
X0091172Y0383735D01*
X0123858Y0391999D02*
X0123858Y0394529D01*
X0123858Y0391999D02*
X0120148Y0391999D01*
X0120148Y0394529D01*
X0123858Y0394529D01*
X0123858Y0392630D02*
X0120148Y0392630D01*
X0120148Y0393261D02*
X0123858Y0393261D01*
X0123858Y0393892D02*
X0120148Y0393892D01*
X0120148Y0394523D02*
X0123858Y0394523D01*
X0123858Y0396329D02*
X0123858Y0398859D01*
X0123858Y0396329D02*
X0120148Y0396329D01*
X0120148Y0398859D01*
X0123858Y0398859D01*
X0123858Y0396960D02*
X0120148Y0396960D01*
X0120148Y0397591D02*
X0123858Y0397591D01*
X0123858Y0398222D02*
X0120148Y0398222D01*
X0120148Y0398853D02*
X0123858Y0398853D01*
X0131417Y0398859D02*
X0131417Y0396329D01*
X0127707Y0396329D01*
X0127707Y0398859D01*
X0131417Y0398859D01*
X0131417Y0396960D02*
X0127707Y0396960D01*
X0127707Y0397591D02*
X0131417Y0397591D01*
X0131417Y0398222D02*
X0127707Y0398222D01*
X0127707Y0398853D02*
X0131417Y0398853D01*
X0131417Y0394529D02*
X0131417Y0391999D01*
X0127707Y0391999D01*
X0127707Y0394529D01*
X0131417Y0394529D01*
X0131417Y0392630D02*
X0127707Y0392630D01*
X0127707Y0393261D02*
X0131417Y0393261D01*
X0131417Y0393892D02*
X0127707Y0393892D01*
X0127707Y0394523D02*
X0131417Y0394523D01*
D16*
X0207161Y0332476D03*
X0207476Y0314917D03*
X0247161Y0332476D03*
X0247476Y0314917D03*
X0189247Y0087280D03*
X0179247Y0087280D03*
X0169247Y0087280D03*
D17*
X0228302Y0252358D03*
X0228302Y0261413D03*
X0228302Y0270469D03*
D18*
X0203499Y0261413D03*
D19*
X0202220Y0351327D03*
X0207220Y0351327D03*
X0212220Y0351327D03*
X0217220Y0351327D03*
X0222220Y0351327D03*
X0227220Y0351327D03*
X0232220Y0351327D03*
X0237220Y0351327D03*
X0242220Y0351327D03*
X0247220Y0351327D03*
X0247220Y0388429D03*
X0242220Y0388429D03*
X0237220Y0388429D03*
X0232220Y0388429D03*
X0227220Y0388429D03*
X0222220Y0388429D03*
X0217220Y0388429D03*
X0212220Y0388429D03*
X0207220Y0388429D03*
X0202220Y0388429D03*
D20*
X0150468Y0380232D03*
D21*
X0124877Y0380232D03*
D22*
X0133893Y0285508D03*
X0137633Y0277634D03*
X0141373Y0285508D03*
D23*
X0058263Y0435114D03*
D24*
X0068263Y0435114D03*
X0078263Y0435114D03*
D25*
X0213460Y0288657D03*
X0213460Y0281177D03*
D26*
X0122161Y0357634D03*
X0122161Y0365114D03*
X0112318Y0365705D03*
X0112318Y0358224D03*
D27*
X0069267Y0271610D03*
X0058440Y0271610D03*
D28*
X0063854Y0265606D03*
X0063854Y0277614D03*
D29*
X0080113Y0282201D03*
D30*
X0181058Y0412004D03*
X0190901Y0412083D03*
X0200743Y0412083D03*
X0210980Y0412083D03*
X0220822Y0412083D03*
D31*
X0218066Y0402240D03*
X0225350Y0396335D03*
X0231058Y0396728D03*
X0230271Y0403421D03*
X0231924Y0411177D03*
X0237200Y0395508D03*
X0234129Y0381256D03*
X0222161Y0377201D03*
X0217869Y0372713D03*
X0215035Y0364366D03*
X0214365Y0357870D03*
X0205232Y0360941D03*
X0201531Y0375075D03*
X0193145Y0383933D03*
X0195625Y0393972D03*
X0182633Y0394760D03*
X0183814Y0388461D03*
X0181452Y0374681D03*
X0187358Y0367988D03*
X0186964Y0355390D03*
X0182239Y0350665D03*
X0177515Y0356965D03*
X0175861Y0347634D03*
X0167948Y0350941D03*
X0162909Y0343106D03*
X0155310Y0335665D03*
X0153932Y0331846D03*
X0150743Y0326453D03*
X0145271Y0326098D03*
X0142082Y0332555D03*
X0141846Y0338343D03*
X0135743Y0335311D03*
X0136373Y0330035D03*
X0139326Y0326925D03*
X0136216Y0324917D03*
X0130783Y0320941D03*
X0125310Y0326256D03*
X0118263Y0329406D03*
X0111925Y0321558D03*
X0115625Y0307831D03*
X0117909Y0304445D03*
X0111885Y0294602D03*
X0121610Y0274681D03*
X0122397Y0267358D03*
X0133617Y0267398D03*
X0133814Y0290429D03*
X0132948Y0300941D03*
X0129208Y0301374D03*
X0129956Y0312083D03*
X0137476Y0301531D03*
X0143421Y0303028D03*
X0144090Y0313382D03*
X0147397Y0316217D03*
X0152318Y0304602D03*
X0158224Y0318382D03*
X0167476Y0312673D03*
X0172358Y0317201D03*
X0178499Y0313461D03*
X0183421Y0322713D03*
X0186728Y0320154D03*
X0196137Y0332870D03*
X0191295Y0337280D03*
X0195980Y0344012D03*
X0191885Y0348303D03*
X0176728Y0329209D03*
X0169838Y0334720D03*
X0153051Y0352492D03*
X0149090Y0352713D03*
X0145310Y0352280D03*
X0142791Y0360035D03*
X0137239Y0353815D03*
X0126295Y0353028D03*
X0125507Y0344563D03*
X0125310Y0338382D03*
X0114129Y0343776D03*
X0100113Y0325547D03*
X0099720Y0332398D03*
X0096806Y0345744D03*
X0097987Y0351098D03*
X0097239Y0360862D03*
X0090192Y0353854D03*
X0086728Y0366689D03*
X0088066Y0374327D03*
X0087751Y0379799D03*
X0093657Y0370902D03*
X0100861Y0379681D03*
X0096019Y0391217D03*
X0093617Y0396689D03*
X0091098Y0400783D03*
X0088932Y0418382D03*
X0109562Y0382516D03*
X0113474Y0389561D03*
X0119169Y0390035D03*
X0119090Y0383579D03*
X0117436Y0375114D03*
X0112554Y0370547D03*
X0112948Y0397791D03*
X0116058Y0403224D03*
X0128145Y0408461D03*
X0128460Y0415390D03*
X0121491Y0423854D03*
X0133421Y0398106D03*
X0135980Y0393657D03*
X0132751Y0390232D03*
X0129803Y0384714D03*
X0129484Y0378461D03*
X0141176Y0379209D03*
X0144877Y0379091D03*
X0145861Y0372555D03*
X0148657Y0370311D03*
X0152751Y0366335D03*
X0155468Y0363264D03*
X0158932Y0360075D03*
X0156924Y0371413D03*
X0160507Y0378106D03*
X0164956Y0379839D03*
X0163972Y0384878D03*
X0169444Y0391098D03*
X0171413Y0379957D03*
X0169877Y0366098D03*
X0168184Y0361807D03*
X0158027Y0392949D03*
X0155822Y0406965D03*
X0145901Y0413224D03*
X0136806Y0402831D03*
X0138164Y0432137D03*
X0146452Y0438224D03*
X0178381Y0431020D03*
X0188736Y0438815D03*
X0206885Y0438894D03*
X0178302Y0402634D03*
X0215310Y0328224D03*
X0200625Y0318264D03*
X0199877Y0304563D03*
X0207239Y0305587D03*
X0210074Y0302161D03*
X0216728Y0302004D03*
X0227909Y0288461D03*
X0231452Y0291610D03*
X0234011Y0297122D03*
X0231649Y0284524D03*
X0229720Y0275783D03*
X0221531Y0282083D03*
X0222120Y0264980D03*
X0238342Y0261886D03*
X0243066Y0257752D03*
X0233027Y0240626D03*
X0239720Y0232161D03*
X0244247Y0232161D03*
X0244838Y0236295D03*
X0212085Y0239589D03*
X0190507Y0269760D03*
X0185586Y0279012D03*
X0176137Y0287083D03*
X0164602Y0300862D03*
X0162239Y0303933D03*
X0156846Y0286098D03*
X0157043Y0279012D03*
X0141688Y0290429D03*
X0157633Y0245547D03*
X0157043Y0235508D03*
X0167279Y0240232D03*
X0201531Y0278815D03*
X0206570Y0278933D03*
X0233027Y0308539D03*
X0242200Y0357634D03*
X0126137Y0240429D03*
X0113145Y0240232D03*
X0101924Y0243185D03*
X0097397Y0239051D03*
X0092476Y0238854D03*
X0099759Y0269957D03*
X0075743Y0271531D03*
X0062155Y0282016D03*
X0050743Y0300272D03*
X0047554Y0305272D03*
X0056964Y0307634D03*
X0054838Y0325350D03*
X0054405Y0334524D03*
X0059641Y0345980D03*
X0068775Y0360311D03*
X0072121Y0363894D03*
X0086334Y0336413D03*
X0081846Y0329012D03*
X0075547Y0335114D03*
X0065113Y0328815D03*
X0073381Y0307516D03*
X0091728Y0320744D03*
X0050940Y0258500D03*
X0047200Y0260705D03*
X0051137Y0244957D03*
X0047200Y0243185D03*
X0054133Y0214599D03*
X0050533Y0142586D03*
X0087948Y0101650D03*
X0119365Y0077752D03*
X0204484Y0102437D03*
X0234011Y0105980D03*
X0247987Y0090626D03*
X0255153Y0087043D03*
X0064247Y0393854D03*
X0046413Y0319760D03*
M02*
