G75*
%MOIN*%
%OFA0B0*%
%FSLAX25Y25*%
%IPPOS*%
%LPD*%
%AMOC8*
5,1,8,0,0,1.08239X$1,22.5*
%
%ADD10R,0.12598X0.12598*%
%ADD11R,0.04882X0.05906*%
%ADD12R,0.05906X0.04882*%
%ADD13R,0.09843X0.11417*%
%ADD14C,0.00472*%
%ADD15R,0.05315X0.03150*%
%ADD16R,0.03150X0.05315*%
%ADD17C,0.00354*%
%ADD18C,0.00315*%
%ADD19R,0.04724X0.04724*%
%ADD20R,0.03937X0.04724*%
%ADD21R,0.05118X0.06299*%
%ADD22C,0.00197*%
%ADD23C,0.00157*%
%ADD24R,0.07874X0.03937*%
%ADD25R,0.03937X0.07874*%
%ADD26R,0.02165X0.04724*%
%ADD27R,0.03150X0.01083*%
%ADD28R,0.01083X0.03150*%
D10*
X0071767Y0346904D03*
X0071767Y0411671D03*
D11*
X0125233Y0436222D03*
X0132713Y0436222D03*
X0185901Y0431610D03*
X0193381Y0431610D03*
X0194011Y0438736D03*
X0201491Y0438736D03*
X0141610Y0295783D03*
X0134129Y0295783D03*
D12*
X0118342Y0292437D03*
X0118342Y0299917D03*
X0116964Y0316768D03*
X0116964Y0324248D03*
X0148224Y0335193D03*
X0148224Y0342673D03*
X0175428Y0367831D03*
X0175428Y0375311D03*
X0175310Y0384839D03*
X0175310Y0392319D03*
X0172082Y0424445D03*
X0172082Y0431925D03*
X0179995Y0446886D03*
X0179995Y0454366D03*
X0205586Y0432319D03*
X0205586Y0424839D03*
X0109247Y0425744D03*
X0109247Y0419248D03*
X0109247Y0411768D03*
X0109247Y0433224D03*
X0095468Y0419051D03*
X0095468Y0411571D03*
D13*
X0221531Y0273539D03*
X0221531Y0247949D03*
X0241216Y0246256D03*
X0241216Y0271846D03*
D14*
X0149248Y0412319D02*
X0149248Y0414209D01*
X0152318Y0414209D01*
X0152318Y0412319D01*
X0149248Y0412319D01*
X0149248Y0412790D02*
X0152318Y0412790D01*
X0152318Y0413261D02*
X0149248Y0413261D01*
X0149248Y0413732D02*
X0152318Y0413732D01*
X0152318Y0414203D02*
X0149248Y0414203D01*
X0149248Y0416649D02*
X0149248Y0418539D01*
X0152318Y0418539D01*
X0152318Y0416649D01*
X0149248Y0416649D01*
X0149248Y0417120D02*
X0152318Y0417120D01*
X0152318Y0417591D02*
X0149248Y0417591D01*
X0149248Y0418062D02*
X0152318Y0418062D01*
X0152318Y0418533D02*
X0149248Y0418533D01*
X0115507Y0341453D02*
X0115507Y0339563D01*
X0112437Y0339563D01*
X0112437Y0341453D01*
X0115507Y0341453D01*
X0115507Y0340034D02*
X0112437Y0340034D01*
X0112437Y0340505D02*
X0115507Y0340505D01*
X0115507Y0340976D02*
X0112437Y0340976D01*
X0112437Y0341447D02*
X0115507Y0341447D01*
X0115507Y0337122D02*
X0115507Y0335232D01*
X0112437Y0335232D01*
X0112437Y0337122D01*
X0115507Y0337122D01*
X0115507Y0335703D02*
X0112437Y0335703D01*
X0112437Y0336174D02*
X0115507Y0336174D01*
X0115507Y0336645D02*
X0112437Y0336645D01*
X0112437Y0337116D02*
X0115507Y0337116D01*
X0090822Y0342122D02*
X0090822Y0344012D01*
X0090822Y0342122D02*
X0087752Y0342122D01*
X0087752Y0344012D01*
X0090822Y0344012D01*
X0090822Y0342593D02*
X0087752Y0342593D01*
X0087752Y0343064D02*
X0090822Y0343064D01*
X0090822Y0343535D02*
X0087752Y0343535D01*
X0087752Y0344006D02*
X0090822Y0344006D01*
X0090822Y0346453D02*
X0090822Y0348343D01*
X0090822Y0346453D02*
X0087752Y0346453D01*
X0087752Y0348343D01*
X0090822Y0348343D01*
X0090822Y0346924D02*
X0087752Y0346924D01*
X0087752Y0347395D02*
X0090822Y0347395D01*
X0090822Y0347866D02*
X0087752Y0347866D01*
X0087752Y0348337D02*
X0090822Y0348337D01*
X0085625Y0348146D02*
X0085625Y0346256D01*
X0082555Y0346256D01*
X0082555Y0348146D01*
X0085625Y0348146D01*
X0085625Y0346727D02*
X0082555Y0346727D01*
X0082555Y0347198D02*
X0085625Y0347198D01*
X0085625Y0347669D02*
X0082555Y0347669D01*
X0082555Y0348140D02*
X0085625Y0348140D01*
X0085625Y0343815D02*
X0085625Y0341925D01*
X0082555Y0341925D01*
X0082555Y0343815D01*
X0085625Y0343815D01*
X0085625Y0342396D02*
X0082555Y0342396D01*
X0082555Y0342867D02*
X0085625Y0342867D01*
X0085625Y0343338D02*
X0082555Y0343338D01*
X0082555Y0343809D02*
X0085625Y0343809D01*
D15*
X0226767Y0363185D03*
X0236767Y0363185D03*
D16*
X0050665Y0375744D03*
X0050665Y0385744D03*
D17*
X0223008Y0417338D02*
X0226196Y0417338D01*
X0223008Y0417338D02*
X0223008Y0422102D01*
X0226196Y0422102D01*
X0226196Y0417338D01*
X0226196Y0417691D02*
X0223008Y0417691D01*
X0223008Y0418044D02*
X0226196Y0418044D01*
X0226196Y0418397D02*
X0223008Y0418397D01*
X0223008Y0418750D02*
X0226196Y0418750D01*
X0226196Y0419103D02*
X0223008Y0419103D01*
X0223008Y0419456D02*
X0226196Y0419456D01*
X0226196Y0419809D02*
X0223008Y0419809D01*
X0223008Y0420162D02*
X0226196Y0420162D01*
X0226196Y0420515D02*
X0223008Y0420515D01*
X0223008Y0420868D02*
X0226196Y0420868D01*
X0226196Y0421221D02*
X0223008Y0421221D01*
X0223008Y0421574D02*
X0226196Y0421574D01*
X0226196Y0421927D02*
X0223008Y0421927D01*
X0226748Y0426000D02*
X0229936Y0426000D01*
X0226748Y0426000D02*
X0226748Y0430764D01*
X0229936Y0430764D01*
X0229936Y0426000D01*
X0229936Y0426353D02*
X0226748Y0426353D01*
X0226748Y0426706D02*
X0229936Y0426706D01*
X0229936Y0427059D02*
X0226748Y0427059D01*
X0226748Y0427412D02*
X0229936Y0427412D01*
X0229936Y0427765D02*
X0226748Y0427765D01*
X0226748Y0428118D02*
X0229936Y0428118D01*
X0229936Y0428471D02*
X0226748Y0428471D01*
X0226748Y0428824D02*
X0229936Y0428824D01*
X0229936Y0429177D02*
X0226748Y0429177D01*
X0226748Y0429530D02*
X0229936Y0429530D01*
X0229936Y0429883D02*
X0226748Y0429883D01*
X0226748Y0430236D02*
X0229936Y0430236D01*
X0229936Y0430589D02*
X0226748Y0430589D01*
X0230488Y0417338D02*
X0233676Y0417338D01*
X0230488Y0417338D02*
X0230488Y0422102D01*
X0233676Y0422102D01*
X0233676Y0417338D01*
X0233676Y0417691D02*
X0230488Y0417691D01*
X0230488Y0418044D02*
X0233676Y0418044D01*
X0233676Y0418397D02*
X0230488Y0418397D01*
X0230488Y0418750D02*
X0233676Y0418750D01*
X0233676Y0419103D02*
X0230488Y0419103D01*
X0230488Y0419456D02*
X0233676Y0419456D01*
X0233676Y0419809D02*
X0230488Y0419809D01*
X0230488Y0420162D02*
X0233676Y0420162D01*
X0233676Y0420515D02*
X0230488Y0420515D01*
X0230488Y0420868D02*
X0233676Y0420868D01*
X0233676Y0421221D02*
X0230488Y0421221D01*
X0230488Y0421574D02*
X0233676Y0421574D01*
X0233676Y0421927D02*
X0230488Y0421927D01*
D18*
X0106846Y0340468D02*
X0105586Y0340468D01*
X0105586Y0341728D01*
X0106846Y0341728D01*
X0106846Y0340468D01*
X0106846Y0340782D02*
X0105586Y0340782D01*
X0105586Y0341096D02*
X0106846Y0341096D01*
X0106846Y0341410D02*
X0105586Y0341410D01*
X0105586Y0341724D02*
X0106846Y0341724D01*
X0106846Y0337319D02*
X0105586Y0337319D01*
X0105586Y0338579D01*
X0106846Y0338579D01*
X0106846Y0337319D01*
X0106846Y0337633D02*
X0105586Y0337633D01*
X0105586Y0337947D02*
X0106846Y0337947D01*
X0106846Y0338261D02*
X0105586Y0338261D01*
X0105586Y0338575D02*
X0106846Y0338575D01*
X0106846Y0334169D02*
X0105586Y0334169D01*
X0105586Y0335429D01*
X0106846Y0335429D01*
X0106846Y0334169D01*
X0106846Y0334483D02*
X0105586Y0334483D01*
X0105586Y0334797D02*
X0106846Y0334797D01*
X0106846Y0335111D02*
X0105586Y0335111D01*
X0105586Y0335425D02*
X0106846Y0335425D01*
X0106846Y0331020D02*
X0105586Y0331020D01*
X0105586Y0332280D01*
X0106846Y0332280D01*
X0106846Y0331020D01*
X0106846Y0331334D02*
X0105586Y0331334D01*
X0105586Y0331648D02*
X0106846Y0331648D01*
X0106846Y0331962D02*
X0105586Y0331962D01*
X0105586Y0332276D02*
X0106846Y0332276D01*
X0097397Y0331020D02*
X0096137Y0331020D01*
X0096137Y0332280D01*
X0097397Y0332280D01*
X0097397Y0331020D01*
X0097397Y0331334D02*
X0096137Y0331334D01*
X0096137Y0331648D02*
X0097397Y0331648D01*
X0097397Y0331962D02*
X0096137Y0331962D01*
X0096137Y0332276D02*
X0097397Y0332276D01*
X0097397Y0334169D02*
X0096137Y0334169D01*
X0096137Y0335429D01*
X0097397Y0335429D01*
X0097397Y0334169D01*
X0097397Y0334483D02*
X0096137Y0334483D01*
X0096137Y0334797D02*
X0097397Y0334797D01*
X0097397Y0335111D02*
X0096137Y0335111D01*
X0096137Y0335425D02*
X0097397Y0335425D01*
X0097397Y0337319D02*
X0096137Y0337319D01*
X0096137Y0338579D01*
X0097397Y0338579D01*
X0097397Y0337319D01*
X0097397Y0337633D02*
X0096137Y0337633D01*
X0096137Y0337947D02*
X0097397Y0337947D01*
X0097397Y0338261D02*
X0096137Y0338261D01*
X0096137Y0338575D02*
X0097397Y0338575D01*
X0097397Y0340468D02*
X0096137Y0340468D01*
X0096137Y0341728D01*
X0097397Y0341728D01*
X0097397Y0340468D01*
X0097397Y0340782D02*
X0096137Y0340782D01*
X0096137Y0341096D02*
X0097397Y0341096D01*
X0097397Y0341410D02*
X0096137Y0341410D01*
X0096137Y0341724D02*
X0097397Y0341724D01*
D19*
X0058736Y0329248D03*
X0050468Y0329248D03*
D20*
X0110310Y0283539D03*
X0114050Y0275665D03*
X0117791Y0283539D03*
X0167987Y0405587D03*
X0164247Y0413461D03*
X0171728Y0413461D03*
D21*
X0184995Y0312752D03*
X0192476Y0312752D03*
D22*
X0076708Y0324661D02*
X0076708Y0326433D01*
X0078874Y0326433D01*
X0078874Y0324661D01*
X0076708Y0324661D01*
X0076708Y0324857D02*
X0078874Y0324857D01*
X0078874Y0325053D02*
X0076708Y0325053D01*
X0076708Y0325249D02*
X0078874Y0325249D01*
X0078874Y0325445D02*
X0076708Y0325445D01*
X0076708Y0325641D02*
X0078874Y0325641D01*
X0078874Y0325837D02*
X0076708Y0325837D01*
X0076708Y0326033D02*
X0078874Y0326033D01*
X0078874Y0326229D02*
X0076708Y0326229D01*
X0076708Y0326425D02*
X0078874Y0326425D01*
X0076708Y0330567D02*
X0076708Y0332339D01*
X0078874Y0332339D01*
X0078874Y0330567D01*
X0076708Y0330567D01*
X0076708Y0330763D02*
X0078874Y0330763D01*
X0078874Y0330959D02*
X0076708Y0330959D01*
X0076708Y0331155D02*
X0078874Y0331155D01*
X0078874Y0331351D02*
X0076708Y0331351D01*
X0076708Y0331547D02*
X0078874Y0331547D01*
X0078874Y0331743D02*
X0076708Y0331743D01*
X0076708Y0331939D02*
X0078874Y0331939D01*
X0078874Y0332135D02*
X0076708Y0332135D01*
X0076708Y0332331D02*
X0078874Y0332331D01*
X0069621Y0332339D02*
X0069621Y0330567D01*
X0069621Y0332339D02*
X0071787Y0332339D01*
X0071787Y0330567D01*
X0069621Y0330567D01*
X0069621Y0330763D02*
X0071787Y0330763D01*
X0071787Y0330959D02*
X0069621Y0330959D01*
X0069621Y0331155D02*
X0071787Y0331155D01*
X0071787Y0331351D02*
X0069621Y0331351D01*
X0069621Y0331547D02*
X0071787Y0331547D01*
X0071787Y0331743D02*
X0069621Y0331743D01*
X0069621Y0331939D02*
X0071787Y0331939D01*
X0071787Y0332135D02*
X0069621Y0332135D01*
X0069621Y0332331D02*
X0071787Y0332331D01*
X0069621Y0326433D02*
X0069621Y0324661D01*
X0069621Y0326433D02*
X0071787Y0326433D01*
X0071787Y0324661D01*
X0069621Y0324661D01*
X0069621Y0324857D02*
X0071787Y0324857D01*
X0071787Y0325053D02*
X0069621Y0325053D01*
X0069621Y0325249D02*
X0071787Y0325249D01*
X0071787Y0325445D02*
X0069621Y0325445D01*
X0069621Y0325641D02*
X0071787Y0325641D01*
X0071787Y0325837D02*
X0069621Y0325837D01*
X0069621Y0326033D02*
X0071787Y0326033D01*
X0071787Y0326229D02*
X0069621Y0326229D01*
X0069621Y0326425D02*
X0071787Y0326425D01*
D23*
X0069601Y0327791D02*
X0069601Y0329209D01*
X0071807Y0329209D01*
X0071807Y0327791D01*
X0069601Y0327791D01*
X0069601Y0327947D02*
X0071807Y0327947D01*
X0071807Y0328103D02*
X0069601Y0328103D01*
X0069601Y0328259D02*
X0071807Y0328259D01*
X0071807Y0328415D02*
X0069601Y0328415D01*
X0069601Y0328571D02*
X0071807Y0328571D01*
X0071807Y0328727D02*
X0069601Y0328727D01*
X0069601Y0328883D02*
X0071807Y0328883D01*
X0071807Y0329039D02*
X0069601Y0329039D01*
X0069601Y0329195D02*
X0071807Y0329195D01*
X0076688Y0329209D02*
X0076688Y0327791D01*
X0076688Y0329209D02*
X0078894Y0329209D01*
X0078894Y0327791D01*
X0076688Y0327791D01*
X0076688Y0327947D02*
X0078894Y0327947D01*
X0078894Y0328103D02*
X0076688Y0328103D01*
X0076688Y0328259D02*
X0078894Y0328259D01*
X0078894Y0328415D02*
X0076688Y0328415D01*
X0076688Y0328571D02*
X0078894Y0328571D01*
X0078894Y0328727D02*
X0076688Y0328727D01*
X0076688Y0328883D02*
X0078894Y0328883D01*
X0078894Y0329039D02*
X0076688Y0329039D01*
X0076688Y0329195D02*
X0078894Y0329195D01*
D24*
X0059129Y0123933D03*
X0059129Y0131807D03*
X0059129Y0139681D03*
X0059129Y0147555D03*
X0059129Y0155429D03*
X0059129Y0163303D03*
X0059129Y0171177D03*
X0059129Y0179051D03*
X0059129Y0186925D03*
X0059129Y0194799D03*
X0059129Y0202673D03*
X0059129Y0210547D03*
X0059129Y0218421D03*
X0238263Y0218421D03*
X0238263Y0210547D03*
X0238263Y0202673D03*
X0238263Y0194799D03*
X0238263Y0147555D03*
X0238263Y0139681D03*
X0238263Y0131807D03*
X0238263Y0123933D03*
D25*
X0222712Y0112122D03*
X0212712Y0112122D03*
X0202712Y0112122D03*
X0192712Y0112122D03*
X0182712Y0112122D03*
X0172712Y0112122D03*
X0162712Y0112122D03*
X0152712Y0112122D03*
X0142712Y0112122D03*
X0132712Y0112122D03*
X0122712Y0112122D03*
X0112712Y0112122D03*
X0102712Y0112122D03*
X0092712Y0112122D03*
X0082712Y0112122D03*
X0072712Y0112122D03*
X0072712Y0230232D03*
X0082712Y0230232D03*
X0092712Y0230232D03*
X0102712Y0230232D03*
X0112712Y0230232D03*
X0122712Y0230232D03*
X0132712Y0230232D03*
X0142712Y0230232D03*
X0152712Y0230232D03*
X0162712Y0230232D03*
X0172712Y0230232D03*
X0182712Y0230232D03*
X0192712Y0230232D03*
X0202712Y0230232D03*
X0212712Y0230232D03*
X0222712Y0230232D03*
X0103539Y0251492D03*
X0097633Y0251492D03*
X0091728Y0251492D03*
X0085822Y0251492D03*
X0079917Y0251492D03*
X0074011Y0251492D03*
X0068106Y0251492D03*
X0062200Y0251492D03*
X0056295Y0251492D03*
X0050389Y0251492D03*
X0050389Y0314484D03*
X0056295Y0314484D03*
X0062200Y0314484D03*
X0068106Y0314484D03*
X0074011Y0314484D03*
X0079917Y0314484D03*
X0085822Y0314484D03*
X0091728Y0314484D03*
X0097633Y0314484D03*
X0103539Y0314484D03*
D26*
X0150428Y0423185D03*
X0154169Y0423185D03*
X0157909Y0423185D03*
X0157909Y0433422D03*
X0150428Y0433422D03*
X0192239Y0446807D03*
X0195980Y0446807D03*
X0199720Y0446807D03*
X0199720Y0457044D03*
X0192239Y0457044D03*
D27*
X0172889Y0328894D03*
X0172889Y0326925D03*
X0172889Y0324957D03*
X0172889Y0322988D03*
X0172889Y0321020D03*
X0162850Y0321020D03*
X0162850Y0322988D03*
X0162850Y0324957D03*
X0162850Y0326925D03*
X0162850Y0328894D03*
X0154070Y0321059D03*
X0154070Y0319091D03*
X0154070Y0317122D03*
X0154070Y0315154D03*
X0154070Y0313185D03*
X0154070Y0311217D03*
X0154070Y0309248D03*
X0140094Y0309248D03*
X0140094Y0311217D03*
X0140094Y0313185D03*
X0140094Y0315154D03*
X0140094Y0317122D03*
X0140094Y0319091D03*
X0140094Y0321059D03*
D28*
X0143145Y0322142D03*
X0145113Y0322142D03*
X0147082Y0322142D03*
X0149050Y0322142D03*
X0151019Y0322142D03*
X0151019Y0308165D03*
X0149050Y0308165D03*
X0147082Y0308165D03*
X0145113Y0308165D03*
X0143145Y0308165D03*
X0165901Y0319937D03*
X0167869Y0319937D03*
X0169838Y0319937D03*
X0169838Y0329976D03*
X0167869Y0329976D03*
X0165901Y0329976D03*
M02*
