G75*
%MOIN*%
%OFA0B0*%
%FSLAX25Y25*%
%IPPOS*%
%LPD*%
%AMOC8*
5,1,8,0,0,1.08239X$1,22.5*
%
%ADD10C,0.10000*%
%ADD11C,0.05600*%
%ADD12C,0.05937*%
%ADD13OC8,0.05600*%
%ADD14R,0.04882X0.05906*%
%ADD15C,0.00472*%
%ADD16C,0.06600*%
%ADD17R,0.07874X0.05906*%
%ADD18R,0.07874X0.14961*%
%ADD19R,0.02756X0.07579*%
%ADD20R,0.05543X0.05543*%
%ADD21C,0.05543*%
%ADD22R,0.03937X0.04724*%
%ADD23R,0.08976X0.08976*%
%ADD24C,0.08976*%
%ADD25R,0.06299X0.05118*%
%ADD26R,0.05906X0.04882*%
%ADD27R,0.03346X0.08661*%
%ADD28R,0.03937X0.04134*%
%ADD29OC8,0.08500*%
%ADD30C,0.02978*%
%ADD31C,0.02000*%
%ADD32C,0.01600*%
%ADD33C,0.01000*%
%ADD34C,0.01200*%
%ADD35C,0.00600*%
%ADD36C,0.00800*%
D10*
X0183027Y0246138D03*
X0183027Y0271728D03*
X0169208Y0449484D03*
X0143617Y0449484D03*
D11*
X0241216Y0091846D03*
X0241216Y0083972D03*
D12*
X0151176Y0256280D02*
X0151176Y0262217D01*
X0141176Y0262217D02*
X0141176Y0256280D01*
X0131176Y0256280D02*
X0131176Y0262217D01*
X0121176Y0262217D02*
X0121176Y0256280D01*
X0218617Y0448445D02*
X0218617Y0454382D01*
X0228617Y0454382D02*
X0228617Y0448445D01*
X0238617Y0448445D02*
X0238617Y0454382D01*
X0248617Y0454382D02*
X0248617Y0448445D01*
D13*
X0197712Y0291295D03*
X0167712Y0291295D03*
X0132869Y0094209D03*
X0132869Y0084209D03*
X0122869Y0084209D03*
X0122869Y0094209D03*
X0112869Y0094209D03*
X0112869Y0084209D03*
X0102869Y0084209D03*
X0102869Y0094209D03*
X0092869Y0094209D03*
X0092869Y0084209D03*
X0082869Y0084209D03*
X0082869Y0094209D03*
X0072869Y0094209D03*
X0072869Y0084209D03*
X0062869Y0084209D03*
X0062869Y0094209D03*
D14*
X0168027Y0307476D03*
X0175507Y0307476D03*
X0140783Y0348933D03*
X0133302Y0348933D03*
D15*
X0113578Y0346847D02*
X0111688Y0346847D01*
X0111688Y0349917D01*
X0113578Y0349917D01*
X0113578Y0346847D01*
X0113578Y0347318D02*
X0111688Y0347318D01*
X0111688Y0347789D02*
X0113578Y0347789D01*
X0113578Y0348260D02*
X0111688Y0348260D01*
X0111688Y0348731D02*
X0113578Y0348731D01*
X0113578Y0349202D02*
X0111688Y0349202D01*
X0111688Y0349673D02*
X0113578Y0349673D01*
X0109247Y0346847D02*
X0107357Y0346847D01*
X0107357Y0349917D01*
X0109247Y0349917D01*
X0109247Y0346847D01*
X0109247Y0347318D02*
X0107357Y0347318D01*
X0107357Y0347789D02*
X0109247Y0347789D01*
X0109247Y0348260D02*
X0107357Y0348260D01*
X0107357Y0348731D02*
X0109247Y0348731D01*
X0109247Y0349202D02*
X0107357Y0349202D01*
X0107357Y0349673D02*
X0109247Y0349673D01*
X0091492Y0377201D02*
X0091492Y0379091D01*
X0094562Y0379091D01*
X0094562Y0377201D01*
X0091492Y0377201D01*
X0091492Y0377672D02*
X0094562Y0377672D01*
X0094562Y0378143D02*
X0091492Y0378143D01*
X0091492Y0378614D02*
X0094562Y0378614D01*
X0094562Y0379085D02*
X0091492Y0379085D01*
X0091492Y0381531D02*
X0091492Y0383421D01*
X0094562Y0383421D01*
X0094562Y0381531D01*
X0091492Y0381531D01*
X0091492Y0382002D02*
X0094562Y0382002D01*
X0094562Y0382473D02*
X0091492Y0382473D01*
X0091492Y0382944D02*
X0094562Y0382944D01*
X0094562Y0383415D02*
X0091492Y0383415D01*
X0123538Y0392319D02*
X0123538Y0394209D01*
X0123538Y0392319D02*
X0120468Y0392319D01*
X0120468Y0394209D01*
X0123538Y0394209D01*
X0123538Y0392790D02*
X0120468Y0392790D01*
X0120468Y0393261D02*
X0123538Y0393261D01*
X0123538Y0393732D02*
X0120468Y0393732D01*
X0120468Y0394203D02*
X0123538Y0394203D01*
X0123538Y0396649D02*
X0123538Y0398539D01*
X0123538Y0396649D02*
X0120468Y0396649D01*
X0120468Y0398539D01*
X0123538Y0398539D01*
X0123538Y0397120D02*
X0120468Y0397120D01*
X0120468Y0397591D02*
X0123538Y0397591D01*
X0123538Y0398062D02*
X0120468Y0398062D01*
X0120468Y0398533D02*
X0123538Y0398533D01*
X0131097Y0398539D02*
X0131097Y0396649D01*
X0128027Y0396649D01*
X0128027Y0398539D01*
X0131097Y0398539D01*
X0131097Y0397120D02*
X0128027Y0397120D01*
X0128027Y0397591D02*
X0131097Y0397591D01*
X0131097Y0398062D02*
X0128027Y0398062D01*
X0128027Y0398533D02*
X0131097Y0398533D01*
X0131097Y0394209D02*
X0131097Y0392319D01*
X0128027Y0392319D01*
X0128027Y0394209D01*
X0131097Y0394209D01*
X0131097Y0392790D02*
X0128027Y0392790D01*
X0128027Y0393261D02*
X0131097Y0393261D01*
X0131097Y0393732D02*
X0128027Y0393732D01*
X0128027Y0394203D02*
X0131097Y0394203D01*
D16*
X0207161Y0332476D03*
X0207476Y0314917D03*
X0247161Y0332476D03*
X0247476Y0314917D03*
X0189247Y0087280D03*
X0179247Y0087280D03*
X0169247Y0087280D03*
D17*
X0228302Y0252358D03*
X0228302Y0261413D03*
X0228302Y0270469D03*
D18*
X0203499Y0261413D03*
D19*
X0202220Y0351327D03*
X0207220Y0351327D03*
X0212220Y0351327D03*
X0217220Y0351327D03*
X0222220Y0351327D03*
X0227220Y0351327D03*
X0232220Y0351327D03*
X0237220Y0351327D03*
X0242220Y0351327D03*
X0247220Y0351327D03*
X0247220Y0388429D03*
X0242220Y0388429D03*
X0237220Y0388429D03*
X0232220Y0388429D03*
X0227220Y0388429D03*
X0222220Y0388429D03*
X0217220Y0388429D03*
X0212220Y0388429D03*
X0207220Y0388429D03*
X0202220Y0388429D03*
D20*
X0150468Y0380232D03*
D21*
X0124877Y0380232D03*
D22*
X0133893Y0285508D03*
X0137633Y0277634D03*
X0141373Y0285508D03*
D23*
X0058263Y0435114D03*
D24*
X0068263Y0435114D03*
X0078263Y0435114D03*
D25*
X0213460Y0288657D03*
X0213460Y0281177D03*
D26*
X0122161Y0357634D03*
X0122161Y0365114D03*
X0112318Y0365705D03*
X0112318Y0358224D03*
D27*
X0069267Y0271610D03*
X0058440Y0271610D03*
D28*
X0063854Y0265606D03*
X0063854Y0277614D03*
D29*
X0181058Y0412004D03*
X0190901Y0412083D03*
X0200743Y0412083D03*
X0210980Y0412083D03*
X0220822Y0412083D03*
D30*
X0218066Y0402240D03*
X0225350Y0396335D03*
X0231058Y0396728D03*
X0230271Y0403421D03*
X0231924Y0411177D03*
X0237200Y0395508D03*
X0234129Y0381256D03*
X0222161Y0377201D03*
X0217869Y0372713D03*
X0215035Y0364366D03*
X0214365Y0357870D03*
X0205232Y0360941D03*
X0201531Y0375075D03*
X0193145Y0383933D03*
X0195625Y0393972D03*
X0182633Y0394760D03*
X0183814Y0388461D03*
X0181452Y0374681D03*
X0187358Y0367988D03*
X0186964Y0355390D03*
X0182239Y0350665D03*
X0177515Y0356965D03*
X0175861Y0347634D03*
X0167948Y0350941D03*
X0162909Y0343106D03*
X0155310Y0335665D03*
X0153932Y0331846D03*
X0150743Y0326453D03*
X0145271Y0326098D03*
X0142082Y0332555D03*
X0141846Y0338343D03*
X0135743Y0335311D03*
X0136373Y0330035D03*
X0139326Y0326925D03*
X0136216Y0324917D03*
X0130783Y0320941D03*
X0125310Y0326256D03*
X0118263Y0329406D03*
X0111925Y0321558D03*
X0115625Y0307831D03*
X0117909Y0304445D03*
X0111885Y0294602D03*
X0121610Y0274681D03*
X0122397Y0267358D03*
X0133617Y0267398D03*
X0133814Y0290429D03*
X0132948Y0300941D03*
X0129208Y0301374D03*
X0129956Y0312083D03*
X0137476Y0301531D03*
X0143421Y0303028D03*
X0144090Y0313382D03*
X0147397Y0316217D03*
X0152318Y0304602D03*
X0158224Y0318382D03*
X0167476Y0312673D03*
X0172358Y0317201D03*
X0178499Y0313461D03*
X0183421Y0322713D03*
X0186728Y0320154D03*
X0196137Y0332870D03*
X0191295Y0337280D03*
X0195980Y0344012D03*
X0191885Y0348303D03*
X0176728Y0329209D03*
X0169838Y0334720D03*
X0153051Y0352492D03*
X0149090Y0352713D03*
X0145310Y0352280D03*
X0142791Y0360035D03*
X0137239Y0353815D03*
X0126295Y0353028D03*
X0125507Y0344563D03*
X0125310Y0338382D03*
X0114129Y0343776D03*
X0100113Y0325547D03*
X0099720Y0332398D03*
X0096806Y0345744D03*
X0097987Y0351098D03*
X0097239Y0360862D03*
X0090192Y0353854D03*
X0086728Y0366689D03*
X0088066Y0374327D03*
X0087751Y0379799D03*
X0093657Y0370902D03*
X0100861Y0379681D03*
X0096019Y0391217D03*
X0093617Y0396689D03*
X0091098Y0400783D03*
X0088932Y0418382D03*
X0109562Y0382516D03*
X0113474Y0389561D03*
X0119169Y0390035D03*
X0119090Y0383579D03*
X0117436Y0375114D03*
X0112554Y0370547D03*
X0112948Y0397791D03*
X0116058Y0403224D03*
X0128145Y0408461D03*
X0128460Y0415390D03*
X0121491Y0423854D03*
X0133421Y0398106D03*
X0135980Y0393657D03*
X0132751Y0390232D03*
X0129803Y0384714D03*
X0129484Y0378461D03*
X0141176Y0379209D03*
X0144877Y0379091D03*
X0145861Y0372555D03*
X0148657Y0370311D03*
X0152751Y0366335D03*
X0155468Y0363264D03*
X0158932Y0360075D03*
X0156924Y0371413D03*
X0160507Y0378106D03*
X0164956Y0379839D03*
X0163972Y0384878D03*
X0169444Y0391098D03*
X0171413Y0379957D03*
X0169877Y0366098D03*
X0168184Y0361807D03*
X0158027Y0392949D03*
X0155822Y0406965D03*
X0145901Y0413224D03*
X0136806Y0402831D03*
X0138164Y0432137D03*
X0146452Y0438224D03*
X0178381Y0431020D03*
X0188736Y0438815D03*
X0206885Y0438894D03*
X0178302Y0402634D03*
X0215310Y0328224D03*
X0200625Y0318264D03*
X0199877Y0304563D03*
X0207239Y0305587D03*
X0210074Y0302161D03*
X0216728Y0302004D03*
X0227909Y0288461D03*
X0231452Y0291610D03*
X0234011Y0297122D03*
X0231649Y0284524D03*
X0229720Y0275783D03*
X0221531Y0282083D03*
X0222120Y0264980D03*
X0238342Y0261886D03*
X0243066Y0257752D03*
X0233027Y0240626D03*
X0239720Y0232161D03*
X0244247Y0232161D03*
X0244838Y0236295D03*
X0212085Y0239589D03*
X0190507Y0269760D03*
X0185586Y0279012D03*
X0176137Y0287083D03*
X0164602Y0300862D03*
X0162239Y0303933D03*
X0156846Y0286098D03*
X0157043Y0279012D03*
X0141688Y0290429D03*
X0157633Y0245547D03*
X0157043Y0235508D03*
X0167279Y0240232D03*
X0201531Y0278815D03*
X0206570Y0278933D03*
X0233027Y0308539D03*
X0242200Y0357634D03*
X0126137Y0240429D03*
X0113145Y0240232D03*
X0101924Y0243185D03*
X0097397Y0239051D03*
X0092476Y0238854D03*
X0099759Y0269957D03*
X0075743Y0271531D03*
X0062155Y0282016D03*
X0050743Y0300272D03*
X0047554Y0305272D03*
X0056964Y0307634D03*
X0054838Y0325350D03*
X0054405Y0334524D03*
X0059641Y0345980D03*
X0068775Y0360311D03*
X0072121Y0363894D03*
X0086334Y0336413D03*
X0081846Y0329012D03*
X0075547Y0335114D03*
X0065113Y0328815D03*
X0073381Y0307516D03*
X0091728Y0320744D03*
X0050940Y0258500D03*
X0047200Y0260705D03*
X0051137Y0244957D03*
X0047200Y0243185D03*
X0054133Y0214599D03*
X0050533Y0142586D03*
X0087948Y0101650D03*
X0119365Y0077752D03*
X0204484Y0102437D03*
X0234011Y0105980D03*
X0247987Y0090626D03*
X0255153Y0087043D03*
X0064247Y0393854D03*
X0046413Y0319760D03*
D31*
X0054405Y0334524D02*
X0064641Y0334524D01*
X0105232Y0375114D01*
X0117436Y0375114D01*
X0112554Y0370547D02*
X0112554Y0365941D01*
X0112318Y0365705D01*
X0112909Y0365114D01*
X0122161Y0365114D01*
X0122161Y0357634D02*
X0122161Y0275232D01*
X0121610Y0274681D01*
X0126137Y0273106D02*
X0126137Y0240429D01*
X0161176Y0240429D01*
X0190507Y0269760D01*
X0194444Y0277083D02*
X0194444Y0247122D01*
X0202515Y0239248D01*
X0202318Y0239248D01*
X0202515Y0239248D02*
X0178893Y0239051D01*
X0177712Y0240232D01*
X0167279Y0240232D01*
X0157830Y0236295D02*
X0157043Y0235508D01*
X0157830Y0236295D02*
X0244838Y0236295D01*
X0248578Y0235508D02*
X0245232Y0232161D01*
X0244247Y0232161D01*
X0239720Y0232161D02*
X0247594Y0224287D01*
X0247594Y0112083D01*
X0237948Y0102437D01*
X0204484Y0102437D01*
X0234011Y0105980D02*
X0092279Y0105980D01*
X0087948Y0101650D01*
X0092869Y0084209D02*
X0099326Y0077752D01*
X0119365Y0077752D01*
X0122869Y0084209D02*
X0129247Y0077831D01*
X0245625Y0077831D01*
X0251531Y0083736D01*
X0251531Y0278618D01*
X0241688Y0288461D01*
X0241688Y0309130D01*
X0247476Y0314917D01*
X0247161Y0315232D01*
X0247161Y0332476D01*
X0247220Y0344937D02*
X0226885Y0324602D01*
X0197043Y0324602D01*
X0175861Y0347634D01*
X0162909Y0343106D02*
X0162239Y0342437D01*
X0162239Y0303933D01*
X0168027Y0307476D02*
X0168027Y0291610D01*
X0167712Y0291295D01*
X0175153Y0286098D02*
X0156846Y0286098D01*
X0154484Y0282555D02*
X0188972Y0282555D01*
X0194444Y0277083D01*
X0188972Y0282555D02*
X0197712Y0291295D01*
X0203499Y0280783D02*
X0203499Y0303028D01*
X0206058Y0305587D01*
X0207239Y0305587D01*
X0210074Y0302161D02*
X0206570Y0298657D01*
X0206570Y0278933D01*
X0203499Y0280783D02*
X0201531Y0278815D01*
X0203499Y0271217D02*
X0203499Y0261413D01*
X0203499Y0271217D02*
X0213460Y0281177D01*
X0220625Y0281177D01*
X0213460Y0288657D02*
X0213460Y0308933D01*
X0207476Y0314917D01*
X0200625Y0318264D02*
X0199877Y0317516D01*
X0199877Y0304563D01*
X0193066Y0321531D02*
X0212161Y0321531D01*
X0216688Y0317004D01*
X0216754Y0306385D01*
X0231452Y0291610D01*
X0234011Y0297122D02*
X0234011Y0307555D01*
X0233027Y0308539D01*
X0227909Y0288461D02*
X0241688Y0288461D01*
X0234208Y0281965D02*
X0234208Y0245941D01*
X0233027Y0244760D01*
X0233027Y0240626D01*
X0228814Y0252358D02*
X0228302Y0252358D01*
X0225271Y0252358D01*
X0212085Y0239589D01*
X0202515Y0239248D01*
X0185586Y0279012D02*
X0157043Y0279012D01*
X0154484Y0282555D02*
X0131176Y0259248D01*
X0144877Y0245547D01*
X0157633Y0245547D01*
X0137633Y0277634D02*
X0130665Y0277634D01*
X0126137Y0273106D01*
X0122397Y0267358D02*
X0121255Y0267358D01*
X0119050Y0269563D01*
X0113736Y0264248D01*
X0113736Y0246138D01*
X0106649Y0239051D01*
X0097397Y0239051D01*
X0101924Y0243185D02*
X0099956Y0245154D01*
X0056649Y0245154D01*
X0046806Y0235311D01*
X0046806Y0100272D01*
X0062869Y0084209D01*
X0050533Y0142586D02*
X0050533Y0234121D01*
X0057830Y0240429D01*
X0090901Y0240429D01*
X0092476Y0238854D01*
X0104484Y0231571D02*
X0113145Y0240232D01*
X0104484Y0231571D02*
X0059602Y0231571D01*
X0054287Y0226256D01*
X0054133Y0214599D01*
X0047200Y0243185D02*
X0047200Y0260705D01*
X0051137Y0244957D02*
X0076092Y0268004D01*
X0099759Y0269957D01*
X0075743Y0271531D02*
X0075665Y0271610D01*
X0069267Y0271610D01*
X0065113Y0321335D02*
X0065113Y0328815D01*
X0087751Y0379799D02*
X0090428Y0382476D01*
X0093027Y0382476D01*
X0096019Y0391217D02*
X0111054Y0392964D01*
X0112948Y0393657D01*
X0122003Y0397594D01*
X0112318Y0358224D02*
X0118263Y0352280D01*
X0118263Y0329406D01*
X0125310Y0326256D02*
X0125743Y0282358D01*
X0130468Y0277634D01*
X0130665Y0277634D01*
X0125665Y0338382D02*
X0125310Y0338382D01*
X0125665Y0338382D02*
X0130485Y0345041D01*
X0133302Y0348933D01*
X0176137Y0287083D02*
X0175153Y0286098D01*
X0216098Y0339642D02*
X0222220Y0345764D01*
X0222220Y0351327D01*
X0234129Y0381256D02*
X0237220Y0384346D01*
X0237220Y0388429D01*
X0237200Y0388449D01*
X0237200Y0395508D01*
X0247220Y0388429D02*
X0254129Y0395339D01*
X0254129Y0410350D01*
X0238617Y0425862D01*
X0238617Y0451413D01*
X0247220Y0388429D02*
X0255153Y0380496D01*
X0255153Y0367516D01*
X0255153Y0087043D01*
X0247987Y0090626D02*
X0247987Y0092791D01*
X0241688Y0099091D01*
X0148578Y0099091D01*
X0138736Y0089248D01*
X0107909Y0089248D01*
X0102869Y0084209D01*
X0234208Y0281965D02*
X0231649Y0284524D01*
X0243066Y0257752D02*
X0248578Y0252240D01*
X0248578Y0235508D01*
X0247220Y0344937D02*
X0247220Y0351327D01*
X0242220Y0351327D02*
X0242200Y0351346D01*
X0242200Y0357634D01*
X0202220Y0388429D02*
X0197641Y0388429D01*
X0193145Y0383933D01*
X0088932Y0418382D02*
X0087751Y0417201D01*
X0058263Y0407122D02*
X0078499Y0386886D01*
X0058263Y0407122D02*
X0058263Y0435114D01*
D32*
X0061019Y0360311D02*
X0047043Y0346335D01*
X0047043Y0335154D01*
X0052791Y0329406D01*
X0059405Y0329406D01*
X0060153Y0328657D01*
X0060153Y0310823D01*
X0056964Y0307634D01*
X0048499Y0304327D02*
X0047554Y0305272D01*
X0048499Y0304327D02*
X0082594Y0304327D01*
X0099838Y0321571D01*
X0111925Y0321558D01*
X0130783Y0320941D02*
X0130586Y0330154D01*
X0135743Y0335311D01*
X0150704Y0356217D02*
X0122161Y0357634D01*
X0141806Y0387831D02*
X0161019Y0387831D01*
X0163972Y0384878D01*
X0160507Y0378106D02*
X0156452Y0378106D01*
X0148657Y0370311D01*
X0152751Y0367240D02*
X0152751Y0366335D01*
X0152751Y0367240D02*
X0156924Y0371413D01*
X0158932Y0360075D02*
X0161767Y0357240D01*
X0173066Y0357240D01*
X0173066Y0362909D01*
X0169877Y0366098D01*
X0167948Y0350941D02*
X0177791Y0350941D01*
X0194759Y0367909D01*
X0255153Y0367516D01*
X0225350Y0396335D02*
X0222220Y0393205D01*
X0222220Y0389406D01*
X0222220Y0388429D01*
X0205232Y0360941D02*
X0197987Y0360941D01*
X0195980Y0344012D02*
X0200350Y0339642D01*
X0216098Y0339642D01*
X0207161Y0332476D02*
X0196137Y0332870D01*
X0186728Y0320154D02*
X0186728Y0311728D01*
X0197712Y0300744D01*
X0197712Y0291295D01*
X0153051Y0352492D02*
X0150704Y0356217D01*
X0141806Y0387831D02*
X0135980Y0393657D01*
X0135586Y0393264D01*
X0129562Y0393264D01*
X0122003Y0393264D01*
X0122003Y0397594D02*
X0137633Y0413224D01*
X0145901Y0413224D01*
X0140940Y0406965D02*
X0155822Y0406965D01*
X0158027Y0392949D02*
X0167594Y0392949D01*
X0169444Y0391098D01*
X0174129Y0398106D02*
X0133421Y0398106D01*
X0130074Y0398106D01*
X0129562Y0397594D01*
X0136806Y0402831D02*
X0140940Y0406965D01*
X0095232Y0353854D02*
X0097987Y0351098D01*
X0095232Y0353854D02*
X0090192Y0353854D01*
X0068775Y0360311D02*
X0061019Y0360311D01*
X0065113Y0321335D02*
X0065113Y0315783D01*
X0073381Y0307516D01*
X0063854Y0265606D02*
X0056747Y0258500D01*
X0050940Y0258500D01*
X0188736Y0438815D02*
X0206806Y0438815D01*
X0206885Y0438894D01*
D33*
X0153932Y0331846D02*
X0152712Y0326453D01*
X0150743Y0326453D01*
X0144090Y0313382D02*
X0137200Y0320272D01*
X0136216Y0324917D01*
X0133814Y0290429D02*
X0133893Y0290350D01*
X0133893Y0285508D01*
X0141373Y0285508D02*
X0141688Y0285823D01*
X0141688Y0290429D01*
X0168027Y0307476D02*
X0176728Y0316177D01*
X0176728Y0329209D01*
X0172358Y0317201D02*
X0167476Y0312870D01*
X0167476Y0312673D01*
X0175507Y0310469D02*
X0175507Y0307476D01*
X0175507Y0310469D02*
X0178499Y0313461D01*
D34*
X0045501Y0098466D02*
X0045501Y0076525D01*
X0097442Y0076525D01*
X0097126Y0076841D01*
X0093758Y0080209D01*
X0091213Y0080209D01*
X0088869Y0082552D01*
X0088869Y0085866D01*
X0091213Y0088209D01*
X0094526Y0088209D01*
X0096869Y0085866D01*
X0096869Y0083320D01*
X0100237Y0079952D01*
X0110904Y0079952D01*
X0108469Y0082386D01*
X0108469Y0083909D01*
X0112569Y0083909D01*
X0112569Y0084509D01*
X0108469Y0084509D01*
X0108469Y0086031D01*
X0109486Y0087048D01*
X0108820Y0087048D01*
X0106869Y0085097D01*
X0106869Y0082552D01*
X0104526Y0080209D01*
X0101213Y0080209D01*
X0098869Y0082552D01*
X0098869Y0085866D01*
X0101213Y0088209D01*
X0103758Y0088209D01*
X0105709Y0090159D01*
X0106997Y0091448D01*
X0109973Y0091448D01*
X0108869Y0092552D01*
X0108869Y0095866D01*
X0111213Y0098209D01*
X0114526Y0098209D01*
X0116869Y0095866D01*
X0116869Y0092552D01*
X0115766Y0091448D01*
X0119973Y0091448D01*
X0118869Y0092552D01*
X0118869Y0095866D01*
X0121213Y0098209D01*
X0124526Y0098209D01*
X0126869Y0095866D01*
X0126869Y0092552D01*
X0125766Y0091448D01*
X0129973Y0091448D01*
X0128869Y0092552D01*
X0128869Y0095866D01*
X0131213Y0098209D01*
X0134526Y0098209D01*
X0136869Y0095866D01*
X0136869Y0092552D01*
X0135766Y0091448D01*
X0137824Y0091448D01*
X0147667Y0101291D01*
X0202048Y0101291D01*
X0201795Y0101902D01*
X0201795Y0102972D01*
X0202129Y0103780D01*
X0093190Y0103780D01*
X0090637Y0101227D01*
X0090637Y0101115D01*
X0090228Y0100126D01*
X0089471Y0099370D01*
X0088483Y0098961D01*
X0087413Y0098961D01*
X0086425Y0099370D01*
X0085669Y0100126D01*
X0085259Y0101115D01*
X0085259Y0102184D01*
X0085669Y0103173D01*
X0086425Y0103929D01*
X0087413Y0104339D01*
X0087526Y0104339D01*
X0090079Y0106892D01*
X0091368Y0108180D01*
X0232408Y0108180D01*
X0232488Y0108260D01*
X0233476Y0108669D01*
X0234546Y0108669D01*
X0235534Y0108260D01*
X0236291Y0107503D01*
X0236700Y0106515D01*
X0236700Y0105445D01*
X0236365Y0104637D01*
X0237037Y0104637D01*
X0245394Y0112994D01*
X0245394Y0223376D01*
X0239297Y0229472D01*
X0239185Y0229472D01*
X0238197Y0229882D01*
X0237440Y0230638D01*
X0237031Y0231627D01*
X0237031Y0232696D01*
X0237440Y0233685D01*
X0237851Y0234095D01*
X0159368Y0234095D01*
X0159322Y0233985D01*
X0158566Y0233228D01*
X0157577Y0232819D01*
X0156508Y0232819D01*
X0155519Y0233228D01*
X0154763Y0233985D01*
X0154354Y0234973D01*
X0154354Y0236043D01*
X0154763Y0237031D01*
X0155519Y0237787D01*
X0156508Y0238197D01*
X0156620Y0238197D01*
X0156653Y0238229D01*
X0127740Y0238229D01*
X0127660Y0238150D01*
X0126672Y0237740D01*
X0125602Y0237740D01*
X0124614Y0238150D01*
X0123857Y0238906D01*
X0123448Y0239894D01*
X0123448Y0240964D01*
X0123857Y0241952D01*
X0123937Y0242032D01*
X0123937Y0253145D01*
X0123538Y0252746D01*
X0122006Y0252111D01*
X0120347Y0252111D01*
X0118815Y0252746D01*
X0117643Y0253918D01*
X0117008Y0255450D01*
X0117008Y0263046D01*
X0117643Y0264578D01*
X0118815Y0265750D01*
X0119477Y0266025D01*
X0119055Y0266447D01*
X0119050Y0266452D01*
X0115935Y0263337D01*
X0115935Y0245227D01*
X0114647Y0243938D01*
X0113630Y0242921D01*
X0113680Y0242921D01*
X0114668Y0242512D01*
X0115425Y0241755D01*
X0115834Y0240767D01*
X0115834Y0239697D01*
X0115425Y0238709D01*
X0114668Y0237953D01*
X0113680Y0237543D01*
X0113567Y0237543D01*
X0105395Y0229371D01*
X0060513Y0229371D01*
X0056475Y0225333D01*
X0056354Y0216181D01*
X0056413Y0216122D01*
X0056822Y0215134D01*
X0056822Y0214064D01*
X0056413Y0213076D01*
X0055657Y0212319D01*
X0054668Y0211910D01*
X0053598Y0211910D01*
X0052733Y0212268D01*
X0052733Y0144189D01*
X0052813Y0144109D01*
X0053222Y0143121D01*
X0053222Y0142051D01*
X0052813Y0141063D01*
X0052056Y0140306D01*
X0051068Y0139897D01*
X0049998Y0139897D01*
X0049010Y0140306D01*
X0049006Y0140310D01*
X0049006Y0101183D01*
X0061981Y0088209D01*
X0064526Y0088209D01*
X0066869Y0085866D01*
X0066869Y0082552D01*
X0064526Y0080209D01*
X0061213Y0080209D01*
X0058869Y0082552D01*
X0058869Y0085097D01*
X0045501Y0098466D01*
X0045501Y0098292D02*
X0045674Y0098292D01*
X0045501Y0097094D02*
X0046873Y0097094D01*
X0048071Y0095895D02*
X0045501Y0095895D01*
X0045501Y0094697D02*
X0049270Y0094697D01*
X0050468Y0093498D02*
X0045501Y0093498D01*
X0045501Y0092300D02*
X0051667Y0092300D01*
X0052865Y0091101D02*
X0045501Y0091101D01*
X0045501Y0089903D02*
X0054064Y0089903D01*
X0055262Y0088704D02*
X0045501Y0088704D01*
X0045501Y0087506D02*
X0056461Y0087506D01*
X0057659Y0086307D02*
X0045501Y0086307D01*
X0045501Y0085109D02*
X0058858Y0085109D01*
X0058869Y0083910D02*
X0045501Y0083910D01*
X0045501Y0082712D02*
X0058869Y0082712D01*
X0059908Y0081513D02*
X0045501Y0081513D01*
X0045501Y0080315D02*
X0061106Y0080315D01*
X0064632Y0080315D02*
X0071106Y0080315D01*
X0071213Y0080209D02*
X0074526Y0080209D01*
X0076869Y0082552D01*
X0076869Y0085866D01*
X0074526Y0088209D01*
X0071213Y0088209D01*
X0068869Y0085866D01*
X0068869Y0082552D01*
X0071213Y0080209D01*
X0069908Y0081513D02*
X0065831Y0081513D01*
X0066869Y0082712D02*
X0068869Y0082712D01*
X0068869Y0083910D02*
X0066869Y0083910D01*
X0066869Y0085109D02*
X0068869Y0085109D01*
X0069311Y0086307D02*
X0066428Y0086307D01*
X0065229Y0087506D02*
X0070510Y0087506D01*
X0071213Y0090209D02*
X0068869Y0092552D01*
X0068869Y0095866D01*
X0071213Y0098209D01*
X0074526Y0098209D01*
X0076869Y0095866D01*
X0076869Y0092552D01*
X0074526Y0090209D01*
X0071213Y0090209D01*
X0070320Y0091101D02*
X0065985Y0091101D01*
X0067183Y0092300D02*
X0069121Y0092300D01*
X0068869Y0093498D02*
X0067269Y0093498D01*
X0067269Y0093909D02*
X0063169Y0093909D01*
X0063169Y0094509D01*
X0062569Y0094509D01*
X0062569Y0098609D01*
X0061047Y0098609D01*
X0058469Y0096031D01*
X0058469Y0094509D01*
X0062569Y0094509D01*
X0062569Y0093909D01*
X0058469Y0093909D01*
X0058469Y0092386D01*
X0061047Y0089809D01*
X0062569Y0089809D01*
X0062569Y0093909D01*
X0063169Y0093909D01*
X0063169Y0089809D01*
X0064692Y0089809D01*
X0067269Y0092386D01*
X0067269Y0093909D01*
X0067269Y0094509D02*
X0067269Y0096031D01*
X0064692Y0098609D01*
X0063169Y0098609D01*
X0063169Y0094509D01*
X0067269Y0094509D01*
X0067269Y0094697D02*
X0068869Y0094697D01*
X0068899Y0095895D02*
X0067269Y0095895D01*
X0066207Y0097094D02*
X0070098Y0097094D01*
X0065008Y0098292D02*
X0144669Y0098292D01*
X0143470Y0097094D02*
X0135641Y0097094D01*
X0136839Y0095895D02*
X0142272Y0095895D01*
X0141073Y0094697D02*
X0136869Y0094697D01*
X0136869Y0093498D02*
X0139875Y0093498D01*
X0138676Y0092300D02*
X0136617Y0092300D01*
X0135687Y0087048D02*
X0139647Y0087048D01*
X0149489Y0096891D01*
X0240777Y0096891D01*
X0241821Y0095846D01*
X0240420Y0095846D01*
X0238950Y0095237D01*
X0237825Y0094112D01*
X0237216Y0092642D01*
X0237216Y0091051D01*
X0237825Y0089581D01*
X0238950Y0088455D01*
X0240268Y0087909D01*
X0238950Y0087363D01*
X0237825Y0086238D01*
X0237216Y0084768D01*
X0237216Y0083177D01*
X0237825Y0081707D01*
X0238950Y0080581D01*
X0240280Y0080031D01*
X0130159Y0080031D01*
X0126869Y0083320D01*
X0126869Y0085866D01*
X0125687Y0087048D01*
X0130052Y0087048D01*
X0128869Y0085866D01*
X0128869Y0082552D01*
X0131213Y0080209D01*
X0134526Y0080209D01*
X0136869Y0082552D01*
X0136869Y0085866D01*
X0135687Y0087048D01*
X0136428Y0086307D02*
X0164779Y0086307D01*
X0164747Y0086384D02*
X0165432Y0084730D01*
X0166698Y0083465D01*
X0168352Y0082780D01*
X0170142Y0082780D01*
X0171796Y0083465D01*
X0173062Y0084730D01*
X0173747Y0086384D01*
X0173747Y0088175D01*
X0173062Y0089829D01*
X0171796Y0091094D01*
X0170142Y0091780D01*
X0168352Y0091780D01*
X0166698Y0091094D01*
X0165432Y0089829D01*
X0164747Y0088175D01*
X0164747Y0086384D01*
X0164747Y0087506D02*
X0140105Y0087506D01*
X0141303Y0088704D02*
X0164967Y0088704D01*
X0165507Y0089903D02*
X0142502Y0089903D01*
X0143700Y0091101D02*
X0166715Y0091101D01*
X0171780Y0091101D02*
X0176715Y0091101D01*
X0176698Y0091094D02*
X0175432Y0089829D01*
X0174747Y0088175D01*
X0174747Y0086384D01*
X0175432Y0084730D01*
X0176698Y0083465D01*
X0178352Y0082780D01*
X0180142Y0082780D01*
X0181796Y0083465D01*
X0183062Y0084730D01*
X0183747Y0086384D01*
X0183747Y0088175D01*
X0183062Y0089829D01*
X0181796Y0091094D01*
X0180142Y0091780D01*
X0178352Y0091780D01*
X0176698Y0091094D01*
X0175507Y0089903D02*
X0172988Y0089903D01*
X0173528Y0088704D02*
X0174967Y0088704D01*
X0174747Y0087506D02*
X0173747Y0087506D01*
X0173715Y0086307D02*
X0174779Y0086307D01*
X0175276Y0085109D02*
X0173219Y0085109D01*
X0172242Y0083910D02*
X0176253Y0083910D01*
X0182242Y0083910D02*
X0185687Y0083910D01*
X0185510Y0084087D02*
X0186055Y0083542D01*
X0186679Y0083089D01*
X0187366Y0082739D01*
X0188100Y0082500D01*
X0188862Y0082380D01*
X0188961Y0082380D01*
X0188961Y0086994D01*
X0184347Y0086994D01*
X0184347Y0086894D01*
X0184468Y0086132D01*
X0184706Y0085399D01*
X0185056Y0084711D01*
X0185510Y0084087D01*
X0184854Y0085109D02*
X0183219Y0085109D01*
X0183715Y0086307D02*
X0184440Y0086307D01*
X0184347Y0087565D02*
X0188961Y0087565D01*
X0188961Y0086994D01*
X0189533Y0086994D01*
X0189533Y0087565D01*
X0194147Y0087565D01*
X0194147Y0087665D01*
X0194027Y0088427D01*
X0193788Y0089160D01*
X0193438Y0089848D01*
X0192985Y0090472D01*
X0192439Y0091017D01*
X0191815Y0091470D01*
X0191128Y0091821D01*
X0190395Y0092059D01*
X0189633Y0092180D01*
X0189533Y0092180D01*
X0189533Y0087565D01*
X0188961Y0087565D01*
X0188961Y0092180D01*
X0188862Y0092180D01*
X0188100Y0092059D01*
X0187366Y0091821D01*
X0186679Y0091470D01*
X0186055Y0091017D01*
X0185510Y0090472D01*
X0185056Y0089848D01*
X0184706Y0089160D01*
X0184468Y0088427D01*
X0184347Y0087665D01*
X0184347Y0087565D01*
X0183747Y0087506D02*
X0188961Y0087506D01*
X0189533Y0087506D02*
X0239294Y0087506D01*
X0238701Y0088704D02*
X0193937Y0088704D01*
X0193398Y0089903D02*
X0237691Y0089903D01*
X0237216Y0091101D02*
X0192323Y0091101D01*
X0189533Y0091101D02*
X0188961Y0091101D01*
X0188961Y0089903D02*
X0189533Y0089903D01*
X0189533Y0088704D02*
X0188961Y0088704D01*
X0189533Y0086994D02*
X0194147Y0086994D01*
X0194147Y0086894D01*
X0194027Y0086132D01*
X0193788Y0085399D01*
X0193438Y0084711D01*
X0192985Y0084087D01*
X0192439Y0083542D01*
X0191815Y0083089D01*
X0191128Y0082739D01*
X0190395Y0082500D01*
X0189633Y0082380D01*
X0189533Y0082380D01*
X0189533Y0086994D01*
X0189533Y0086307D02*
X0188961Y0086307D01*
X0188961Y0085109D02*
X0189533Y0085109D01*
X0189533Y0083910D02*
X0188961Y0083910D01*
X0188961Y0082712D02*
X0189533Y0082712D01*
X0191046Y0082712D02*
X0237408Y0082712D01*
X0237216Y0083910D02*
X0192808Y0083910D01*
X0193641Y0085109D02*
X0237357Y0085109D01*
X0237894Y0086307D02*
X0194054Y0086307D01*
X0187449Y0082712D02*
X0136869Y0082712D01*
X0136869Y0083910D02*
X0166253Y0083910D01*
X0165276Y0085109D02*
X0136869Y0085109D01*
X0135831Y0081513D02*
X0238018Y0081513D01*
X0239594Y0080315D02*
X0134632Y0080315D01*
X0131106Y0080315D02*
X0129875Y0080315D01*
X0129908Y0081513D02*
X0128676Y0081513D01*
X0128869Y0082712D02*
X0127477Y0082712D01*
X0126869Y0083910D02*
X0128869Y0083910D01*
X0128869Y0085109D02*
X0126869Y0085109D01*
X0126428Y0086307D02*
X0129311Y0086307D01*
X0129121Y0092300D02*
X0126617Y0092300D01*
X0126869Y0093498D02*
X0128869Y0093498D01*
X0128869Y0094697D02*
X0126869Y0094697D01*
X0126839Y0095895D02*
X0128899Y0095895D01*
X0130098Y0097094D02*
X0125641Y0097094D01*
X0120098Y0097094D02*
X0115641Y0097094D01*
X0116839Y0095895D02*
X0118899Y0095895D01*
X0118869Y0094697D02*
X0116869Y0094697D01*
X0116869Y0093498D02*
X0118869Y0093498D01*
X0119121Y0092300D02*
X0116617Y0092300D01*
X0116252Y0087048D02*
X0120052Y0087048D01*
X0118869Y0085866D01*
X0118869Y0082552D01*
X0121213Y0080209D01*
X0123758Y0080209D01*
X0127442Y0076525D01*
X0121768Y0076525D01*
X0122054Y0077217D01*
X0122054Y0078287D01*
X0121645Y0079275D01*
X0120889Y0080032D01*
X0119900Y0080441D01*
X0118831Y0080441D01*
X0117842Y0080032D01*
X0117763Y0079952D01*
X0114835Y0079952D01*
X0117269Y0082386D01*
X0117269Y0083909D01*
X0113169Y0083909D01*
X0113169Y0084509D01*
X0117269Y0084509D01*
X0117269Y0086031D01*
X0116252Y0087048D01*
X0116993Y0086307D02*
X0119311Y0086307D01*
X0118869Y0085109D02*
X0117269Y0085109D01*
X0118869Y0083910D02*
X0113169Y0083910D01*
X0112569Y0083910D02*
X0106869Y0083910D01*
X0106869Y0082712D02*
X0108469Y0082712D01*
X0109342Y0081513D02*
X0105831Y0081513D01*
X0104632Y0080315D02*
X0110541Y0080315D01*
X0115198Y0080315D02*
X0118526Y0080315D01*
X0120205Y0080315D02*
X0121106Y0080315D01*
X0121711Y0079116D02*
X0124850Y0079116D01*
X0126049Y0077918D02*
X0122054Y0077918D01*
X0121848Y0076719D02*
X0127248Y0076719D01*
X0119908Y0081513D02*
X0116397Y0081513D01*
X0117269Y0082712D02*
X0118869Y0082712D01*
X0108469Y0085109D02*
X0106881Y0085109D01*
X0108079Y0086307D02*
X0108746Y0086307D01*
X0105452Y0089903D02*
X0064786Y0089903D01*
X0063169Y0089903D02*
X0062569Y0089903D01*
X0062569Y0091101D02*
X0063169Y0091101D01*
X0063169Y0092300D02*
X0062569Y0092300D01*
X0062569Y0093498D02*
X0063169Y0093498D01*
X0063169Y0094697D02*
X0062569Y0094697D01*
X0062569Y0095895D02*
X0063169Y0095895D01*
X0063169Y0097094D02*
X0062569Y0097094D01*
X0062569Y0098292D02*
X0063169Y0098292D01*
X0060731Y0098292D02*
X0051897Y0098292D01*
X0053095Y0097094D02*
X0059532Y0097094D01*
X0058469Y0095895D02*
X0054294Y0095895D01*
X0055492Y0094697D02*
X0058469Y0094697D01*
X0058469Y0093498D02*
X0056691Y0093498D01*
X0057889Y0092300D02*
X0058556Y0092300D01*
X0059088Y0091101D02*
X0059754Y0091101D01*
X0060286Y0089903D02*
X0060953Y0089903D01*
X0061485Y0088704D02*
X0104254Y0088704D01*
X0104526Y0090209D02*
X0101213Y0090209D01*
X0098869Y0092552D01*
X0098869Y0095866D01*
X0101213Y0098209D01*
X0104526Y0098209D01*
X0106869Y0095866D01*
X0106869Y0092552D01*
X0104526Y0090209D01*
X0105419Y0091101D02*
X0106651Y0091101D01*
X0106617Y0092300D02*
X0109121Y0092300D01*
X0108869Y0093498D02*
X0106869Y0093498D01*
X0106869Y0094697D02*
X0108869Y0094697D01*
X0108899Y0095895D02*
X0106839Y0095895D01*
X0105641Y0097094D02*
X0110098Y0097094D01*
X0100098Y0097094D02*
X0095641Y0097094D01*
X0094526Y0098209D02*
X0096869Y0095866D01*
X0096869Y0092552D01*
X0094526Y0090209D01*
X0091213Y0090209D01*
X0088869Y0092552D01*
X0088869Y0095866D01*
X0091213Y0098209D01*
X0094526Y0098209D01*
X0096839Y0095895D02*
X0098899Y0095895D01*
X0098869Y0094697D02*
X0096869Y0094697D01*
X0096869Y0093498D02*
X0098869Y0093498D01*
X0099121Y0092300D02*
X0096617Y0092300D01*
X0095419Y0091101D02*
X0100320Y0091101D01*
X0100510Y0087506D02*
X0095229Y0087506D01*
X0096428Y0086307D02*
X0099311Y0086307D01*
X0098869Y0085109D02*
X0096869Y0085109D01*
X0096869Y0083910D02*
X0098869Y0083910D01*
X0098869Y0082712D02*
X0097477Y0082712D01*
X0098676Y0081513D02*
X0099908Y0081513D01*
X0099875Y0080315D02*
X0101106Y0080315D01*
X0097248Y0076719D02*
X0045501Y0076719D01*
X0045501Y0077918D02*
X0096049Y0077918D01*
X0094850Y0079116D02*
X0045501Y0079116D01*
X0050698Y0099491D02*
X0086304Y0099491D01*
X0085435Y0100689D02*
X0049500Y0100689D01*
X0049006Y0101888D02*
X0085259Y0101888D01*
X0085633Y0103086D02*
X0049006Y0103086D01*
X0049006Y0104285D02*
X0087284Y0104285D01*
X0088671Y0105484D02*
X0049006Y0105484D01*
X0049006Y0106682D02*
X0089869Y0106682D01*
X0091068Y0107881D02*
X0049006Y0107881D01*
X0049006Y0109079D02*
X0241479Y0109079D01*
X0242677Y0110278D02*
X0049006Y0110278D01*
X0049006Y0111476D02*
X0243876Y0111476D01*
X0245074Y0112675D02*
X0049006Y0112675D01*
X0049006Y0113873D02*
X0245394Y0113873D01*
X0245394Y0115072D02*
X0049006Y0115072D01*
X0049006Y0116270D02*
X0061271Y0116270D01*
X0061445Y0116096D02*
X0063135Y0115396D01*
X0064965Y0115396D01*
X0234257Y0115396D01*
X0235947Y0116096D01*
X0237241Y0117390D01*
X0237942Y0119081D01*
X0237942Y0223273D01*
X0237241Y0224964D01*
X0235947Y0226258D01*
X0234257Y0226958D01*
X0063135Y0226958D01*
X0061445Y0226258D01*
X0060151Y0224964D01*
X0059450Y0223273D01*
X0059450Y0119081D01*
X0060151Y0117390D01*
X0061445Y0116096D01*
X0060118Y0117469D02*
X0049006Y0117469D01*
X0049006Y0118667D02*
X0059622Y0118667D01*
X0059450Y0119866D02*
X0049006Y0119866D01*
X0049006Y0121064D02*
X0059450Y0121064D01*
X0059450Y0122263D02*
X0049006Y0122263D01*
X0049006Y0123461D02*
X0059450Y0123461D01*
X0059450Y0124660D02*
X0049006Y0124660D01*
X0049006Y0125858D02*
X0059450Y0125858D01*
X0059450Y0127057D02*
X0049006Y0127057D01*
X0049006Y0128255D02*
X0059450Y0128255D01*
X0059450Y0129454D02*
X0049006Y0129454D01*
X0049006Y0130652D02*
X0059450Y0130652D01*
X0059450Y0131851D02*
X0049006Y0131851D01*
X0049006Y0133049D02*
X0059450Y0133049D01*
X0059450Y0134248D02*
X0049006Y0134248D01*
X0049006Y0135446D02*
X0059450Y0135446D01*
X0059450Y0136645D02*
X0049006Y0136645D01*
X0049006Y0137843D02*
X0059450Y0137843D01*
X0059450Y0139042D02*
X0049006Y0139042D01*
X0049006Y0140240D02*
X0049170Y0140240D01*
X0051897Y0140240D02*
X0059450Y0140240D01*
X0059450Y0141439D02*
X0052969Y0141439D01*
X0053222Y0142637D02*
X0059450Y0142637D01*
X0059450Y0143836D02*
X0052926Y0143836D01*
X0052733Y0145034D02*
X0059450Y0145034D01*
X0059450Y0146233D02*
X0052733Y0146233D01*
X0052733Y0147431D02*
X0059450Y0147431D01*
X0059450Y0148630D02*
X0052733Y0148630D01*
X0052733Y0149828D02*
X0059450Y0149828D01*
X0059450Y0151027D02*
X0052733Y0151027D01*
X0052733Y0152225D02*
X0059450Y0152225D01*
X0059450Y0153424D02*
X0052733Y0153424D01*
X0052733Y0154622D02*
X0059450Y0154622D01*
X0059450Y0155821D02*
X0052733Y0155821D01*
X0052733Y0157020D02*
X0059450Y0157020D01*
X0059450Y0158218D02*
X0052733Y0158218D01*
X0052733Y0159417D02*
X0059450Y0159417D01*
X0059450Y0160615D02*
X0052733Y0160615D01*
X0052733Y0161814D02*
X0059450Y0161814D01*
X0059450Y0163012D02*
X0052733Y0163012D01*
X0052733Y0164211D02*
X0059450Y0164211D01*
X0059450Y0165409D02*
X0052733Y0165409D01*
X0052733Y0166608D02*
X0059450Y0166608D01*
X0059450Y0167806D02*
X0052733Y0167806D01*
X0052733Y0169005D02*
X0059450Y0169005D01*
X0059450Y0170203D02*
X0052733Y0170203D01*
X0052733Y0171402D02*
X0059450Y0171402D01*
X0059450Y0172600D02*
X0052733Y0172600D01*
X0052733Y0173799D02*
X0059450Y0173799D01*
X0059450Y0174997D02*
X0052733Y0174997D01*
X0052733Y0176196D02*
X0059450Y0176196D01*
X0059450Y0177394D02*
X0052733Y0177394D01*
X0052733Y0178593D02*
X0059450Y0178593D01*
X0059450Y0179791D02*
X0052733Y0179791D01*
X0052733Y0180990D02*
X0059450Y0180990D01*
X0059450Y0182188D02*
X0052733Y0182188D01*
X0052733Y0183387D02*
X0059450Y0183387D01*
X0059450Y0184585D02*
X0052733Y0184585D01*
X0052733Y0185784D02*
X0059450Y0185784D01*
X0059450Y0186982D02*
X0052733Y0186982D01*
X0052733Y0188181D02*
X0059450Y0188181D01*
X0059450Y0189379D02*
X0052733Y0189379D01*
X0052733Y0190578D02*
X0059450Y0190578D01*
X0059450Y0191776D02*
X0052733Y0191776D01*
X0052733Y0192975D02*
X0059450Y0192975D01*
X0059450Y0194173D02*
X0052733Y0194173D01*
X0052733Y0195372D02*
X0059450Y0195372D01*
X0059450Y0196570D02*
X0052733Y0196570D01*
X0052733Y0197769D02*
X0059450Y0197769D01*
X0059450Y0198967D02*
X0052733Y0198967D01*
X0052733Y0200166D02*
X0059450Y0200166D01*
X0059450Y0201364D02*
X0052733Y0201364D01*
X0052733Y0202563D02*
X0059450Y0202563D01*
X0059450Y0203761D02*
X0052733Y0203761D01*
X0052733Y0204960D02*
X0059450Y0204960D01*
X0059450Y0206158D02*
X0052733Y0206158D01*
X0052733Y0207357D02*
X0059450Y0207357D01*
X0059450Y0208555D02*
X0052733Y0208555D01*
X0052733Y0209754D02*
X0059450Y0209754D01*
X0059450Y0210953D02*
X0052733Y0210953D01*
X0052733Y0212151D02*
X0053016Y0212151D01*
X0055251Y0212151D02*
X0059450Y0212151D01*
X0059450Y0213350D02*
X0056526Y0213350D01*
X0056822Y0214548D02*
X0059450Y0214548D01*
X0059450Y0215747D02*
X0056568Y0215747D01*
X0056364Y0216945D02*
X0059450Y0216945D01*
X0059450Y0218144D02*
X0056380Y0218144D01*
X0056396Y0219342D02*
X0059450Y0219342D01*
X0059450Y0220541D02*
X0056412Y0220541D01*
X0056427Y0221739D02*
X0059450Y0221739D01*
X0059450Y0222938D02*
X0056443Y0222938D01*
X0056459Y0224136D02*
X0059808Y0224136D01*
X0060521Y0225335D02*
X0056477Y0225335D01*
X0057675Y0226533D02*
X0062109Y0226533D01*
X0060072Y0228930D02*
X0239840Y0228930D01*
X0241038Y0227732D02*
X0058874Y0227732D01*
X0056975Y0247354D02*
X0077028Y0265874D01*
X0098344Y0267632D01*
X0099224Y0267268D01*
X0100294Y0267268D01*
X0101282Y0267677D01*
X0102039Y0268434D01*
X0102448Y0269422D01*
X0102448Y0270492D01*
X0102039Y0271480D01*
X0101282Y0272236D01*
X0100294Y0272646D01*
X0099224Y0272646D01*
X0098236Y0272236D01*
X0098020Y0272021D01*
X0076045Y0270207D01*
X0075268Y0270238D01*
X0075156Y0270134D01*
X0075003Y0270122D01*
X0074500Y0269529D01*
X0072540Y0267719D01*
X0072540Y0271374D01*
X0069504Y0271374D01*
X0069504Y0271847D01*
X0072540Y0271847D01*
X0072540Y0274917D01*
X0073663Y0273794D01*
X0076058Y0272411D01*
X0078730Y0271695D01*
X0081497Y0271695D01*
X0084168Y0272411D01*
X0086564Y0273794D01*
X0088520Y0275750D01*
X0089903Y0278146D01*
X0090619Y0280818D01*
X0090619Y0283584D01*
X0089903Y0286256D01*
X0088520Y0288651D01*
X0086564Y0290607D01*
X0084168Y0291990D01*
X0081497Y0292706D01*
X0078730Y0292706D01*
X0076058Y0291990D01*
X0073663Y0290607D01*
X0071707Y0288651D01*
X0070324Y0286256D01*
X0069608Y0283584D01*
X0069608Y0280818D01*
X0070324Y0278146D01*
X0070673Y0277541D01*
X0069504Y0277541D01*
X0069504Y0271847D01*
X0069030Y0271847D01*
X0069030Y0277541D01*
X0067383Y0277541D01*
X0067022Y0277444D01*
X0067022Y0280178D01*
X0066319Y0280881D01*
X0061388Y0280881D01*
X0060685Y0280178D01*
X0060685Y0277444D01*
X0060324Y0277541D01*
X0058677Y0277541D01*
X0058677Y0271847D01*
X0058204Y0271847D01*
X0058204Y0277541D01*
X0056556Y0277541D01*
X0056149Y0277432D01*
X0055785Y0277221D01*
X0055487Y0276923D01*
X0055276Y0276559D01*
X0055167Y0276152D01*
X0055167Y0271847D01*
X0058204Y0271847D01*
X0058204Y0271374D01*
X0058677Y0271374D01*
X0058677Y0265680D01*
X0060324Y0265680D01*
X0060685Y0265776D01*
X0060685Y0265266D01*
X0055919Y0260500D01*
X0052743Y0260500D01*
X0052463Y0260780D01*
X0051475Y0261189D01*
X0050405Y0261189D01*
X0049889Y0260975D01*
X0049889Y0261240D01*
X0049480Y0262228D01*
X0048723Y0262984D01*
X0047735Y0263394D01*
X0046665Y0263394D01*
X0045677Y0262984D01*
X0045501Y0262808D01*
X0045501Y0303522D01*
X0046031Y0302992D01*
X0047020Y0302583D01*
X0047415Y0302583D01*
X0047671Y0302327D01*
X0048996Y0302327D01*
X0048464Y0301795D01*
X0048054Y0300807D01*
X0048054Y0299737D01*
X0048464Y0298748D01*
X0049220Y0297992D01*
X0050209Y0297583D01*
X0051278Y0297583D01*
X0052267Y0297992D01*
X0053023Y0298748D01*
X0053432Y0299737D01*
X0053432Y0300807D01*
X0053023Y0301795D01*
X0052491Y0302327D01*
X0083422Y0302327D01*
X0084594Y0303498D01*
X0100665Y0319570D01*
X0110098Y0319560D01*
X0110055Y0316263D01*
X0110046Y0316253D01*
X0110046Y0315519D01*
X0110036Y0314786D01*
X0110046Y0314776D01*
X0110046Y0314762D01*
X0110565Y0314243D01*
X0111077Y0313718D01*
X0111090Y0313718D01*
X0114337Y0310471D01*
X0114523Y0310285D01*
X0114102Y0310110D01*
X0113346Y0309354D01*
X0112936Y0308366D01*
X0112936Y0307296D01*
X0113003Y0307136D01*
X0110485Y0303347D01*
X0110085Y0302946D01*
X0110085Y0302744D01*
X0109973Y0302576D01*
X0110085Y0302021D01*
X0110085Y0296605D01*
X0109606Y0296126D01*
X0109196Y0295137D01*
X0109196Y0294067D01*
X0109606Y0293079D01*
X0110362Y0292323D01*
X0111350Y0291913D01*
X0112420Y0291913D01*
X0113408Y0292323D01*
X0114165Y0293079D01*
X0114574Y0294067D01*
X0114574Y0295137D01*
X0114165Y0296126D01*
X0113685Y0296605D01*
X0113685Y0301657D01*
X0115220Y0303967D01*
X0115220Y0303910D01*
X0115629Y0302922D01*
X0116386Y0302165D01*
X0117374Y0301756D01*
X0118444Y0301756D01*
X0119432Y0302165D01*
X0119961Y0302694D01*
X0119961Y0276835D01*
X0119330Y0276204D01*
X0118921Y0275216D01*
X0118921Y0274146D01*
X0119330Y0273158D01*
X0120086Y0272402D01*
X0121075Y0271992D01*
X0122144Y0271992D01*
X0123133Y0272402D01*
X0123889Y0273158D01*
X0123937Y0273274D01*
X0123937Y0269621D01*
X0123920Y0269638D01*
X0122932Y0270047D01*
X0121862Y0270047D01*
X0121732Y0269993D01*
X0119962Y0271763D01*
X0118139Y0271763D01*
X0116850Y0270474D01*
X0111536Y0265159D01*
X0111536Y0247049D01*
X0105738Y0241251D01*
X0103793Y0241251D01*
X0104204Y0241662D01*
X0104613Y0242650D01*
X0104613Y0243720D01*
X0104204Y0244708D01*
X0103448Y0245465D01*
X0102459Y0245874D01*
X0102347Y0245874D01*
X0100867Y0247354D01*
X0056975Y0247354D01*
X0057790Y0248106D02*
X0111536Y0248106D01*
X0111536Y0249305D02*
X0059088Y0249305D01*
X0060385Y0250503D02*
X0111536Y0250503D01*
X0111536Y0251702D02*
X0061683Y0251702D01*
X0062981Y0252900D02*
X0111536Y0252900D01*
X0111536Y0254099D02*
X0064278Y0254099D01*
X0065576Y0255297D02*
X0111536Y0255297D01*
X0111536Y0256496D02*
X0066874Y0256496D01*
X0068172Y0257694D02*
X0111536Y0257694D01*
X0111536Y0258893D02*
X0069469Y0258893D01*
X0070767Y0260091D02*
X0111536Y0260091D01*
X0111536Y0261290D02*
X0072065Y0261290D01*
X0073362Y0262488D02*
X0111536Y0262488D01*
X0111536Y0263687D02*
X0074660Y0263687D01*
X0075958Y0264886D02*
X0111536Y0264886D01*
X0112460Y0266084D02*
X0079577Y0266084D01*
X0077307Y0272077D02*
X0072540Y0272077D01*
X0072540Y0273275D02*
X0074562Y0273275D01*
X0072984Y0274474D02*
X0072540Y0274474D01*
X0069504Y0274474D02*
X0069030Y0274474D01*
X0069030Y0275672D02*
X0069504Y0275672D01*
X0069504Y0276871D02*
X0069030Y0276871D01*
X0070368Y0278069D02*
X0067022Y0278069D01*
X0067022Y0279268D02*
X0070023Y0279268D01*
X0069267Y0279919D02*
X0067170Y0282016D01*
X0062155Y0282016D01*
X0058440Y0278301D01*
X0058440Y0271610D01*
X0058204Y0271374D02*
X0058204Y0265680D01*
X0056556Y0265680D01*
X0056149Y0265789D01*
X0055785Y0265999D01*
X0055487Y0266297D01*
X0055276Y0266662D01*
X0055167Y0267069D01*
X0055167Y0271374D01*
X0058204Y0271374D01*
X0058204Y0270878D02*
X0058677Y0270878D01*
X0058677Y0269680D02*
X0058204Y0269680D01*
X0058204Y0268481D02*
X0058677Y0268481D01*
X0058677Y0267283D02*
X0058204Y0267283D01*
X0058204Y0266084D02*
X0058677Y0266084D01*
X0060304Y0264886D02*
X0045501Y0264886D01*
X0045501Y0266084D02*
X0055700Y0266084D01*
X0055167Y0267283D02*
X0045501Y0267283D01*
X0045501Y0268481D02*
X0055167Y0268481D01*
X0055167Y0269680D02*
X0045501Y0269680D01*
X0045501Y0270878D02*
X0055167Y0270878D01*
X0055167Y0272077D02*
X0045501Y0272077D01*
X0045501Y0273275D02*
X0055167Y0273275D01*
X0055167Y0274474D02*
X0045501Y0274474D01*
X0045501Y0275672D02*
X0055167Y0275672D01*
X0055456Y0276871D02*
X0045501Y0276871D01*
X0045501Y0278069D02*
X0060685Y0278069D01*
X0060685Y0279268D02*
X0045501Y0279268D01*
X0045501Y0280466D02*
X0060973Y0280466D01*
X0058677Y0276871D02*
X0058204Y0276871D01*
X0058204Y0275672D02*
X0058677Y0275672D01*
X0058677Y0274474D02*
X0058204Y0274474D01*
X0058204Y0273275D02*
X0058677Y0273275D01*
X0058677Y0272077D02*
X0058204Y0272077D01*
X0059106Y0263687D02*
X0045501Y0263687D01*
X0049219Y0262488D02*
X0057907Y0262488D01*
X0056709Y0261290D02*
X0049868Y0261290D01*
X0049400Y0256237D02*
X0049400Y0247022D01*
X0049614Y0247236D01*
X0050602Y0247646D01*
X0050806Y0247646D01*
X0070332Y0265680D01*
X0069504Y0265680D01*
X0069504Y0271374D01*
X0069030Y0271374D01*
X0069030Y0265680D01*
X0067383Y0265680D01*
X0067022Y0265776D01*
X0067022Y0263042D01*
X0066319Y0262339D01*
X0063415Y0262339D01*
X0058747Y0257672D01*
X0057576Y0256500D01*
X0052743Y0256500D01*
X0052463Y0256220D01*
X0051475Y0255811D01*
X0050405Y0255811D01*
X0049417Y0256220D01*
X0049400Y0256237D01*
X0049400Y0255297D02*
X0059091Y0255297D01*
X0057793Y0254099D02*
X0049400Y0254099D01*
X0049400Y0252900D02*
X0056496Y0252900D01*
X0055198Y0251702D02*
X0049400Y0251702D01*
X0049400Y0250503D02*
X0053900Y0250503D01*
X0052603Y0249305D02*
X0049400Y0249305D01*
X0049400Y0248106D02*
X0051305Y0248106D01*
X0052739Y0256496D02*
X0060389Y0256496D01*
X0061686Y0257694D02*
X0058770Y0257694D01*
X0059969Y0258893D02*
X0062984Y0258893D01*
X0064282Y0260091D02*
X0061167Y0260091D01*
X0062366Y0261290D02*
X0065580Y0261290D01*
X0066468Y0262488D02*
X0066877Y0262488D01*
X0067022Y0263687D02*
X0068175Y0263687D01*
X0067022Y0264886D02*
X0069473Y0264886D01*
X0069504Y0266084D02*
X0069030Y0266084D01*
X0069030Y0267283D02*
X0069504Y0267283D01*
X0069504Y0268481D02*
X0069030Y0268481D01*
X0069030Y0269680D02*
X0069504Y0269680D01*
X0069504Y0270878D02*
X0069030Y0270878D01*
X0069267Y0271610D02*
X0069267Y0279919D01*
X0069702Y0280466D02*
X0066734Y0280466D01*
X0069608Y0281665D02*
X0045501Y0281665D01*
X0045501Y0282863D02*
X0069608Y0282863D01*
X0069736Y0284062D02*
X0045501Y0284062D01*
X0045501Y0285260D02*
X0070057Y0285260D01*
X0070441Y0286459D02*
X0045501Y0286459D01*
X0045501Y0287657D02*
X0071133Y0287657D01*
X0071911Y0288856D02*
X0045501Y0288856D01*
X0045501Y0290054D02*
X0073110Y0290054D01*
X0074781Y0291253D02*
X0045501Y0291253D01*
X0045501Y0292451D02*
X0077779Y0292451D01*
X0082448Y0292451D02*
X0110233Y0292451D01*
X0109369Y0293650D02*
X0045501Y0293650D01*
X0045501Y0294848D02*
X0109196Y0294848D01*
X0109573Y0296047D02*
X0045501Y0296047D01*
X0045501Y0297245D02*
X0110085Y0297245D01*
X0110085Y0298444D02*
X0052718Y0298444D01*
X0053393Y0299642D02*
X0110085Y0299642D01*
X0110085Y0300841D02*
X0053418Y0300841D01*
X0052778Y0302039D02*
X0110081Y0302039D01*
X0110377Y0303238D02*
X0084333Y0303238D01*
X0085532Y0304436D02*
X0111209Y0304436D01*
X0112006Y0305635D02*
X0086730Y0305635D01*
X0087929Y0306833D02*
X0112802Y0306833D01*
X0112936Y0308032D02*
X0089127Y0308032D01*
X0090326Y0309230D02*
X0113295Y0309230D01*
X0114379Y0310429D02*
X0091524Y0310429D01*
X0092723Y0311627D02*
X0113181Y0311627D01*
X0111982Y0312826D02*
X0093921Y0312826D01*
X0095120Y0314024D02*
X0110778Y0314024D01*
X0110042Y0315223D02*
X0096318Y0315223D01*
X0097517Y0316422D02*
X0110058Y0316422D01*
X0110073Y0317620D02*
X0098715Y0317620D01*
X0099914Y0318819D02*
X0110089Y0318819D01*
X0111925Y0321558D02*
X0111846Y0315508D01*
X0116137Y0311217D01*
X0118617Y0311217D01*
X0119917Y0309917D01*
X0119917Y0305429D01*
X0118932Y0304445D01*
X0117909Y0304445D01*
X0115498Y0303238D02*
X0114735Y0303238D01*
X0113939Y0302039D02*
X0116690Y0302039D01*
X0119128Y0302039D02*
X0119961Y0302039D01*
X0119961Y0300841D02*
X0113685Y0300841D01*
X0113685Y0299642D02*
X0119961Y0299642D01*
X0119961Y0298444D02*
X0113685Y0298444D01*
X0113685Y0297245D02*
X0119961Y0297245D01*
X0119961Y0296047D02*
X0114197Y0296047D01*
X0114574Y0294848D02*
X0119961Y0294848D01*
X0119961Y0293650D02*
X0114401Y0293650D01*
X0113537Y0292451D02*
X0119961Y0292451D01*
X0119961Y0291253D02*
X0085446Y0291253D01*
X0087117Y0290054D02*
X0119961Y0290054D01*
X0119961Y0288856D02*
X0088316Y0288856D01*
X0089094Y0287657D02*
X0119961Y0287657D01*
X0119961Y0286459D02*
X0089786Y0286459D01*
X0090170Y0285260D02*
X0119961Y0285260D01*
X0119961Y0284062D02*
X0090491Y0284062D01*
X0090619Y0282863D02*
X0119961Y0282863D01*
X0119961Y0281665D02*
X0090619Y0281665D01*
X0090525Y0280466D02*
X0119961Y0280466D01*
X0119961Y0279268D02*
X0090204Y0279268D01*
X0089859Y0278069D02*
X0119961Y0278069D01*
X0119961Y0276871D02*
X0089167Y0276871D01*
X0088442Y0275672D02*
X0119109Y0275672D01*
X0118921Y0274474D02*
X0087243Y0274474D01*
X0085665Y0273275D02*
X0119281Y0273275D01*
X0120871Y0272077D02*
X0101442Y0272077D01*
X0102288Y0270878D02*
X0117254Y0270878D01*
X0116850Y0270474D02*
X0116850Y0270474D01*
X0116056Y0269680D02*
X0102448Y0269680D01*
X0102058Y0268481D02*
X0114857Y0268481D01*
X0113659Y0267283D02*
X0100330Y0267283D01*
X0099188Y0267283D02*
X0094103Y0267283D01*
X0098076Y0272077D02*
X0082920Y0272077D01*
X0084172Y0270878D02*
X0072540Y0270878D01*
X0072540Y0269680D02*
X0074628Y0269680D01*
X0073366Y0268481D02*
X0072540Y0268481D01*
X0069504Y0272077D02*
X0069030Y0272077D01*
X0069030Y0273275D02*
X0069504Y0273275D01*
X0070963Y0306327D02*
X0059333Y0306327D01*
X0059653Y0307099D01*
X0059653Y0307494D01*
X0060981Y0308823D01*
X0062153Y0309994D01*
X0062153Y0329486D01*
X0060981Y0330657D01*
X0060233Y0331405D01*
X0053619Y0331405D01*
X0049043Y0335982D01*
X0049043Y0345506D01*
X0061847Y0358311D01*
X0066972Y0358311D01*
X0067252Y0358031D01*
X0068240Y0357622D01*
X0068737Y0357622D01*
X0059784Y0348669D01*
X0059106Y0348669D01*
X0058118Y0348260D01*
X0057361Y0347503D01*
X0056952Y0346515D01*
X0056952Y0345445D01*
X0057361Y0344457D01*
X0058118Y0343701D01*
X0059106Y0343291D01*
X0060176Y0343291D01*
X0061164Y0343701D01*
X0061921Y0344457D01*
X0062330Y0345445D01*
X0062330Y0346124D01*
X0087844Y0371638D01*
X0088601Y0371638D01*
X0089506Y0372012D01*
X0086871Y0369378D01*
X0086193Y0369378D01*
X0085204Y0368969D01*
X0084448Y0368212D01*
X0084039Y0367224D01*
X0084039Y0366154D01*
X0084448Y0365166D01*
X0085204Y0364409D01*
X0086193Y0364000D01*
X0087262Y0364000D01*
X0088251Y0364409D01*
X0089007Y0365166D01*
X0089417Y0366154D01*
X0089417Y0366832D01*
X0091670Y0369086D01*
X0092134Y0368622D01*
X0093122Y0368213D01*
X0094192Y0368213D01*
X0095180Y0368622D01*
X0095936Y0369378D01*
X0096346Y0370367D01*
X0096346Y0371436D01*
X0095936Y0372425D01*
X0095180Y0373181D01*
X0094827Y0373327D01*
X0094827Y0375765D01*
X0095157Y0375765D01*
X0095998Y0376606D01*
X0095998Y0379685D01*
X0095647Y0380037D01*
X0095690Y0380062D01*
X0096032Y0380404D01*
X0096273Y0380823D01*
X0096398Y0381290D01*
X0096398Y0382476D01*
X0093027Y0382476D01*
X0093027Y0382476D01*
X0109523Y0382476D01*
X0109562Y0382516D01*
X0114447Y0381481D02*
X0102864Y0381481D01*
X0102385Y0381961D01*
X0101396Y0382370D01*
X0100327Y0382370D01*
X0099338Y0381961D01*
X0098582Y0381204D01*
X0098173Y0380216D01*
X0098173Y0379146D01*
X0098582Y0378158D01*
X0099338Y0377402D01*
X0100327Y0376992D01*
X0101396Y0376992D01*
X0102385Y0377402D01*
X0102864Y0377881D01*
X0115938Y0377881D01*
X0118946Y0380890D01*
X0119625Y0380890D01*
X0120613Y0381299D01*
X0121308Y0381994D01*
X0120906Y0381022D01*
X0120906Y0379442D01*
X0121510Y0377983D01*
X0122627Y0376865D01*
X0124087Y0376261D01*
X0125667Y0376261D01*
X0127127Y0376865D01*
X0128244Y0377983D01*
X0128849Y0379442D01*
X0128849Y0380942D01*
X0144770Y0364296D01*
X0144770Y0363978D01*
X0144649Y0363449D01*
X0144770Y0363257D01*
X0144770Y0363030D01*
X0145154Y0362646D01*
X0145443Y0362186D01*
X0145664Y0362136D01*
X0149523Y0358278D01*
X0126313Y0359430D01*
X0126313Y0360572D01*
X0125611Y0361275D01*
X0118711Y0361275D01*
X0118008Y0360572D01*
X0118008Y0355646D01*
X0116471Y0357183D01*
X0116471Y0361162D01*
X0115768Y0361865D01*
X0108868Y0361865D01*
X0108165Y0361162D01*
X0108165Y0355286D01*
X0108868Y0354583D01*
X0112848Y0354583D01*
X0116063Y0351368D01*
X0116063Y0345644D01*
X0115929Y0345778D01*
X0115929Y0347631D01*
X0115014Y0348546D01*
X0115014Y0350512D01*
X0114433Y0351093D01*
X0114433Y0352120D01*
X0113567Y0352986D01*
X0112513Y0354040D01*
X0104048Y0354040D01*
X0099134Y0358954D01*
X0099519Y0359339D01*
X0099928Y0360327D01*
X0099928Y0361397D01*
X0099519Y0362385D01*
X0098763Y0363142D01*
X0097774Y0363551D01*
X0096780Y0363551D01*
X0106143Y0372914D01*
X0111242Y0372914D01*
X0111031Y0372827D01*
X0110275Y0372070D01*
X0109865Y0371082D01*
X0109865Y0370012D01*
X0110142Y0369346D01*
X0108868Y0369346D01*
X0108165Y0368643D01*
X0108165Y0362767D01*
X0108868Y0362064D01*
X0115768Y0362064D01*
X0116471Y0362767D01*
X0116471Y0362914D01*
X0118008Y0362914D01*
X0118008Y0362176D01*
X0118711Y0361473D01*
X0125611Y0361473D01*
X0126313Y0362176D01*
X0126313Y0368052D01*
X0125611Y0368755D01*
X0118711Y0368755D01*
X0118008Y0368052D01*
X0118008Y0367314D01*
X0116471Y0367314D01*
X0116471Y0368643D01*
X0115768Y0369346D01*
X0114967Y0369346D01*
X0115243Y0370012D01*
X0115243Y0371082D01*
X0114834Y0372070D01*
X0114078Y0372827D01*
X0113867Y0372914D01*
X0115834Y0372914D01*
X0115913Y0372835D01*
X0116901Y0372425D01*
X0117971Y0372425D01*
X0118959Y0372835D01*
X0119716Y0373591D01*
X0120125Y0374579D01*
X0120125Y0375649D01*
X0119716Y0376637D01*
X0118959Y0377394D01*
X0117971Y0377803D01*
X0116901Y0377803D01*
X0115913Y0377394D01*
X0115834Y0377314D01*
X0104320Y0377314D01*
X0063730Y0336724D01*
X0056008Y0336724D01*
X0055928Y0336803D01*
X0054940Y0337213D01*
X0053870Y0337213D01*
X0052882Y0336803D01*
X0052125Y0336047D01*
X0051716Y0335058D01*
X0051716Y0333989D01*
X0052125Y0333000D01*
X0052882Y0332244D01*
X0053870Y0331835D01*
X0054940Y0331835D01*
X0055928Y0332244D01*
X0056008Y0332324D01*
X0065552Y0332324D01*
X0087503Y0354275D01*
X0087503Y0353319D01*
X0087913Y0352331D01*
X0088669Y0351575D01*
X0089657Y0351165D01*
X0090727Y0351165D01*
X0091715Y0351575D01*
X0091995Y0351854D01*
X0094403Y0351854D01*
X0095298Y0350959D01*
X0095298Y0350564D01*
X0095708Y0349575D01*
X0096464Y0348819D01*
X0097080Y0348564D01*
X0096950Y0348433D01*
X0096271Y0348433D01*
X0095283Y0348024D01*
X0094527Y0347267D01*
X0094117Y0346279D01*
X0094117Y0345209D01*
X0094166Y0345093D01*
X0088837Y0337397D01*
X0088614Y0337937D01*
X0087857Y0338693D01*
X0086869Y0339102D01*
X0085799Y0339102D01*
X0084811Y0338693D01*
X0084331Y0338213D01*
X0076100Y0338213D01*
X0075690Y0337803D01*
X0075012Y0337803D01*
X0074023Y0337394D01*
X0073267Y0336637D01*
X0072858Y0335649D01*
X0072858Y0334579D01*
X0073267Y0333591D01*
X0074023Y0332835D01*
X0075012Y0332425D01*
X0076081Y0332425D01*
X0077070Y0332835D01*
X0077826Y0333591D01*
X0078235Y0334579D01*
X0078235Y0334613D01*
X0084331Y0334613D01*
X0084811Y0334134D01*
X0085799Y0333724D01*
X0086293Y0333724D01*
X0084257Y0330784D01*
X0083872Y0330788D01*
X0083369Y0331291D01*
X0082381Y0331701D01*
X0081311Y0331701D01*
X0080323Y0331291D01*
X0079566Y0330535D01*
X0079157Y0329547D01*
X0079157Y0328477D01*
X0079566Y0327489D01*
X0080323Y0326732D01*
X0081311Y0326323D01*
X0082381Y0326323D01*
X0083369Y0326732D01*
X0083825Y0327188D01*
X0084620Y0327179D01*
X0084780Y0327068D01*
X0085344Y0327171D01*
X0085917Y0327164D01*
X0086056Y0327300D01*
X0086248Y0327335D01*
X0086574Y0327806D01*
X0086983Y0328206D01*
X0086986Y0328401D01*
X0097134Y0343055D01*
X0097341Y0343055D01*
X0098330Y0343464D01*
X0099086Y0344221D01*
X0099495Y0345209D01*
X0099495Y0345887D01*
X0104048Y0350440D01*
X0105921Y0350440D01*
X0105921Y0346252D01*
X0106502Y0345670D01*
X0106502Y0334482D01*
X0100257Y0328236D01*
X0099579Y0328236D01*
X0098590Y0327827D01*
X0097834Y0327070D01*
X0097424Y0326082D01*
X0097424Y0325012D01*
X0097834Y0324024D01*
X0098590Y0323268D01*
X0098672Y0323234D01*
X0098425Y0322987D01*
X0097839Y0322401D01*
X0097839Y0322400D01*
X0081765Y0306327D01*
X0075799Y0306327D01*
X0076070Y0306981D01*
X0076070Y0308051D01*
X0075661Y0309039D01*
X0074904Y0309795D01*
X0073916Y0310205D01*
X0073521Y0310205D01*
X0067113Y0316612D01*
X0067113Y0320223D01*
X0067313Y0320423D01*
X0067313Y0327212D01*
X0067393Y0327292D01*
X0067802Y0328280D01*
X0067802Y0329350D01*
X0067393Y0330338D01*
X0066637Y0331095D01*
X0065648Y0331504D01*
X0064579Y0331504D01*
X0063590Y0331095D01*
X0062834Y0330338D01*
X0062424Y0329350D01*
X0062424Y0328280D01*
X0062834Y0327292D01*
X0062913Y0327212D01*
X0062913Y0320423D01*
X0063113Y0320223D01*
X0063113Y0314955D01*
X0070692Y0307376D01*
X0070692Y0306981D01*
X0070963Y0306327D01*
X0070753Y0306833D02*
X0059543Y0306833D01*
X0060190Y0308032D02*
X0070037Y0308032D01*
X0068838Y0309230D02*
X0061389Y0309230D01*
X0062153Y0310429D02*
X0067640Y0310429D01*
X0066441Y0311627D02*
X0062153Y0311627D01*
X0062153Y0312826D02*
X0065243Y0312826D01*
X0064044Y0314024D02*
X0062153Y0314024D01*
X0062153Y0315223D02*
X0063113Y0315223D01*
X0063113Y0316422D02*
X0062153Y0316422D01*
X0062153Y0317620D02*
X0063113Y0317620D01*
X0063113Y0318819D02*
X0062153Y0318819D01*
X0062153Y0320017D02*
X0063113Y0320017D01*
X0062913Y0321216D02*
X0062153Y0321216D01*
X0062153Y0322414D02*
X0062913Y0322414D01*
X0062913Y0323613D02*
X0062153Y0323613D01*
X0062153Y0324811D02*
X0062913Y0324811D01*
X0062913Y0326010D02*
X0062153Y0326010D01*
X0062153Y0327208D02*
X0062913Y0327208D01*
X0062424Y0328407D02*
X0062153Y0328407D01*
X0062034Y0329605D02*
X0062530Y0329605D01*
X0063299Y0330804D02*
X0060835Y0330804D01*
X0055344Y0332002D02*
X0085101Y0332002D01*
X0084271Y0330804D02*
X0083857Y0330804D01*
X0085192Y0328972D02*
X0081846Y0329012D01*
X0079847Y0327208D02*
X0067313Y0327208D01*
X0067313Y0326010D02*
X0097424Y0326010D01*
X0097508Y0324811D02*
X0067313Y0324811D01*
X0067313Y0323613D02*
X0098245Y0323613D01*
X0097851Y0322414D02*
X0067313Y0322414D01*
X0067313Y0321216D02*
X0096654Y0321216D01*
X0095456Y0320017D02*
X0067113Y0320017D01*
X0067113Y0318819D02*
X0094257Y0318819D01*
X0093059Y0317620D02*
X0067113Y0317620D01*
X0067304Y0316422D02*
X0091860Y0316422D01*
X0090662Y0315223D02*
X0068502Y0315223D01*
X0069701Y0314024D02*
X0089463Y0314024D01*
X0088265Y0312826D02*
X0070899Y0312826D01*
X0072098Y0311627D02*
X0087066Y0311627D01*
X0085868Y0310429D02*
X0073296Y0310429D01*
X0075469Y0309230D02*
X0084669Y0309230D01*
X0083471Y0308032D02*
X0076070Y0308032D01*
X0076009Y0306833D02*
X0082272Y0306833D01*
X0091728Y0320744D02*
X0091728Y0322555D01*
X0099720Y0330547D01*
X0099720Y0332398D01*
X0101626Y0329605D02*
X0087820Y0329605D01*
X0088650Y0330804D02*
X0102824Y0330804D01*
X0104023Y0332002D02*
X0089480Y0332002D01*
X0090310Y0333201D02*
X0105221Y0333201D01*
X0106420Y0334399D02*
X0091140Y0334399D01*
X0091970Y0335598D02*
X0106502Y0335598D01*
X0106502Y0336796D02*
X0092799Y0336796D01*
X0093629Y0337995D02*
X0106502Y0337995D01*
X0106502Y0339193D02*
X0094459Y0339193D01*
X0095289Y0340392D02*
X0106502Y0340392D01*
X0106502Y0341590D02*
X0096119Y0341590D01*
X0096949Y0342789D02*
X0106502Y0342789D01*
X0106502Y0343987D02*
X0098852Y0343987D01*
X0099486Y0345186D02*
X0106502Y0345186D01*
X0105921Y0346384D02*
X0099992Y0346384D01*
X0101191Y0347583D02*
X0105921Y0347583D01*
X0105921Y0348781D02*
X0102389Y0348781D01*
X0103588Y0349980D02*
X0105921Y0349980D01*
X0108302Y0348382D02*
X0108302Y0333736D01*
X0100113Y0325547D01*
X0097972Y0327208D02*
X0085962Y0327208D01*
X0086990Y0328407D02*
X0100427Y0328407D01*
X0092570Y0342789D02*
X0076017Y0342789D01*
X0074819Y0341590D02*
X0091740Y0341590D01*
X0090910Y0340392D02*
X0073620Y0340392D01*
X0072422Y0339193D02*
X0090081Y0339193D01*
X0089251Y0337995D02*
X0088555Y0337995D01*
X0086334Y0336413D02*
X0076846Y0336413D01*
X0075547Y0335114D01*
X0077436Y0333201D02*
X0085931Y0333201D01*
X0084545Y0334399D02*
X0078161Y0334399D01*
X0079835Y0330804D02*
X0066928Y0330804D01*
X0067697Y0329605D02*
X0079181Y0329605D01*
X0079186Y0328407D02*
X0067802Y0328407D01*
X0066429Y0333201D02*
X0073657Y0333201D01*
X0072932Y0334399D02*
X0067628Y0334399D01*
X0068826Y0335598D02*
X0072858Y0335598D01*
X0073426Y0336796D02*
X0070025Y0336796D01*
X0071223Y0337995D02*
X0075881Y0337995D01*
X0077216Y0343987D02*
X0093400Y0343987D01*
X0094127Y0345186D02*
X0078414Y0345186D01*
X0079613Y0346384D02*
X0094161Y0346384D01*
X0094842Y0347583D02*
X0080811Y0347583D01*
X0082010Y0348781D02*
X0096555Y0348781D01*
X0095540Y0349980D02*
X0083208Y0349980D01*
X0084407Y0351178D02*
X0089626Y0351178D01*
X0090758Y0351178D02*
X0095079Y0351178D01*
X0096806Y0345744D02*
X0103302Y0352240D01*
X0097239Y0358303D01*
X0097239Y0360862D01*
X0099693Y0361965D02*
X0118219Y0361965D01*
X0118203Y0360766D02*
X0116471Y0360766D01*
X0116471Y0359568D02*
X0118008Y0359568D01*
X0118008Y0358369D02*
X0116471Y0358369D01*
X0116483Y0357171D02*
X0118008Y0357171D01*
X0118008Y0355972D02*
X0117681Y0355972D01*
X0115054Y0352377D02*
X0114176Y0352377D01*
X0114433Y0351178D02*
X0116063Y0351178D01*
X0116063Y0349980D02*
X0115014Y0349980D01*
X0115014Y0348781D02*
X0116063Y0348781D01*
X0116063Y0347583D02*
X0115929Y0347583D01*
X0115929Y0346384D02*
X0116063Y0346384D01*
X0114129Y0346886D02*
X0114129Y0343776D01*
X0114129Y0346886D02*
X0112633Y0348382D01*
X0112633Y0351374D01*
X0111767Y0352240D01*
X0103302Y0352240D01*
X0103314Y0354774D02*
X0108678Y0354774D01*
X0108165Y0355972D02*
X0102116Y0355972D01*
X0100917Y0357171D02*
X0108165Y0357171D01*
X0108165Y0358369D02*
X0099719Y0358369D01*
X0099614Y0359568D02*
X0108165Y0359568D01*
X0108165Y0360766D02*
X0099928Y0360766D01*
X0098710Y0363163D02*
X0108165Y0363163D01*
X0108165Y0364362D02*
X0097591Y0364362D01*
X0098789Y0365560D02*
X0108165Y0365560D01*
X0108165Y0366759D02*
X0099988Y0366759D01*
X0101186Y0367957D02*
X0108165Y0367957D01*
X0108679Y0369156D02*
X0102385Y0369156D01*
X0103583Y0370355D02*
X0109865Y0370355D01*
X0110060Y0371553D02*
X0104782Y0371553D01*
X0105980Y0372752D02*
X0110956Y0372752D01*
X0114153Y0372752D02*
X0116114Y0372752D01*
X0115048Y0371553D02*
X0137829Y0371553D01*
X0136683Y0372752D02*
X0118759Y0372752D01*
X0119865Y0373950D02*
X0135536Y0373950D01*
X0134390Y0375149D02*
X0120125Y0375149D01*
X0119836Y0376347D02*
X0123879Y0376347D01*
X0125876Y0376347D02*
X0133244Y0376347D01*
X0132097Y0377546D02*
X0127807Y0377546D01*
X0128560Y0378744D02*
X0130951Y0378744D01*
X0129484Y0378461D02*
X0129484Y0373343D01*
X0142791Y0360035D01*
X0145835Y0361965D02*
X0126102Y0361965D01*
X0126119Y0360766D02*
X0147034Y0360766D01*
X0148232Y0359568D02*
X0126313Y0359568D01*
X0126313Y0363163D02*
X0144770Y0363163D01*
X0144707Y0364362D02*
X0126313Y0364362D01*
X0126313Y0365560D02*
X0143561Y0365560D01*
X0142415Y0366759D02*
X0126313Y0366759D01*
X0126313Y0367957D02*
X0141268Y0367957D01*
X0140122Y0369156D02*
X0115958Y0369156D01*
X0116471Y0367957D02*
X0118008Y0367957D01*
X0115243Y0370355D02*
X0138976Y0370355D01*
X0140985Y0376347D02*
X0144061Y0376347D01*
X0144061Y0376518D02*
X0144061Y0374558D01*
X0143582Y0374078D01*
X0143449Y0373759D01*
X0135102Y0382527D01*
X0135102Y0386687D01*
X0133965Y0387824D01*
X0134274Y0387953D01*
X0135031Y0388709D01*
X0135440Y0389697D01*
X0135440Y0390767D01*
X0135031Y0391755D01*
X0134274Y0392512D01*
X0133286Y0392921D01*
X0132934Y0392921D01*
X0132934Y0393264D01*
X0132934Y0394450D01*
X0132809Y0394917D01*
X0132567Y0395336D01*
X0132225Y0395678D01*
X0132182Y0395703D01*
X0132186Y0395707D01*
X0132886Y0395417D01*
X0133955Y0395417D01*
X0134944Y0395827D01*
X0135223Y0396106D01*
X0174958Y0396106D01*
X0175158Y0396306D01*
X0180377Y0396306D01*
X0180354Y0396283D01*
X0179944Y0395295D01*
X0179944Y0394225D01*
X0180354Y0393237D01*
X0181110Y0392480D01*
X0182098Y0392071D01*
X0183168Y0392071D01*
X0183413Y0392172D01*
X0193622Y0392172D01*
X0194102Y0391693D01*
X0195090Y0391283D01*
X0196160Y0391283D01*
X0197148Y0391693D01*
X0197905Y0392449D01*
X0198314Y0393438D01*
X0198314Y0394507D01*
X0197905Y0395496D01*
X0197148Y0396252D01*
X0197017Y0396306D01*
X0222493Y0396306D01*
X0221391Y0395205D01*
X0220220Y0394033D01*
X0220220Y0393294D01*
X0219720Y0392793D01*
X0219095Y0393418D01*
X0215345Y0393418D01*
X0214720Y0392793D01*
X0214095Y0393418D01*
X0210345Y0393418D01*
X0209720Y0392793D01*
X0209095Y0393418D01*
X0205345Y0393418D01*
X0204720Y0392793D01*
X0204095Y0393418D01*
X0200345Y0393418D01*
X0199642Y0392716D01*
X0199642Y0390629D01*
X0196730Y0390629D01*
X0195441Y0389340D01*
X0192723Y0386622D01*
X0192610Y0386622D01*
X0191622Y0386213D01*
X0190865Y0385456D01*
X0190456Y0384468D01*
X0190456Y0383398D01*
X0190865Y0382410D01*
X0191519Y0381757D01*
X0185614Y0381757D01*
X0185614Y0386458D01*
X0186094Y0386937D01*
X0186503Y0387926D01*
X0186503Y0388995D01*
X0186094Y0389984D01*
X0185337Y0390740D01*
X0184349Y0391150D01*
X0183279Y0391150D01*
X0182291Y0390740D01*
X0181535Y0389984D01*
X0181125Y0388995D01*
X0181125Y0387926D01*
X0181535Y0386937D01*
X0182014Y0386458D01*
X0182014Y0381757D01*
X0173415Y0381757D01*
X0172936Y0382236D01*
X0171948Y0382646D01*
X0170878Y0382646D01*
X0170102Y0382324D01*
X0170102Y0388461D01*
X0170967Y0388819D01*
X0171724Y0389575D01*
X0172133Y0390564D01*
X0172133Y0391633D01*
X0171724Y0392622D01*
X0170967Y0393378D01*
X0169979Y0393787D01*
X0169584Y0393787D01*
X0168422Y0394949D01*
X0159830Y0394949D01*
X0159550Y0395228D01*
X0158562Y0395638D01*
X0157492Y0395638D01*
X0156504Y0395228D01*
X0155747Y0394472D01*
X0155338Y0393484D01*
X0155338Y0392414D01*
X0155747Y0391426D01*
X0156504Y0390669D01*
X0157492Y0390260D01*
X0158562Y0390260D01*
X0159550Y0390669D01*
X0159830Y0390949D01*
X0166749Y0390949D01*
X0166502Y0390702D01*
X0166502Y0382095D01*
X0166479Y0382118D01*
X0165491Y0382528D01*
X0164813Y0382528D01*
X0163379Y0383961D01*
X0158029Y0383961D01*
X0156975Y0382907D01*
X0156100Y0382032D01*
X0154439Y0382032D01*
X0154439Y0383501D01*
X0153736Y0384204D01*
X0147199Y0384204D01*
X0146496Y0383501D01*
X0146496Y0381274D01*
X0146400Y0381370D01*
X0145412Y0381780D01*
X0144342Y0381780D01*
X0143354Y0381370D01*
X0142598Y0380614D01*
X0142188Y0379625D01*
X0142188Y0378556D01*
X0142598Y0377567D01*
X0143354Y0376811D01*
X0144061Y0376518D01*
X0144061Y0375149D02*
X0142126Y0375149D01*
X0143267Y0373950D02*
X0143529Y0373950D01*
X0142987Y0371634D02*
X0133302Y0381807D01*
X0133302Y0385941D01*
X0131491Y0387752D01*
X0122554Y0387752D01*
X0121531Y0386728D01*
X0078657Y0386728D01*
X0078499Y0386886D01*
X0079968Y0388528D02*
X0060463Y0408033D01*
X0060463Y0429426D01*
X0063248Y0429426D01*
X0063951Y0430129D01*
X0063951Y0431382D01*
X0065041Y0430292D01*
X0067132Y0429426D01*
X0069395Y0429426D01*
X0071485Y0430292D01*
X0073081Y0431888D01*
X0073619Y0431148D01*
X0074297Y0430470D01*
X0075072Y0429907D01*
X0075926Y0429472D01*
X0076837Y0429176D01*
X0077663Y0429045D01*
X0077663Y0434514D01*
X0078863Y0434514D01*
X0078863Y0429045D01*
X0079689Y0429176D01*
X0080600Y0429472D01*
X0081454Y0429907D01*
X0082229Y0430470D01*
X0082907Y0431148D01*
X0083470Y0431923D01*
X0083905Y0432777D01*
X0084201Y0433689D01*
X0084332Y0434514D01*
X0078863Y0434514D01*
X0078863Y0435714D01*
X0084332Y0435714D01*
X0084201Y0436540D01*
X0083905Y0437451D01*
X0083470Y0438305D01*
X0082907Y0439080D01*
X0082229Y0439758D01*
X0081454Y0440321D01*
X0080600Y0440756D01*
X0079689Y0441052D01*
X0078863Y0441183D01*
X0078863Y0435714D01*
X0077663Y0435714D01*
X0077663Y0441183D01*
X0076837Y0441052D01*
X0075926Y0440756D01*
X0075072Y0440321D01*
X0074297Y0439758D01*
X0073619Y0439080D01*
X0073081Y0438340D01*
X0071485Y0439936D01*
X0069395Y0440802D01*
X0067132Y0440802D01*
X0065041Y0439936D01*
X0063951Y0438847D01*
X0063951Y0440099D01*
X0063248Y0440802D01*
X0053278Y0440802D01*
X0052575Y0440099D01*
X0052575Y0430129D01*
X0053278Y0429426D01*
X0056063Y0429426D01*
X0056063Y0406211D01*
X0077588Y0384686D01*
X0079411Y0384686D01*
X0079653Y0384928D01*
X0090429Y0384928D01*
X0090364Y0384891D01*
X0090022Y0384549D01*
X0089780Y0384130D01*
X0089655Y0383663D01*
X0089655Y0382476D01*
X0089655Y0381290D01*
X0089780Y0380823D01*
X0090022Y0380404D01*
X0090364Y0380062D01*
X0090407Y0380037D01*
X0090055Y0379685D01*
X0090055Y0376606D01*
X0090897Y0375765D01*
X0091227Y0375765D01*
X0091227Y0372702D01*
X0090244Y0372702D01*
X0090346Y0372804D01*
X0090755Y0373792D01*
X0090755Y0374862D01*
X0090346Y0375850D01*
X0089589Y0376606D01*
X0088601Y0377016D01*
X0087531Y0377016D01*
X0086543Y0376606D01*
X0085787Y0375850D01*
X0085377Y0374862D01*
X0085377Y0374262D01*
X0074810Y0363695D01*
X0074810Y0364429D01*
X0074401Y0365417D01*
X0073921Y0365896D01*
X0073921Y0386726D01*
X0066936Y0393711D01*
X0066936Y0394389D01*
X0066527Y0395378D01*
X0065770Y0396134D01*
X0064782Y0396543D01*
X0063712Y0396543D01*
X0062724Y0396134D01*
X0061968Y0395378D01*
X0061558Y0394389D01*
X0061558Y0393319D01*
X0061968Y0392331D01*
X0062724Y0391575D01*
X0063712Y0391165D01*
X0064391Y0391165D01*
X0070321Y0385235D01*
X0070321Y0365896D01*
X0069842Y0365417D01*
X0069432Y0364429D01*
X0069432Y0363359D01*
X0069637Y0362864D01*
X0069310Y0363000D01*
X0068240Y0363000D01*
X0067252Y0362591D01*
X0066972Y0362311D01*
X0060191Y0362311D01*
X0046214Y0348335D01*
X0045501Y0347621D01*
X0045501Y0461026D01*
X0256773Y0461026D01*
X0256773Y0381987D01*
X0250331Y0388429D01*
X0256329Y0394427D01*
X0256329Y0411262D01*
X0255040Y0412550D01*
X0240817Y0426773D01*
X0240817Y0444844D01*
X0240979Y0444911D01*
X0242151Y0446084D01*
X0242786Y0447616D01*
X0242786Y0455211D01*
X0242151Y0456743D01*
X0240979Y0457916D01*
X0239447Y0458550D01*
X0237788Y0458550D01*
X0236256Y0457916D01*
X0235084Y0456743D01*
X0234449Y0455211D01*
X0234449Y0447616D01*
X0235084Y0446084D01*
X0236256Y0444911D01*
X0236417Y0444844D01*
X0236417Y0424951D01*
X0251929Y0409439D01*
X0251929Y0396250D01*
X0249096Y0393417D01*
X0249095Y0393418D01*
X0245345Y0393418D01*
X0244720Y0392793D01*
X0244095Y0393418D01*
X0240345Y0393418D01*
X0239720Y0392793D01*
X0239400Y0393113D01*
X0239400Y0393905D01*
X0239480Y0393985D01*
X0239889Y0394973D01*
X0239889Y0396043D01*
X0239480Y0397031D01*
X0238723Y0397787D01*
X0237735Y0398197D01*
X0236665Y0398197D01*
X0235677Y0397787D01*
X0234920Y0397031D01*
X0234511Y0396043D01*
X0234511Y0394973D01*
X0234920Y0393985D01*
X0235000Y0393905D01*
X0235000Y0393074D01*
X0234720Y0392793D01*
X0234095Y0393418D01*
X0230345Y0393418D01*
X0229969Y0393043D01*
X0229878Y0393201D01*
X0229580Y0393499D01*
X0229215Y0393709D01*
X0228808Y0393818D01*
X0227309Y0393818D01*
X0227309Y0388518D01*
X0227131Y0388518D01*
X0227131Y0393818D01*
X0226302Y0393818D01*
X0226873Y0394055D01*
X0227629Y0394811D01*
X0228039Y0395800D01*
X0228039Y0396870D01*
X0227629Y0397858D01*
X0227441Y0398046D01*
X0227673Y0398278D01*
X0230128Y0400732D01*
X0230806Y0400732D01*
X0231794Y0401142D01*
X0232551Y0401898D01*
X0232960Y0402886D01*
X0232960Y0403956D01*
X0232551Y0404944D01*
X0231794Y0405701D01*
X0230806Y0406110D01*
X0229736Y0406110D01*
X0228748Y0405701D01*
X0227991Y0404944D01*
X0227582Y0403956D01*
X0227582Y0403278D01*
X0225128Y0400824D01*
X0223490Y0400824D01*
X0222573Y0399906D01*
X0175158Y0399906D01*
X0174958Y0400106D01*
X0135223Y0400106D01*
X0134944Y0400386D01*
X0133955Y0400795D01*
X0132886Y0400795D01*
X0131897Y0400386D01*
X0131618Y0400106D01*
X0129246Y0400106D01*
X0129115Y0399976D01*
X0127432Y0399976D01*
X0126591Y0399134D01*
X0126591Y0396055D01*
X0126942Y0395703D01*
X0126899Y0395678D01*
X0126558Y0395336D01*
X0126316Y0394917D01*
X0126191Y0394450D01*
X0126191Y0393264D01*
X0129562Y0393264D01*
X0129562Y0393264D01*
X0126191Y0393264D01*
X0126191Y0392077D01*
X0126203Y0392032D01*
X0125363Y0392032D01*
X0125375Y0392077D01*
X0125375Y0393264D01*
X0125375Y0394450D01*
X0125250Y0394917D01*
X0125008Y0395336D01*
X0124666Y0395678D01*
X0124623Y0395703D01*
X0124975Y0396055D01*
X0124975Y0397738D01*
X0138462Y0411224D01*
X0144098Y0411224D01*
X0144378Y0410945D01*
X0145366Y0410535D01*
X0146436Y0410535D01*
X0147424Y0410945D01*
X0148180Y0411701D01*
X0148590Y0412690D01*
X0148590Y0413759D01*
X0148180Y0414748D01*
X0147424Y0415504D01*
X0146436Y0415913D01*
X0145366Y0415913D01*
X0144378Y0415504D01*
X0144098Y0415224D01*
X0136805Y0415224D01*
X0135633Y0414053D01*
X0130758Y0409178D01*
X0130425Y0409984D01*
X0129668Y0410740D01*
X0128680Y0411150D01*
X0127610Y0411150D01*
X0126622Y0410740D01*
X0125865Y0409984D01*
X0125456Y0408995D01*
X0125456Y0408243D01*
X0119337Y0401802D01*
X0118368Y0401774D01*
X0118747Y0402690D01*
X0118747Y0403368D01*
X0124325Y0408945D01*
X0128252Y0412701D01*
X0128995Y0412701D01*
X0129983Y0413110D01*
X0130740Y0413867D01*
X0131149Y0414855D01*
X0131149Y0415925D01*
X0130740Y0416913D01*
X0129983Y0417669D01*
X0128995Y0418079D01*
X0127925Y0418079D01*
X0126937Y0417669D01*
X0126180Y0416913D01*
X0125771Y0415925D01*
X0125771Y0415309D01*
X0122344Y0412032D01*
X0122321Y0412032D01*
X0121808Y0411519D01*
X0121283Y0411018D01*
X0121283Y0410994D01*
X0116202Y0405913D01*
X0115523Y0405913D01*
X0114535Y0405504D01*
X0113779Y0404748D01*
X0113477Y0404020D01*
X0112119Y0405379D01*
X0109250Y0405379D01*
X0108195Y0404324D01*
X0106454Y0402583D01*
X0093100Y0402583D01*
X0092621Y0403063D01*
X0091633Y0403472D01*
X0090563Y0403472D01*
X0089575Y0403063D01*
X0088818Y0402307D01*
X0088409Y0401318D01*
X0088409Y0400249D01*
X0088818Y0399260D01*
X0089575Y0398504D01*
X0090563Y0398094D01*
X0091633Y0398094D01*
X0092621Y0398504D01*
X0093100Y0398983D01*
X0107946Y0398983D01*
X0110684Y0401722D01*
X0113295Y0399111D01*
X0113296Y0399081D01*
X0113820Y0398587D01*
X0114328Y0398078D01*
X0114359Y0398078D01*
X0114381Y0398057D01*
X0115100Y0398078D01*
X0115820Y0398078D01*
X0115841Y0398099D01*
X0117775Y0398155D01*
X0112131Y0395701D01*
X0110542Y0395120D01*
X0097330Y0393584D01*
X0096554Y0393905D01*
X0095484Y0393905D01*
X0094496Y0393496D01*
X0093739Y0392740D01*
X0093330Y0391751D01*
X0093330Y0390682D01*
X0093739Y0389693D01*
X0094496Y0388937D01*
X0095482Y0388528D01*
X0079968Y0388528D01*
X0078966Y0389531D02*
X0093902Y0389531D01*
X0093330Y0390729D02*
X0077767Y0390729D01*
X0076569Y0391928D02*
X0093403Y0391928D01*
X0094126Y0393126D02*
X0075370Y0393126D01*
X0074172Y0394325D02*
X0103705Y0394325D01*
X0100569Y0389531D02*
X0116480Y0389531D01*
X0116480Y0389501D02*
X0116882Y0388528D01*
X0096556Y0388528D01*
X0097542Y0388937D01*
X0097816Y0389211D01*
X0110691Y0390707D01*
X0110954Y0390585D01*
X0111566Y0390809D01*
X0112213Y0390884D01*
X0112393Y0391112D01*
X0112919Y0391304D01*
X0112990Y0391277D01*
X0113766Y0391614D01*
X0114560Y0391905D01*
X0114592Y0391973D01*
X0118632Y0393730D01*
X0118632Y0393264D01*
X0122003Y0393264D01*
X0122003Y0393264D01*
X0118632Y0393264D01*
X0118632Y0392724D01*
X0117645Y0392315D01*
X0116889Y0391559D01*
X0116480Y0390570D01*
X0116480Y0389501D01*
X0116545Y0390729D02*
X0111348Y0390729D01*
X0113474Y0389561D02*
X0117948Y0393264D01*
X0122003Y0393264D01*
X0125375Y0393264D01*
X0122003Y0393264D01*
X0122003Y0393264D01*
X0118632Y0393126D02*
X0117244Y0393126D01*
X0117258Y0391928D02*
X0114571Y0391928D01*
X0111645Y0395523D02*
X0072973Y0395523D01*
X0071775Y0396722D02*
X0114478Y0396722D01*
X0112948Y0397791D02*
X0111846Y0396689D01*
X0093617Y0396689D01*
X0091098Y0400783D02*
X0107200Y0400783D01*
X0109995Y0403579D01*
X0111373Y0403579D01*
X0115074Y0399878D01*
X0120131Y0400024D01*
X0128145Y0408461D01*
X0125456Y0408707D02*
X0124086Y0408707D01*
X0124758Y0407508D02*
X0122888Y0407508D01*
X0123619Y0406310D02*
X0121689Y0406310D01*
X0122481Y0405111D02*
X0120491Y0405111D01*
X0121343Y0403913D02*
X0119292Y0403913D01*
X0118747Y0402714D02*
X0120204Y0402714D01*
X0116058Y0403224D02*
X0123066Y0410232D01*
X0128460Y0415390D01*
X0130374Y0413501D02*
X0135081Y0413501D01*
X0133883Y0412302D02*
X0127836Y0412302D01*
X0127500Y0411104D02*
X0126582Y0411104D01*
X0125833Y0409905D02*
X0125329Y0409905D01*
X0122627Y0412302D02*
X0060463Y0412302D01*
X0060463Y0411104D02*
X0121373Y0411104D01*
X0120194Y0409905D02*
X0060463Y0409905D01*
X0060463Y0408707D02*
X0118995Y0408707D01*
X0117797Y0407508D02*
X0060988Y0407508D01*
X0062187Y0406310D02*
X0116598Y0406310D01*
X0114142Y0405111D02*
X0112386Y0405111D01*
X0108982Y0405111D02*
X0063385Y0405111D01*
X0064584Y0403913D02*
X0107784Y0403913D01*
X0106585Y0402714D02*
X0092970Y0402714D01*
X0089226Y0402714D02*
X0065782Y0402714D01*
X0066981Y0401516D02*
X0088491Y0401516D01*
X0088409Y0400317D02*
X0068179Y0400317D01*
X0069378Y0399119D02*
X0088960Y0399119D01*
X0090210Y0384737D02*
X0079461Y0384737D01*
X0077537Y0384737D02*
X0073921Y0384737D01*
X0073921Y0385935D02*
X0076339Y0385935D01*
X0075140Y0387134D02*
X0073514Y0387134D01*
X0073942Y0388332D02*
X0072315Y0388332D01*
X0072743Y0389531D02*
X0071117Y0389531D01*
X0071545Y0390729D02*
X0069918Y0390729D01*
X0070346Y0391928D02*
X0068720Y0391928D01*
X0069148Y0393126D02*
X0067521Y0393126D01*
X0067949Y0394325D02*
X0066936Y0394325D01*
X0066751Y0395523D02*
X0066381Y0395523D01*
X0065552Y0396722D02*
X0045501Y0396722D01*
X0045501Y0397920D02*
X0064354Y0397920D01*
X0063155Y0399119D02*
X0045501Y0399119D01*
X0045501Y0400317D02*
X0061957Y0400317D01*
X0060758Y0401516D02*
X0045501Y0401516D01*
X0045501Y0402714D02*
X0059560Y0402714D01*
X0058361Y0403913D02*
X0045501Y0403913D01*
X0045501Y0405111D02*
X0057162Y0405111D01*
X0056063Y0406310D02*
X0045501Y0406310D01*
X0045501Y0407508D02*
X0056063Y0407508D01*
X0056063Y0408707D02*
X0045501Y0408707D01*
X0045501Y0409905D02*
X0056063Y0409905D01*
X0056063Y0411104D02*
X0045501Y0411104D01*
X0045501Y0412302D02*
X0056063Y0412302D01*
X0056063Y0413501D02*
X0045501Y0413501D01*
X0045501Y0414699D02*
X0056063Y0414699D01*
X0056063Y0415898D02*
X0045501Y0415898D01*
X0045501Y0417096D02*
X0056063Y0417096D01*
X0056063Y0418295D02*
X0045501Y0418295D01*
X0045501Y0419493D02*
X0056063Y0419493D01*
X0056063Y0420692D02*
X0045501Y0420692D01*
X0045501Y0421891D02*
X0056063Y0421891D01*
X0056063Y0423089D02*
X0045501Y0423089D01*
X0045501Y0424288D02*
X0056063Y0424288D01*
X0056063Y0425486D02*
X0045501Y0425486D01*
X0045501Y0426685D02*
X0056063Y0426685D01*
X0056063Y0427883D02*
X0045501Y0427883D01*
X0045501Y0429082D02*
X0056063Y0429082D01*
X0060463Y0429082D02*
X0077433Y0429082D01*
X0077663Y0429082D02*
X0078863Y0429082D01*
X0079093Y0429082D02*
X0133254Y0429082D01*
X0135884Y0430613D02*
X0136492Y0430005D01*
X0122976Y0426150D01*
X0122026Y0426543D01*
X0120957Y0426543D01*
X0119968Y0426134D01*
X0119212Y0425378D01*
X0118802Y0424389D01*
X0118802Y0423319D01*
X0119212Y0422331D01*
X0119968Y0421575D01*
X0120957Y0421165D01*
X0122026Y0421165D01*
X0123015Y0421575D01*
X0123771Y0422331D01*
X0123913Y0422673D01*
X0146861Y0429220D01*
X0176378Y0429220D01*
X0176858Y0428740D01*
X0177846Y0428331D01*
X0178916Y0428331D01*
X0179904Y0428740D01*
X0180661Y0429496D01*
X0181070Y0430485D01*
X0181070Y0431555D01*
X0180661Y0432543D01*
X0179904Y0433299D01*
X0178916Y0433709D01*
X0177846Y0433709D01*
X0176858Y0433299D01*
X0176378Y0432820D01*
X0147076Y0432820D01*
X0146833Y0432955D01*
X0146358Y0432820D01*
X0145864Y0432820D01*
X0145667Y0432623D01*
X0140687Y0431202D01*
X0140799Y0431471D01*
X0146889Y0434613D01*
X0147198Y0434613D01*
X0147527Y0434942D01*
X0147940Y0435156D01*
X0148034Y0435450D01*
X0148252Y0435668D01*
X0148252Y0436133D01*
X0148294Y0436263D01*
X0148732Y0436701D01*
X0149141Y0437690D01*
X0149141Y0438759D01*
X0148732Y0439748D01*
X0147975Y0440504D01*
X0146987Y0440913D01*
X0145917Y0440913D01*
X0144929Y0440504D01*
X0144172Y0439748D01*
X0143763Y0438759D01*
X0143763Y0437690D01*
X0143981Y0437164D01*
X0139115Y0434653D01*
X0138699Y0434826D01*
X0137629Y0434826D01*
X0136641Y0434416D01*
X0135884Y0433660D01*
X0135475Y0432672D01*
X0135475Y0431602D01*
X0135884Y0430613D01*
X0136218Y0430280D02*
X0081967Y0430280D01*
X0083147Y0431479D02*
X0135526Y0431479D01*
X0135477Y0432677D02*
X0083854Y0432677D01*
X0084231Y0433876D02*
X0136100Y0433876D01*
X0138164Y0432137D02*
X0146452Y0436413D01*
X0146452Y0438224D01*
X0148303Y0436273D02*
X0187847Y0436273D01*
X0188201Y0436126D02*
X0189270Y0436126D01*
X0190259Y0436535D01*
X0190538Y0436815D01*
X0205161Y0436815D01*
X0205362Y0436614D01*
X0206350Y0436205D01*
X0207420Y0436205D01*
X0208408Y0436614D01*
X0209165Y0437371D01*
X0209574Y0438359D01*
X0209574Y0439429D01*
X0209165Y0440417D01*
X0208408Y0441173D01*
X0207420Y0441583D01*
X0206350Y0441583D01*
X0205362Y0441173D01*
X0205004Y0440815D01*
X0190538Y0440815D01*
X0190259Y0441095D01*
X0189270Y0441504D01*
X0188201Y0441504D01*
X0187212Y0441095D01*
X0186456Y0440338D01*
X0186047Y0439350D01*
X0186047Y0438280D01*
X0186456Y0437292D01*
X0187212Y0436535D01*
X0188201Y0436126D01*
X0189624Y0436273D02*
X0206186Y0436273D01*
X0207584Y0436273D02*
X0236417Y0436273D01*
X0236417Y0437471D02*
X0209206Y0437471D01*
X0209574Y0438670D02*
X0236417Y0438670D01*
X0236417Y0439868D02*
X0209392Y0439868D01*
X0208515Y0441067D02*
X0236417Y0441067D01*
X0236417Y0442265D02*
X0045501Y0442265D01*
X0045501Y0441067D02*
X0076927Y0441067D01*
X0077663Y0441067D02*
X0078863Y0441067D01*
X0079599Y0441067D02*
X0187184Y0441067D01*
X0186261Y0439868D02*
X0148611Y0439868D01*
X0149141Y0438670D02*
X0186047Y0438670D01*
X0186382Y0437471D02*
X0149051Y0437471D01*
X0147782Y0435074D02*
X0236417Y0435074D01*
X0236417Y0433876D02*
X0145459Y0433876D01*
X0145721Y0432677D02*
X0143137Y0432677D01*
X0141657Y0431479D02*
X0140814Y0431479D01*
X0139931Y0435074D02*
X0078863Y0435074D01*
X0078863Y0433876D02*
X0077663Y0433876D01*
X0077663Y0432677D02*
X0078863Y0432677D01*
X0078863Y0431479D02*
X0077663Y0431479D01*
X0077663Y0430280D02*
X0078863Y0430280D01*
X0074559Y0430280D02*
X0071456Y0430280D01*
X0072672Y0431479D02*
X0073379Y0431479D01*
X0073321Y0438670D02*
X0072752Y0438670D01*
X0071553Y0439868D02*
X0074449Y0439868D01*
X0077663Y0439868D02*
X0078863Y0439868D01*
X0078863Y0438670D02*
X0077663Y0438670D01*
X0077663Y0437471D02*
X0078863Y0437471D01*
X0078863Y0436273D02*
X0077663Y0436273D01*
X0082078Y0439868D02*
X0144293Y0439868D01*
X0143763Y0438670D02*
X0083205Y0438670D01*
X0083895Y0437471D02*
X0143854Y0437471D01*
X0142254Y0436273D02*
X0084244Y0436273D01*
X0064973Y0439868D02*
X0063951Y0439868D01*
X0063951Y0430280D02*
X0065070Y0430280D01*
X0060463Y0427883D02*
X0129053Y0427883D01*
X0129572Y0424288D02*
X0237081Y0424288D01*
X0236417Y0425486D02*
X0133773Y0425486D01*
X0130556Y0417096D02*
X0177878Y0417096D01*
X0178635Y0417854D02*
X0175208Y0414427D01*
X0175208Y0412404D01*
X0180658Y0412404D01*
X0180658Y0411604D01*
X0175208Y0411604D01*
X0175208Y0409581D01*
X0178635Y0406154D01*
X0180658Y0406154D01*
X0180658Y0411604D01*
X0181458Y0411604D01*
X0181458Y0406154D01*
X0183481Y0406154D01*
X0186302Y0408974D01*
X0188643Y0406633D01*
X0192748Y0406633D01*
X0190549Y0404434D01*
X0180305Y0404434D01*
X0179826Y0404913D01*
X0178837Y0405323D01*
X0177768Y0405323D01*
X0176779Y0404913D01*
X0176023Y0404157D01*
X0175613Y0403169D01*
X0175613Y0402099D01*
X0176023Y0401111D01*
X0176779Y0400354D01*
X0177768Y0399945D01*
X0178837Y0399945D01*
X0179826Y0400354D01*
X0180305Y0400834D01*
X0192040Y0400834D01*
X0193095Y0401888D01*
X0198162Y0406956D01*
X0198486Y0406633D01*
X0203001Y0406633D01*
X0205579Y0409210D01*
X0208556Y0406233D01*
X0210580Y0406233D01*
X0210580Y0411683D01*
X0211380Y0411683D01*
X0211380Y0406233D01*
X0213403Y0406233D01*
X0216184Y0409014D01*
X0218565Y0406633D01*
X0223080Y0406633D01*
X0226272Y0409825D01*
X0226272Y0414340D01*
X0223080Y0417533D01*
X0218565Y0417533D01*
X0216184Y0415152D01*
X0213403Y0417933D01*
X0211380Y0417933D01*
X0211380Y0412483D01*
X0210580Y0412483D01*
X0210580Y0417933D01*
X0208556Y0417933D01*
X0205579Y0414955D01*
X0203001Y0417533D01*
X0198486Y0417533D01*
X0195822Y0414869D01*
X0193158Y0417533D01*
X0188643Y0417533D01*
X0186223Y0415112D01*
X0183481Y0417854D01*
X0181458Y0417854D01*
X0181458Y0412404D01*
X0180658Y0412404D01*
X0180658Y0417854D01*
X0178635Y0417854D01*
X0180658Y0417096D02*
X0181458Y0417096D01*
X0181458Y0415898D02*
X0180658Y0415898D01*
X0180658Y0414699D02*
X0181458Y0414699D01*
X0181458Y0413501D02*
X0180658Y0413501D01*
X0180658Y0412302D02*
X0148429Y0412302D01*
X0148590Y0413501D02*
X0175208Y0413501D01*
X0175481Y0414699D02*
X0148200Y0414699D01*
X0146473Y0415898D02*
X0176679Y0415898D01*
X0175208Y0411104D02*
X0147583Y0411104D01*
X0145329Y0415898D02*
X0131149Y0415898D01*
X0131084Y0414699D02*
X0136280Y0414699D01*
X0138341Y0411104D02*
X0144219Y0411104D01*
X0137143Y0409905D02*
X0175208Y0409905D01*
X0176082Y0408707D02*
X0135944Y0408707D01*
X0134746Y0407508D02*
X0177281Y0407508D01*
X0178479Y0406310D02*
X0133547Y0406310D01*
X0132348Y0405111D02*
X0177257Y0405111D01*
X0175922Y0403913D02*
X0131150Y0403913D01*
X0129951Y0402714D02*
X0175613Y0402714D01*
X0175855Y0401516D02*
X0128753Y0401516D01*
X0127554Y0400317D02*
X0131829Y0400317D01*
X0135012Y0400317D02*
X0176868Y0400317D01*
X0178302Y0402634D02*
X0191295Y0402634D01*
X0200743Y0412083D01*
X0204636Y0415898D02*
X0206522Y0415898D01*
X0207720Y0417096D02*
X0203437Y0417096D01*
X0198050Y0417096D02*
X0193595Y0417096D01*
X0194793Y0415898D02*
X0196851Y0415898D01*
X0197516Y0406310D02*
X0208479Y0406310D01*
X0207281Y0407508D02*
X0203877Y0407508D01*
X0205075Y0408707D02*
X0206082Y0408707D01*
X0210580Y0408707D02*
X0211380Y0408707D01*
X0210980Y0409327D02*
X0218066Y0402240D01*
X0217689Y0407508D02*
X0214678Y0407508D01*
X0213480Y0406310D02*
X0251929Y0406310D01*
X0251929Y0407508D02*
X0223955Y0407508D01*
X0225154Y0408707D02*
X0230862Y0408707D01*
X0230401Y0408898D02*
X0231390Y0408488D01*
X0232459Y0408488D01*
X0233448Y0408898D01*
X0234204Y0409654D01*
X0234613Y0410642D01*
X0234613Y0411712D01*
X0234204Y0412700D01*
X0233448Y0413457D01*
X0232459Y0413866D01*
X0231390Y0413866D01*
X0230401Y0413457D01*
X0229645Y0412700D01*
X0229236Y0411712D01*
X0229236Y0410642D01*
X0229645Y0409654D01*
X0230401Y0408898D01*
X0229541Y0409905D02*
X0226272Y0409905D01*
X0226272Y0411104D02*
X0229236Y0411104D01*
X0229480Y0412302D02*
X0226272Y0412302D01*
X0226272Y0413501D02*
X0230508Y0413501D01*
X0233341Y0413501D02*
X0247867Y0413501D01*
X0246669Y0414699D02*
X0225913Y0414699D01*
X0224714Y0415898D02*
X0245470Y0415898D01*
X0244272Y0417096D02*
X0223516Y0417096D01*
X0218128Y0417096D02*
X0214239Y0417096D01*
X0215437Y0415898D02*
X0216930Y0415898D01*
X0216490Y0408707D02*
X0215877Y0408707D01*
X0211380Y0409905D02*
X0210580Y0409905D01*
X0210980Y0409327D02*
X0210980Y0412083D01*
X0210580Y0411104D02*
X0211380Y0411104D01*
X0211380Y0413501D02*
X0210580Y0413501D01*
X0210580Y0414699D02*
X0211380Y0414699D01*
X0211380Y0415898D02*
X0210580Y0415898D01*
X0210580Y0417096D02*
X0211380Y0417096D01*
X0211380Y0407508D02*
X0210580Y0407508D01*
X0210580Y0406310D02*
X0211380Y0406310D01*
X0210052Y0393126D02*
X0209387Y0393126D01*
X0205052Y0393126D02*
X0204387Y0393126D01*
X0200052Y0393126D02*
X0198185Y0393126D01*
X0198314Y0394325D02*
X0220511Y0394325D01*
X0220052Y0393126D02*
X0219387Y0393126D01*
X0221710Y0395523D02*
X0197877Y0395523D01*
X0195625Y0393972D02*
X0183421Y0393972D01*
X0182633Y0394760D01*
X0180039Y0395523D02*
X0158838Y0395523D01*
X0157215Y0395523D02*
X0134211Y0395523D01*
X0132630Y0395523D02*
X0132380Y0395523D01*
X0132934Y0394325D02*
X0155686Y0394325D01*
X0155338Y0393126D02*
X0132934Y0393126D01*
X0132934Y0393264D02*
X0129562Y0393264D01*
X0132934Y0393264D01*
X0134859Y0391928D02*
X0155539Y0391928D01*
X0156444Y0390729D02*
X0135440Y0390729D01*
X0135371Y0389531D02*
X0166502Y0389531D01*
X0166529Y0390729D02*
X0159610Y0390729D01*
X0157606Y0383538D02*
X0154402Y0383538D01*
X0154439Y0382340D02*
X0156408Y0382340D01*
X0156846Y0380232D02*
X0158775Y0382161D01*
X0162633Y0382161D01*
X0164956Y0379839D01*
X0165945Y0382340D02*
X0166502Y0382340D01*
X0166502Y0383538D02*
X0163802Y0383538D01*
X0166502Y0384737D02*
X0135102Y0384737D01*
X0135102Y0385935D02*
X0166502Y0385935D01*
X0166502Y0387134D02*
X0134655Y0387134D01*
X0134654Y0388332D02*
X0166502Y0388332D01*
X0168302Y0389957D02*
X0168302Y0376098D01*
X0155468Y0363264D01*
X0158157Y0363163D02*
X0165836Y0363163D01*
X0165905Y0363330D02*
X0165495Y0362342D01*
X0165495Y0361272D01*
X0165905Y0360284D01*
X0166661Y0359527D01*
X0167355Y0359240D01*
X0162595Y0359240D01*
X0161621Y0360214D01*
X0161621Y0360610D01*
X0161212Y0361598D01*
X0160456Y0362354D01*
X0159467Y0362764D01*
X0158397Y0362764D01*
X0158124Y0362651D01*
X0158157Y0362729D01*
X0158157Y0363407D01*
X0169048Y0374298D01*
X0170102Y0375353D01*
X0170102Y0377589D01*
X0170878Y0377268D01*
X0171948Y0377268D01*
X0172936Y0377677D01*
X0173415Y0378157D01*
X0209880Y0378157D01*
X0215180Y0372856D01*
X0215180Y0372178D01*
X0215590Y0371189D01*
X0216346Y0370433D01*
X0217334Y0370024D01*
X0218404Y0370024D01*
X0219393Y0370433D01*
X0220149Y0371189D01*
X0220558Y0372178D01*
X0220558Y0373247D01*
X0220149Y0374236D01*
X0219393Y0374992D01*
X0218404Y0375402D01*
X0217726Y0375402D01*
X0211371Y0381757D01*
X0194771Y0381757D01*
X0195425Y0382410D01*
X0195834Y0383398D01*
X0195834Y0383511D01*
X0198552Y0386229D01*
X0199642Y0386229D01*
X0199642Y0384143D01*
X0200345Y0383440D01*
X0204095Y0383440D01*
X0204720Y0384065D01*
X0205345Y0383440D01*
X0209095Y0383440D01*
X0209720Y0384065D01*
X0210345Y0383440D01*
X0214095Y0383440D01*
X0214720Y0384065D01*
X0215345Y0383440D01*
X0219095Y0383440D01*
X0219720Y0384065D01*
X0220345Y0383440D01*
X0220361Y0383440D01*
X0220361Y0379204D01*
X0219881Y0378724D01*
X0219472Y0377736D01*
X0219472Y0376666D01*
X0219881Y0375678D01*
X0220638Y0374921D01*
X0221626Y0374512D01*
X0222696Y0374512D01*
X0223684Y0374921D01*
X0224440Y0375678D01*
X0224850Y0376666D01*
X0224850Y0377736D01*
X0224440Y0378724D01*
X0223961Y0379204D01*
X0223961Y0383440D01*
X0224095Y0383440D01*
X0224470Y0383815D01*
X0224561Y0383657D01*
X0224859Y0383359D01*
X0225224Y0383149D01*
X0225631Y0383040D01*
X0227131Y0383040D01*
X0227131Y0388340D01*
X0227309Y0388340D01*
X0227309Y0383040D01*
X0228808Y0383040D01*
X0229215Y0383149D01*
X0229580Y0383359D01*
X0229878Y0383657D01*
X0229969Y0383815D01*
X0230345Y0383440D01*
X0232510Y0383440D01*
X0231850Y0382779D01*
X0231440Y0381791D01*
X0231440Y0380721D01*
X0231850Y0379733D01*
X0232606Y0378976D01*
X0233594Y0378567D01*
X0234664Y0378567D01*
X0235652Y0378976D01*
X0236409Y0379733D01*
X0236818Y0380721D01*
X0236818Y0380834D01*
X0238131Y0382146D01*
X0239420Y0383435D01*
X0239420Y0383765D01*
X0239720Y0384065D01*
X0240345Y0383440D01*
X0244095Y0383440D01*
X0244720Y0384065D01*
X0245345Y0383440D01*
X0249095Y0383440D01*
X0249096Y0383441D01*
X0252953Y0379585D01*
X0252953Y0369530D01*
X0195593Y0369904D01*
X0195588Y0369909D01*
X0194765Y0369909D01*
X0193944Y0369915D01*
X0193938Y0369909D01*
X0193931Y0369909D01*
X0193349Y0369328D01*
X0192765Y0368751D01*
X0192765Y0368743D01*
X0180029Y0356008D01*
X0180204Y0356430D01*
X0180204Y0357108D01*
X0183252Y0360156D01*
X0183252Y0372678D01*
X0183732Y0373158D01*
X0184141Y0374146D01*
X0184141Y0375216D01*
X0183732Y0376204D01*
X0182975Y0376961D01*
X0181987Y0377370D01*
X0180917Y0377370D01*
X0179929Y0376961D01*
X0179172Y0376204D01*
X0178763Y0375216D01*
X0178763Y0374146D01*
X0179172Y0373158D01*
X0179652Y0372678D01*
X0179652Y0361647D01*
X0177658Y0359654D01*
X0176980Y0359654D01*
X0175992Y0359244D01*
X0175235Y0358488D01*
X0175066Y0358079D01*
X0175066Y0363738D01*
X0173895Y0364909D01*
X0172566Y0366238D01*
X0172566Y0366633D01*
X0172157Y0367622D01*
X0171400Y0368378D01*
X0170412Y0368787D01*
X0169342Y0368787D01*
X0168354Y0368378D01*
X0167598Y0367622D01*
X0167188Y0366633D01*
X0167188Y0365564D01*
X0167598Y0364575D01*
X0167677Y0364496D01*
X0167649Y0364496D01*
X0166661Y0364087D01*
X0165905Y0363330D01*
X0165495Y0361965D02*
X0160845Y0361965D01*
X0161556Y0360766D02*
X0165705Y0360766D01*
X0166621Y0359568D02*
X0162268Y0359568D01*
X0159112Y0364362D02*
X0167326Y0364362D01*
X0167190Y0365560D02*
X0160310Y0365560D01*
X0161509Y0366759D02*
X0167240Y0366759D01*
X0167934Y0367957D02*
X0162707Y0367957D01*
X0163906Y0369156D02*
X0179652Y0369156D01*
X0179652Y0370355D02*
X0165104Y0370355D01*
X0166303Y0371553D02*
X0179652Y0371553D01*
X0179579Y0372752D02*
X0167501Y0372752D01*
X0168700Y0373950D02*
X0178844Y0373950D01*
X0178763Y0375149D02*
X0169898Y0375149D01*
X0170102Y0376347D02*
X0179315Y0376347D01*
X0181452Y0374681D02*
X0181452Y0360902D01*
X0177515Y0356965D01*
X0176773Y0359568D02*
X0175066Y0359568D01*
X0175066Y0360766D02*
X0178771Y0360766D01*
X0179652Y0361965D02*
X0175066Y0361965D01*
X0175066Y0363163D02*
X0179652Y0363163D01*
X0179652Y0364362D02*
X0174442Y0364362D01*
X0173244Y0365560D02*
X0179652Y0365560D01*
X0179652Y0366759D02*
X0172514Y0366759D01*
X0171821Y0367957D02*
X0179652Y0367957D01*
X0183252Y0367957D02*
X0184669Y0367957D01*
X0184669Y0367453D02*
X0185078Y0366465D01*
X0185834Y0365709D01*
X0186823Y0365299D01*
X0187892Y0365299D01*
X0188881Y0365709D01*
X0189637Y0366465D01*
X0190047Y0367453D01*
X0190047Y0368132D01*
X0195190Y0373275D01*
X0199528Y0373275D01*
X0200008Y0372795D01*
X0200996Y0372386D01*
X0202066Y0372386D01*
X0203054Y0372795D01*
X0203810Y0373552D01*
X0204220Y0374540D01*
X0204220Y0375610D01*
X0203810Y0376598D01*
X0203054Y0377354D01*
X0202066Y0377764D01*
X0200996Y0377764D01*
X0200008Y0377354D01*
X0199528Y0376875D01*
X0193699Y0376875D01*
X0192644Y0375820D01*
X0187501Y0370677D01*
X0186823Y0370677D01*
X0185834Y0370268D01*
X0185078Y0369511D01*
X0184669Y0368523D01*
X0184669Y0367453D01*
X0184956Y0366759D02*
X0183252Y0366759D01*
X0183252Y0365560D02*
X0186192Y0365560D01*
X0188523Y0365560D02*
X0189582Y0365560D01*
X0189759Y0366759D02*
X0190780Y0366759D01*
X0190047Y0367957D02*
X0191979Y0367957D01*
X0191071Y0369156D02*
X0193175Y0369156D01*
X0192269Y0370355D02*
X0216536Y0370355D01*
X0215439Y0371553D02*
X0193468Y0371553D01*
X0194666Y0372752D02*
X0200113Y0372752D01*
X0201531Y0375075D02*
X0194444Y0375075D01*
X0187358Y0367988D01*
X0184931Y0369156D02*
X0183252Y0369156D01*
X0183252Y0370355D02*
X0186044Y0370355D01*
X0188377Y0371553D02*
X0183252Y0371553D01*
X0183325Y0372752D02*
X0189575Y0372752D01*
X0190774Y0373950D02*
X0184060Y0373950D01*
X0184141Y0375149D02*
X0191972Y0375149D01*
X0192644Y0375820D02*
X0192644Y0375820D01*
X0193171Y0376347D02*
X0183589Y0376347D01*
X0183814Y0379957D02*
X0183814Y0388461D01*
X0181347Y0389531D02*
X0171679Y0389531D01*
X0172133Y0390729D02*
X0182280Y0390729D01*
X0181125Y0388332D02*
X0170102Y0388332D01*
X0170102Y0387134D02*
X0181453Y0387134D01*
X0182014Y0385935D02*
X0170102Y0385935D01*
X0170102Y0384737D02*
X0182014Y0384737D01*
X0182014Y0383538D02*
X0170102Y0383538D01*
X0170102Y0382340D02*
X0170139Y0382340D01*
X0172686Y0382340D02*
X0182014Y0382340D01*
X0183814Y0379957D02*
X0210625Y0379957D01*
X0217869Y0372713D01*
X0215180Y0372752D02*
X0202949Y0372752D01*
X0203975Y0373950D02*
X0214086Y0373950D01*
X0212888Y0375149D02*
X0204220Y0375149D01*
X0203914Y0376347D02*
X0211689Y0376347D01*
X0210491Y0377546D02*
X0202592Y0377546D01*
X0200469Y0377546D02*
X0172618Y0377546D01*
X0170207Y0377546D02*
X0170102Y0377546D01*
X0171413Y0379957D02*
X0183814Y0379957D01*
X0185614Y0382340D02*
X0190936Y0382340D01*
X0190456Y0383538D02*
X0185614Y0383538D01*
X0185614Y0384737D02*
X0190567Y0384737D01*
X0191344Y0385935D02*
X0185614Y0385935D01*
X0186175Y0387134D02*
X0193234Y0387134D01*
X0194433Y0388332D02*
X0186503Y0388332D01*
X0186282Y0389531D02*
X0195631Y0389531D01*
X0197383Y0391928D02*
X0199642Y0391928D01*
X0199642Y0390729D02*
X0185348Y0390729D01*
X0180464Y0393126D02*
X0171219Y0393126D01*
X0172011Y0391928D02*
X0193867Y0391928D01*
X0197060Y0384737D02*
X0199642Y0384737D01*
X0199642Y0385935D02*
X0198258Y0385935D01*
X0200246Y0383538D02*
X0195861Y0383538D01*
X0195354Y0382340D02*
X0220361Y0382340D01*
X0220361Y0381141D02*
X0211986Y0381141D01*
X0213185Y0379943D02*
X0220361Y0379943D01*
X0219901Y0378744D02*
X0214383Y0378744D01*
X0215582Y0377546D02*
X0219472Y0377546D01*
X0219604Y0376347D02*
X0216780Y0376347D01*
X0219015Y0375149D02*
X0220410Y0375149D01*
X0220267Y0373950D02*
X0252953Y0373950D01*
X0252953Y0372752D02*
X0220558Y0372752D01*
X0220300Y0371553D02*
X0252953Y0371553D01*
X0252953Y0370355D02*
X0219203Y0370355D01*
X0222161Y0377201D02*
X0222161Y0389346D01*
X0222220Y0389406D01*
X0224193Y0383538D02*
X0224681Y0383538D01*
X0223961Y0382340D02*
X0231668Y0382340D01*
X0231440Y0381141D02*
X0223961Y0381141D01*
X0223961Y0379943D02*
X0231763Y0379943D01*
X0233167Y0378744D02*
X0224420Y0378744D01*
X0224850Y0377546D02*
X0252953Y0377546D01*
X0252953Y0378744D02*
X0235092Y0378744D01*
X0236496Y0379943D02*
X0252595Y0379943D01*
X0251396Y0381141D02*
X0237126Y0381141D01*
X0238324Y0382340D02*
X0250198Y0382340D01*
X0252825Y0385935D02*
X0256773Y0385935D01*
X0256773Y0384737D02*
X0254023Y0384737D01*
X0255222Y0383538D02*
X0256773Y0383538D01*
X0256773Y0382340D02*
X0256421Y0382340D01*
X0256773Y0387134D02*
X0251626Y0387134D01*
X0250428Y0388332D02*
X0256773Y0388332D01*
X0256773Y0389531D02*
X0251433Y0389531D01*
X0252631Y0390729D02*
X0256773Y0390729D01*
X0256773Y0391928D02*
X0253830Y0391928D01*
X0255028Y0393126D02*
X0256773Y0393126D01*
X0256773Y0394325D02*
X0256227Y0394325D01*
X0256329Y0395523D02*
X0256773Y0395523D01*
X0256773Y0396722D02*
X0256329Y0396722D01*
X0256329Y0397920D02*
X0256773Y0397920D01*
X0256773Y0399119D02*
X0256329Y0399119D01*
X0256329Y0400317D02*
X0256773Y0400317D01*
X0256773Y0401516D02*
X0256329Y0401516D01*
X0256329Y0402714D02*
X0256773Y0402714D01*
X0256773Y0403913D02*
X0256329Y0403913D01*
X0256329Y0405111D02*
X0256773Y0405111D01*
X0256773Y0406310D02*
X0256329Y0406310D01*
X0256329Y0407508D02*
X0256773Y0407508D01*
X0256773Y0408707D02*
X0256329Y0408707D01*
X0256329Y0409905D02*
X0256773Y0409905D01*
X0256773Y0411104D02*
X0256329Y0411104D01*
X0256773Y0412302D02*
X0255288Y0412302D01*
X0254090Y0413501D02*
X0256773Y0413501D01*
X0256773Y0414699D02*
X0252891Y0414699D01*
X0251693Y0415898D02*
X0256773Y0415898D01*
X0256773Y0417096D02*
X0250494Y0417096D01*
X0249296Y0418295D02*
X0256773Y0418295D01*
X0256773Y0419493D02*
X0248097Y0419493D01*
X0246899Y0420692D02*
X0256773Y0420692D01*
X0256773Y0421891D02*
X0245700Y0421891D01*
X0244502Y0423089D02*
X0256773Y0423089D01*
X0256773Y0424288D02*
X0243303Y0424288D01*
X0242105Y0425486D02*
X0256773Y0425486D01*
X0256773Y0426685D02*
X0240906Y0426685D01*
X0240817Y0427883D02*
X0256773Y0427883D01*
X0256773Y0429082D02*
X0240817Y0429082D01*
X0240817Y0430280D02*
X0256773Y0430280D01*
X0256773Y0431479D02*
X0240817Y0431479D01*
X0240817Y0432677D02*
X0256773Y0432677D01*
X0256773Y0433876D02*
X0240817Y0433876D01*
X0240817Y0435074D02*
X0256773Y0435074D01*
X0256773Y0436273D02*
X0240817Y0436273D01*
X0240817Y0437471D02*
X0256773Y0437471D01*
X0256773Y0438670D02*
X0240817Y0438670D01*
X0240817Y0439868D02*
X0256773Y0439868D01*
X0256773Y0441067D02*
X0240817Y0441067D01*
X0240817Y0442265D02*
X0256773Y0442265D01*
X0256773Y0443464D02*
X0240817Y0443464D01*
X0240817Y0444662D02*
X0246857Y0444662D01*
X0246256Y0444911D02*
X0247788Y0444276D01*
X0249447Y0444276D01*
X0250979Y0444911D01*
X0252151Y0446084D01*
X0252786Y0447616D01*
X0252786Y0455211D01*
X0252151Y0456743D01*
X0250979Y0457916D01*
X0249447Y0458550D01*
X0247788Y0458550D01*
X0246256Y0457916D01*
X0245084Y0456743D01*
X0244449Y0455211D01*
X0244449Y0447616D01*
X0245084Y0446084D01*
X0246256Y0444911D01*
X0245306Y0445861D02*
X0241928Y0445861D01*
X0242555Y0447059D02*
X0244679Y0447059D01*
X0244449Y0448258D02*
X0242786Y0448258D01*
X0242786Y0449456D02*
X0244449Y0449456D01*
X0244449Y0450655D02*
X0242786Y0450655D01*
X0242786Y0451853D02*
X0244449Y0451853D01*
X0244449Y0453052D02*
X0242786Y0453052D01*
X0242786Y0454250D02*
X0244449Y0454250D01*
X0244547Y0455449D02*
X0242687Y0455449D01*
X0242191Y0456647D02*
X0245044Y0456647D01*
X0246186Y0457846D02*
X0241049Y0457846D01*
X0236186Y0457846D02*
X0231049Y0457846D01*
X0230979Y0457916D02*
X0229447Y0458550D01*
X0227788Y0458550D01*
X0226256Y0457916D01*
X0225084Y0456743D01*
X0224449Y0455211D01*
X0224449Y0447616D01*
X0225084Y0446084D01*
X0226256Y0444911D01*
X0227788Y0444276D01*
X0229447Y0444276D01*
X0230979Y0444911D01*
X0232151Y0446084D01*
X0232786Y0447616D01*
X0232786Y0455211D01*
X0232151Y0456743D01*
X0230979Y0457916D01*
X0232191Y0456647D02*
X0235044Y0456647D01*
X0234547Y0455449D02*
X0232687Y0455449D01*
X0232786Y0454250D02*
X0234449Y0454250D01*
X0234449Y0453052D02*
X0232786Y0453052D01*
X0232786Y0451853D02*
X0234449Y0451853D01*
X0234449Y0450655D02*
X0232786Y0450655D01*
X0232786Y0449456D02*
X0234449Y0449456D01*
X0234449Y0448258D02*
X0232786Y0448258D01*
X0232555Y0447059D02*
X0234679Y0447059D01*
X0235306Y0445861D02*
X0231928Y0445861D01*
X0230378Y0444662D02*
X0236417Y0444662D01*
X0236417Y0443464D02*
X0170874Y0443464D01*
X0170441Y0443284D02*
X0172720Y0444228D01*
X0174464Y0445972D01*
X0175408Y0448251D01*
X0175408Y0450718D01*
X0174464Y0452996D01*
X0172720Y0454740D01*
X0170441Y0455684D01*
X0167975Y0455684D01*
X0165696Y0454740D01*
X0163952Y0452996D01*
X0163008Y0450718D01*
X0163008Y0448251D01*
X0163952Y0445972D01*
X0165696Y0444228D01*
X0167975Y0443284D01*
X0170441Y0443284D01*
X0167541Y0443464D02*
X0145284Y0443464D01*
X0144851Y0443284D02*
X0147129Y0444228D01*
X0148873Y0445972D01*
X0149817Y0448251D01*
X0149817Y0450718D01*
X0148873Y0452996D01*
X0147129Y0454740D01*
X0144851Y0455684D01*
X0142384Y0455684D01*
X0140105Y0454740D01*
X0138361Y0452996D01*
X0137417Y0450718D01*
X0137417Y0448251D01*
X0138361Y0445972D01*
X0140105Y0444228D01*
X0142384Y0443284D01*
X0144851Y0443284D01*
X0147563Y0444662D02*
X0165262Y0444662D01*
X0164063Y0445861D02*
X0148762Y0445861D01*
X0149324Y0447059D02*
X0163502Y0447059D01*
X0163008Y0448258D02*
X0149817Y0448258D01*
X0149817Y0449456D02*
X0163008Y0449456D01*
X0163008Y0450655D02*
X0149817Y0450655D01*
X0149347Y0451853D02*
X0163478Y0451853D01*
X0164007Y0453052D02*
X0148818Y0453052D01*
X0147619Y0454250D02*
X0165206Y0454250D01*
X0167406Y0455449D02*
X0145419Y0455449D01*
X0141816Y0455449D02*
X0045501Y0455449D01*
X0045501Y0456647D02*
X0214644Y0456647D01*
X0214710Y0456776D02*
X0214384Y0456136D01*
X0214161Y0455452D01*
X0214049Y0454741D01*
X0214049Y0451798D01*
X0218233Y0451798D01*
X0218233Y0458946D01*
X0217548Y0458838D01*
X0216864Y0458616D01*
X0216223Y0458289D01*
X0215641Y0457867D01*
X0215133Y0457358D01*
X0214710Y0456776D01*
X0215621Y0457846D02*
X0045501Y0457846D01*
X0045501Y0459044D02*
X0256773Y0459044D01*
X0256773Y0457846D02*
X0251049Y0457846D01*
X0252191Y0456647D02*
X0256773Y0456647D01*
X0256773Y0455449D02*
X0252687Y0455449D01*
X0252786Y0454250D02*
X0256773Y0454250D01*
X0256773Y0453052D02*
X0252786Y0453052D01*
X0252786Y0451853D02*
X0256773Y0451853D01*
X0256773Y0450655D02*
X0252786Y0450655D01*
X0252786Y0449456D02*
X0256773Y0449456D01*
X0256773Y0448258D02*
X0252786Y0448258D01*
X0252555Y0447059D02*
X0256773Y0447059D01*
X0256773Y0445861D02*
X0251928Y0445861D01*
X0250378Y0444662D02*
X0256773Y0444662D01*
X0256773Y0460243D02*
X0045501Y0460243D01*
X0045501Y0454250D02*
X0139615Y0454250D01*
X0138417Y0453052D02*
X0045501Y0453052D01*
X0045501Y0451853D02*
X0137888Y0451853D01*
X0137417Y0450655D02*
X0045501Y0450655D01*
X0045501Y0449456D02*
X0137417Y0449456D01*
X0137417Y0448258D02*
X0045501Y0448258D01*
X0045501Y0447059D02*
X0137911Y0447059D01*
X0138473Y0445861D02*
X0045501Y0445861D01*
X0045501Y0444662D02*
X0139671Y0444662D01*
X0141951Y0443464D02*
X0045501Y0443464D01*
X0045501Y0439868D02*
X0052575Y0439868D01*
X0052575Y0438670D02*
X0045501Y0438670D01*
X0045501Y0437471D02*
X0052575Y0437471D01*
X0052575Y0436273D02*
X0045501Y0436273D01*
X0045501Y0435074D02*
X0052575Y0435074D01*
X0052575Y0433876D02*
X0045501Y0433876D01*
X0045501Y0432677D02*
X0052575Y0432677D01*
X0052575Y0431479D02*
X0045501Y0431479D01*
X0045501Y0430280D02*
X0052575Y0430280D01*
X0060463Y0426685D02*
X0124851Y0426685D01*
X0125370Y0423089D02*
X0238279Y0423089D01*
X0239478Y0421891D02*
X0123330Y0421891D01*
X0121491Y0423854D02*
X0146610Y0431020D01*
X0178381Y0431020D01*
X0176516Y0429082D02*
X0146377Y0429082D01*
X0142176Y0427883D02*
X0236417Y0427883D01*
X0236417Y0426685D02*
X0137974Y0426685D01*
X0126364Y0417096D02*
X0060463Y0417096D01*
X0060463Y0415898D02*
X0125771Y0415898D01*
X0125133Y0414699D02*
X0060463Y0414699D01*
X0060463Y0413501D02*
X0123880Y0413501D01*
X0128790Y0411104D02*
X0132684Y0411104D01*
X0131486Y0409905D02*
X0130457Y0409905D01*
X0126591Y0399119D02*
X0126356Y0399119D01*
X0126591Y0397920D02*
X0125157Y0397920D01*
X0124975Y0396722D02*
X0126591Y0396722D01*
X0126745Y0395523D02*
X0124821Y0395523D01*
X0125375Y0394325D02*
X0126191Y0394325D01*
X0126191Y0393126D02*
X0125375Y0393126D01*
X0129562Y0393264D02*
X0129562Y0393264D01*
X0132751Y0390232D02*
X0119365Y0390232D01*
X0119169Y0390035D01*
X0116738Y0384928D02*
X0116401Y0384114D01*
X0116401Y0383435D01*
X0114447Y0381481D01*
X0115305Y0382340D02*
X0101470Y0382340D01*
X0100253Y0382340D02*
X0096398Y0382340D01*
X0096398Y0382476D02*
X0096398Y0383663D01*
X0096273Y0384130D01*
X0096032Y0384549D01*
X0095690Y0384891D01*
X0095624Y0384928D01*
X0116738Y0384928D01*
X0116659Y0384737D02*
X0095844Y0384737D01*
X0096398Y0383538D02*
X0116401Y0383538D01*
X0119090Y0383579D02*
X0115192Y0379681D01*
X0100861Y0379681D01*
X0098339Y0378744D02*
X0095998Y0378744D01*
X0095998Y0377546D02*
X0099194Y0377546D01*
X0098173Y0379943D02*
X0095741Y0379943D01*
X0096359Y0381141D02*
X0098556Y0381141D01*
X0096398Y0382476D02*
X0093027Y0382476D01*
X0089655Y0382476D01*
X0093027Y0382476D01*
X0093027Y0382476D01*
X0089655Y0382340D02*
X0073921Y0382340D01*
X0073921Y0383538D02*
X0089655Y0383538D01*
X0089695Y0381141D02*
X0073921Y0381141D01*
X0073921Y0379943D02*
X0090312Y0379943D01*
X0090055Y0378744D02*
X0073921Y0378744D01*
X0073921Y0377546D02*
X0090055Y0377546D01*
X0089849Y0376347D02*
X0090314Y0376347D01*
X0090636Y0375149D02*
X0091227Y0375149D01*
X0091227Y0373950D02*
X0090755Y0373950D01*
X0090294Y0372752D02*
X0091227Y0372752D01*
X0090940Y0370902D02*
X0086728Y0366689D01*
X0085657Y0369156D02*
X0085362Y0369156D01*
X0084343Y0367957D02*
X0084164Y0367957D01*
X0084039Y0366759D02*
X0082965Y0366759D01*
X0081767Y0365560D02*
X0084285Y0365560D01*
X0085319Y0364362D02*
X0080568Y0364362D01*
X0079370Y0363163D02*
X0090170Y0363163D01*
X0088971Y0361965D02*
X0078171Y0361965D01*
X0076973Y0360766D02*
X0087773Y0360766D01*
X0086574Y0359568D02*
X0075774Y0359568D01*
X0074576Y0358369D02*
X0085376Y0358369D01*
X0084177Y0357171D02*
X0073377Y0357171D01*
X0072179Y0355972D02*
X0082979Y0355972D01*
X0081780Y0354774D02*
X0070980Y0354774D01*
X0069782Y0353575D02*
X0080581Y0353575D01*
X0079383Y0352377D02*
X0068583Y0352377D01*
X0067385Y0351178D02*
X0078184Y0351178D01*
X0076986Y0349980D02*
X0066186Y0349980D01*
X0064988Y0348781D02*
X0075787Y0348781D01*
X0074589Y0347583D02*
X0063789Y0347583D01*
X0062591Y0346384D02*
X0073390Y0346384D01*
X0072192Y0345186D02*
X0062222Y0345186D01*
X0061451Y0343987D02*
X0070993Y0343987D01*
X0069795Y0342789D02*
X0049043Y0342789D01*
X0049043Y0343987D02*
X0057831Y0343987D01*
X0057060Y0345186D02*
X0049043Y0345186D01*
X0049921Y0346384D02*
X0056952Y0346384D01*
X0057441Y0347583D02*
X0051119Y0347583D01*
X0052318Y0348781D02*
X0059896Y0348781D01*
X0061095Y0349980D02*
X0053516Y0349980D01*
X0054715Y0351178D02*
X0062293Y0351178D01*
X0063492Y0352377D02*
X0055913Y0352377D01*
X0057112Y0353575D02*
X0064690Y0353575D01*
X0065889Y0354774D02*
X0058310Y0354774D01*
X0059509Y0355972D02*
X0067088Y0355972D01*
X0068286Y0357171D02*
X0060707Y0357171D01*
X0058646Y0360766D02*
X0045501Y0360766D01*
X0045501Y0359568D02*
X0057447Y0359568D01*
X0056249Y0358369D02*
X0045501Y0358369D01*
X0045501Y0357171D02*
X0055050Y0357171D01*
X0053852Y0355972D02*
X0045501Y0355972D01*
X0045501Y0354774D02*
X0052653Y0354774D01*
X0051455Y0353575D02*
X0045501Y0353575D01*
X0045501Y0352377D02*
X0050256Y0352377D01*
X0049058Y0351178D02*
X0045501Y0351178D01*
X0045501Y0349980D02*
X0047859Y0349980D01*
X0046661Y0348781D02*
X0045501Y0348781D01*
X0049043Y0341590D02*
X0068596Y0341590D01*
X0067398Y0340392D02*
X0049043Y0340392D01*
X0049043Y0339193D02*
X0066199Y0339193D01*
X0065001Y0337995D02*
X0049043Y0337995D01*
X0049043Y0336796D02*
X0052875Y0336796D01*
X0051939Y0335598D02*
X0049427Y0335598D01*
X0050625Y0334399D02*
X0051716Y0334399D01*
X0051824Y0333201D02*
X0052042Y0333201D01*
X0053022Y0332002D02*
X0053466Y0332002D01*
X0055935Y0336796D02*
X0063802Y0336796D01*
X0059641Y0345980D02*
X0087987Y0374327D01*
X0088066Y0374327D01*
X0086284Y0376347D02*
X0073921Y0376347D01*
X0073921Y0375149D02*
X0085496Y0375149D01*
X0085065Y0373950D02*
X0073921Y0373950D01*
X0073921Y0372752D02*
X0083867Y0372752D01*
X0082668Y0371553D02*
X0073921Y0371553D01*
X0073921Y0370355D02*
X0081470Y0370355D01*
X0080271Y0369156D02*
X0073921Y0369156D01*
X0073921Y0367957D02*
X0079073Y0367957D01*
X0077874Y0366759D02*
X0073921Y0366759D01*
X0074257Y0365560D02*
X0076676Y0365560D01*
X0075477Y0364362D02*
X0074810Y0364362D01*
X0072121Y0363894D02*
X0072121Y0385980D01*
X0064247Y0393854D01*
X0062371Y0391928D02*
X0045501Y0391928D01*
X0045501Y0393126D02*
X0061638Y0393126D01*
X0061558Y0394325D02*
X0045501Y0394325D01*
X0045501Y0395523D02*
X0062113Y0395523D01*
X0064827Y0390729D02*
X0045501Y0390729D01*
X0045501Y0389531D02*
X0066025Y0389531D01*
X0067224Y0388332D02*
X0045501Y0388332D01*
X0045501Y0387134D02*
X0068422Y0387134D01*
X0069621Y0385935D02*
X0045501Y0385935D01*
X0045501Y0384737D02*
X0070321Y0384737D01*
X0070321Y0383538D02*
X0045501Y0383538D01*
X0045501Y0382340D02*
X0070321Y0382340D01*
X0070321Y0381141D02*
X0045501Y0381141D01*
X0045501Y0379943D02*
X0070321Y0379943D01*
X0070321Y0378744D02*
X0045501Y0378744D01*
X0045501Y0377546D02*
X0070321Y0377546D01*
X0070321Y0376347D02*
X0045501Y0376347D01*
X0045501Y0375149D02*
X0070321Y0375149D01*
X0070321Y0373950D02*
X0045501Y0373950D01*
X0045501Y0372752D02*
X0070321Y0372752D01*
X0070321Y0371553D02*
X0045501Y0371553D01*
X0045501Y0370355D02*
X0070321Y0370355D01*
X0070321Y0369156D02*
X0045501Y0369156D01*
X0045501Y0367957D02*
X0070321Y0367957D01*
X0070321Y0366759D02*
X0045501Y0366759D01*
X0045501Y0365560D02*
X0069985Y0365560D01*
X0069432Y0364362D02*
X0045501Y0364362D01*
X0045501Y0363163D02*
X0069513Y0363163D01*
X0059844Y0361965D02*
X0045501Y0361965D01*
X0054838Y0325350D02*
X0049247Y0319760D01*
X0046413Y0319760D01*
X0045785Y0303238D02*
X0045501Y0303238D01*
X0045501Y0302039D02*
X0048708Y0302039D01*
X0048069Y0300841D02*
X0045501Y0300841D01*
X0045501Y0299642D02*
X0048094Y0299642D01*
X0048768Y0298444D02*
X0045501Y0298444D01*
X0085192Y0328972D02*
X0096806Y0345744D01*
X0087894Y0352377D02*
X0085605Y0352377D01*
X0086804Y0353575D02*
X0087503Y0353575D01*
X0088136Y0364362D02*
X0091368Y0364362D01*
X0092567Y0365560D02*
X0089171Y0365560D01*
X0089417Y0366759D02*
X0093765Y0366759D01*
X0094964Y0367957D02*
X0090542Y0367957D01*
X0090940Y0370902D02*
X0093657Y0370902D01*
X0093027Y0371531D01*
X0093027Y0378146D01*
X0095740Y0376347D02*
X0103353Y0376347D01*
X0102529Y0377546D02*
X0116280Y0377546D01*
X0116801Y0378744D02*
X0121195Y0378744D01*
X0120906Y0379943D02*
X0117999Y0379943D01*
X0118593Y0377546D02*
X0121947Y0377546D01*
X0120955Y0381141D02*
X0120232Y0381141D01*
X0128849Y0379943D02*
X0129805Y0379943D01*
X0128822Y0383574D02*
X0129803Y0384714D01*
X0128822Y0383574D02*
X0146799Y0364779D01*
X0146570Y0363776D01*
X0166295Y0344051D01*
X0166295Y0338264D01*
X0169838Y0334720D01*
X0167149Y0334864D02*
X0167149Y0334186D01*
X0167558Y0333197D01*
X0168315Y0332441D01*
X0169303Y0332031D01*
X0170373Y0332031D01*
X0171361Y0332441D01*
X0172117Y0333197D01*
X0172527Y0334186D01*
X0172527Y0335255D01*
X0172117Y0336244D01*
X0171361Y0337000D01*
X0170373Y0337409D01*
X0169694Y0337409D01*
X0168095Y0339009D01*
X0168095Y0343958D01*
X0190866Y0321186D01*
X0190866Y0320620D01*
X0192155Y0319331D01*
X0198157Y0319331D01*
X0197936Y0318799D01*
X0197936Y0318686D01*
X0197677Y0318427D01*
X0197677Y0306166D01*
X0197598Y0306086D01*
X0197188Y0305098D01*
X0197188Y0304096D01*
X0188728Y0312557D01*
X0188728Y0318351D01*
X0189007Y0318630D01*
X0189417Y0319619D01*
X0189417Y0320688D01*
X0189007Y0321677D01*
X0188251Y0322433D01*
X0187262Y0322843D01*
X0186193Y0322843D01*
X0186110Y0322808D01*
X0186110Y0323247D01*
X0185700Y0324236D01*
X0184944Y0324992D01*
X0183955Y0325402D01*
X0182886Y0325402D01*
X0181897Y0324992D01*
X0181141Y0324236D01*
X0180732Y0323247D01*
X0180732Y0322178D01*
X0181141Y0321189D01*
X0181621Y0320710D01*
X0181621Y0295112D01*
X0176280Y0289772D01*
X0175602Y0289772D01*
X0174614Y0289362D01*
X0173857Y0288606D01*
X0173730Y0288298D01*
X0170938Y0288298D01*
X0172112Y0289473D01*
X0172112Y0290995D01*
X0168012Y0290995D01*
X0168012Y0291595D01*
X0172112Y0291595D01*
X0172112Y0293118D01*
X0169534Y0295695D01*
X0168012Y0295695D01*
X0168012Y0291595D01*
X0167412Y0291595D01*
X0167412Y0290995D01*
X0163312Y0290995D01*
X0163312Y0289473D01*
X0164486Y0288298D01*
X0158449Y0288298D01*
X0158369Y0288378D01*
X0157381Y0288787D01*
X0156311Y0288787D01*
X0155323Y0288378D01*
X0154566Y0287622D01*
X0154157Y0286633D01*
X0154157Y0285564D01*
X0154492Y0284755D01*
X0153572Y0284755D01*
X0136306Y0267489D01*
X0136306Y0267933D01*
X0135897Y0268921D01*
X0135141Y0269677D01*
X0134152Y0270087D01*
X0133083Y0270087D01*
X0132094Y0269677D01*
X0131338Y0268921D01*
X0130928Y0267933D01*
X0130928Y0266863D01*
X0131126Y0266385D01*
X0130347Y0266385D01*
X0128815Y0265750D01*
X0128337Y0265272D01*
X0128337Y0272195D01*
X0131576Y0275434D01*
X0134465Y0275434D01*
X0134465Y0274775D01*
X0135168Y0274072D01*
X0140099Y0274072D01*
X0140802Y0274775D01*
X0140802Y0280493D01*
X0140099Y0281196D01*
X0135168Y0281196D01*
X0134465Y0280493D01*
X0134465Y0279834D01*
X0131379Y0279834D01*
X0127934Y0283279D01*
X0127665Y0310587D01*
X0127676Y0310559D01*
X0128433Y0309803D01*
X0129421Y0309394D01*
X0130375Y0309394D01*
X0130970Y0308900D01*
X0131104Y0302900D01*
X0130669Y0302464D01*
X0130259Y0301476D01*
X0130259Y0300406D01*
X0130669Y0299418D01*
X0131425Y0298661D01*
X0132413Y0298252D01*
X0133483Y0298252D01*
X0134471Y0298661D01*
X0135228Y0299418D01*
X0135391Y0299813D01*
X0135952Y0299252D01*
X0136941Y0298843D01*
X0138011Y0298843D01*
X0138999Y0299252D01*
X0139755Y0300008D01*
X0140165Y0300997D01*
X0140165Y0302066D01*
X0139755Y0303055D01*
X0139276Y0303534D01*
X0139276Y0310326D01*
X0139295Y0311047D01*
X0139276Y0311068D01*
X0139276Y0311096D01*
X0138765Y0311606D01*
X0135264Y0315302D01*
X0135298Y0321048D01*
X0135500Y0320094D01*
X0135500Y0319567D01*
X0135641Y0319426D01*
X0135683Y0319230D01*
X0136124Y0318944D01*
X0141401Y0313667D01*
X0141401Y0312847D01*
X0141810Y0311859D01*
X0142567Y0311102D01*
X0143555Y0310693D01*
X0144625Y0310693D01*
X0145613Y0311102D01*
X0146369Y0311859D01*
X0146779Y0312847D01*
X0146779Y0313562D01*
X0146862Y0313528D01*
X0147932Y0313528D01*
X0148920Y0313937D01*
X0149677Y0314693D01*
X0150086Y0315682D01*
X0150086Y0316751D01*
X0149677Y0317740D01*
X0148920Y0318496D01*
X0147932Y0318905D01*
X0146862Y0318905D01*
X0146839Y0318896D01*
X0143582Y0322153D01*
X0143582Y0323985D01*
X0143748Y0323819D01*
X0144736Y0323409D01*
X0145806Y0323409D01*
X0146794Y0323819D01*
X0147551Y0324575D01*
X0147960Y0325564D01*
X0147960Y0326633D01*
X0147551Y0327622D01*
X0147110Y0328062D01*
X0147110Y0350277D01*
X0147417Y0350583D01*
X0147567Y0350433D01*
X0148555Y0350024D01*
X0149516Y0350024D01*
X0153710Y0345829D01*
X0153710Y0337868D01*
X0153031Y0337189D01*
X0152621Y0336200D01*
X0152621Y0335130D01*
X0153031Y0334142D01*
X0153787Y0333386D01*
X0154775Y0332976D01*
X0155845Y0332976D01*
X0156833Y0333386D01*
X0157590Y0334142D01*
X0157999Y0335130D01*
X0157999Y0336200D01*
X0157590Y0337189D01*
X0156910Y0337868D01*
X0156910Y0347155D01*
X0155973Y0348092D01*
X0154064Y0350002D01*
X0154574Y0350213D01*
X0155330Y0350969D01*
X0155740Y0351958D01*
X0155740Y0352061D01*
X0162113Y0345687D01*
X0161386Y0345386D01*
X0160629Y0344629D01*
X0160220Y0343641D01*
X0160220Y0343529D01*
X0160039Y0343348D01*
X0160039Y0320369D01*
X0159747Y0320661D01*
X0158759Y0321071D01*
X0157689Y0321071D01*
X0156701Y0320661D01*
X0155944Y0319905D01*
X0155535Y0318917D01*
X0155535Y0317847D01*
X0155944Y0316859D01*
X0156424Y0316379D01*
X0156424Y0303379D01*
X0155470Y0302426D01*
X0153945Y0302426D01*
X0154598Y0303079D01*
X0155007Y0304067D01*
X0155007Y0305137D01*
X0154598Y0306126D01*
X0153841Y0306882D01*
X0152853Y0307291D01*
X0151783Y0307291D01*
X0150795Y0306882D01*
X0150039Y0306126D01*
X0149629Y0305137D01*
X0149629Y0304828D01*
X0145423Y0304828D01*
X0144944Y0305307D01*
X0143955Y0305717D01*
X0142886Y0305717D01*
X0141897Y0305307D01*
X0141141Y0304551D01*
X0140732Y0303562D01*
X0140732Y0302493D01*
X0141141Y0301504D01*
X0141897Y0300748D01*
X0142886Y0300339D01*
X0143225Y0300339D01*
X0135597Y0292710D01*
X0135597Y0292449D01*
X0135337Y0292709D01*
X0134349Y0293118D01*
X0133279Y0293118D01*
X0132291Y0292709D01*
X0131535Y0291952D01*
X0131125Y0290964D01*
X0131125Y0289894D01*
X0131467Y0289070D01*
X0131427Y0289070D01*
X0130724Y0288367D01*
X0130724Y0282649D01*
X0131427Y0281946D01*
X0136359Y0281946D01*
X0137061Y0282649D01*
X0137061Y0286131D01*
X0138142Y0287212D01*
X0138143Y0287212D01*
X0138205Y0287274D01*
X0138205Y0282649D01*
X0138908Y0281946D01*
X0143839Y0281946D01*
X0144542Y0282649D01*
X0144542Y0288367D01*
X0143978Y0288931D01*
X0144377Y0289894D01*
X0144377Y0290964D01*
X0143968Y0291952D01*
X0143211Y0292709D01*
X0142223Y0293118D01*
X0141153Y0293118D01*
X0141055Y0293078D01*
X0146804Y0298826D01*
X0162835Y0298826D01*
X0163078Y0298583D01*
X0164067Y0298173D01*
X0165137Y0298173D01*
X0166125Y0298583D01*
X0166881Y0299339D01*
X0167291Y0300327D01*
X0167291Y0301397D01*
X0166881Y0302385D01*
X0166343Y0302924D01*
X0167427Y0302924D01*
X0167427Y0306876D01*
X0168627Y0306876D01*
X0168627Y0302924D01*
X0170678Y0302924D01*
X0171085Y0303033D01*
X0171450Y0303243D01*
X0171748Y0303541D01*
X0171959Y0303906D01*
X0171965Y0303928D01*
X0172569Y0303324D01*
X0178445Y0303324D01*
X0179148Y0304027D01*
X0179148Y0310819D01*
X0180022Y0311181D01*
X0180779Y0311937D01*
X0181188Y0312926D01*
X0181188Y0313995D01*
X0180779Y0314984D01*
X0180022Y0315740D01*
X0179034Y0316150D01*
X0177964Y0316150D01*
X0176976Y0315740D01*
X0176220Y0314984D01*
X0175810Y0313995D01*
X0175810Y0313176D01*
X0174803Y0312168D01*
X0174264Y0311629D01*
X0172569Y0311629D01*
X0171965Y0311025D01*
X0171959Y0311047D01*
X0171748Y0311412D01*
X0171450Y0311709D01*
X0171085Y0311920D01*
X0170678Y0312029D01*
X0170119Y0312029D01*
X0170165Y0312138D01*
X0170165Y0312983D01*
X0171888Y0314512D01*
X0172892Y0314512D01*
X0173881Y0314921D01*
X0174637Y0315678D01*
X0175047Y0316666D01*
X0175047Y0317736D01*
X0174637Y0318724D01*
X0173881Y0319480D01*
X0172892Y0319890D01*
X0171823Y0319890D01*
X0170834Y0319480D01*
X0170078Y0318724D01*
X0169669Y0317736D01*
X0169669Y0317088D01*
X0167723Y0315362D01*
X0166941Y0315362D01*
X0165952Y0314953D01*
X0165196Y0314196D01*
X0164787Y0313208D01*
X0164787Y0312138D01*
X0164895Y0311878D01*
X0164603Y0311709D01*
X0164439Y0311545D01*
X0164439Y0340834D01*
X0164495Y0340889D01*
X0164495Y0337518D01*
X0165549Y0336464D01*
X0167149Y0334864D01*
X0167149Y0334399D02*
X0164439Y0334399D01*
X0164439Y0333201D02*
X0167557Y0333201D01*
X0166415Y0335598D02*
X0164439Y0335598D01*
X0164439Y0336796D02*
X0165217Y0336796D01*
X0164495Y0337995D02*
X0164439Y0337995D01*
X0164439Y0339193D02*
X0164495Y0339193D01*
X0164495Y0340392D02*
X0164439Y0340392D01*
X0168095Y0340392D02*
X0171660Y0340392D01*
X0170462Y0341590D02*
X0168095Y0341590D01*
X0168095Y0342789D02*
X0169263Y0342789D01*
X0168095Y0339193D02*
X0172859Y0339193D01*
X0174057Y0337995D02*
X0169109Y0337995D01*
X0171565Y0336796D02*
X0175256Y0336796D01*
X0176454Y0335598D02*
X0172385Y0335598D01*
X0172527Y0334399D02*
X0177653Y0334399D01*
X0178851Y0333201D02*
X0172119Y0333201D01*
X0164439Y0332002D02*
X0180050Y0332002D01*
X0181248Y0330804D02*
X0164439Y0330804D01*
X0164439Y0329605D02*
X0182447Y0329605D01*
X0183645Y0328407D02*
X0164439Y0328407D01*
X0164439Y0327208D02*
X0184844Y0327208D01*
X0186043Y0326010D02*
X0164439Y0326010D01*
X0164439Y0324811D02*
X0181716Y0324811D01*
X0180883Y0323613D02*
X0164439Y0323613D01*
X0164439Y0322414D02*
X0180732Y0322414D01*
X0181130Y0321216D02*
X0164439Y0321216D01*
X0164439Y0320017D02*
X0181621Y0320017D01*
X0181621Y0318819D02*
X0174543Y0318819D01*
X0175047Y0317620D02*
X0181621Y0317620D01*
X0181621Y0316422D02*
X0174945Y0316422D01*
X0174183Y0315223D02*
X0176459Y0315223D01*
X0175822Y0314024D02*
X0171339Y0314024D01*
X0170165Y0312826D02*
X0175460Y0312826D01*
X0172568Y0311627D02*
X0171532Y0311627D01*
X0168917Y0316422D02*
X0164439Y0316422D01*
X0164439Y0317620D02*
X0169669Y0317620D01*
X0170173Y0318819D02*
X0164439Y0318819D01*
X0164439Y0315223D02*
X0166605Y0315223D01*
X0165125Y0314024D02*
X0164439Y0314024D01*
X0164439Y0312826D02*
X0164787Y0312826D01*
X0164522Y0311627D02*
X0164439Y0311627D01*
X0167427Y0306833D02*
X0168627Y0306833D01*
X0168627Y0305635D02*
X0167427Y0305635D01*
X0167427Y0304436D02*
X0168627Y0304436D01*
X0168627Y0303238D02*
X0167427Y0303238D01*
X0167025Y0302039D02*
X0181621Y0302039D01*
X0181621Y0300841D02*
X0167291Y0300841D01*
X0167007Y0299642D02*
X0181621Y0299642D01*
X0181621Y0298444D02*
X0165790Y0298444D01*
X0163413Y0298444D02*
X0146422Y0298444D01*
X0145223Y0297245D02*
X0181621Y0297245D01*
X0181621Y0296047D02*
X0144025Y0296047D01*
X0142826Y0294848D02*
X0165042Y0294848D01*
X0165889Y0295695D02*
X0163312Y0293118D01*
X0163312Y0291595D01*
X0167412Y0291595D01*
X0167412Y0295695D01*
X0165889Y0295695D01*
X0167412Y0294848D02*
X0168012Y0294848D01*
X0168012Y0293650D02*
X0167412Y0293650D01*
X0167412Y0292451D02*
X0168012Y0292451D01*
X0168012Y0291253D02*
X0177762Y0291253D01*
X0178960Y0292451D02*
X0172112Y0292451D01*
X0171580Y0293650D02*
X0180159Y0293650D01*
X0181357Y0294848D02*
X0170381Y0294848D01*
X0167412Y0291253D02*
X0144258Y0291253D01*
X0144377Y0290054D02*
X0163312Y0290054D01*
X0163929Y0288856D02*
X0144053Y0288856D01*
X0144542Y0287657D02*
X0154602Y0287657D01*
X0154157Y0286459D02*
X0144542Y0286459D01*
X0144542Y0285260D02*
X0154282Y0285260D01*
X0152879Y0284062D02*
X0144542Y0284062D01*
X0144542Y0282863D02*
X0151680Y0282863D01*
X0150482Y0281665D02*
X0129548Y0281665D01*
X0130724Y0282863D02*
X0128350Y0282863D01*
X0127927Y0284062D02*
X0130724Y0284062D01*
X0130724Y0285260D02*
X0127915Y0285260D01*
X0127903Y0286459D02*
X0130724Y0286459D01*
X0130724Y0287657D02*
X0127891Y0287657D01*
X0127879Y0288856D02*
X0131213Y0288856D01*
X0131125Y0290054D02*
X0127868Y0290054D01*
X0127856Y0291253D02*
X0131245Y0291253D01*
X0132034Y0292451D02*
X0127844Y0292451D01*
X0127832Y0293650D02*
X0136537Y0293650D01*
X0135597Y0292451D02*
X0135595Y0292451D01*
X0137397Y0291965D02*
X0146058Y0300626D01*
X0156216Y0300626D01*
X0164365Y0300626D01*
X0164602Y0300862D01*
X0163844Y0293650D02*
X0141628Y0293650D01*
X0143469Y0292451D02*
X0163312Y0292451D01*
X0156216Y0300626D02*
X0158224Y0302634D01*
X0158224Y0318382D01*
X0156381Y0316422D02*
X0150086Y0316422D01*
X0149896Y0315223D02*
X0156424Y0315223D01*
X0156424Y0314024D02*
X0149008Y0314024D01*
X0146770Y0312826D02*
X0156424Y0312826D01*
X0156424Y0311627D02*
X0146138Y0311627D01*
X0142041Y0311627D02*
X0138745Y0311627D01*
X0139278Y0310429D02*
X0156424Y0310429D01*
X0156424Y0309230D02*
X0139276Y0309230D01*
X0139276Y0308032D02*
X0156424Y0308032D01*
X0156424Y0306833D02*
X0153890Y0306833D01*
X0154801Y0305635D02*
X0156424Y0305635D01*
X0156424Y0304436D02*
X0155007Y0304436D01*
X0154664Y0303238D02*
X0156282Y0303238D01*
X0152318Y0304602D02*
X0150743Y0303028D01*
X0143421Y0303028D01*
X0140919Y0302039D02*
X0140165Y0302039D01*
X0140100Y0300841D02*
X0141804Y0300841D01*
X0142529Y0299642D02*
X0139389Y0299642D01*
X0141331Y0298444D02*
X0133946Y0298444D01*
X0135321Y0299642D02*
X0135562Y0299642D01*
X0137476Y0301531D02*
X0137476Y0310350D01*
X0133460Y0314589D01*
X0133526Y0325850D01*
X0136373Y0330035D01*
X0139326Y0326925D02*
X0139326Y0336200D01*
X0130485Y0345041D01*
X0128742Y0346384D02*
X0128095Y0346384D01*
X0128168Y0345593D02*
X0128095Y0345491D01*
X0128095Y0351025D01*
X0128574Y0351504D01*
X0128984Y0352493D01*
X0128984Y0353562D01*
X0128574Y0354551D01*
X0127818Y0355307D01*
X0127699Y0355356D01*
X0143786Y0354558D01*
X0143031Y0353803D01*
X0142899Y0353486D01*
X0141383Y0353486D01*
X0141383Y0349533D01*
X0140183Y0349533D01*
X0140183Y0353486D01*
X0138131Y0353486D01*
X0137724Y0353377D01*
X0137359Y0353166D01*
X0137061Y0352868D01*
X0136851Y0352503D01*
X0136845Y0352481D01*
X0136240Y0353086D01*
X0130364Y0353086D01*
X0129661Y0352383D01*
X0129661Y0347655D01*
X0128168Y0345593D01*
X0126295Y0345350D02*
X0125507Y0344563D01*
X0126295Y0345350D02*
X0126295Y0353028D01*
X0128248Y0351178D02*
X0129661Y0351178D01*
X0129661Y0349980D02*
X0128095Y0349980D01*
X0128095Y0348781D02*
X0129661Y0348781D01*
X0129609Y0347583D02*
X0128095Y0347583D01*
X0128936Y0352377D02*
X0129661Y0352377D01*
X0128978Y0353575D02*
X0142937Y0353575D01*
X0141383Y0352377D02*
X0140183Y0352377D01*
X0140183Y0351178D02*
X0141383Y0351178D01*
X0140783Y0350272D02*
X0140783Y0348933D01*
X0140783Y0339406D01*
X0141846Y0338343D01*
X0141126Y0336945D02*
X0133291Y0344780D01*
X0136240Y0344780D01*
X0136845Y0345385D01*
X0136851Y0345363D01*
X0137061Y0344998D01*
X0137359Y0344700D01*
X0137724Y0344489D01*
X0138131Y0344380D01*
X0140183Y0344380D01*
X0140183Y0348333D01*
X0141383Y0348333D01*
X0141383Y0344380D01*
X0143434Y0344380D01*
X0143510Y0344401D01*
X0143510Y0334874D01*
X0142617Y0335244D01*
X0141547Y0335244D01*
X0141126Y0335070D01*
X0141126Y0335454D01*
X0141126Y0336945D01*
X0141126Y0336796D02*
X0143510Y0336796D01*
X0143510Y0335598D02*
X0141126Y0335598D01*
X0140076Y0337995D02*
X0143510Y0337995D01*
X0143510Y0339193D02*
X0138878Y0339193D01*
X0137679Y0340392D02*
X0143510Y0340392D01*
X0143510Y0341590D02*
X0136481Y0341590D01*
X0135282Y0342789D02*
X0143510Y0342789D01*
X0143510Y0343987D02*
X0134084Y0343987D01*
X0136646Y0345186D02*
X0136953Y0345186D01*
X0140183Y0345186D02*
X0141383Y0345186D01*
X0141383Y0346384D02*
X0140183Y0346384D01*
X0140183Y0347583D02*
X0141383Y0347583D01*
X0141383Y0349980D02*
X0140183Y0349980D01*
X0140783Y0350272D02*
X0137239Y0353815D01*
X0139430Y0354774D02*
X0128351Y0354774D01*
X0113856Y0353575D02*
X0112977Y0353575D01*
X0097361Y0370355D02*
X0096341Y0370355D01*
X0096297Y0371553D02*
X0098559Y0371553D01*
X0099758Y0372752D02*
X0095610Y0372752D01*
X0094827Y0373950D02*
X0100956Y0373950D01*
X0102155Y0375149D02*
X0094827Y0375149D01*
X0095714Y0369156D02*
X0096162Y0369156D01*
X0089046Y0371553D02*
X0087759Y0371553D01*
X0087848Y0370355D02*
X0086561Y0370355D01*
X0070576Y0397920D02*
X0117235Y0397920D01*
X0113288Y0399119D02*
X0108081Y0399119D01*
X0109279Y0400317D02*
X0112089Y0400317D01*
X0110891Y0401516D02*
X0110478Y0401516D01*
X0119652Y0421891D02*
X0060463Y0421891D01*
X0060463Y0423089D02*
X0118898Y0423089D01*
X0118802Y0424288D02*
X0060463Y0424288D01*
X0060463Y0425486D02*
X0119320Y0425486D01*
X0141806Y0387831D02*
X0141176Y0387201D01*
X0141176Y0379209D01*
X0142188Y0378744D02*
X0138703Y0378744D01*
X0137562Y0379943D02*
X0142320Y0379943D01*
X0143125Y0381141D02*
X0136422Y0381141D01*
X0135281Y0382340D02*
X0146496Y0382340D01*
X0146533Y0383538D02*
X0135102Y0383538D01*
X0139844Y0377546D02*
X0142619Y0377546D01*
X0144877Y0379091D02*
X0145861Y0378106D01*
X0145861Y0372555D01*
X0143302Y0371295D02*
X0142987Y0371634D01*
X0143302Y0371295D02*
X0193066Y0321531D01*
X0191469Y0320017D02*
X0189417Y0320017D01*
X0189198Y0321216D02*
X0190837Y0321216D01*
X0189638Y0322414D02*
X0188270Y0322414D01*
X0188440Y0323613D02*
X0185958Y0323613D01*
X0185125Y0324811D02*
X0187241Y0324811D01*
X0189085Y0318819D02*
X0197945Y0318819D01*
X0197677Y0317620D02*
X0188728Y0317620D01*
X0188728Y0316422D02*
X0197677Y0316422D01*
X0197677Y0315223D02*
X0188728Y0315223D01*
X0188728Y0314024D02*
X0197677Y0314024D01*
X0197677Y0312826D02*
X0188728Y0312826D01*
X0189657Y0311627D02*
X0197677Y0311627D01*
X0197677Y0310429D02*
X0190855Y0310429D01*
X0192054Y0309230D02*
X0197677Y0309230D01*
X0197677Y0308032D02*
X0193252Y0308032D01*
X0194451Y0306833D02*
X0197677Y0306833D01*
X0197411Y0305635D02*
X0195649Y0305635D01*
X0196848Y0304436D02*
X0197188Y0304436D01*
X0181621Y0304436D02*
X0179148Y0304436D01*
X0179148Y0305635D02*
X0181621Y0305635D01*
X0181621Y0306833D02*
X0179148Y0306833D01*
X0179148Y0308032D02*
X0181621Y0308032D01*
X0181621Y0309230D02*
X0179148Y0309230D01*
X0179148Y0310429D02*
X0181621Y0310429D01*
X0181621Y0311627D02*
X0180469Y0311627D01*
X0181147Y0312826D02*
X0181621Y0312826D01*
X0181621Y0314024D02*
X0181176Y0314024D01*
X0181621Y0315223D02*
X0180540Y0315223D01*
X0183421Y0322713D02*
X0183421Y0294366D01*
X0176137Y0287083D01*
X0174107Y0288856D02*
X0171495Y0288856D01*
X0172112Y0290054D02*
X0176563Y0290054D01*
X0178810Y0276812D02*
X0178666Y0276701D01*
X0178054Y0276089D01*
X0177527Y0275403D01*
X0177095Y0274654D01*
X0176764Y0273854D01*
X0176540Y0273019D01*
X0176449Y0272328D01*
X0182427Y0272328D01*
X0182427Y0271128D01*
X0183627Y0271128D01*
X0183627Y0265991D01*
X0160265Y0242629D01*
X0128337Y0242629D01*
X0128337Y0253224D01*
X0128815Y0252746D01*
X0130347Y0252111D01*
X0132006Y0252111D01*
X0133538Y0252746D01*
X0134053Y0253261D01*
X0142677Y0244636D01*
X0143966Y0243347D01*
X0156030Y0243347D01*
X0156110Y0243268D01*
X0157098Y0242858D01*
X0158168Y0242858D01*
X0159156Y0243268D01*
X0159913Y0244024D01*
X0160322Y0245012D01*
X0160322Y0246082D01*
X0159913Y0247070D01*
X0159156Y0247827D01*
X0158168Y0248236D01*
X0157098Y0248236D01*
X0156110Y0247827D01*
X0156030Y0247747D01*
X0145789Y0247747D01*
X0141425Y0252111D01*
X0142006Y0252111D01*
X0143538Y0252746D01*
X0144710Y0253918D01*
X0145345Y0255450D01*
X0145345Y0263046D01*
X0144710Y0264578D01*
X0143538Y0265750D01*
X0142006Y0266385D01*
X0141425Y0266385D01*
X0154354Y0279314D01*
X0154354Y0278477D01*
X0154763Y0277489D01*
X0155519Y0276732D01*
X0156508Y0276323D01*
X0157577Y0276323D01*
X0158566Y0276732D01*
X0158645Y0276812D01*
X0178810Y0276812D01*
X0177734Y0275672D02*
X0150712Y0275672D01*
X0151910Y0276871D02*
X0155381Y0276871D01*
X0154523Y0278069D02*
X0153109Y0278069D01*
X0154307Y0279268D02*
X0154354Y0279268D01*
X0149283Y0280466D02*
X0140802Y0280466D01*
X0140802Y0279268D02*
X0148085Y0279268D01*
X0146886Y0278069D02*
X0140802Y0278069D01*
X0140802Y0276871D02*
X0145688Y0276871D01*
X0144489Y0275672D02*
X0140802Y0275672D01*
X0140501Y0274474D02*
X0143291Y0274474D01*
X0142092Y0273275D02*
X0129417Y0273275D01*
X0128337Y0272077D02*
X0140894Y0272077D01*
X0139695Y0270878D02*
X0128337Y0270878D01*
X0128337Y0269680D02*
X0132100Y0269680D01*
X0131156Y0268481D02*
X0128337Y0268481D01*
X0128337Y0267283D02*
X0130928Y0267283D01*
X0129621Y0266084D02*
X0128337Y0266084D01*
X0123937Y0269680D02*
X0123819Y0269680D01*
X0123937Y0270878D02*
X0120847Y0270878D01*
X0122348Y0272077D02*
X0123937Y0272077D01*
X0130616Y0274474D02*
X0134766Y0274474D01*
X0134465Y0280466D02*
X0130747Y0280466D01*
X0133893Y0285508D02*
X0137397Y0289012D01*
X0137397Y0291965D01*
X0137735Y0294848D02*
X0127820Y0294848D01*
X0127808Y0296047D02*
X0138934Y0296047D01*
X0140132Y0297245D02*
X0127797Y0297245D01*
X0127785Y0298444D02*
X0131950Y0298444D01*
X0130575Y0299642D02*
X0127773Y0299642D01*
X0127761Y0300841D02*
X0130259Y0300841D01*
X0130493Y0302039D02*
X0127749Y0302039D01*
X0127737Y0303238D02*
X0131096Y0303238D01*
X0131070Y0304436D02*
X0127726Y0304436D01*
X0127714Y0305635D02*
X0131043Y0305635D01*
X0131016Y0306833D02*
X0127702Y0306833D01*
X0127690Y0308032D02*
X0130989Y0308032D01*
X0130572Y0309230D02*
X0127678Y0309230D01*
X0127667Y0310429D02*
X0127807Y0310429D01*
X0129956Y0312083D02*
X0132751Y0309760D01*
X0132948Y0300941D01*
X0139276Y0304436D02*
X0141094Y0304436D01*
X0140732Y0303238D02*
X0139572Y0303238D01*
X0139276Y0305635D02*
X0142689Y0305635D01*
X0144152Y0305635D02*
X0149835Y0305635D01*
X0150746Y0306833D02*
X0139276Y0306833D01*
X0137610Y0312826D02*
X0141410Y0312826D01*
X0141043Y0314024D02*
X0136475Y0314024D01*
X0135339Y0315223D02*
X0139845Y0315223D01*
X0138646Y0316422D02*
X0135271Y0316422D01*
X0135278Y0317620D02*
X0137448Y0317620D01*
X0136249Y0318819D02*
X0135285Y0318819D01*
X0135292Y0320017D02*
X0135500Y0320017D01*
X0143582Y0322414D02*
X0160039Y0322414D01*
X0160039Y0321216D02*
X0144519Y0321216D01*
X0145718Y0320017D02*
X0156056Y0320017D01*
X0155535Y0318819D02*
X0148142Y0318819D01*
X0149726Y0317620D02*
X0155629Y0317620D01*
X0160039Y0323613D02*
X0146296Y0323613D01*
X0147648Y0324811D02*
X0160039Y0324811D01*
X0160039Y0326010D02*
X0147960Y0326010D01*
X0147722Y0327208D02*
X0160039Y0327208D01*
X0160039Y0328407D02*
X0147110Y0328407D01*
X0147110Y0329605D02*
X0160039Y0329605D01*
X0160039Y0330804D02*
X0147110Y0330804D01*
X0147110Y0332002D02*
X0160039Y0332002D01*
X0160039Y0333201D02*
X0156387Y0333201D01*
X0157696Y0334399D02*
X0160039Y0334399D01*
X0160039Y0335598D02*
X0157999Y0335598D01*
X0157752Y0336796D02*
X0160039Y0336796D01*
X0160039Y0337995D02*
X0156910Y0337995D01*
X0156910Y0339193D02*
X0160039Y0339193D01*
X0160039Y0340392D02*
X0156910Y0340392D01*
X0156910Y0341590D02*
X0160039Y0341590D01*
X0160039Y0342789D02*
X0156910Y0342789D01*
X0156910Y0343987D02*
X0160363Y0343987D01*
X0161185Y0345186D02*
X0156910Y0345186D01*
X0156910Y0346384D02*
X0161416Y0346384D01*
X0160217Y0347583D02*
X0156482Y0347583D01*
X0155284Y0348781D02*
X0159019Y0348781D01*
X0157820Y0349980D02*
X0154085Y0349980D01*
X0155417Y0351178D02*
X0156622Y0351178D01*
X0153155Y0346384D02*
X0147110Y0346384D01*
X0147110Y0345186D02*
X0153710Y0345186D01*
X0153710Y0343987D02*
X0147110Y0343987D01*
X0147110Y0342789D02*
X0153710Y0342789D01*
X0153710Y0341590D02*
X0147110Y0341590D01*
X0147110Y0340392D02*
X0153710Y0340392D01*
X0153710Y0339193D02*
X0147110Y0339193D01*
X0147110Y0337995D02*
X0153710Y0337995D01*
X0152868Y0336796D02*
X0147110Y0336796D01*
X0147110Y0335598D02*
X0152621Y0335598D01*
X0152924Y0334399D02*
X0147110Y0334399D01*
X0147110Y0333201D02*
X0154234Y0333201D01*
X0145310Y0326138D02*
X0145271Y0326098D01*
X0145310Y0326138D02*
X0145310Y0352280D01*
X0147110Y0349980D02*
X0149560Y0349980D01*
X0150758Y0348781D02*
X0147110Y0348781D01*
X0147110Y0347583D02*
X0151957Y0347583D01*
X0149431Y0358369D02*
X0147675Y0358369D01*
X0150468Y0380232D02*
X0156846Y0380232D01*
X0168302Y0389957D02*
X0169444Y0391098D01*
X0169046Y0394325D02*
X0179944Y0394325D01*
X0179736Y0400317D02*
X0222984Y0400317D01*
X0224236Y0399024D02*
X0223319Y0398106D01*
X0174129Y0398106D01*
X0179348Y0405111D02*
X0191226Y0405111D01*
X0192425Y0406310D02*
X0183637Y0406310D01*
X0184836Y0407508D02*
X0187768Y0407508D01*
X0186569Y0408707D02*
X0186034Y0408707D01*
X0181458Y0408707D02*
X0180658Y0408707D01*
X0180658Y0409905D02*
X0181458Y0409905D01*
X0181458Y0411104D02*
X0180658Y0411104D01*
X0180658Y0407508D02*
X0181458Y0407508D01*
X0181458Y0406310D02*
X0180658Y0406310D01*
X0185437Y0415898D02*
X0187009Y0415898D01*
X0188207Y0417096D02*
X0184239Y0417096D01*
X0180246Y0429082D02*
X0236417Y0429082D01*
X0236417Y0430280D02*
X0180985Y0430280D01*
X0181070Y0431479D02*
X0236417Y0431479D01*
X0236417Y0432677D02*
X0180527Y0432677D01*
X0173154Y0444662D02*
X0216051Y0444662D01*
X0216223Y0444538D02*
X0216864Y0444211D01*
X0217548Y0443989D01*
X0218233Y0443880D01*
X0218233Y0451029D01*
X0219002Y0451029D01*
X0219002Y0451798D01*
X0223186Y0451798D01*
X0223186Y0454741D01*
X0223073Y0455452D01*
X0222851Y0456136D01*
X0222525Y0456776D01*
X0222102Y0457358D01*
X0221594Y0457867D01*
X0221012Y0458289D01*
X0220371Y0458616D01*
X0219687Y0458838D01*
X0219002Y0458946D01*
X0219002Y0451798D01*
X0218233Y0451798D01*
X0218233Y0451029D01*
X0214049Y0451029D01*
X0214049Y0448085D01*
X0214161Y0447375D01*
X0214384Y0446691D01*
X0214710Y0446050D01*
X0215133Y0445469D01*
X0215641Y0444960D01*
X0216223Y0444538D01*
X0214848Y0445861D02*
X0174353Y0445861D01*
X0174914Y0447059D02*
X0214264Y0447059D01*
X0214049Y0448258D02*
X0175408Y0448258D01*
X0175408Y0449456D02*
X0214049Y0449456D01*
X0214049Y0450655D02*
X0175408Y0450655D01*
X0174937Y0451853D02*
X0214049Y0451853D01*
X0214049Y0453052D02*
X0174409Y0453052D01*
X0173210Y0454250D02*
X0214049Y0454250D01*
X0214161Y0455449D02*
X0171010Y0455449D01*
X0190287Y0441067D02*
X0205255Y0441067D01*
X0218233Y0444662D02*
X0219002Y0444662D01*
X0219002Y0443880D02*
X0219687Y0443989D01*
X0220371Y0444211D01*
X0221012Y0444538D01*
X0221594Y0444960D01*
X0222102Y0445469D01*
X0222525Y0446050D01*
X0222851Y0446691D01*
X0223073Y0447375D01*
X0223186Y0448085D01*
X0223186Y0451029D01*
X0219002Y0451029D01*
X0219002Y0443880D01*
X0219002Y0445861D02*
X0218233Y0445861D01*
X0218233Y0447059D02*
X0219002Y0447059D01*
X0219002Y0448258D02*
X0218233Y0448258D01*
X0218233Y0449456D02*
X0219002Y0449456D01*
X0219002Y0450655D02*
X0218233Y0450655D01*
X0218233Y0451853D02*
X0219002Y0451853D01*
X0219002Y0453052D02*
X0218233Y0453052D01*
X0218233Y0454250D02*
X0219002Y0454250D01*
X0219002Y0455449D02*
X0218233Y0455449D01*
X0218233Y0456647D02*
X0219002Y0456647D01*
X0219002Y0457846D02*
X0218233Y0457846D01*
X0221614Y0457846D02*
X0226186Y0457846D01*
X0225044Y0456647D02*
X0222590Y0456647D01*
X0223074Y0455449D02*
X0224547Y0455449D01*
X0224449Y0454250D02*
X0223186Y0454250D01*
X0223186Y0453052D02*
X0224449Y0453052D01*
X0224449Y0451853D02*
X0223186Y0451853D01*
X0223186Y0450655D02*
X0224449Y0450655D01*
X0224449Y0449456D02*
X0223186Y0449456D01*
X0223186Y0448258D02*
X0224449Y0448258D01*
X0224679Y0447059D02*
X0222971Y0447059D01*
X0222387Y0445861D02*
X0225306Y0445861D01*
X0226857Y0444662D02*
X0221183Y0444662D01*
X0234369Y0412302D02*
X0249066Y0412302D01*
X0250264Y0411104D02*
X0234613Y0411104D01*
X0234308Y0409905D02*
X0251463Y0409905D01*
X0251929Y0408707D02*
X0232987Y0408707D01*
X0232384Y0405111D02*
X0251929Y0405111D01*
X0251929Y0403913D02*
X0232960Y0403913D01*
X0232889Y0402714D02*
X0251929Y0402714D01*
X0251929Y0401516D02*
X0232168Y0401516D01*
X0230271Y0403421D02*
X0225873Y0399024D01*
X0224236Y0399024D01*
X0225820Y0401516D02*
X0192722Y0401516D01*
X0193921Y0402714D02*
X0227018Y0402714D01*
X0227582Y0403913D02*
X0195119Y0403913D01*
X0196318Y0405111D02*
X0228158Y0405111D01*
X0229713Y0400317D02*
X0251929Y0400317D01*
X0251929Y0399119D02*
X0228514Y0399119D01*
X0227567Y0397920D02*
X0235998Y0397920D01*
X0234792Y0396722D02*
X0228039Y0396722D01*
X0227924Y0395523D02*
X0234511Y0395523D01*
X0234780Y0394325D02*
X0227143Y0394325D01*
X0227131Y0393126D02*
X0227309Y0393126D01*
X0227220Y0392890D02*
X0227220Y0388429D01*
X0227131Y0388332D02*
X0227309Y0388332D01*
X0227309Y0387134D02*
X0227131Y0387134D01*
X0227131Y0385935D02*
X0227309Y0385935D01*
X0227309Y0384737D02*
X0227131Y0384737D01*
X0227131Y0383538D02*
X0227309Y0383538D01*
X0229759Y0383538D02*
X0230246Y0383538D01*
X0227309Y0389531D02*
X0227131Y0389531D01*
X0227131Y0390729D02*
X0227309Y0390729D01*
X0227309Y0391928D02*
X0227131Y0391928D01*
X0227220Y0392890D02*
X0231058Y0396728D01*
X0230052Y0393126D02*
X0229921Y0393126D01*
X0234387Y0393126D02*
X0235000Y0393126D01*
X0238403Y0397920D02*
X0251929Y0397920D01*
X0251929Y0396722D02*
X0239608Y0396722D01*
X0239889Y0395523D02*
X0251203Y0395523D01*
X0250004Y0394325D02*
X0239621Y0394325D01*
X0239400Y0393126D02*
X0240052Y0393126D01*
X0244387Y0393126D02*
X0245052Y0393126D01*
X0245246Y0383538D02*
X0244193Y0383538D01*
X0240246Y0383538D02*
X0239420Y0383538D01*
X0252953Y0376347D02*
X0224718Y0376347D01*
X0223911Y0375149D02*
X0252953Y0375149D01*
X0243073Y0418295D02*
X0060463Y0418295D01*
X0060463Y0419493D02*
X0241875Y0419493D01*
X0240676Y0420692D02*
X0060463Y0420692D01*
X0115625Y0307831D02*
X0111885Y0302201D01*
X0111885Y0294602D01*
X0118683Y0266084D02*
X0119418Y0266084D01*
X0117950Y0264886D02*
X0117484Y0264886D01*
X0117274Y0263687D02*
X0116286Y0263687D01*
X0115935Y0262488D02*
X0117008Y0262488D01*
X0117008Y0261290D02*
X0115935Y0261290D01*
X0115935Y0260091D02*
X0117008Y0260091D01*
X0117008Y0258893D02*
X0115935Y0258893D01*
X0115935Y0257694D02*
X0117008Y0257694D01*
X0117008Y0256496D02*
X0115935Y0256496D01*
X0115935Y0255297D02*
X0117071Y0255297D01*
X0117568Y0254099D02*
X0115935Y0254099D01*
X0115935Y0252900D02*
X0118660Y0252900D01*
X0115935Y0251702D02*
X0123937Y0251702D01*
X0123937Y0252900D02*
X0123692Y0252900D01*
X0123937Y0250503D02*
X0115935Y0250503D01*
X0115935Y0249305D02*
X0123937Y0249305D01*
X0123937Y0248106D02*
X0115935Y0248106D01*
X0115935Y0246908D02*
X0123937Y0246908D01*
X0123937Y0245709D02*
X0115935Y0245709D01*
X0115220Y0244511D02*
X0123937Y0244511D01*
X0123937Y0243312D02*
X0114021Y0243312D01*
X0115066Y0242114D02*
X0123937Y0242114D01*
X0123448Y0240915D02*
X0115773Y0240915D01*
X0115834Y0239717D02*
X0123522Y0239717D01*
X0124245Y0238518D02*
X0115234Y0238518D01*
X0113344Y0237320D02*
X0155052Y0237320D01*
X0154386Y0236121D02*
X0112145Y0236121D01*
X0110947Y0234923D02*
X0154374Y0234923D01*
X0155023Y0233724D02*
X0109748Y0233724D01*
X0108550Y0232526D02*
X0237031Y0232526D01*
X0237155Y0231327D02*
X0107351Y0231327D01*
X0106153Y0230129D02*
X0237950Y0230129D01*
X0237480Y0233724D02*
X0159062Y0233724D01*
X0159201Y0243312D02*
X0160948Y0243312D01*
X0160114Y0244511D02*
X0162147Y0244511D01*
X0163345Y0245709D02*
X0160322Y0245709D01*
X0159980Y0246908D02*
X0164544Y0246908D01*
X0165742Y0248106D02*
X0158481Y0248106D01*
X0156785Y0248106D02*
X0145429Y0248106D01*
X0144231Y0249305D02*
X0166941Y0249305D01*
X0168139Y0250503D02*
X0143032Y0250503D01*
X0141834Y0251702D02*
X0169338Y0251702D01*
X0170536Y0252900D02*
X0153692Y0252900D01*
X0153538Y0252746D02*
X0154710Y0253918D01*
X0155345Y0255450D01*
X0155345Y0263046D01*
X0154710Y0264578D01*
X0153538Y0265750D01*
X0152006Y0266385D01*
X0150347Y0266385D01*
X0148815Y0265750D01*
X0147643Y0264578D01*
X0147008Y0263046D01*
X0147008Y0255450D01*
X0147643Y0253918D01*
X0148815Y0252746D01*
X0150347Y0252111D01*
X0152006Y0252111D01*
X0153538Y0252746D01*
X0154785Y0254099D02*
X0171735Y0254099D01*
X0172933Y0255297D02*
X0155282Y0255297D01*
X0155345Y0256496D02*
X0174132Y0256496D01*
X0175331Y0257694D02*
X0155345Y0257694D01*
X0155345Y0258893D02*
X0176529Y0258893D01*
X0177728Y0260091D02*
X0155345Y0260091D01*
X0155345Y0261290D02*
X0178926Y0261290D01*
X0180125Y0262488D02*
X0155345Y0262488D01*
X0155079Y0263687D02*
X0181323Y0263687D01*
X0181736Y0265241D02*
X0180901Y0265465D01*
X0180101Y0265796D01*
X0179352Y0266229D01*
X0178666Y0266756D01*
X0178054Y0267367D01*
X0177527Y0268054D01*
X0177095Y0268803D01*
X0176764Y0269602D01*
X0176540Y0270438D01*
X0176449Y0271128D01*
X0182427Y0271128D01*
X0182427Y0265150D01*
X0181736Y0265241D01*
X0182522Y0264886D02*
X0154403Y0264886D01*
X0152732Y0266084D02*
X0179603Y0266084D01*
X0178139Y0267283D02*
X0142322Y0267283D01*
X0142732Y0266084D02*
X0149621Y0266084D01*
X0147950Y0264886D02*
X0144403Y0264886D01*
X0145079Y0263687D02*
X0147274Y0263687D01*
X0147008Y0262488D02*
X0145345Y0262488D01*
X0145345Y0261290D02*
X0147008Y0261290D01*
X0147008Y0260091D02*
X0145345Y0260091D01*
X0145345Y0258893D02*
X0147008Y0258893D01*
X0147008Y0257694D02*
X0145345Y0257694D01*
X0145345Y0256496D02*
X0147008Y0256496D01*
X0147071Y0255297D02*
X0145282Y0255297D01*
X0144785Y0254099D02*
X0147568Y0254099D01*
X0148660Y0252900D02*
X0143692Y0252900D01*
X0140405Y0246908D02*
X0128337Y0246908D01*
X0128337Y0248106D02*
X0139207Y0248106D01*
X0138008Y0249305D02*
X0128337Y0249305D01*
X0128337Y0250503D02*
X0136810Y0250503D01*
X0135611Y0251702D02*
X0128337Y0251702D01*
X0128337Y0252900D02*
X0128660Y0252900D01*
X0133692Y0252900D02*
X0134413Y0252900D01*
X0128337Y0245709D02*
X0141604Y0245709D01*
X0142802Y0244511D02*
X0128337Y0244511D01*
X0128337Y0243312D02*
X0156065Y0243312D01*
X0143521Y0268481D02*
X0177281Y0268481D01*
X0176743Y0269680D02*
X0144719Y0269680D01*
X0145918Y0270878D02*
X0176482Y0270878D01*
X0176608Y0273275D02*
X0148315Y0273275D01*
X0149513Y0274474D02*
X0177020Y0274474D01*
X0182427Y0272077D02*
X0147116Y0272077D01*
X0138497Y0269680D02*
X0135135Y0269680D01*
X0136079Y0268481D02*
X0137298Y0268481D01*
X0137061Y0282863D02*
X0138205Y0282863D01*
X0138205Y0284062D02*
X0137061Y0284062D01*
X0137061Y0285260D02*
X0138205Y0285260D01*
X0138205Y0286459D02*
X0137389Y0286459D01*
X0143582Y0323613D02*
X0144246Y0323613D01*
X0171441Y0303238D02*
X0181621Y0303238D01*
X0187940Y0280355D02*
X0188060Y0280355D01*
X0192244Y0276171D01*
X0192244Y0271826D01*
X0192030Y0272039D01*
X0191042Y0272449D01*
X0189972Y0272449D01*
X0188984Y0272039D01*
X0188228Y0271283D01*
X0188163Y0271128D01*
X0183627Y0271128D01*
X0183627Y0272328D01*
X0189605Y0272328D01*
X0189514Y0273019D01*
X0189290Y0273854D01*
X0188959Y0274654D01*
X0188526Y0275403D01*
X0188000Y0276089D01*
X0187388Y0276701D01*
X0187213Y0276836D01*
X0187865Y0277489D01*
X0188275Y0278477D01*
X0188275Y0279547D01*
X0187940Y0280355D01*
X0188275Y0279268D02*
X0189148Y0279268D01*
X0188106Y0278069D02*
X0190346Y0278069D01*
X0191545Y0276871D02*
X0187247Y0276871D01*
X0188320Y0275672D02*
X0192244Y0275672D01*
X0192244Y0274474D02*
X0189034Y0274474D01*
X0189445Y0273275D02*
X0192244Y0273275D01*
X0192244Y0272077D02*
X0191941Y0272077D01*
X0189074Y0272077D02*
X0183627Y0272077D01*
X0183627Y0270878D02*
X0182427Y0270878D01*
X0182427Y0269680D02*
X0183627Y0269680D01*
X0183627Y0268481D02*
X0182427Y0268481D01*
X0182427Y0267283D02*
X0183627Y0267283D01*
X0183627Y0266084D02*
X0182427Y0266084D01*
X0213460Y0288657D02*
X0222594Y0288657D01*
X0229720Y0281531D01*
X0229720Y0275783D01*
X0228302Y0274366D01*
X0228302Y0270469D01*
X0222120Y0264980D02*
X0221403Y0265697D01*
X0220390Y0265697D01*
X0217474Y0262781D01*
X0217474Y0258013D01*
X0223128Y0252358D01*
X0228302Y0252358D01*
X0235283Y0226533D02*
X0242237Y0226533D01*
X0243435Y0225335D02*
X0236871Y0225335D01*
X0237584Y0224136D02*
X0244634Y0224136D01*
X0245394Y0222938D02*
X0237942Y0222938D01*
X0237942Y0221739D02*
X0245394Y0221739D01*
X0245394Y0220541D02*
X0237942Y0220541D01*
X0237942Y0219342D02*
X0245394Y0219342D01*
X0245394Y0218144D02*
X0237942Y0218144D01*
X0237942Y0216945D02*
X0245394Y0216945D01*
X0245394Y0215747D02*
X0237942Y0215747D01*
X0237942Y0214548D02*
X0245394Y0214548D01*
X0245394Y0213350D02*
X0237942Y0213350D01*
X0237942Y0212151D02*
X0245394Y0212151D01*
X0245394Y0210953D02*
X0237942Y0210953D01*
X0237942Y0209754D02*
X0245394Y0209754D01*
X0245394Y0208555D02*
X0237942Y0208555D01*
X0237942Y0207357D02*
X0245394Y0207357D01*
X0245394Y0206158D02*
X0237942Y0206158D01*
X0237942Y0204960D02*
X0245394Y0204960D01*
X0245394Y0203761D02*
X0237942Y0203761D01*
X0237942Y0202563D02*
X0245394Y0202563D01*
X0245394Y0201364D02*
X0237942Y0201364D01*
X0237942Y0200166D02*
X0245394Y0200166D01*
X0245394Y0198967D02*
X0237942Y0198967D01*
X0237942Y0197769D02*
X0245394Y0197769D01*
X0245394Y0196570D02*
X0237942Y0196570D01*
X0237942Y0195372D02*
X0245394Y0195372D01*
X0245394Y0194173D02*
X0237942Y0194173D01*
X0237942Y0192975D02*
X0245394Y0192975D01*
X0245394Y0191776D02*
X0237942Y0191776D01*
X0237942Y0190578D02*
X0245394Y0190578D01*
X0245394Y0189379D02*
X0237942Y0189379D01*
X0237942Y0188181D02*
X0245394Y0188181D01*
X0245394Y0186982D02*
X0237942Y0186982D01*
X0237942Y0185784D02*
X0245394Y0185784D01*
X0245394Y0184585D02*
X0237942Y0184585D01*
X0237942Y0183387D02*
X0245394Y0183387D01*
X0245394Y0182188D02*
X0237942Y0182188D01*
X0237942Y0180990D02*
X0245394Y0180990D01*
X0245394Y0179791D02*
X0237942Y0179791D01*
X0237942Y0178593D02*
X0245394Y0178593D01*
X0245394Y0177394D02*
X0237942Y0177394D01*
X0237942Y0176196D02*
X0245394Y0176196D01*
X0245394Y0174997D02*
X0237942Y0174997D01*
X0237942Y0173799D02*
X0245394Y0173799D01*
X0245394Y0172600D02*
X0237942Y0172600D01*
X0237942Y0171402D02*
X0245394Y0171402D01*
X0245394Y0170203D02*
X0237942Y0170203D01*
X0237942Y0169005D02*
X0245394Y0169005D01*
X0245394Y0167806D02*
X0237942Y0167806D01*
X0237942Y0166608D02*
X0245394Y0166608D01*
X0245394Y0165409D02*
X0237942Y0165409D01*
X0237942Y0164211D02*
X0245394Y0164211D01*
X0245394Y0163012D02*
X0237942Y0163012D01*
X0237942Y0161814D02*
X0245394Y0161814D01*
X0245394Y0160615D02*
X0237942Y0160615D01*
X0237942Y0159417D02*
X0245394Y0159417D01*
X0245394Y0158218D02*
X0237942Y0158218D01*
X0237942Y0157020D02*
X0245394Y0157020D01*
X0245394Y0155821D02*
X0237942Y0155821D01*
X0237942Y0154622D02*
X0245394Y0154622D01*
X0245394Y0153424D02*
X0237942Y0153424D01*
X0237942Y0152225D02*
X0245394Y0152225D01*
X0245394Y0151027D02*
X0237942Y0151027D01*
X0237942Y0149828D02*
X0245394Y0149828D01*
X0245394Y0148630D02*
X0237942Y0148630D01*
X0237942Y0147431D02*
X0245394Y0147431D01*
X0245394Y0146233D02*
X0237942Y0146233D01*
X0237942Y0145034D02*
X0245394Y0145034D01*
X0245394Y0143836D02*
X0237942Y0143836D01*
X0237942Y0142637D02*
X0245394Y0142637D01*
X0245394Y0141439D02*
X0237942Y0141439D01*
X0237942Y0140240D02*
X0245394Y0140240D01*
X0245394Y0139042D02*
X0237942Y0139042D01*
X0237942Y0137843D02*
X0245394Y0137843D01*
X0245394Y0136645D02*
X0237942Y0136645D01*
X0237942Y0135446D02*
X0245394Y0135446D01*
X0245394Y0134248D02*
X0237942Y0134248D01*
X0237942Y0133049D02*
X0245394Y0133049D01*
X0245394Y0131851D02*
X0237942Y0131851D01*
X0237942Y0130652D02*
X0245394Y0130652D01*
X0245394Y0129454D02*
X0237942Y0129454D01*
X0237942Y0128255D02*
X0245394Y0128255D01*
X0245394Y0127057D02*
X0237942Y0127057D01*
X0237942Y0125858D02*
X0245394Y0125858D01*
X0245394Y0124660D02*
X0237942Y0124660D01*
X0237942Y0123461D02*
X0245394Y0123461D01*
X0245394Y0122263D02*
X0237942Y0122263D01*
X0237942Y0121064D02*
X0245394Y0121064D01*
X0245394Y0119866D02*
X0237942Y0119866D01*
X0237770Y0118667D02*
X0245394Y0118667D01*
X0245394Y0117469D02*
X0237274Y0117469D01*
X0236121Y0116270D02*
X0245394Y0116270D01*
X0240280Y0107881D02*
X0235914Y0107881D01*
X0236631Y0106682D02*
X0239082Y0106682D01*
X0237883Y0105484D02*
X0236700Y0105484D01*
X0241772Y0095895D02*
X0148494Y0095895D01*
X0147296Y0094697D02*
X0238409Y0094697D01*
X0237571Y0093498D02*
X0146097Y0093498D01*
X0144899Y0092300D02*
X0237216Y0092300D01*
X0201800Y0101888D02*
X0091298Y0101888D01*
X0090461Y0100689D02*
X0147066Y0100689D01*
X0145867Y0099491D02*
X0089592Y0099491D01*
X0090098Y0097094D02*
X0085641Y0097094D01*
X0084526Y0098209D02*
X0081213Y0098209D01*
X0078869Y0095866D01*
X0078869Y0092552D01*
X0081213Y0090209D01*
X0084526Y0090209D01*
X0086869Y0092552D01*
X0086869Y0095866D01*
X0084526Y0098209D01*
X0086839Y0095895D02*
X0088899Y0095895D01*
X0088869Y0094697D02*
X0086869Y0094697D01*
X0086869Y0093498D02*
X0088869Y0093498D01*
X0089121Y0092300D02*
X0086617Y0092300D01*
X0085419Y0091101D02*
X0090320Y0091101D01*
X0090510Y0087506D02*
X0085229Y0087506D01*
X0084526Y0088209D02*
X0081213Y0088209D01*
X0078869Y0085866D01*
X0078869Y0082552D01*
X0081213Y0080209D01*
X0084526Y0080209D01*
X0086869Y0082552D01*
X0086869Y0085866D01*
X0084526Y0088209D01*
X0086428Y0086307D02*
X0089311Y0086307D01*
X0088869Y0085109D02*
X0086869Y0085109D01*
X0086869Y0083910D02*
X0088869Y0083910D01*
X0088869Y0082712D02*
X0086869Y0082712D01*
X0085831Y0081513D02*
X0089908Y0081513D01*
X0091106Y0080315D02*
X0084632Y0080315D01*
X0081106Y0080315D02*
X0074632Y0080315D01*
X0075831Y0081513D02*
X0079908Y0081513D01*
X0078869Y0082712D02*
X0076869Y0082712D01*
X0076869Y0083910D02*
X0078869Y0083910D01*
X0078869Y0085109D02*
X0076869Y0085109D01*
X0076428Y0086307D02*
X0079311Y0086307D01*
X0080510Y0087506D02*
X0075229Y0087506D01*
X0075419Y0091101D02*
X0080320Y0091101D01*
X0079121Y0092300D02*
X0076617Y0092300D01*
X0076869Y0093498D02*
X0078869Y0093498D01*
X0078869Y0094697D02*
X0076869Y0094697D01*
X0076839Y0095895D02*
X0078899Y0095895D01*
X0080098Y0097094D02*
X0075641Y0097094D01*
X0092496Y0103086D02*
X0201842Y0103086D01*
X0186171Y0091101D02*
X0181780Y0091101D01*
X0182988Y0089903D02*
X0185097Y0089903D01*
X0184558Y0088704D02*
X0183528Y0088704D01*
X0106600Y0242114D02*
X0104391Y0242114D01*
X0104613Y0243312D02*
X0107799Y0243312D01*
X0108997Y0244511D02*
X0104286Y0244511D01*
X0102857Y0245709D02*
X0110196Y0245709D01*
X0111394Y0246908D02*
X0101313Y0246908D01*
X0175066Y0358369D02*
X0175186Y0358369D01*
X0180267Y0357171D02*
X0181192Y0357171D01*
X0181465Y0358369D02*
X0182391Y0358369D01*
X0182664Y0359568D02*
X0183589Y0359568D01*
X0183252Y0360766D02*
X0184788Y0360766D01*
X0185986Y0361965D02*
X0183252Y0361965D01*
X0183252Y0363163D02*
X0187185Y0363163D01*
X0188383Y0364362D02*
X0183252Y0364362D01*
X0186964Y0355390D02*
X0186964Y0347516D01*
X0197200Y0337280D01*
X0213736Y0337280D01*
X0215310Y0335705D01*
X0215310Y0328224D01*
X0216728Y0302004D02*
X0216728Y0299642D01*
X0227909Y0288461D01*
X0221531Y0282083D02*
X0220625Y0281177D01*
X0191295Y0337280D02*
X0191295Y0340429D01*
X0182239Y0349484D01*
X0182239Y0350665D01*
X0191885Y0348303D02*
X0191885Y0354839D01*
X0197987Y0360941D01*
X0204193Y0383538D02*
X0205246Y0383538D01*
X0209193Y0383538D02*
X0210246Y0383538D01*
X0214193Y0383538D02*
X0215246Y0383538D01*
X0219193Y0383538D02*
X0220246Y0383538D01*
X0215052Y0393126D02*
X0214387Y0393126D01*
X0215035Y0364366D02*
X0215035Y0358539D01*
X0214365Y0357870D01*
D35*
X0147397Y0316217D02*
X0142082Y0321531D01*
X0142082Y0332555D01*
D36*
X0155310Y0346492D02*
X0149090Y0352713D01*
X0155310Y0346492D02*
X0155310Y0335665D01*
M02*
